<svg width="120" height="120" viewBox="0 0 120 120" fill="none" xmlns="http://www.w3.org/2000/svg">
<rect width="120" height="120" rx="60" fill="black"/>
<g clip-path="url(#clip0_5653_119433)">
<path d="M69.88 19.0505C72.8466 19.6729 81.3255 21.6975 81.9826 21.8545C82.8879 22.0128 83.5397 23.3857 82.5182 24.2098C78.4108 27.3948 75.7243 33.1066 74.5327 41.1937C73.2178 51.3035 63.0784 57.0467 53.5974 54.4005C50.1606 59.4111 45.2695 62.7978 39.1299 63.8049C37.3802 64.0382 36.9389 61.5592 38.6718 61.1803C43.9089 60.3157 47.9623 57.6269 51.0001 53.4423C44.465 50.4515 41.5157 43.5729 42.5347 36.4255C42.5365 36.4118 42.5385 36.3983 42.5406 36.3847C44.554 23.0412 56.3735 15.9965 69.88 19.0505V19.0505ZM56.1843 52.2207C63.6611 53.3201 70.9077 48.5504 71.898 40.7982C72.8413 34.3965 74.7041 29.3209 77.4524 25.6365C64.3796 29.9226 61.2238 41.4273 55.1336 52.0343C55.4788 52.1082 55.8289 52.1709 56.1843 52.2207ZM52.6622 24.2172C48.4713 27.1014 45.986 31.6563 45.1751 36.7819C44.3381 43.3128 46.8379 48.7251 52.5159 51.2034C59.1392 39.8472 62.1606 28.1408 76.2441 23.2343C67.3247 20.9758 59.7746 19.3818 52.6622 24.2172V24.2172Z" fill="white"/>
</g>
<path d="M34.9596 84.1788C37.7426 84.1788 39.7996 82.1877 39.7996 79.4707C39.7996 76.7538 37.7426 74.7627 34.9596 74.7627C32.1766 74.7627 30.1196 76.7538 30.1196 79.4707C30.1196 82.1877 32.1766 84.1788 34.9596 84.1788ZM34.9596 82.3747C33.3316 82.3747 32.1216 81.1537 32.1216 79.4707C32.1216 77.7767 33.3316 76.5667 34.9596 76.5667C36.5876 76.5667 37.7976 77.7767 37.7976 79.4707C37.7976 81.1537 36.5876 82.3747 34.9596 82.3747ZM48.6453 83.9588L46.5663 80.7357C47.6223 80.2407 48.2053 79.2947 48.2053 78.0627C48.2053 76.2037 46.8743 74.9937 44.5973 74.9937H40.9893V83.9588H42.9913V81.1317H44.5863L46.3243 83.9588H48.6453ZM42.9913 76.7647H44.5093C45.5653 76.7647 46.2033 77.2157 46.2033 78.0627C46.2033 78.9097 45.5653 79.3607 44.5093 79.3607H42.9913V76.7647ZM53.8756 74.7627C51.1146 74.7627 49.0796 76.7538 49.0796 79.4707C49.0796 82.1877 51.1146 84.1788 53.8756 84.1788C56.5926 84.1788 58.6276 82.1877 58.6276 79.4707V78.9427H53.7546V80.6367H56.4936C56.2846 81.5168 55.3166 82.3747 53.9196 82.3747C52.2916 82.3747 51.0816 81.1537 51.0816 79.4707C51.0816 77.7987 52.2916 76.5997 53.9196 76.5997C55.0086 76.5997 55.8556 77.1057 56.2296 77.7657H58.4296C57.9126 76.0827 56.2186 74.7627 53.8756 74.7627ZM65.4959 83.9588H67.7289L64.2529 74.9937H62.1739L58.6979 83.9588H60.7659L61.3929 82.2207H64.8689L65.4959 83.9588ZM62.0089 80.4827L63.1309 77.3587L64.2529 80.4827H62.0089ZM68.6289 83.9588H70.6309V78.4587L75.1079 83.8488H76.7799V74.8837H74.7779V80.3837L70.3009 74.9937H68.6289V83.9588ZM78.3613 74.9937V83.9588H80.3633V74.9937H78.3613ZM86.3492 84.1788C88.8352 84.1788 90.6392 82.4847 90.9142 80.6807H88.8902C88.7362 81.4947 87.6802 82.3417 86.3932 82.3417C84.7652 82.3417 83.5552 81.1317 83.5552 79.4707C83.5552 77.7987 84.7652 76.5997 86.3932 76.5997C87.6802 76.5997 88.5932 77.2817 88.8022 78.1397H90.8262C90.4632 76.2477 88.8132 74.7627 86.3492 74.7627C83.5882 74.7627 81.5532 76.7538 81.5532 79.4707C81.5532 82.1877 83.5882 84.1788 86.3492 84.1788ZM29.5229 85.9937L27.0919 92.5938L24.6499 85.9937H22.3839L25.9259 94.9588H28.0819L31.6239 85.9937H29.5229ZM32.5298 94.9588H39.2948V93.2207H34.5318V91.2957H38.8108V89.5577H34.5318V87.7317H39.1958V85.9937H32.5298V94.9588ZM44.9112 85.7627C42.1502 85.7627 40.1152 87.7538 40.1152 90.4707C40.1152 93.1877 42.1502 95.1788 44.9112 95.1788C47.6282 95.1788 49.6632 93.1877 49.6632 90.4707V89.9427H44.7902V91.6367H47.5292C47.3202 92.5168 46.3522 93.3747 44.9552 93.3747C43.3272 93.3747 42.1172 92.1537 42.1172 90.4707C42.1172 88.7987 43.3272 87.5997 44.9552 87.5997C46.0442 87.5997 46.8912 88.1057 47.2652 88.7657H49.4652C48.9482 87.0827 47.2542 85.7627 44.9112 85.7627ZM50.856 94.9588H57.621V93.2207H52.858V91.2957H57.137V89.5577H52.858V87.7317H57.522V85.9937H50.856V94.9588ZM66.2923 85.9937H58.4603V87.7647H61.3753V94.9588H63.3773V87.7647H66.2923V85.9937ZM72.1829 94.9588H74.4159L70.9399 85.9937H68.8609L65.3849 94.9588H67.4529L68.0799 93.2207H71.5559L72.1829 94.9588ZM68.6959 91.4827L69.8179 88.3587L70.9399 91.4827H68.6959ZM75.3159 94.9588H79.5399C81.5529 94.9588 82.7409 93.9027 82.7409 92.2417C82.7409 91.3727 82.1359 90.5367 81.2779 90.2617C81.8939 90.0307 82.3229 89.3047 82.3229 88.6667C82.3229 87.0277 81.2009 85.9937 79.2099 85.9937H75.3159V94.9588ZM77.3179 89.6237V87.6987H79.1219C79.8809 87.6987 80.3209 88.0397 80.3209 88.6667C80.3209 89.2937 79.8809 89.6237 79.1219 89.6237H77.3179ZM77.3179 93.2537V91.2297H79.4519C80.2439 91.2297 80.7389 91.5817 80.7389 92.2417C80.7389 92.9017 80.2439 93.2537 79.4519 93.2537H77.3179ZM83.9204 85.9937V94.9588H90.3994V93.1877H85.9224V85.9937H83.9204ZM91.4077 94.9588H98.1727V93.2207H93.4097V91.2957H97.6887V89.5577H93.4097V87.7317H98.0737V85.9937H91.4077V94.9588Z" fill="white"/>
<defs>
<clipPath id="clip0_5653_119433">
<rect width="45.4762" height="45.4762" fill="white" transform="matrix(1.19249e-08 -1 -1 -1.19249e-08 83.0435 63.8203)"/>
</clipPath>
</defs>
</svg>
