<svg width="120" height="120" viewBox="0 0 120 120" fill="none" xmlns="http://www.w3.org/2000/svg">
<rect x="1.53648" y="1.53648" width="116.927" height="116.927" rx="58.4635" stroke="black" stroke-width="3.07297"/>
<path d="M98.3133 17.3516L82.4097 33.2552" stroke="black" stroke-width="3.07297" stroke-linecap="round"/>
<path d="M28.9153 76.625L13.0117 92.5286" stroke="black" stroke-width="3.07297" stroke-linecap="round"/>
<path d="M44.3898 83.7627C41.6288 83.7627 39.5938 85.7538 39.5938 88.4707C39.5938 91.1877 41.6288 93.1788 44.3898 93.1788C47.1068 93.1788 49.1418 91.1877 49.1418 88.4707V87.9427H44.2688V89.6367H47.0078C46.7988 90.5168 45.8308 91.3747 44.4338 91.3747C42.8058 91.3747 41.5958 90.1537 41.5958 88.4707C41.5958 86.7987 42.8058 85.5997 44.4338 85.5997C45.5228 85.5997 46.3698 86.1057 46.7438 86.7657H48.9438C48.4268 85.0827 46.7328 83.7627 44.3898 83.7627ZM57.9905 92.9588L55.9115 89.7357C56.9675 89.2407 57.5505 88.2947 57.5505 87.0627C57.5505 85.2037 56.2195 83.9937 53.9425 83.9937H50.3345V92.9588H52.3365V90.1317H53.9315L55.6695 92.9588H57.9905ZM52.3365 85.7647H53.8545C54.9105 85.7647 55.5485 86.2157 55.5485 87.0627C55.5485 87.9097 54.9105 88.3607 53.8545 88.3607H52.3365V85.7647ZM65.1409 92.9588H67.3739L63.8979 83.9937H61.8189L58.3429 92.9588H60.4109L61.0379 91.2207H64.5139L65.1409 92.9588ZM61.6539 89.4827L62.7759 86.3587L63.8979 89.4827H61.6539ZM68.2739 83.9937V92.9588H70.2759V83.9937H68.2739ZM71.8618 92.9588H73.8638V87.4587L78.3408 92.8488H80.0128V83.8837H78.0108V89.3837L73.5338 83.9937H71.8618V92.9588ZM44.5498 103.959H46.5518V100.527H50.6218V98.7887H46.5518V96.7538H51.1278V94.9937H44.5498V103.959ZM59.8865 103.959L57.8075 100.736C58.8635 100.241 59.4465 99.2947 59.4465 98.0627C59.4465 96.2037 58.1155 94.9937 55.8385 94.9937H52.2305V103.959H54.2325V101.132H55.8275L57.5655 103.959H59.8865ZM54.2325 96.7647H55.7505C56.8065 96.7647 57.4445 97.2157 57.4445 98.0627C57.4445 98.9097 56.8065 99.3607 55.7505 99.3607H54.2325V96.7647ZM60.8135 103.959H67.5785V102.221H62.8155V100.296H67.0945V98.5577H62.8155V96.7317H67.4795V94.9937H60.8135V103.959ZM68.9238 103.959H75.6888V102.221H70.9258V100.296H75.2048V98.5577H70.9258V96.7317H75.5898V94.9937H68.9238V103.959Z" fill="black"/>
<g clip-path="url(#clip0_5653_119512)">
<path d="M67.261 62.4791C69.3344 60.0751 70.354 57.106 70.1347 54.0869C69.9054 50.928 68.3386 47.9933 65.7229 45.8232C65.3551 45.5179 64.8185 45.5298 64.4646 45.851C64.3584 45.9473 64.2542 46.0449 64.152 46.1437C63.4789 43.9167 62.1131 41.8849 60.189 40.2891C59.8212 39.984 59.2847 39.996 58.9307 40.317C58.8245 40.4133 58.7203 40.511 58.618 40.6098C57.9448 38.3826 56.5791 36.3508 54.655 34.7552C54.2872 34.4501 53.7508 34.462 53.3968 34.7831C53.2905 34.8796 53.1863 34.9771 53.0841 35.0759C52.4104 32.8481 51.0436 30.8161 49.1177 29.2209C48.7499 28.916 48.2137 28.928 47.8599 29.2492C46.434 30.5426 45.3707 32.0593 44.6923 33.6852C42.0828 31.3269 38.5371 30.1474 34.7315 30.4181C34.2548 30.452 33.8756 30.8312 33.8417 31.3079C33.571 35.1152 34.751 38.6605 37.11 41.2698C35.4832 41.9485 33.966 43.0125 32.6726 44.4394C32.3517 44.7934 32.3399 45.3296 32.645 45.6974C34.2423 47.6233 36.2735 48.9892 38.4985 49.6613C38.4 49.7633 38.3027 49.8673 38.2066 49.9733C37.8857 50.3274 37.8738 50.8635 38.1789 51.2313C39.7761 53.1572 41.8075 54.5232 44.0325 55.1953C43.9341 55.2972 43.8368 55.4011 43.7408 55.507C43.4196 55.861 43.4077 56.3972 43.7129 56.7652C45.31 58.6911 47.3415 60.0572 49.5666 60.7293C49.4681 60.8312 49.3708 60.9351 49.2747 61.041C48.9537 61.395 48.9417 61.9312 49.2468 62.2991C51.4147 64.9141 54.3478 66.4811 57.5058 66.7113C57.7761 66.7311 58.046 66.7409 58.3152 66.7409C61.0537 66.7409 63.7132 65.7265 65.9033 63.8377L69.4884 67.4228C69.6759 67.6102 69.9216 67.704 70.1674 67.704C70.4132 67.704 70.6589 67.6102 70.8464 67.4228C71.2214 67.0478 71.2214 66.4397 70.8464 66.0646L67.261 62.4791ZM59.6051 42.3422C61.2271 43.9083 62.2723 45.8632 62.5979 47.9487C60.9495 50.2675 60.2085 52.9895 60.4701 55.6882L57.5955 52.8136C56.0454 49.2804 56.8327 45.2696 59.6051 42.3422ZM54.0712 36.8081C55.693 38.3743 56.7383 40.3292 57.0639 42.4148C55.4155 44.7337 54.6744 47.4555 54.9361 50.1541L52.0614 47.2795C50.5097 43.748 51.2972 39.7371 54.0712 36.8081ZM48.5348 31.2739C50.158 32.8396 51.2042 34.7947 51.5299 36.8806C49.8808 39.1998 49.1393 41.9213 49.4008 44.619L46.5274 41.7456C44.9751 38.213 45.7615 34.202 48.5348 31.2739ZM35.7246 32.3009C35.7484 32.3007 35.7721 32.3007 35.7959 32.3007C39.0386 32.3007 41.986 33.5276 44.05 35.7464C43.7078 37.3821 43.7338 39.0764 44.1512 40.7281C42.4999 40.3114 40.8064 40.2856 39.1717 40.6274C36.9356 38.5482 35.7064 35.5723 35.7246 32.3009ZM34.6977 45.1133C37.6237 42.3405 41.6348 41.5532 45.1695 43.1039L48.0437 45.978C45.3444 45.7161 42.6219 46.4573 40.3033 48.1063C38.22 47.7829 36.2655 46.7376 34.6977 45.1133ZM40.2317 50.6472C43.1578 47.8745 47.1687 47.0871 50.7035 48.6378L53.5782 51.5125C50.8795 51.2509 48.1573 51.9921 45.8383 53.6405C43.7547 53.3172 41.7996 52.2716 40.2317 50.6472ZM45.7659 56.1814C48.6934 53.409 52.7045 52.6216 56.2374 54.1717L59.1121 57.0463C56.4133 56.7846 53.6912 57.5258 51.3722 59.1743C49.2887 58.8511 47.3338 57.8057 45.7659 56.1814ZM57.6455 64.7957C55.2801 64.6231 53.0551 63.5374 51.2995 61.7157C54.227 58.9427 58.2377 58.1555 61.7716 59.7058L64.5407 62.4749C62.543 64.1527 60.1082 64.9752 57.6455 64.7957ZM65.8985 61.1167L63.1293 58.3474C61.5793 54.8143 62.3669 50.8034 65.1391 47.8759C66.9617 49.6333 68.0473 51.8595 68.2191 54.2259C68.3979 56.6877 67.5753 59.1202 65.8985 61.1167Z" fill="black"/>
<path d="M79.8857 75.1013L76.9378 72.156C76.5627 71.781 75.9545 71.7814 75.5797 72.1567C75.2049 72.5318 75.2052 73.1398 75.5804 73.5147L78.5284 76.46C78.7158 76.6473 78.9614 76.741 79.207 76.741C79.4529 76.741 79.6989 76.6471 79.8863 76.4593C80.2612 76.0841 80.2609 75.4761 79.8857 75.1013V75.1013Z" fill="black"/>
<path d="M72.5286 69.1094C72.1536 69.4844 72.1536 70.0924 72.5286 70.4675L72.5313 70.4702C72.7184 70.6574 72.9633 70.7508 73.2084 70.7508C73.4542 70.7508 73.7001 70.6567 73.888 70.4688C74.263 70.0938 74.2617 69.4844 73.8866 69.1094C73.5115 68.7344 72.9037 68.7344 72.5286 69.1094V69.1094Z" fill="black"/>
</g>
<defs>
<clipPath id="clip0_5653_119512">
<rect width="49.1675" height="49.1675" fill="white" transform="translate(31 29)"/>
</clipPath>
</defs>
</svg>
