<svg width="120" height="120" viewBox="0 0 120 120" fill="none" xmlns="http://www.w3.org/2000/svg">
<path d="M78.7001 71.3012C78.3916 71.0142 77.9289 71.0142 77.6203 71.3012L67.0544 81.1316H56.5656C55.9053 81.1316 56.2416 81.1316 55.7789 81.1316C55.3161 81.1316 55.5513 81.1316 55.0232 81.1316H43.4546C42.9919 81.1316 42.6834 81.4186 42.6834 81.8491V86.1544C42.6834 89.485 44.5429 92.3978 47.3519 94.0475H44.303L40.5238 93.33C40.0611 93.2582 39.6754 93.5452 39.5983 93.904C39.5212 94.3346 39.8297 94.6934 40.2153 94.7651L44.0716 95.4826C44.1486 95.4826 44.1486 95.4826 44.2258 95.4826H52.7095H65.0493H73.5329C73.61 95.4826 73.61 95.4826 73.6872 95.4826L77.5434 94.7651C78.0061 94.6934 78.2375 94.2628 78.1604 93.904C78.0833 93.4735 77.6206 93.2582 77.2349 93.33L73.4559 94.0475H70.407C73.216 92.3978 75.0755 89.4851 75.0755 86.1544V81.8491C75.0755 81.4186 74.767 81.1316 74.3043 81.1316H69.2141L78.7003 72.3057C79.0086 72.0187 79.0086 71.5882 78.7001 71.3012ZM73.5328 86.1545C73.5328 90.5315 69.7538 94.0476 65.0492 94.0476H52.7094C48.0049 94.0476 44.2257 90.5316 44.2257 86.1545V82.5667H73.5328V86.1545Z" fill="black"/>
<path d="M46.1142 53.8994C43.2913 51.2731 38.698 51.2731 35.875 53.8994C33.0521 56.5258 33.0521 60.7992 35.875 63.4256L39.6868 66.9719C40.001 67.2642 40.5103 67.2642 40.8245 66.9719C41.1388 66.6796 41.1387 66.2057 40.8245 65.9134L37.0128 62.3671C34.8171 60.3243 34.8172 57.0005 37.0128 54.9578C39.2083 52.9152 42.7809 52.9151 44.9766 54.9578L50.4949 60.0919L41.9622 68.0304C41.648 68.3227 41.648 68.7965 41.9622 69.0888L48.0493 74.752C50.8723 77.3784 55.4656 77.3784 58.2885 74.752C61.1114 72.1257 61.1114 67.8523 58.2885 65.2259L46.1142 53.8994ZM57.1508 73.6935C54.9552 75.7362 51.3826 75.7363 49.1869 73.6935L43.6686 68.5595L51.6324 61.1503L57.1508 66.2843C59.3464 68.3271 59.3464 71.6509 57.1508 73.6935Z" fill="black"/>
<path d="M46.1142 48.4557L58.2885 37.1289C61.1114 34.5025 61.1114 30.229 58.2885 27.6026C55.4656 24.9762 50.8723 24.9762 48.0493 27.6026L35.875 38.9293C33.0521 41.5558 33.0521 45.8292 35.8751 48.4557C38.6982 51.0822 43.2913 51.0821 46.1142 48.4557ZM49.1869 28.661C51.3825 26.6183 54.9551 26.6182 57.1508 28.661C59.3464 30.7038 59.3463 34.0277 57.1508 36.0704L51.6324 41.2046L43.6686 33.7952L49.1869 28.661ZM37.0126 39.9878L42.531 34.8536L50.4948 42.263L44.9766 47.3971C42.781 49.4398 39.2084 49.4399 37.0127 47.3971C34.8171 45.3543 34.817 42.0306 37.0126 39.9878V39.9878Z" fill="black"/>
<path d="M71.7791 39.1016C68.6228 39.1016 65.5805 40.1684 63.2129 42.1056C60.9755 43.9363 59.4856 46.4184 58.9871 49.1305L56.0272 50.5074C55.7548 50.6342 55.5825 50.8933 55.5825 51.1768C55.5825 51.4603 55.7547 51.7195 56.0272 51.8463L58.9871 53.2231C59.4856 55.9353 60.9755 58.4174 63.2129 60.248C65.5805 62.1852 68.6229 63.2521 71.7791 63.2521C78.9357 63.2521 84.7579 57.8352 84.7579 51.1768C84.7579 44.5185 78.9357 39.1016 71.7791 39.1016V39.1016ZM71.7791 61.7552C66.1235 61.7552 61.2814 57.8302 60.5157 52.6253C60.4797 52.3804 60.3161 52.1679 60.0785 52.0573L58.1858 51.1768L60.0785 50.2963C60.3161 50.1859 60.4797 49.9733 60.5157 49.7284C61.2814 44.5235 66.1235 40.5985 71.7791 40.5985C78.0484 40.5985 83.1489 45.3439 83.1489 51.1768C83.1489 57.0098 78.0484 61.7552 71.7791 61.7552Z" fill="black"/>
<path d="M75.8016 47.4375C73.5837 47.4375 71.7793 49.1161 71.7793 51.1794C71.7793 53.2427 73.5837 54.9213 75.8016 54.9213C78.0196 54.9213 79.8239 53.2427 79.8239 51.1794C79.8239 49.1161 78.0196 47.4375 75.8016 47.4375ZM75.8016 53.4245C74.4709 53.4245 73.3882 52.4174 73.3882 51.1794C73.3882 49.9414 74.4709 48.9343 75.8016 48.9343C77.1323 48.9343 78.215 49.9414 78.215 51.1794C78.215 52.4174 77.1323 53.4245 75.8016 53.4245Z" fill="black"/>
<path d="M69.3655 47.4375C68.9211 47.4375 68.561 47.7726 68.561 48.1859V51.9278L65.1822 47.7369C64.9744 47.4791 64.6129 47.3742 64.2842 47.4759C63.9556 47.5778 63.7341 47.8638 63.7341 48.1859V54.1729C63.7341 54.5862 64.0942 54.9213 64.5386 54.9213C64.983 54.9213 65.3431 54.5862 65.3431 54.1729V50.431L68.7219 54.6219C68.8767 54.814 69.1172 54.9213 69.3656 54.9213C69.4504 54.9213 69.5363 54.9088 69.6199 54.8828C69.9485 54.781 70.17 54.495 70.17 54.1729V48.1859C70.17 47.7726 69.8098 47.4375 69.3655 47.4375V47.4375Z" fill="black"/>
<path d="M40.6658 61.4732C40.2443 61.7799 40.1831 62.2458 40.5128 62.6379C40.8424 63.03 41.3431 63.087 41.7646 62.7803C42.1861 62.4736 42.2473 62.0078 41.9177 61.6156C41.5881 61.2236 41.0873 61.1666 40.6658 61.4732Z" fill="black"/>
<path d="M40.4269 58.4895C40.7565 58.8816 41.2573 58.9385 41.6788 58.6318C42.1003 58.3252 42.1615 57.8593 41.8318 57.4672C41.5022 57.0751 41.0014 57.0181 40.5799 57.3248C40.1584 57.6315 40.0972 58.0973 40.4269 58.4895Z" fill="black"/>
<path d="M37.3697 57.5511C36.9482 57.858 36.887 58.324 37.2166 58.7164C37.5463 59.1087 38.047 59.1657 38.4685 58.8588C38.89 58.552 38.9512 58.0859 38.6215 57.6936C38.2919 57.3012 37.7912 57.2442 37.3697 57.5511Z" fill="black"/>
<path d="M44.4217 61.9029C44.0002 62.2096 43.939 62.6754 44.2687 63.0676C44.5983 63.4597 45.0991 63.5166 45.5206 63.21C45.9421 62.9033 46.0033 62.4375 45.6737 62.0453C45.344 61.6532 44.8432 61.5963 44.4217 61.9029Z" fill="black"/>
<rect x="1.53648" y="1.53648" width="116.927" height="116.927" rx="58.4635" stroke="black" stroke-width="3.07297"/>
<path d="M96.8682 17.3516L80.9646 33.2552" stroke="black" stroke-width="3.07297" stroke-linecap="round"/>
<path d="M27.47 76.625L11.5664 92.5286" stroke="black" stroke-width="3.07297" stroke-linecap="round"/>
</svg>
