<svg width="120" height="120" viewBox="0 0 120 120" fill="none" xmlns="http://www.w3.org/2000/svg">
<path d="M45.8228 83.99H47.8248V78.49L52.3018 83.88H53.9738V74.915H51.9718V80.415L47.4948 75.025H45.8228V83.99ZM59.9992 84.21C62.7822 84.21 64.8392 82.219 64.8392 79.502C64.8392 76.785 62.7822 74.794 59.9992 74.794C57.2162 74.794 55.1592 76.785 55.1592 79.502C55.1592 82.219 57.2162 84.21 59.9992 84.21ZM59.9992 82.406C58.3712 82.406 57.1612 81.185 57.1612 79.502C57.1612 77.808 58.3712 76.598 59.9992 76.598C61.6272 76.598 62.8372 77.808 62.8372 79.502C62.8372 81.185 61.6272 82.406 59.9992 82.406ZM66.0288 83.99H68.0308V78.49L72.5078 83.88H74.1798V74.915H72.1778V80.415L67.7008 75.025H66.0288V83.99ZM29.2405 94.99H31.4735L27.9975 86.025H25.9185L22.4425 94.99H24.5105L25.1375 93.252H28.6135L29.2405 94.99ZM25.7535 91.514L26.8755 88.39L27.9975 91.514H25.7535ZM32.3735 94.99H34.3755V89.49L38.8525 94.88H40.5245V85.915H38.5225V91.415L34.0455 86.025H32.3735V94.99ZM49.432 86.025H41.6V87.796H44.515V94.99H46.517V87.796H49.432V86.025ZM50.5064 86.025V94.99H52.5084V86.025H50.5064ZM54.0942 94.99H58.3182C60.3312 94.99 61.5192 93.934 61.5192 92.273C61.5192 91.404 60.9142 90.568 60.0562 90.293C60.6722 90.062 61.1012 89.336 61.1012 88.698C61.1012 87.059 59.9792 86.025 57.9882 86.025H54.0942V94.99ZM56.0962 89.655V87.73H57.9002C58.6592 87.73 59.0992 88.071 59.0992 88.698C59.0992 89.325 58.6592 89.655 57.9002 89.655H56.0962ZM56.0962 93.285V91.261H58.2302C59.0222 91.261 59.5172 91.613 59.5172 92.273C59.5172 92.933 59.0222 93.285 58.2302 93.285H56.0962ZM62.6987 86.025V94.99H64.7007V86.025H62.6987ZM70.7306 95.21C73.5136 95.21 75.5706 93.219 75.5706 90.502C75.5706 87.785 73.5136 85.794 70.7306 85.794C67.9476 85.794 65.8906 87.785 65.8906 90.502C65.8906 93.219 67.9476 95.21 70.7306 95.21ZM70.7306 93.406C69.1026 93.406 67.8926 92.185 67.8926 90.502C67.8926 88.808 69.1026 87.598 70.7306 87.598C72.3586 87.598 73.5686 88.808 73.5686 90.502C73.5686 92.185 72.3586 93.406 70.7306 93.406ZM83.6781 86.025H75.8461V87.796H78.7611V94.99H80.7631V87.796H83.6781V86.025ZM84.7524 86.025V94.99H86.7544V86.025H84.7524ZM92.7403 95.21C95.2263 95.21 97.0303 93.516 97.3053 91.712H95.2813C95.1273 92.526 94.0713 93.373 92.7843 93.373C91.1563 93.373 89.9463 92.163 89.9463 90.502C89.9463 88.83 91.1563 87.631 92.7843 87.631C94.0713 87.631 94.9843 88.313 95.1933 89.171H97.2173C96.8543 87.279 95.2043 85.794 92.7403 85.794C89.9793 85.794 87.9443 87.785 87.9443 90.502C87.9443 93.219 89.9793 95.21 92.7403 95.21Z" fill="black"/>
<rect x="3" y="3" width="114" height="114" rx="57" stroke="black" stroke-width="6"/>
<path d="M83.1083 33.0632C80.611 31.4433 77.0863 30.117 72.632 29.1214C64.0652 27.2067 54.4047 27 50.6489 27C40.9172 27 33 33.4441 33 41.3648V47.451C33 55.3719 40.9172 61.8158 50.6489 61.8158C55.1363 61.8158 58.5063 60.6717 62.0742 59.4604C65.764 58.2077 69.5792 56.9124 74.9451 56.9124C82.0138 56.9124 87.7646 52.2317 87.7646 46.4784V40.3922C87.7646 37.5333 86.198 35.0674 83.1083 33.0632ZM82.2075 47.9461C82.6125 48.2964 83.2895 48.3128 83.7195 47.9833C84.445 47.4274 85.0831 46.8079 85.6254 46.141V46.4784C85.6254 51.2718 80.8342 55.1713 74.9451 55.1713C69.151 55.1713 65.1348 56.5348 61.2507 57.8534C57.886 58.9957 54.708 60.0747 50.6489 60.0747C42.432 60.0747 35.6882 54.8465 35.1722 48.2628C38.1757 52.7091 43.9868 55.7294 50.6489 55.7294C55.1363 55.7294 58.5063 54.5853 62.0742 53.374C65.764 52.1213 69.5792 50.826 74.9451 50.826C75.3438 50.826 75.7465 50.8107 76.1422 50.7806C76.7304 50.7357 77.1625 50.3113 77.1075 49.8326C77.0524 49.3539 76.5303 49.0023 75.9428 49.0471C75.613 49.0721 75.2774 49.0849 74.9451 49.0849C69.151 49.0849 65.1348 50.4484 61.2507 51.767C57.886 52.9093 54.708 53.9883 50.6489 53.9883C42.0968 53.9883 35.1392 48.3254 35.1392 41.3649C35.1392 34.4042 42.0968 28.7413 50.6489 28.7413C54.318 28.7413 63.7497 28.9419 72.0655 30.8005C81.0631 32.8117 85.6254 36.0387 85.6254 40.3922C85.6254 42.7684 84.3962 45.0732 82.2531 46.7155C81.823 47.0451 81.8026 47.5961 82.2075 47.9461Z" fill="black"/>
<path d="M81.3282 48.4999C81.0767 48.065 80.4393 47.8784 79.905 48.0831C79.8973 48.0859 79.8871 48.09 79.8795 48.0931C79.3512 48.308 79.1371 48.8308 79.4012 49.2606C79.5886 49.5656 79.9664 49.7419 80.3588 49.7419C80.5174 49.7419 80.6782 49.7131 80.8299 49.6524C81.3543 49.4442 81.5776 48.931 81.3282 48.4999Z" fill="black"/>
<path d="M58.37 30.7251L58.315 30.7214C57.7252 30.684 57.2106 31.0405 57.1636 31.5195C57.1166 31.9984 57.5559 32.4176 58.1448 32.4559L58.1994 32.4593C58.2284 32.4613 58.2572 32.4622 58.2859 32.4622C58.8379 32.4622 59.3061 32.1169 59.351 31.6616C59.3981 31.1827 58.9589 30.7635 58.37 30.7251Z" fill="black"/>
<path d="M82.8186 38.0489C81.7576 36.3422 79.397 34.8673 75.802 33.6652C72.8931 32.6925 69.712 32.078 67.5555 31.7337C66.2631 31.5275 64.9087 31.3433 63.53 31.1864C62.9452 31.1192 62.4044 31.4518 62.3225 31.928C62.2407 32.4042 62.6486 32.8441 63.2337 32.9107C64.5739 33.0633 65.8895 33.2422 67.1438 33.4424C74.491 34.6151 79.5085 36.5806 80.9097 38.8347C81.2041 39.3084 81.3472 39.8185 81.3472 40.3941C81.3472 43.2671 78.4754 45.6045 74.9454 45.6045C71.3763 45.6045 67.9104 46.0792 64.3496 47.0559C62.816 47.4766 61.3269 47.9795 59.8868 48.466C58.9343 48.7877 57.9494 49.1204 56.9718 49.4219C54.5047 50.183 52.6137 50.5077 50.6492 50.5077C44.4563 50.5077 39.4179 46.407 39.4179 41.3667C39.4179 36.3263 44.4563 32.2255 50.6492 32.2255C51.8573 32.2255 53.0838 32.2441 54.2944 32.2809C54.4999 32.2871 54.7056 32.2938 54.9114 32.3012C55.5011 32.3229 56.0011 31.9502 56.0271 31.4698C56.0532 30.9895 55.5958 30.5828 55.0057 30.5617C54.795 30.5541 54.5843 30.5472 54.374 30.5409C53.137 30.5034 51.8837 30.4844 50.6491 30.4844C43.2766 30.4844 37.2786 35.3661 37.2786 41.3667C37.2786 47.3671 43.2765 52.2488 50.6491 52.2488C52.8883 52.2488 55.0059 51.8903 57.7298 51.05C58.7386 50.7389 59.7391 50.4009 60.7068 50.074C62.1137 49.5989 63.5685 49.1075 65.0328 48.7058C68.3698 47.7905 71.6123 47.3455 74.9454 47.3455C79.655 47.3457 83.4865 44.2272 83.4865 40.3942C83.4865 39.5391 83.2679 38.7719 82.8186 38.0489Z" fill="black"/>
<path d="M51.6736 33.9453C48.6833 33.9453 46.2505 35.7408 46.2505 37.9478C46.2505 40.1548 48.6833 41.9503 51.6736 41.9503C54.6639 41.9503 57.0967 40.1548 57.0967 37.9478C57.0967 35.7408 54.6639 33.9453 51.6736 33.9453ZM51.6736 40.2091C49.8628 40.2091 48.3897 39.1947 48.3897 37.9477C48.3897 36.7008 49.8628 35.6863 51.6736 35.6863C53.4843 35.6863 54.9574 36.7008 54.9574 37.9477C54.9574 39.1947 53.4843 40.2091 51.6736 40.2091Z" fill="black"/>
</svg>
