<svg width="120" height="120" viewBox="0 0 120 120" fill="none" xmlns="http://www.w3.org/2000/svg">
<path d="M60.3036 64.0008C59.6153 64.0008 59.0745 63.4795 59.0745 62.816V33.6692C59.0745 33.0057 59.6153 32.4844 60.3036 32.4844C60.9919 32.4844 61.5327 33.0057 61.5327 33.6692V62.816C61.5327 63.4795 60.9919 64.0008 60.3036 64.0008Z" fill="black"/>
<path d="M60.3035 34.9942C60.0576 34.9942 59.8118 34.8994 59.566 34.7572C56.911 33.0038 55.3377 30.113 55.2886 26.9852C55.3377 23.9049 56.9602 21.0141 59.566 19.2133C60.0085 18.9289 60.5985 18.9289 61.041 19.2133C63.6959 20.9667 65.2692 23.8575 65.3184 26.9852C65.2692 30.0656 63.6959 32.9564 61.041 34.7572C60.7951 34.8994 60.5493 34.9942 60.3035 34.9942ZM60.3035 21.7249C57.2552 24.1418 56.8619 28.5017 59.4185 31.4399C59.7135 31.7716 60.0085 32.056 60.3035 32.2929C63.3517 29.876 63.7451 25.5161 61.1884 22.578C60.9426 22.2462 60.6476 21.9619 60.3035 21.7249Z" fill="black"/>
<path d="M63.696 42.5276C62.3686 42.5276 61.0903 42.2906 59.8611 41.8641C59.3695 41.6745 59.0253 41.2006 59.0745 40.6793C59.1237 35.5136 63.4994 31.3905 68.8584 31.4379C70.1367 31.4379 71.3658 31.6749 72.4967 32.1488C72.9883 32.3383 73.3325 32.8123 73.2833 33.3336C73.185 36.414 71.5625 39.3049 68.9076 41.0584C67.3834 42.0537 65.5643 42.5276 63.696 42.5276ZM61.6311 39.921C65.4168 41.0111 69.3992 38.9732 70.53 35.324C70.6284 34.9449 70.7267 34.5184 70.7759 34.1392C66.9901 33.0492 63.0077 35.0871 61.8769 38.7362C61.7786 39.1154 61.6803 39.4945 61.6311 39.921Z" fill="black"/>
<path d="M63.696 51.1604C62.3686 51.1604 61.0903 50.9234 59.8611 50.4969C59.3695 50.3073 59.0253 49.8334 59.0745 49.3121C59.1237 44.1464 63.4994 40.0233 68.8584 40.0707C70.1367 40.0707 71.3658 40.3077 72.4967 40.7816C72.9883 40.9712 73.3325 41.4451 73.2833 41.9664C73.185 45.0469 71.5625 47.9378 68.9076 49.6913C67.3834 50.6391 65.5643 51.1604 63.696 51.1604ZM61.6311 48.5065C65.4168 49.5965 69.3992 47.5586 70.53 43.9095C70.6284 43.5303 70.7267 43.1038 70.7759 42.7247C66.9901 41.6346 63.0077 43.6725 61.8769 47.3217C61.7786 47.7008 61.6803 48.0799 61.6311 48.5065Z" fill="black"/>
<path d="M63.696 59.7385C62.3686 59.7385 61.0903 59.5016 59.8611 59.075C59.3695 58.8855 59.0253 58.4116 59.0745 57.8902C59.1237 52.7245 63.4993 48.6015 68.8583 48.6488C70.1366 48.6488 71.3658 48.8858 72.5457 49.3597C73.0374 49.5493 73.3815 50.0232 73.3324 50.5445C73.234 53.625 71.6116 56.5159 68.9567 58.2694C67.3834 59.2172 65.5643 59.7385 63.696 59.7385ZM61.6311 57.0846C65.4168 58.1746 69.3992 56.1367 70.53 52.4876C70.6283 52.1084 70.7266 51.6819 70.7758 51.3028C66.9901 50.2128 63.0077 52.2506 61.8769 55.8998C61.7786 56.3263 61.6802 56.7055 61.6311 57.0846Z" fill="black"/>
<path d="M56.9111 42.5286C55.0428 42.5286 53.2237 42.0073 51.6504 41.0596C48.9955 39.3062 47.373 36.4629 47.2747 33.3352C47.2255 32.8139 47.5697 32.3401 48.0613 32.1505C52.9779 30.1602 58.6811 32.3874 60.746 37.1263C61.2377 38.2636 61.4835 39.4483 61.4835 40.6331C61.5327 41.1543 61.1885 41.6282 60.6968 41.8178C59.5169 42.2917 58.1894 42.5286 56.9111 42.5286ZM49.8313 34.0934C50.2738 37.8845 53.8137 40.5857 57.7469 40.1592C58.1894 40.1118 58.5827 40.017 58.9761 39.9222C58.5336 36.1311 54.9937 33.43 51.0604 33.8565C50.6671 33.9039 50.2246 33.9987 49.8313 34.0934Z" fill="black"/>
<path d="M56.9111 51.1556C55.0428 51.1556 53.2237 50.6342 51.6504 49.6863C48.9955 47.9326 47.373 45.0888 47.2747 41.9606C47.2255 41.4392 47.5697 40.9652 48.0613 40.7756C52.9779 38.785 58.6811 41.0126 60.746 45.7523C61.2377 46.8899 61.4835 48.0748 61.4835 49.3071C61.5327 49.8285 61.1885 50.3025 60.6968 50.492C59.5169 50.9186 58.1894 51.1082 56.9111 51.1556ZM49.8313 42.7189C50.2738 46.5107 53.8137 49.2123 57.7469 48.7857C58.1894 48.7383 58.5827 48.6436 58.9761 48.5488C58.5336 44.757 54.9937 42.0554 51.0604 42.4819C50.6671 42.4819 50.2246 42.5767 49.8313 42.7189Z" fill="black"/>
<path d="M56.9111 59.7337C55.0428 59.7337 53.2237 59.2124 51.6504 58.2644C48.9955 56.5107 47.373 53.6669 47.2747 50.5387C47.2255 50.0173 47.5697 49.5433 48.0613 49.3538C52.9779 47.3631 58.6811 49.5907 60.746 54.3305C61.2377 55.468 61.4835 56.6529 61.4835 57.8378C61.5327 58.3592 61.1885 58.8332 60.6968 59.0228C59.5169 59.4967 58.1894 59.7337 56.9111 59.7337ZM49.8313 51.297C50.2738 55.0888 53.8137 57.7904 57.7469 57.3639C58.1894 57.3165 58.5827 57.2217 58.9761 57.1269C58.5336 53.3351 54.9937 50.6335 51.0604 51.0601C50.6671 51.1075 50.2246 51.2022 49.8313 51.297Z" fill="black"/>
<path d="M85.3777 46.7985H80.9528C80.2645 46.7985 79.7236 46.2774 79.7236 45.6141C79.7236 44.9508 80.2645 44.4297 80.9528 44.4297H85.3777C86.066 44.4297 86.6068 44.9508 86.6068 45.6141C86.6068 46.2774 86.066 46.7985 85.3777 46.7985Z" fill="black"/>
<path d="M39.654 46.7985H35.2291C34.5408 46.7985 34 46.2774 34 45.6141C34 44.9508 34.5408 44.4297 35.2291 44.4297H39.654C40.3424 44.4297 40.8832 44.9508 40.8832 45.6141C40.8832 46.2774 40.3424 46.7985 39.654 46.7985Z" fill="black"/>
<rect x="3" y="3" width="114" height="114" rx="57" stroke="black" stroke-width="6"/>
<path d="M110.602 80.2445C59.277 55.6651 10.8432 80.2445 7.95166 80.2445L20.2408 100.485L35 113.001L54.2167 117.112C61.6866 116.389 77.0601 114.943 78.795 114.943C80.9637 114.943 99.7589 99.0386 101.205 99.0386C102.361 99.0386 108.675 86.5095 110.602 80.2445Z" fill="black"/>
<path d="M38.5191 83.7627C35.7581 83.7627 33.7231 85.7538 33.7231 88.4707C33.7231 91.1877 35.7581 93.1788 38.5191 93.1788C41.2361 93.1788 43.2711 91.1877 43.2711 88.4707V87.9427H38.3981V89.6367H41.1371C40.9281 90.5168 39.9601 91.3747 38.5631 91.3747C36.9351 91.3747 35.7251 90.1537 35.7251 88.4707C35.7251 86.7987 36.9351 85.5997 38.5631 85.5997C39.6521 85.5997 40.4991 86.1057 40.8731 86.7657H43.0731C42.5561 85.0827 40.8621 83.7627 38.5191 83.7627ZM44.4639 83.9937V92.9588H50.9429V91.1877H46.4659V83.9937H44.4639ZM51.5404 88.9877C51.5404 91.5287 53.1794 93.1788 55.6434 93.1788C58.1074 93.1788 59.7464 91.5287 59.7464 88.9877V83.9937H57.7444V88.9877C57.7444 90.4177 56.9524 91.3747 55.6434 91.3747C54.3344 91.3747 53.5424 90.4177 53.5424 88.9877V83.9937H51.5404V88.9877ZM68.5477 83.9937H60.7157V85.7647H63.6307V92.9588H65.6327V85.7647H68.5477V83.9937ZM69.6221 92.9588H76.3871V91.2207H71.6241V89.2957H75.9031V87.5577H71.6241V85.7317H76.2881V83.9937H69.6221V92.9588ZM77.7324 92.9588H79.7344V87.4587L84.2114 92.8488H85.8834V83.8837H83.8814V89.3837L79.4044 83.9937H77.7324V92.9588ZM44.5498 103.959H46.5518V100.527H50.6218V98.7887H46.5518V96.7538H51.1278V94.9937H44.5498V103.959ZM59.8865 103.959L57.8075 100.736C58.8635 100.241 59.4465 99.2947 59.4465 98.0627C59.4465 96.2037 58.1155 94.9937 55.8385 94.9937H52.2305V103.959H54.2325V101.132H55.8275L57.5655 103.959H59.8865ZM54.2325 96.7647H55.7505C56.8065 96.7647 57.4445 97.2157 57.4445 98.0627C57.4445 98.9097 56.8065 99.3607 55.7505 99.3607H54.2325V96.7647ZM60.8135 103.959H67.5785V102.221H62.8155V100.296H67.0945V98.5577H62.8155V96.7317H67.4795V94.9937H60.8135V103.959ZM68.9238 103.959H75.6888V102.221H70.9258V100.296H75.2048V98.5577H70.9258V96.7317H75.5898V94.9937H68.9238V103.959Z" fill="white"/>
</svg>
