<svg width="120" height="120" viewBox="0 0 120 120" fill="none" xmlns="http://www.w3.org/2000/svg">
<rect x="3.84121" y="3.84121" width="112.318" height="112.318" rx="56.1588" fill="black" stroke="black" stroke-width="7.68242"/>
<path d="M48.2429 72.025H44.6679V73.763H46.2519V80.99H48.2429V72.025ZM53.4306 71.783C51.4726 71.783 49.9986 73.356 49.9986 76.502C49.9986 79.637 51.4726 81.21 53.4306 81.21C55.3886 81.21 56.8626 79.637 56.8626 76.502C56.8626 73.356 55.3886 71.783 53.4306 71.783ZM53.4306 73.532C54.3106 73.532 54.9706 74.456 54.9706 76.502C54.9706 78.537 54.3106 79.461 53.4306 79.461C52.5506 79.461 51.8906 78.537 51.8906 76.502C51.8906 74.456 52.5506 73.532 53.4306 73.532ZM61.1757 71.783C59.2177 71.783 57.7437 73.356 57.7437 76.502C57.7437 79.637 59.2177 81.21 61.1757 81.21C63.1337 81.21 64.6077 79.637 64.6077 76.502C64.6077 73.356 63.1337 71.783 61.1757 71.783ZM61.1757 73.532C62.0557 73.532 62.7157 74.456 62.7157 76.502C62.7157 78.537 62.0557 79.461 61.1757 79.461C60.2957 79.461 59.6357 78.537 59.6357 76.502C59.6357 74.456 60.2957 73.532 61.1757 73.532ZM67.6888 71.86C66.3908 71.86 65.4888 72.751 65.4888 73.983C65.4888 75.204 66.3908 76.095 67.6888 76.095C68.9978 76.095 69.8998 75.204 69.8998 73.983C69.8998 72.751 68.9978 71.86 67.6888 71.86ZM74.0798 72.025H72.5728L66.6328 80.99H68.1398L74.0798 72.025ZM67.6888 73.136C68.1838 73.136 68.5358 73.499 68.5358 73.983C68.5358 74.467 68.1838 74.83 67.6888 74.83C67.1938 74.83 66.8418 74.467 66.8418 73.983C66.8418 73.499 67.1938 73.136 67.6888 73.136ZM73.0128 76.909C71.7148 76.909 70.8128 77.8 70.8128 79.032C70.8128 80.253 71.7148 81.144 73.0128 81.144C74.3218 81.144 75.2238 80.253 75.2238 79.032C75.2238 77.8 74.3218 76.909 73.0128 76.909ZM73.0128 78.185C73.5078 78.185 73.8598 78.548 73.8598 79.032C73.8598 79.516 73.5078 79.879 73.0128 79.879C72.5178 79.879 72.1658 79.516 72.1658 79.032C72.1658 78.548 72.5178 78.185 73.0128 78.185ZM42.2242 83.025V86.578H38.2642V83.025H36.2622V91.99H38.2642V88.349H42.2242V91.99H44.2262V83.025H42.2242ZM45.702 88.019C45.702 90.56 47.341 92.21 49.805 92.21C52.269 92.21 53.908 90.56 53.908 88.019V83.025H51.906V88.019C51.906 89.449 51.114 90.406 49.805 90.406C48.496 90.406 47.704 89.449 47.704 88.019V83.025H45.702V88.019ZM55.3833 91.99H57.3853V87.073L59.4643 90.516H60.6743L62.7533 87.073V91.99H64.7553V83.025H63.1603L60.0693 88.041L56.9783 83.025H55.3833V91.99ZM72.4563 91.99H74.6893L71.2133 83.025H69.1343L65.6583 91.99H67.7263L68.3533 90.252H71.8293L72.4563 91.99ZM68.9693 88.514L70.0913 85.39L71.2133 88.514H68.9693ZM75.5894 91.99H77.5914V86.49L82.0684 91.88H83.7404V82.915H81.7384V88.415L77.2614 83.025H75.5894V91.99ZM42.2521 93.794C39.4911 93.794 37.4561 95.785 37.4561 98.502C37.4561 101.219 39.4911 103.21 42.2521 103.21C44.9691 103.21 47.0041 101.219 47.0041 98.502V97.974H42.1311V99.668H44.8701C44.6611 100.548 43.6931 101.406 42.2961 101.406C40.6681 101.406 39.4581 100.185 39.4581 98.502C39.4581 96.83 40.6681 95.631 42.2961 95.631C43.3851 95.631 44.2321 96.137 44.6061 96.797H46.8061C46.2891 95.114 44.5951 93.794 42.2521 93.794ZM55.8528 102.99L53.7738 99.767C54.8298 99.272 55.4128 98.326 55.4128 97.094C55.4128 95.235 54.0818 94.025 51.8048 94.025H48.1968V102.99H50.1988V100.163H51.7938L53.5318 102.99H55.8528ZM50.1988 95.796H51.7168C52.7728 95.796 53.4108 96.247 53.4108 97.094C53.4108 97.941 52.7728 98.392 51.7168 98.392H50.1988V95.796ZM63.0032 102.99H65.2362L61.7602 94.025H59.6812L56.2052 102.99H58.2732L58.9002 101.252H62.3762L63.0032 102.99ZM59.5162 99.514L60.6382 96.39L61.7602 99.514H59.5162ZM66.1362 102.99H69.6122C72.5822 102.99 74.4192 101.164 74.4192 98.513C74.4192 95.862 72.5822 94.025 69.6122 94.025H66.1362V102.99ZM68.1382 101.219V95.796H69.6452C71.3612 95.796 72.4172 96.786 72.4172 98.513C72.4172 100.24 71.3612 101.219 69.6452 101.219H68.1382ZM75.6216 102.99H82.3866V101.252H77.6236V99.327H81.9026V97.589H77.6236V95.763H82.2876V94.025H75.6216V102.99Z" fill="white"/>
<g clip-path="url(#clip0_5653_119480)">
<path d="M69.8784 36.2931L72.373 36.1339H72.3868C73.2613 36.0613 74.1086 35.7927 74.8664 35.3476C75.6241 34.9026 76.2732 34.2925 76.7659 33.5622L78.7387 30.6514C80.4525 28.132 81.1242 25.0407 80.6117 22.0318C80.5108 21.436 80.2107 20.8926 79.761 20.4917C79.3113 20.0908 78.739 19.8563 78.1389 19.827C75.1078 19.6753 72.1372 20.7168 69.8566 22.7309L67.2186 25.05C66.5567 25.6295 66.0323 26.3509 65.684 27.1611C65.3356 27.9713 65.1722 28.8498 65.2057 29.7319V29.7445L65.3479 32.2562C65.3754 32.7424 65.3028 33.229 65.1347 33.6856C64.9665 34.1422 64.7064 34.559 64.3707 34.9098L43.77 56.1984C43.4924 56.4966 43.2781 56.8486 43.14 57.2328C43.002 57.617 42.9432 58.0254 42.9671 58.4332C42.9923 59.3425 43.3724 60.2053 44.0252 60.8349C44.6779 61.4645 45.5508 61.8103 46.455 61.7975C46.5457 61.7975 46.6374 61.7976 46.728 61.7872C47.1341 61.7622 47.5308 61.6542 47.894 61.4699C48.2573 61.2857 48.5794 61.0289 48.8407 60.7153L67.378 37.5945C67.6832 37.2161 68.0629 36.9052 68.4931 36.6812C68.9234 36.4573 69.395 36.3251 69.8784 36.2931V36.2931ZM66.3905 36.7823L47.8555 59.9008C47.7021 60.0793 47.5144 60.2248 47.3037 60.3285C47.093 60.4322 46.8636 60.492 46.6294 60.5042C46.3313 60.5332 46.0305 60.5 45.7457 60.4068C45.4609 60.3136 45.1983 60.1623 44.9743 59.9624C44.7502 59.7626 44.5695 59.5185 44.4434 59.2452C44.3173 58.972 44.2485 58.6756 44.2414 58.3744C44.2249 58.1398 44.2559 57.9042 44.3324 57.6819C44.4088 57.4597 44.5293 57.2552 44.6864 57.0811L65.2859 35.7935C65.7433 35.3162 66.0979 34.7492 66.3276 34.1279C66.5573 33.5065 66.6572 32.8442 66.621 32.1823L66.4788 29.6776C66.4537 28.9869 66.5823 28.2993 66.8554 27.6651C67.1285 27.031 67.539 26.4663 68.057 26.0122L70.695 23.6932C72.7296 21.8983 75.3787 20.9702 78.0815 21.1053C78.3917 21.1199 78.6876 21.2408 78.92 21.448C79.1525 21.6551 79.3075 21.9361 79.3592 22.2441C79.8163 24.9262 79.2178 27.682 77.6904 29.928L75.7176 32.84C75.3317 33.4119 74.8236 33.8898 74.2304 34.2387C73.6372 34.5876 72.974 34.7987 72.2893 34.8567L69.8004 35.0148C69.1416 35.0571 68.4987 35.236 67.9119 35.5402C67.3251 35.8443 66.8071 36.2672 66.3905 36.7823V36.7823Z" fill="white" stroke="white" stroke-width="0.614594" stroke-miterlimit="10"/>
<path d="M79.6001 56.0312L65.7872 43.3759C65.7257 43.318 65.6533 43.2729 65.5743 43.2433C65.4953 43.2138 65.4113 43.2003 65.3271 43.2036C65.2429 43.207 65.1602 43.2272 65.0838 43.2629C65.0074 43.2987 64.9388 43.3493 64.882 43.4119C64.8252 43.4745 64.7814 43.5479 64.753 43.6278C64.7246 43.7076 64.7122 43.7922 64.7166 43.8769C64.721 43.9615 64.7421 44.0445 64.7786 44.1209C64.8151 44.1973 64.8663 44.2656 64.9293 44.3219L78.7388 56.975C78.9074 57.1396 79.0409 57.337 79.1312 57.5552C79.2215 57.7733 79.2667 58.0077 79.2641 58.2441C79.2748 58.545 79.2238 58.8449 79.1142 59.1251C79.0047 59.4054 78.8389 59.6599 78.6272 59.8728C78.4155 60.0858 78.1625 60.2525 77.8839 60.3627C77.6053 60.473 77.3071 60.5242 77.008 60.5134C76.7734 60.5165 76.5406 60.4717 76.3238 60.3817C76.1069 60.2916 75.9105 60.1583 75.7463 59.9897L63.4428 46.3941C63.3289 46.2697 63.1706 46.1957 63.0027 46.1883C62.8347 46.1809 62.6707 46.2405 62.5463 46.3544C62.4219 46.4682 62.3474 46.6269 62.3389 46.7958C62.3305 46.9647 62.3888 47.1301 62.5011 47.2559L74.8127 60.8503C75.0923 61.1466 75.4288 61.3826 75.8019 61.5441C76.1749 61.7055 76.5767 61.789 76.9828 61.7895H77.0493C77.5146 61.7952 77.9763 61.706 78.4065 61.5274C78.8367 61.3488 79.2265 61.0844 79.5524 60.7502C79.8783 60.4161 80.1335 60.019 80.3028 59.5829C80.472 59.1468 80.5518 58.6808 80.5372 58.2129C80.5362 57.8044 80.4526 57.4002 80.2915 57.0252C80.1304 56.6501 79.8952 56.3119 79.6001 56.0312V56.0312Z" fill="white" stroke="white" stroke-width="0.614594" stroke-miterlimit="10"/>
<path d="M45.988 36.1703C47.0412 37.1464 48.4114 37.7037 49.843 37.7382H49.8568L52.356 37.7463C52.8392 37.7481 53.3168 37.8502 53.7589 38.0463C54.2011 38.2425 54.5981 38.5284 54.9252 38.8862L56.0263 40.1022C56.0826 40.1644 56.1506 40.2148 56.2263 40.2506C56.302 40.2864 56.384 40.3068 56.4675 40.3107C56.5511 40.3147 56.6346 40.302 56.7133 40.2734C56.7919 40.2449 56.8643 40.201 56.9261 40.1444C56.9879 40.0877 57.038 40.0193 57.0736 39.9432C57.1092 39.867 57.1295 39.7846 57.1334 39.7005C57.1373 39.6165 57.1247 39.5325 57.0963 39.4533C57.0679 39.3742 57.0243 39.3014 56.9679 39.2392L55.8646 38.022C55.4186 37.5337 54.8772 37.1434 54.2742 36.8756C53.6712 36.6078 53.0197 36.4682 52.3606 36.4656L49.8671 36.4576C48.7623 36.4274 47.7047 36.001 46.885 35.2554L39.6396 26.5909C39.6052 26.547 39.5886 26.4917 39.5931 26.436C39.5976 26.3804 39.6228 26.3284 39.6637 26.2907C39.7045 26.2529 39.7581 26.232 39.8136 26.2323C39.8691 26.2325 39.9225 26.2539 39.963 26.292L46.5581 32.926C46.8718 33.2412 47.2972 33.4183 47.7406 33.4183C48.184 33.4183 48.6094 33.2412 48.9231 32.926L49.6985 32.1472L51.0748 30.7627L51.8502 29.9828C52.1632 29.6673 52.339 29.2397 52.339 28.7939C52.339 28.3481 52.1632 27.9205 51.8502 27.605L45.2551 20.9699C45.2172 20.9291 45.196 20.8754 45.1958 20.8195C45.1955 20.7637 45.2162 20.7098 45.2538 20.6687C45.2913 20.6276 45.3429 20.6023 45.3983 20.5978C45.4536 20.5933 45.5086 20.61 45.5522 20.6445L54.1648 27.9338C54.907 28.7578 55.3314 29.8219 55.361 30.9335L55.3679 33.4429C55.3711 34.1062 55.5104 34.7617 55.7771 35.3684C56.0437 35.9751 56.4319 36.5199 56.9175 36.9687L58.0977 38.0498C58.1588 38.11 58.2313 38.1573 58.311 38.1888C58.3907 38.2202 58.4758 38.2352 58.5614 38.2328C58.6469 38.2304 58.7311 38.2106 58.8089 38.1747C58.8867 38.1388 58.9565 38.0876 59.0141 38.0239C59.0717 37.9603 59.116 37.8856 59.1443 37.8044C59.1726 37.7231 59.1843 37.637 59.1788 37.5511C59.1732 37.4652 59.1505 37.3812 59.1119 37.3044C59.0734 37.2275 59.0198 37.1593 58.9545 37.1037L57.7766 36.0238C57.4207 35.6946 57.1363 35.295 56.9411 34.8501C56.7459 34.4052 56.6441 33.9246 56.6422 33.4383L56.6342 30.9231V30.9093C56.5996 29.4693 56.0456 28.091 55.0754 27.0315C55.0571 27.0119 55.0376 26.9935 55.017 26.9751L46.3711 19.6604C46.0797 19.3914 45.694 19.2499 45.2989 19.267C44.9037 19.2841 44.5315 19.4584 44.2641 19.7515C43.9968 20.0446 43.8561 20.4326 43.8731 20.8301C43.8901 21.2276 44.0633 21.602 44.3547 21.8709L50.9498 28.506C51.0246 28.5813 51.0666 28.6834 51.0666 28.7899C51.0666 28.8963 51.0246 28.9984 50.9498 29.0737L50.6252 29.4002L43.2743 22.0059C43.2152 21.9465 43.145 21.8993 43.0678 21.8671C42.9905 21.8349 42.9077 21.8183 42.8241 21.8183C42.7405 21.8183 42.6577 21.8349 42.5805 21.8671C42.5033 21.8993 42.4331 21.9465 42.3739 22.0059C42.3148 22.0654 42.2679 22.136 42.2359 22.2137C42.2039 22.2914 42.1875 22.3746 42.1875 22.4587C42.1875 22.5428 42.2039 22.6261 42.2359 22.7038C42.2679 22.7815 42.3148 22.8521 42.3739 22.9116L49.7249 30.3059L49.2489 30.7847L41.8979 23.3904C41.8388 23.3309 41.7687 23.2837 41.6914 23.2516C41.6142 23.2194 41.5314 23.2028 41.4478 23.2028C41.3642 23.2028 41.2814 23.2194 41.2041 23.2516C41.1269 23.2837 41.0567 23.3309 40.9976 23.3904C40.9385 23.4498 40.8916 23.5205 40.8596 23.5982C40.8276 23.6759 40.8111 23.7591 40.8111 23.8432C40.8111 23.9273 40.8276 24.0106 40.8596 24.0883C40.8916 24.166 40.9385 24.2366 40.9976 24.2961L48.3473 31.6904L48.0228 32.0169C47.9859 32.0542 47.942 32.0839 47.8937 32.1041C47.8453 32.1244 47.7935 32.1348 47.7412 32.1348C47.6888 32.1348 47.637 32.1244 47.5887 32.1041C47.5403 32.0839 47.4965 32.0542 47.4596 32.0169L40.8634 25.3829C40.5958 25.0896 40.2234 24.9152 39.8281 24.8982C39.4327 24.8811 39.0468 25.0226 38.7553 25.2917C38.4637 25.5608 38.2903 25.9355 38.2734 26.3331C38.2564 26.7308 38.3971 27.119 38.6646 27.4123L45.9376 36.108C45.9532 36.1297 45.97 36.1505 45.988 36.1703V36.1703Z" fill="white" stroke="white" stroke-width="0.614594" stroke-miterlimit="10"/>
</g>
<defs>
<clipPath id="clip0_5653_119480">
<rect width="43.0216" height="43.0216" fill="white" transform="translate(38 19)"/>
</clipPath>
</defs>
</svg>
