<svg width="21" height="20" viewBox="0 0 21 20" fill="none" xmlns="http://www.w3.org/2000/svg">
<path d="M18.5312 7.22127C18.0872 7.98451 16.635 8.63384 14.6068 9.00976C13.2228 9.26339 11.8157 9.38551 10.4062 9.37429C8.9968 9.38551 7.58967 9.26339 6.20573 9.00976C4.17748 8.63384 2.7253 7.95077 2.28125 7.18753C2.47593 6.80581 2.78445 6.52055 3.16851 6.30385C3.55257 6.08715 3.99523 5.98231 4.44152 6.00237C4.60503 5.98497 4.77007 5.98497 4.93358 6.00237C5.07387 5.54493 5.37331 5.14612 5.78307 4.87097C6.19283 4.59581 6.68872 4.46057 7.18985 4.48728C7.51482 4.48272 7.83738 4.54086 8.13797 4.65815C8.30121 4.21048 8.6074 3.82224 9.01394 3.54746C9.42049 3.27267 9.90716 3.125 10.4062 3.125C10.9053 3.125 11.392 3.27267 11.7986 3.54746C12.2051 3.82224 12.5113 4.21048 12.6745 4.65815C12.9751 4.54086 13.2977 4.48272 13.6226 4.48728C14.1238 4.46057 14.6197 4.59581 15.0294 4.87097C15.4392 5.14612 15.7386 5.54493 15.8789 6.00237C16.0424 5.98497 16.2075 5.98497 16.371 6.00237C16.8173 5.98231 17.2599 6.08715 17.644 6.30385C18.028 6.52055 18.3366 6.83956 18.5312 7.22127Z" fill="white"/>
<path fill-rule="evenodd" clip-rule="evenodd" d="M4.44152 6.00237C3.99523 5.98231 3.55257 6.08715 3.16851 6.30385C2.78445 6.52055 2.47593 6.80581 2.28125 7.18753C2.7253 7.95077 4.003 8.99908 6.03125 9.375C7.41519 9.62863 8.9968 10.0112 10.4062 10C11.8157 10.0112 13.3973 9.62863 14.7812 9.375C16.8095 8.99908 18.0872 7.98451 18.5312 7.22127C18.3366 6.83956 18.028 6.52055 17.644 6.30385C17.2599 6.08715 16.8173 5.98231 16.371 6.00237C16.2075 5.98497 16.0424 5.98497 15.8789 6.00237C15.7386 5.54493 15.4392 5.14612 15.0294 4.87097C14.6197 4.59581 14.1238 4.46057 13.6226 4.48728C13.3073 4.48286 12.9942 4.53747 12.7013 4.6479C12.6923 4.65126 12.6834 4.65468 12.6745 4.65815C12.6717 4.6505 12.6689 4.64282 12.666 4.63521C12.5008 4.19722 12.1981 3.81754 11.7986 3.54746C11.392 3.27267 10.9053 3.125 10.4062 3.125C9.90716 3.125 9.42049 3.27267 9.01394 3.54746C8.61438 3.81753 8.31175 4.19719 8.1465 4.63516C8.14362 4.64281 8.14077 4.65047 8.13797 4.65815C8.12908 4.65468 8.12016 4.65126 8.11123 4.6479C7.81829 4.53747 7.5052 4.48286 7.18985 4.48728C6.68872 4.46057 6.19283 4.59581 5.78307 4.87097C5.37331 5.14612 5.07387 5.54493 4.93358 6.00237C4.77007 5.98497 4.60503 5.98497 4.44152 6.00237ZM17.6621 7.17362C17.4871 7.31357 17.2357 7.46854 16.8893 7.62561C16.2809 7.90146 15.4663 8.14471 14.4871 8.32626C13.1445 8.57227 11.7792 8.69075 10.4115 8.67987L10.4062 8.67983L10.401 8.67987C9.03332 8.69075 7.66802 8.57227 6.32542 8.32625C5.35008 8.14543 4.5371 7.89476 3.92948 7.61163C3.58648 7.45181 3.33514 7.29381 3.15865 7.15098C3.25258 7.06545 3.36405 6.98611 3.49487 6.9123C3.76796 6.75821 4.08714 6.68155 4.41188 6.69615L4.46175 6.69839L4.51139 6.6931C4.62844 6.68065 4.74665 6.68065 4.8637 6.6931L5.41358 6.75162L5.57946 6.21075C5.67045 5.91406 5.86835 5.64374 6.15395 5.45196C6.44031 5.25968 6.79334 5.16152 7.15471 5.18079L7.17689 5.18197L7.19911 5.18166C7.43961 5.17829 7.67728 5.22139 7.8972 5.30721L8.53363 5.55556L8.77216 4.90141C8.8828 4.59797 9.09401 4.32502 9.38652 4.12731C9.67957 3.92923 10.0361 3.81944 10.4062 3.81944C10.7764 3.81944 11.1329 3.92923 11.426 4.12731C11.7185 4.32502 11.9297 4.59797 12.0403 4.90141L12.2789 5.55556L12.9153 5.30721C13.1352 5.22139 13.3729 5.17829 13.6134 5.18166L13.6356 5.18197L13.6578 5.18079C14.0192 5.16152 14.3722 5.25968 14.6586 5.45196C14.9442 5.64374 15.1421 5.91407 15.233 6.21075L15.3989 6.75162L15.9488 6.6931C16.0659 6.68065 16.1841 6.68065 16.3011 6.6931L16.3508 6.69839L16.4006 6.69615C16.7254 6.68156 17.0445 6.75821 17.3176 6.9123C17.4471 6.98534 17.5626 7.07368 17.6621 7.17362Z" fill="#CA1010"/>
<path d="M3.06649 7.20096C3.0671 7.05691 2.60658 7.11438 2.60658 7.11438C2.60658 7.11438 2.06846 7.38409 2.04887 7.5269L1.03369 13.629C1.03206 13.6409 1.03125 13.6528 1.03125 13.6647C1.03125 14.1896 1.35983 14.6469 1.85258 15.0236C2.34811 15.4025 3.04764 15.7314 3.88681 16.0023C5.56804 16.5449 7.87276 16.875 10.4062 16.875C12.9397 16.875 15.2445 16.5449 16.9257 16.0023C17.7649 15.7314 18.4644 15.4025 18.9599 15.0236C19.4527 14.6469 19.7812 14.1896 19.7812 13.6647C19.7812 13.6528 19.7804 13.6409 19.7788 13.629L18.67 7.52689C18.6504 7.38408 18.207 6.875 18.207 6.875C18.207 6.875 17.9909 7.05693 17.9916 7.20097C17.9921 7.32437 18.271 7.28247 18.207 7.38938C18.0095 7.70425 17.5965 8.02639 16.9569 8.32047C16.3228 8.61208 15.4952 8.86267 14.5115 9.05075C11.7982 9.53915 9.01424 9.53915 6.30104 9.05075C5.31665 8.86255 4.47756 8.61181 3.83769 8.32008C3.18849 8.0241 2.78319 7.70349 2.61047 7.39777L2.60658 7.39111C2.54183 7.28378 3.06595 7.32501 3.06649 7.20096Z" fill="#CA1010"/>
<path d="M11.8288 9.375C12.1764 9.375 12.4781 9.44069 12.7337 9.57207C12.9944 9.6972 13.1913 9.87237 13.3242 10.0976C13.4622 10.3166 13.5312 10.5699 13.5312 10.8577C13.5312 11.0204 13.5134 11.1705 13.4776 11.3082C13.3293 11.9401 12.9024 12.3405 12.1969 12.5094C12.4423 12.597 12.6366 12.744 12.7797 12.9505C12.9229 13.1507 12.9944 13.4009 12.9944 13.7012C12.9944 13.8388 12.974 14.0015 12.9331 14.1892C12.8206 14.6772 12.5931 15.04 12.2506 15.2778C11.9132 15.5093 11.4326 15.625 10.8089 15.625H7.61867C7.51131 15.625 7.42951 15.6031 7.37327 15.5593C7.31192 15.5155 7.28125 15.4561 7.28125 15.381C7.28125 15.3435 7.28892 15.3028 7.30426 15.259C7.32471 15.1902 7.35794 15.137 7.40395 15.0995C7.44996 15.0619 7.47808 15.04 7.48831 15.0338C7.5701 14.9712 7.63657 14.9087 7.68769 14.8461C7.73882 14.7773 7.78227 14.6678 7.81806 14.5176L8.75364 10.473C8.77409 10.3916 8.78432 10.3134 8.78432 10.2384C8.78432 10.1695 8.77409 10.1132 8.75364 10.0694C8.73831 10.0194 8.7153 9.96309 8.68462 9.90053C8.63861 9.81919 8.61561 9.7535 8.61561 9.70345C8.61561 9.68468 8.62072 9.65028 8.63094 9.60022C8.65139 9.51889 8.69485 9.46259 8.76131 9.43131C8.83289 9.39377 8.94025 9.375 9.0834 9.375H11.8288ZM11.4837 11.0923C11.5195 10.9547 11.5374 10.8265 11.5374 10.7076C11.5374 10.3823 11.3866 10.2196 11.0849 10.2196H10.7398L10.3334 11.9745H10.6708C10.8855 11.9745 11.0543 11.9119 11.177 11.7868C11.3048 11.6554 11.407 11.4239 11.4837 11.0923ZM10.9239 13.8514C10.9597 13.7012 10.9776 13.5636 10.9776 13.4384C10.9776 13.1006 10.8191 12.9317 10.5021 12.9317H10.1187L9.68156 14.7804H10.0727C10.2925 14.7804 10.4689 14.7147 10.6018 14.5833C10.7347 14.4457 10.8421 14.2017 10.9239 13.8514Z" fill="white"/>
</svg>
