<svg width="31" height="30" viewBox="0 0 31 30" fill="none" xmlns="http://www.w3.org/2000/svg">
<path fill-rule="evenodd" clip-rule="evenodd" d="M4.33301 7H22.333C22.8853 7 23.333 7.44771 23.333 8V10H8.33301C7.22844 10 6.33301 10.8954 6.33301 12V13V16V19H4.33301C3.78072 19 3.33301 18.5523 3.33301 18V8C3.33301 7.44772 3.78072 7 4.33301 7ZM7.33301 16V19V20V22C7.33301 22.5523 7.78072 23 8.33301 23H26.333C26.8853 23 27.333 22.5523 27.333 22V16H7.33301ZM28.333 13V16V22C28.333 23.1046 27.4376 24 26.333 24H8.33301C7.22844 24 6.33301 23.1046 6.33301 22V20H4.33301C3.22844 20 2.33301 19.1046 2.33301 18V8C2.33301 6.89543 3.22844 6 4.33301 6H22.333C23.4376 6 24.333 6.89543 24.333 8V10H26.333C27.4376 10 28.333 10.8954 28.333 12V13ZM27.333 13H7.33301V12C7.33301 11.4477 7.78072 11 8.33301 11H23.333H24.333H26.333C26.8853 11 27.333 11.4477 27.333 12V13ZM8.33301 18.5C8.33301 18.2239 8.55687 18 8.83301 18H14.833C15.1091 18 15.333 18.2239 15.333 18.5C15.333 18.7761 15.1091 19 14.833 19H8.83301C8.55687 19 8.33301 18.7761 8.33301 18.5ZM8.83301 20C8.55687 20 8.33301 20.2239 8.33301 20.5C8.33301 20.7761 8.55687 21 8.83301 21H12.833C13.1091 21 13.333 20.7761 13.333 20.5C13.333 20.2239 13.1091 20 12.833 20H8.83301Z" fill="#202020"/>
</svg>
