<svg width="24" height="24" viewBox="0 0 24 24" fill="none" xmlns="http://www.w3.org/2000/svg">
<path d="M7.49902 11C8.32745 11 8.99902 10.3284 8.99902 9.5C8.99902 8.67157 8.32745 8 7.49902 8C6.6706 8 5.99902 8.67157 5.99902 9.5C5.99902 10.3284 6.6706 11 7.49902 11Z" fill="#636363" fill-opacity="0.85"/>
<path d="M10.25 14.1667L8.5 11.8333L5 16.5H19L13.75 9.5L10.25 14.1667Z" fill="#636363" fill-opacity="0.85"/>
<path d="M19.999 4H3.99902C2.89602 4 1.99902 4.897 1.99902 6V18C1.99902 19.103 2.89602 20 3.99902 20H19.999C21.102 20 21.999 19.103 21.999 18V6C21.999 4.897 21.102 4 19.999 4ZM3.99902 18V6H19.999L20.001 18H3.99902Z" fill="#636363" fill-opacity="0.85"/>
</svg>
