<svg width="31" height="30" viewBox="0 0 31 30" fill="none" xmlns="http://www.w3.org/2000/svg">
<path fill-rule="evenodd" clip-rule="evenodd" d="M13.167 12.5C13.167 13.6046 12.2716 14.5 11.167 14.5C10.0624 14.5 9.16699 13.6046 9.16699 12.5C9.16699 11.3954 10.0624 10.5 11.167 10.5C12.2716 10.5 13.167 11.3954 13.167 12.5ZM12.5157 15.1805C13.4952 14.6867 14.167 13.6718 14.167 12.5C14.167 10.8431 12.8238 9.5 11.167 9.5C9.51014 9.5 8.16699 10.8431 8.16699 12.5C8.16699 13.6718 8.83882 14.6867 9.81831 15.1805C7.40833 15.8401 5.66699 18.2273 5.66699 21H6.66699C6.66699 18.1927 8.72549 16 11.167 16C13.6085 16 15.667 18.1927 15.667 21H16.667C16.667 18.2273 14.9256 15.8401 12.5157 15.1805Z" fill="#202020"/>
<path fill-rule="evenodd" clip-rule="evenodd" d="M4.66699 6H26.667C27.2193 6 27.667 6.44772 27.667 7V23C27.667 23.5523 27.2193 24 26.667 24H4.66699C4.11471 24 3.66699 23.5523 3.66699 23V7C3.66699 6.44772 4.11471 6 4.66699 6ZM2.66699 7C2.66699 5.89543 3.56242 5 4.66699 5H26.667C27.7716 5 28.667 5.89543 28.667 7V23C28.667 24.1046 27.7716 25 26.667 25H4.66699C3.56242 25 2.66699 24.1046 2.66699 23V7ZM19.167 10C18.8909 10 18.667 10.2239 18.667 10.5C18.667 10.7761 18.8909 11 19.167 11H25.167C25.4431 11 25.667 10.7761 25.667 10.5C25.667 10.2239 25.4431 10 25.167 10H19.167ZM18.667 14.5C18.667 14.2239 18.8909 14 19.167 14H25.167C25.4431 14 25.667 14.2239 25.667 14.5C25.667 14.7761 25.4431 15 25.167 15H19.167C18.8909 15 18.667 14.7761 18.667 14.5ZM19.167 18C18.8909 18 18.667 18.2239 18.667 18.5C18.667 18.7761 18.8909 19 19.167 19H25.167C25.4431 19 25.667 18.7761 25.667 18.5C25.667 18.2239 25.4431 18 25.167 18H19.167Z" fill="#202020"/>
</svg>
