<svg width="30" height="30" viewBox="0 0 30 30" fill="none" xmlns="http://www.w3.org/2000/svg">
<path fill-rule="evenodd" clip-rule="evenodd" d="M17.5653 10.4348C17.5653 12.3318 16.0275 13.8696 14.1306 13.8696C12.2336 13.8696 10.6958 12.3318 10.6958 10.4348C10.6958 8.5378 12.2336 7 14.1306 7C16.0275 7 17.5653 8.5378 17.5653 10.4348ZM15.7725 14.5557C17.4089 13.9031 18.5653 12.304 18.5653 10.4348C18.5653 7.98552 16.5798 6 14.1306 6C11.6813 6 9.69578 7.98552 9.69578 10.4348C9.69578 12.304 10.8522 13.9031 12.4886 14.5557C8.89154 15.385 6.23926 18.8844 6.23926 23C6.23926 23.2761 6.46312 23.5 6.73926 23.5C7.0154 23.5 7.23926 23.2761 7.23926 23C7.23926 18.7399 10.3684 15.3696 14.1306 15.3696C17.8927 15.3696 21.0219 18.7399 21.0219 23C21.0219 23.2761 21.2457 23.5 21.5219 23.5C21.798 23.5 22.0219 23.2761 22.0219 23C22.0219 18.8844 19.3696 15.385 15.7725 14.5557ZM8.65408 8.52016C8.27609 8.47034 7.89189 8.51313 7.53185 8.64559C7.17172 8.77809 6.8447 8.99707 6.57783 9.28656C6.31088 9.57613 6.11172 9.92808 5.99775 10.3148C5.88377 10.7015 5.85855 11.1111 5.92435 11.5102C5.99014 11.9094 6.14488 12.2856 6.37489 12.609C6.60484 12.9323 6.90327 13.1934 7.24507 13.3729C7.58678 13.5522 7.96306 13.6454 8.34394 13.6459C8.60821 13.6462 8.82658 13.8521 8.84239 14.1159C8.8582 14.3798 8.66599 14.6103 8.40365 14.6422C7.11412 14.799 5.88911 15.6093 4.97607 16.798C4.06473 17.9845 3.5 19.5042 3.5 21C3.5 21.2761 3.27614 21.5 3 21.5C2.72386 21.5 2.5 21.2761 2.5 21C2.5 19.2631 3.15077 17.5328 4.18301 16.1889C4.84055 15.3328 5.6675 14.6157 6.60151 14.1575C6.19368 13.9112 5.83929 13.5813 5.55996 13.1886C5.24061 12.7395 5.02792 12.2204 4.93766 11.6729C4.84742 11.1255 4.88188 10.5636 5.03854 10.0321C5.1952 9.50051 5.47009 9.01282 5.84258 8.60876C6.21515 8.20461 6.67517 7.89525 7.18655 7.7071C7.69802 7.51892 8.24554 7.45766 8.78476 7.52874C9.05854 7.56482 9.25122 7.81602 9.21513 8.08979C9.17905 8.36357 8.92785 8.55625 8.65408 8.52016ZM20.4682 8.64559C20.1081 8.51313 19.7239 8.47034 19.3459 8.52016C19.0721 8.55625 18.821 8.36357 18.7849 8.08979C18.7488 7.81602 18.9415 7.56482 19.2152 7.52874C19.7545 7.45766 20.302 7.51892 20.8134 7.7071C21.3248 7.89525 21.7848 8.20461 22.1574 8.60876C22.5299 9.01282 22.8048 9.50051 22.9615 10.0321C23.1181 10.5636 23.1526 11.1255 23.0623 11.6729C22.9721 12.2204 22.7594 12.7395 22.44 13.1886C22.1607 13.5813 21.8063 13.9112 21.3985 14.1575C22.3325 14.6157 23.1595 15.3328 23.817 16.1889C24.8492 17.5328 25.5 19.2631 25.5 21C25.5 21.2761 25.2761 21.5 25 21.5C24.7239 21.5 24.5 21.2761 24.5 21C24.5 19.5042 23.9353 17.9845 23.0239 16.798C22.1109 15.6093 20.8859 14.799 19.5964 14.6422C19.334 14.6103 19.1418 14.3798 19.1576 14.1159C19.1734 13.8521 19.3918 13.6462 19.6561 13.6459C20.0369 13.6454 20.4132 13.5522 20.7549 13.3729C21.0967 13.1934 21.3952 12.9323 21.6251 12.609C21.8551 12.2856 22.0099 11.9094 22.0757 11.5102C22.1415 11.1111 22.1162 10.7015 22.0023 10.3148C21.8883 9.92808 21.6891 9.57613 21.4222 9.28656C21.1553 8.99707 20.8283 8.77809 20.4682 8.64559Z" fill="#202020"/>
<circle cx="23" cy="20" r="5" fill="#202020"/>
<path fill-rule="evenodd" clip-rule="evenodd" d="M22.4 20.5C22.4552 20.5 22.5 20.5448 22.5 20.6V22.4C22.5 22.4552 22.5448 22.5 22.6 22.5H23.4C23.4552 22.5 23.5 22.4552 23.5 22.4V20.6C23.5 20.5448 23.5448 20.5 23.6 20.5H25.4C25.4552 20.5 25.5 20.4552 25.5 20.4V19.6C25.5 19.5448 25.4552 19.5 25.4 19.5H23.6C23.5448 19.5 23.5 19.4552 23.5 19.4V17.6C23.5 17.5448 23.4552 17.5 23.4 17.5H22.6C22.5448 17.5 22.5 17.5448 22.5 17.6V19.4C22.5 19.4552 22.4552 19.5 22.4 19.5H20.6C20.5448 19.5 20.5 19.5448 20.5 19.6V20.4C20.5 20.4552 20.5448 20.5 20.6 20.5H22.4Z" fill="white"/>
</svg>
