<svg width="30" height="30" viewBox="0 0 30 30" fill="none" xmlns="http://www.w3.org/2000/svg">
<g clip-path="url(#clip0_6173_121593)">
<path d="M9.98419 8.86905L18.5191 23.6519C18.7836 24.1107 18.8776 24.6482 18.7847 25.1696C18.6917 25.6911 18.4178 26.163 18.011 26.5022C17.6043 26.8414 17.0909 27.0262 16.5613 27.024C16.0316 27.0219 15.5198 26.8328 15.1158 26.4903L8.81038 21.0561M8.81038 21.0561C7.64048 21.199 6.45777 20.9344 5.46121 20.3052C4.46466 19.6759 3.71612 18.7217 3.34227 17.6039C2.96842 16.4862 2.99221 15.2736 3.40963 14.1714C3.82705 13.0692 4.61245 12.1451 5.63292 11.5554L7.66033 10.3848C12.1977 7.76521 15.3102 4.14735 15.8894 1.2071L24.8345 16.7004C21.9986 15.7319 17.3102 16.6179 12.7718 19.2382L10.7444 20.4087C10.1502 20.7529 9.49195 20.9724 8.81038 21.0561ZM22.2788 12.2738C23.1593 11.7654 23.8018 10.9281 24.0649 9.94597C24.3281 8.96388 24.1903 7.91747 23.682 7.03696C23.1736 6.15644 22.3363 5.51393 21.3542 5.25078C20.3721 4.98763 19.3257 5.1254 18.4452 5.63376" stroke="black" stroke-linecap="round" stroke-linejoin="round"/>
</g>
<defs>
<clipPath id="clip0_6173_121593">
<rect width="30" height="30" fill="white"/>
</clipPath>
</defs>
</svg>
