<svg width="31" height="30" viewBox="0 0 31 30" fill="none" xmlns="http://www.w3.org/2000/svg">
<path d="M9.76758 6.5L7.76758 4.5" stroke="#202020" stroke-linecap="round" stroke-linejoin="round"/>
<path d="M8.76758 10H6.26758" stroke="#202020" stroke-linecap="round" stroke-linejoin="round"/>
<path d="M17.7676 6.5L19.7676 4.5" stroke="#202020" stroke-linecap="round" stroke-linejoin="round"/>
<path d="M18.2676 10H20.7676" stroke="#202020" stroke-linecap="round" stroke-linejoin="round"/>
<line x1="13.7676" y1="2.5" x2="13.7676" y2="5.5" stroke="#202020" stroke-linecap="round"/>
<path fill-rule="evenodd" clip-rule="evenodd" d="M12.876 10.8674C12.8864 10.4512 13.2268 10.1191 13.6432 10.1191C14.0596 10.1191 14.4 10.4512 14.4105 10.8674L14.5258 15.4806V17.4746C14.5258 17.7648 14.761 18 15.0512 18C15.3413 18 15.5766 17.7648 15.5766 17.4746V15.9971C15.6585 15.6387 15.98 15.373 16.361 15.373C16.7963 15.373 17.1526 15.7191 17.1654 16.1541L17.1948 17.1531V17.4746C17.1948 17.7648 17.43 18 17.7202 18C18.0104 18 18.2456 17.7648 18.2456 17.4746V17.1456L18.2722 16.3666C18.2871 15.9297 18.6456 15.5832 19.0828 15.5832C19.4884 15.5832 19.8263 15.8814 19.8849 16.2734V17.4745C19.8849 17.7647 20.1201 17.9999 20.4102 17.9999C20.7004 17.9999 20.9356 17.7647 20.9356 17.4745V16.9861C21.0522 16.657 21.3664 16.4238 21.732 16.4238C22.1735 16.4238 22.5405 16.7638 22.5742 17.2039L22.6166 17.7574L22.6168 19.5761V21.1523C22.6168 23.7638 20.4998 25.8808 17.8883 25.8808C17.8602 25.8808 17.832 25.8806 17.804 25.8801L17.7925 25.8799L17.7811 25.8802C17.7651 25.8806 17.7492 25.8808 17.7332 25.8808H16.3718C15.3965 25.8808 14.461 25.4933 13.7713 24.8036L11.8574 22.8898L8.64702 19.4121C8.34196 19.0817 8.35221 18.5693 8.67025 18.2513C8.92277 17.9988 9.30755 17.9342 9.62874 18.0902L12.6586 19.562L12.876 10.8674ZM13.6432 9.06836C12.6567 9.06836 11.8502 9.85498 11.8256 10.8412L11.649 17.9034L10.0879 17.145C9.36387 16.7933 8.49651 16.9391 7.92731 17.5082C7.21039 18.225 7.18727 19.38 7.87494 20.1249L11.0996 23.618L13.0283 25.5466C13.9151 26.4334 15.1178 26.9316 16.3718 26.9316H17.7332C17.7544 26.9316 17.7756 26.9314 17.7968 26.9309C17.8273 26.9314 17.8578 26.9316 17.8883 26.9316C21.0801 26.9316 23.6676 24.3441 23.6676 21.1523L23.6674 18.5254V17.7172L23.6219 17.1236C23.5462 16.1359 22.7227 15.373 21.732 15.373C21.3856 15.373 21.0604 15.4661 20.7805 15.6289C20.4881 14.9809 19.8363 14.5324 19.0828 14.5324C18.5952 14.5324 18.1503 14.7202 17.8177 15.0282C17.4774 14.5976 16.9506 14.3223 16.361 14.3223C16.0714 14.3223 15.7971 14.3886 15.5526 14.5072L15.4609 10.8412C15.4363 9.85498 14.6297 9.06836 13.6432 9.06836Z" fill="#202020"/>
</svg>
