<svg width="30" height="30" viewBox="0 0 30 30" fill="none" xmlns="http://www.w3.org/2000/svg">
<path fill-rule="evenodd" clip-rule="evenodd" d="M14.983 7.79297H5C3.89543 7.79297 3 8.6884 3 9.79297V20.1725C3 21.2771 3.89543 22.1725 5 22.1725H6.79318H7.79318V23.1725V25.7586C7.79318 26.2041 8.33176 26.4271 8.64674 26.1122L12.5864 22.1725H20.1727C21.2773 22.1725 22.1727 21.2771 22.1727 20.1725V14.9825H21.1727V20.1725C21.1727 20.7248 20.725 21.1725 20.1727 21.1725H12.5864H12.1722L11.8793 21.4654L8.79318 24.5515V22.1725V21.1725H7.79318H5C4.44772 21.1725 4 20.7248 4 20.1725V9.79297C4 9.24068 4.44772 8.79297 5 8.79297H14.983V7.79297Z" fill="#202020"/>
<path d="M23.6104 3.70711L26.2925 6.38929L18.2563 14.4255L14.233 15.7666L15.5741 11.7433L23.6104 3.70711Z" stroke="#202020"/>
<rect x="6.59473" y="12.5859" width="5.99148" height="1.1983" fill="#202020"/>
<rect x="6.59473" y="16.1816" width="5.99148" height="1.1983" fill="#202020"/>
</svg>
