<svg width="30" height="30" viewBox="0 0 30 30" fill="none" xmlns="http://www.w3.org/2000/svg">
<path fill-rule="evenodd" clip-rule="evenodd" d="M15 7.79688H5C3.9 7.79688 3 8.69687 3 9.79688V20.1969C3 21.2969 3.9 22.1969 5 22.1969H6.8H7.8V23.1969V25.7969C7.8 26.1969 8.3 26.4969 8.7 26.1969L12.6 22.2969H20.2C21.3 22.2969 22.2 21.3969 22.2 20.2969V14.9969H21.2V20.1969C21.2 20.7969 20.8 21.1969 20.2 21.1969H12.6H12.2L11.9 21.4969L8.8 24.5969V22.1969V21.1969H7.8H5C4.4 21.1969 4 20.7969 4 20.1969V9.79688C4 9.19687 4.4 8.79688 5 8.79688H15V7.79688Z" fill="#202020"/>
<path d="M13.4004 16.6L15.1004 11.5L23.6004 3L27.0004 6.4L18.5004 14.9L13.4004 16.6ZM16.0004 12L15.0004 15L18.0004 14L25.6004 6.4L23.6004 4.4L16.0004 12Z" fill="#202020"/>
<path d="M12.5996 12.6016H6.59961V13.8016H12.5996V12.6016Z" fill="#202020"/>
<path d="M12.5996 16.2031H6.59961V17.4031H12.5996V16.2031Z" fill="#202020"/>
</svg>
