<svg width="30" height="30" viewBox="0 0 30 30" fill="none" xmlns="http://www.w3.org/2000/svg">
<mask id="path-1-inside-1_3821_115677" fill="white">
<path fill-rule="evenodd" clip-rule="evenodd" d="M14.6396 4.34384C14.8341 4.15296 15.1456 4.15296 15.3401 4.34384L27.1072 15.8932C27.4267 16.2069 27.2047 16.7501 26.757 16.7501H23.9899V27.0001H15.9995V21.0001H13.9995V27.0001H5.98992V16.7501H3.22268C2.77498 16.7501 2.55293 16.2069 2.87245 15.8932L14.6396 4.34384Z"/>
</mask>
<path d="M15.3401 4.34384L16.741 2.91649L16.741 2.91648L15.3401 4.34384ZM14.6396 4.34384L16.0405 5.7712L16.0405 5.7712L14.6396 4.34384ZM27.1072 15.8932L25.7063 17.3206L25.7063 17.3206L27.1072 15.8932ZM23.9899 16.7501V14.7501H21.9899V16.7501H23.9899ZM23.9899 27.0001V29.0001H25.9899V27.0001H23.9899ZM15.9995 27.0001H13.9995V29.0001H15.9995V27.0001ZM15.9995 21.0001H17.9995V19.0001H15.9995V21.0001ZM13.9995 21.0001V19.0001H11.9995V21.0001H13.9995ZM13.9995 27.0001V29.0001H15.9995V27.0001H13.9995ZM5.98992 27.0001H3.98992V29.0001H5.98992V27.0001ZM5.98992 16.7501H7.98992V14.7501H5.98992V16.7501ZM2.87245 15.8932L4.27339 17.3206L4.27339 17.3206L2.87245 15.8932ZM16.741 2.91648C15.7686 1.96209 14.2111 1.96208 13.2387 2.91649L16.0405 5.7712C15.4571 6.34385 14.5226 6.34384 13.9391 5.7712L16.741 2.91648ZM28.5082 14.4659L16.741 2.91649L13.9391 5.7712L25.7063 17.3206L28.5082 14.4659ZM26.757 18.7501C28.9955 18.7501 30.1058 16.0339 28.5082 14.4659L25.7063 17.3206C24.7477 16.3798 25.4138 14.7501 26.757 14.7501V18.7501ZM23.9899 18.7501H26.757V14.7501H23.9899V18.7501ZM25.9899 27.0001V16.7501H21.9899V27.0001H25.9899ZM15.9995 29.0001H23.9899V25.0001H15.9995V29.0001ZM13.9995 21.0001V27.0001H17.9995V21.0001H13.9995ZM13.9995 23.0001H15.9995V19.0001H13.9995V23.0001ZM15.9995 27.0001V21.0001H11.9995V27.0001H15.9995ZM5.98992 29.0001H13.9995V25.0001H5.98992V29.0001ZM3.98992 16.7501V27.0001H7.98992V16.7501H3.98992ZM3.22268 18.7501H5.98992V14.7501H3.22268V18.7501ZM1.4715 14.4659C-0.126092 16.0339 0.984143 18.7501 3.22268 18.7501V14.7501C4.56581 14.7501 5.23195 16.3798 4.27339 17.3206L1.4715 14.4659ZM13.2387 2.91649L1.4715 14.4659L4.27339 17.3206L16.0405 5.7712L13.2387 2.91649Z" fill="#202020" mask="url(#path-1-inside-1_3821_115677)"/>
</svg>
