<svg width="30" height="30" viewBox="0 0 30 30" fill="none" xmlns="http://www.w3.org/2000/svg">
<mask id="path-1-inside-1_3804_52916" fill="white">
<path d="M5 7C5 5.89543 5.89543 5 7 5V5C8.10457 5 9 5.89543 9 7V9H5V7Z"/>
</mask>
<path d="M9 9V10H10V9H9ZM5 9H4V10H5V9ZM8 7V9H10V7H8ZM9 8H5V10H9V8ZM6 9V7H4V9H6ZM7 6C7.55228 6 8 6.44772 8 7H10C10 5.34315 8.65685 4 7 4V6ZM7 4C5.34315 4 4 5.34315 4 7H6C6 6.44772 6.44772 6 7 6V4Z" fill="#202020" mask="url(#path-1-inside-1_3804_52916)"/>
<mask id="path-3-inside-2_3804_52916" fill="white">
<path fill-rule="evenodd" clip-rule="evenodd" d="M11 23V21H25V23C25 24.1046 24.1046 25 23 25H10C9.44772 25 9 24.5523 9 24V23C9 23.5523 9.44772 24 10 24C10.5523 24 11 23.5523 11 23Z"/>
</mask>
<path d="M11 21V20H10V21H11ZM25 21H26V20H25V21ZM10 21V23H12V21H10ZM11 22H25V20H11V22ZM24 21V23H26V21H24ZM24 23C24 23.5523 23.5523 24 23 24V26C24.6569 26 26 24.6569 26 23H24ZM23 24H10V26H23V24ZM10 24H8C8 25.1046 8.89543 26 10 26V24ZM10 24V23H8V24H10ZM10 23H8C8 24.1046 8.89543 25 10 25V23ZM10 23V25C11.1046 25 12 24.1046 12 23H10Z" fill="#202020" mask="url(#path-3-inside-2_3804_52916)"/>
<path fill-rule="evenodd" clip-rule="evenodd" d="M21.9995 22L21.9995 21H20.9995L20.9995 22H21.9995ZM21.9996 24L21.9996 25H21.1825H9.99961C8.99965 25 7.99965 24 7.99961 23C7.99934 17.1421 7.99933 14.0294 7.99961 7C7.99963 6.5 7.49966 6 6.99961 6C6.49956 6 6.99961 5 6.99961 5H19.9996C20.9997 5 21.9997 5.99997 21.9996 7L21.9995 16H20.9995L20.9996 6.99995C20.9996 6.82519 20.9022 6.56674 20.6675 6.3321C20.4329 6.09746 20.1744 6 19.9996 6H19.9744H19.9491H19.9236H19.8981H19.8725H19.8468H19.821H19.7951H19.7691H19.743H19.7168H19.6905H19.6641H19.6376H19.611H19.5844H19.5576H19.5308H19.5038H19.4768H19.4497H19.4225H19.3952H19.3678H19.3403H19.3128H19.2851H19.2574H19.2296H19.2017H19.1737H19.1457H19.1176H19.0893H19.061H19.0326H19.0042H18.9756H18.947H18.9183H18.8895H18.8607H18.8318H18.8028H18.7737H18.7445H18.7153H18.686H18.6566H18.6272H18.5976H18.5681H18.5384H18.5087H18.4789H18.449H18.4191H18.3891H18.359H18.3289H18.2987H18.2684H18.2381H18.2077H18.1772H18.1467H18.1161H18.0854H18.0547H18.024H17.9931H17.9623H17.9313H17.9003H17.8692H17.8381H17.807H17.7757H17.7444H17.7131H17.6817H17.6503H17.6188H17.5872H17.5556H17.524H17.4922H17.4605H17.4287H17.3968H17.3649H17.333H17.301H17.2689H17.2369H17.2047H17.1725H17.1403H17.1081H17.0757H17.0434H17.011H16.9786H16.9461H16.9136H16.881H16.8484H16.8158H16.7831H16.7504H16.7177H16.6849H16.6521H16.6193H16.5864H16.5535H16.5205H16.4875H16.4545H16.4215H16.3884H16.3553H16.3222H16.289H16.2558H16.2226H16.1894H16.1561H16.1228H16.0895H16.0561H16.0227H15.9894H15.9559H15.9225H15.889H15.8555H15.822H15.7885H15.755H15.7214H15.6878H15.6542H15.6206H15.587H15.5533H15.5197H15.486H15.4523H15.4186H15.3849H15.3512H15.3174H15.2837H15.2499H15.2161H15.1824H15.1486H15.1148H15.081H15.0471H15.0133H14.9795H14.9457H14.9118H14.878H14.8441H14.8103H14.7764H14.7426H14.7087H14.6749H14.641H14.6072H14.5733H14.5395H14.5056H14.4718H14.4379H14.4041H14.3702H14.3364H14.3026H14.2688H14.235H14.2012H14.1674H14.1336H14.0998H14.066H14.0323H13.9985H13.9648H13.9311H13.8974H13.8637H13.83H13.7963H13.7627H13.729H13.6954H13.6618H13.6282H13.5947H13.5611H13.5276H13.4941H13.4606H13.4271H13.3937H13.3603H13.3269H13.2935H13.2601H13.2268H13.1935H13.1602H13.127H13.0938H13.0606H13.0274H12.9942H12.9611H12.9281H12.895H12.862H12.829H12.796H12.7631H12.7302H12.6974H12.6645H12.6318H12.599H12.5663H12.5336H12.501H12.4684H12.4358H12.4033H12.3708H12.3384H12.3059H12.2736H12.2413H12.209H12.1768H12.1446H12.1124H12.0803H12.0483H12.0163H11.9843H11.9524H11.9205H11.8887H11.8569H11.8252H11.7935H11.7619H11.7304H11.6988H11.6674H11.636H11.6046H11.5733H11.5421H11.5109H11.4798H11.4487H11.4177H11.3867H11.3558H11.3249H11.2942H11.2634H11.2328H11.2022H11.1716H11.1412H11.1108H11.0804H11.0501H11.0199H10.9897H10.9597H10.9296H10.8997H10.8698H10.84H10.8102H10.7806H10.7509H10.7214H10.6919H10.6625H10.6332H10.604H10.5748H10.5457H10.5167H10.4877H10.4589H10.4301H10.4013H10.3727H10.3441H10.3156H10.2872H10.2589H10.2307H10.2025H10.1744H10.1464H10.1185H10.0907H10.0629H10.0353H10.0077H9.98022H9.95281H9.9255H9.89827H9.87113H9.84408H9.81712H9.79025H9.76347H9.73678H9.71018H9.68368H9.65727H9.63095H9.60473H9.5786H9.55257H9.52663H9.50079H9.47505H9.4494H9.42386H9.39841H9.37306H9.34781H9.32267H9.29762H9.27268H9.24784H9.2231H9.19846H9.17393H9.14951H9.12519H9.10097H9.07687H9.05287H9.02898H9.00519H8.98152H8.95795H8.9345H8.91115H8.88792H8.8648H8.84179H8.81889H8.79611H8.77344H8.75089H8.72845H8.70634C8.88059 6.28247 8.99962 6.62331 8.99961 7.00004C8.99933 14.0295 8.99934 17.1421 8.99961 23C8.99962 23.1747 9.09709 23.4332 9.33175 23.6679C9.56641 23.9026 9.82487 24 9.99961 24H10.0225H10.0456H10.0687H10.0919H10.1152H10.1386H10.1621H10.1857H10.2094H10.2331H10.257H10.2809H10.305H10.3291H10.3533H10.3776H10.402H10.4265H10.4511H10.4757H10.5004H10.5252H10.5502H10.5751H10.6002H10.6253H10.6506H10.6759H10.7013H10.7268H10.7523H10.7779H10.8036H10.8294H10.8553H10.8812H10.9073H10.9333H10.9595H10.9858H11.0121H11.0385H11.0649H11.0915H11.1181H11.1447H11.1715H11.1983H11.2252H11.2521H11.2792H11.3063H11.3334H11.3606H11.3879H11.4153H11.4427H11.4702H11.4978H11.5254H11.5531H11.5808H11.6086H11.6365H11.6644H11.6924H11.7204H11.7485H11.7767H11.8049H11.8332H11.8615H11.8899H11.9184H11.9469H11.9754H12.004H12.0327H12.0614H12.0902H12.119H12.1479H12.1768H12.2058H12.2348H12.2639H12.293H12.3222H12.3514H12.3806H12.41H12.4393H12.4687H12.4982H12.5277H12.5572H12.5868H12.6164H12.6461H12.6758H12.7055H12.7353H12.7651H12.795H12.8249H12.8548H12.8848H12.9148H12.9449H12.975H13.0051H13.0353H13.0655H13.0957H13.1259H13.1562H13.1866H13.2169H13.2473H13.2777H13.3082H13.3387H13.3692H13.3997H13.4303H13.4609H13.4915H13.5221H13.5528H13.5835H13.6142H13.645H13.6757H13.7065H13.7373H13.7682H13.799H13.8299H13.8608H13.8917H13.9226H13.9536H13.9846H14.0156H14.0466H14.0776H14.1086H14.1397H14.1707H14.2018H14.2329H14.264H14.2951H14.3263H14.3574H14.3886H14.4197H14.4509H14.4821H14.5133H14.5445H14.5757H14.6069H14.6381H14.6694H14.7006H14.7318H14.7631H14.7943H14.8256H14.8568H14.8881H14.9193H14.9506H14.9818H15.0131H15.0443H15.0756H15.1068H15.1381H15.1693H15.2006H15.2318H15.263H15.2943H15.3255H15.3567H15.3879H15.4191H15.4503H15.4815H15.5127H15.5438H15.575H15.6061H15.6373H15.6684H15.6995H15.7306H15.7617H15.7927H15.8238H15.8548H15.8859H15.9169H15.9479H15.9788H16.0098H16.0407H16.0717H16.1026H16.1334H16.1643H16.1951H16.226H16.2568H16.2875H16.3183H16.349H16.3797H16.4104H16.441H16.4717H16.5022H16.5328H16.5634H16.5939H16.6244H16.6548H16.6852H16.7156H16.746H16.7763H16.8066H16.8369H16.8672H16.8974H16.9275H16.9577H16.9878H17.0178H17.0478H17.0778H17.1078H17.1377H17.1676H17.1974H17.2272H17.257H17.2867H17.3163H17.346H17.3756H17.4051H17.4346H17.4641H17.4935H17.5229H17.5522H17.5815H17.6107H17.6399H17.669H17.6981H17.7271H17.7561H17.785H17.8139H17.8428H17.8715H17.9003H17.9289H17.9576H17.9861H18.0147H18.0431H18.0715H18.0999H18.1282H18.1564H18.1846H18.2127H18.2407H18.2687H18.2967H18.3246H18.3524H18.3801H18.4078H18.4355H18.463H18.4905H18.518H18.5453H18.5726H18.5999H18.6271H18.6542H18.6812H18.7082H18.7351H18.7619H18.7887H18.8154H18.842H18.8686H18.895H18.9214H18.9478H18.974H19.0002H19.0263H19.0524H19.0783H19.1042H19.13H19.1557H19.1814H19.2069H19.2324H19.2578H19.2832H19.3084H19.3336H19.3587H19.3837H19.4086H19.4334H19.4582H19.4829H19.5074H19.5319H19.5563H19.5807H19.6049H19.6291H19.6531H19.6771H19.701H19.7248H19.7484H19.7721H19.7956H19.819H19.8423H19.8656H19.8887H19.9118H19.9347H19.9576H19.9803H19.9996H20.003H20.0255H20.048H20.0704H20.0927H20.1148H20.1369H20.1589H20.1807H20.2025H20.2242H20.2457H20.2672H20.2885H20.3098H20.3309H20.352H20.3729H20.3937H20.4145H20.4351H20.4556H20.476H20.4962H20.5164H20.5365H20.5564H20.5763H20.596H20.6156H20.6351H20.6545H20.6738H20.6929H20.712H20.7309H20.7497H20.7684H20.787H20.8054H20.8238H20.842H20.8601H20.8781H20.8959H20.9137H20.9313H20.9488H20.9662H20.9834H20.9996H21.9996Z" fill="#202020"/>
<rect x="11" y="9" width="8" height="1" fill="#202020"/>
<rect x="11" y="12" width="8" height="1" fill="#202020"/>
<rect x="11" y="15" width="7" height="1" fill="#202020"/>
<rect x="11" y="18" width="6" height="1" fill="#202020"/>
<path d="M19 16.7337L21.4 19.4004L25 15.4004" stroke="#202020"/>
</svg>
