<svg width="31" height="30" viewBox="0 0 31 30" fill="none" xmlns="http://www.w3.org/2000/svg">
<path fill-rule="evenodd" clip-rule="evenodd" d="M5.44711 10.3063C5.98071 10.0127 6.59575 9.87069 7.21582 9.89785C7.44299 9.87428 7.67231 9.87428 7.89948 9.89785C8.0944 9.27819 8.51045 8.73792 9.07976 8.36519C9.64908 7.99245 10.3381 7.80924 11.0343 7.84543C11.4725 7.83944 11.9075 7.91342 12.3145 8.06301L12.3516 8.0769L12.3635 8.04568C12.5931 7.45241 13.0136 6.93813 13.5687 6.57228C14.1336 6.20004 14.8098 6 15.5032 6C16.1966 6 16.8728 6.20004 17.4376 6.57228C17.9928 6.93814 18.4133 7.45246 18.6429 8.04576L18.6547 8.0769L18.6919 8.06301C19.0989 7.91342 19.5339 7.83944 19.972 7.84543C20.6683 7.80924 21.3573 7.99245 21.9266 8.36519C22.4959 8.73792 22.912 9.27819 23.1069 9.89785C23.3341 9.87428 23.5634 9.87428 23.7905 9.89785C24.4106 9.87069 25.0256 10.0127 25.5593 10.3063C25.7695 10.4219 25.9635 10.5591 26.138 10.7146C26.1457 10.7074 26.1501 10.7036 26.1501 10.7036C26.1501 10.7036 26.1798 10.7391 26.2264 10.7966C26.4552 11.0173 26.6465 11.2709 26.792 11.5491C26.7858 11.5595 26.7794 11.5699 26.7729 11.5803C26.7831 11.605 26.7898 11.6266 26.7921 11.6443L28.3297 20.4503C28.332 20.4673 28.3331 20.4845 28.3331 20.5017C28.3331 21.2593 27.8775 21.9191 27.1942 22.4628C26.5071 23.0096 25.537 23.4841 24.3734 23.875C22.0421 24.6582 18.8462 25.1345 15.3331 25.1345C11.8199 25.1345 8.62405 24.6582 6.29273 23.875C5.12909 23.4841 4.15906 23.0096 3.47192 22.4628C2.78864 21.9191 2.33301 21.2593 2.33301 20.5017C2.33301 20.4845 2.33414 20.4673 2.33639 20.4503L3.74411 11.6443C3.77127 11.4383 4.51747 11.049 4.51747 11.049C4.51747 11.049 4.51775 11.049 4.51828 11.0489C4.76775 10.7501 5.083 10.5066 5.44711 10.3063ZM24.4463 11.9511C24.8244 11.784 25.1139 11.6211 25.3311 11.4722C25.2387 11.3977 25.1378 11.3299 25.029 11.27C24.6757 11.0757 24.2613 10.9783 23.8387 10.9968L23.7577 11.0003L23.677 10.992C23.5253 10.9762 23.3721 10.9762 23.2204 10.992L22.3271 11.0847L22.0576 10.2279C21.9427 9.86289 21.6917 9.52617 21.3241 9.28549C20.9552 9.04401 20.4983 8.91956 20.0291 8.94394L19.9931 8.94582L19.957 8.94532C19.6427 8.94103 19.3325 8.99597 19.0459 9.105L18.0119 9.49839L17.6244 8.46222C17.483 8.08424 17.2119 7.74092 16.8323 7.49077C16.4519 7.24004 15.9871 7.1 15.5032 7.1C15.0192 7.1 14.5545 7.24004 14.174 7.49077C13.7944 7.74092 13.5233 8.08424 13.382 8.46222L12.9944 9.49839L11.9605 9.105C11.6739 8.99597 11.3637 8.94103 11.0494 8.94532L11.0133 8.94582L10.9772 8.94394C10.508 8.91956 10.0511 9.04401 9.6823 9.28549C9.31469 9.52616 9.06362 9.86289 8.94879 10.2279L8.6793 11.0847L7.78596 10.992C7.63426 10.9762 7.48104 10.9762 7.32934 10.992L7.24868 11.0003L7.16767 10.9968C6.74507 10.9783 6.33065 11.0757 5.97732 11.27C5.87303 11.3274 5.77894 11.3869 5.69423 11.4485C5.91205 11.5996 6.19929 11.7643 6.57027 11.9329C7.39936 12.3095 8.51553 12.6459 9.86159 12.8892C11.7172 13.2207 13.6043 13.3804 15.4946 13.3657L15.5032 13.3656L15.5117 13.3657C17.4021 13.3804 19.2891 13.2207 21.1447 12.8892C22.4971 12.6447 23.616 12.3182 24.4463 11.9511ZM17.2682 15.4072C17.7915 15.4072 18.2455 15.4863 18.6302 15.6445C19.0227 15.7952 19.319 16.0061 19.519 16.2773C19.7268 16.541 19.8307 16.8461 19.8307 17.1926C19.8307 17.3885 19.8038 17.5693 19.7499 17.735C19.5267 18.4959 18.8842 18.978 17.8223 19.1814C18.1916 19.2869 18.484 19.4639 18.6995 19.7125C18.915 19.9536 19.0227 20.255 19.0227 20.6166C19.0227 20.7823 18.9919 20.9782 18.9304 21.2042C18.7611 21.7918 18.4186 22.2287 17.9031 22.515C17.3952 22.7937 16.6718 22.9331 15.733 22.9331H10.9312C10.7696 22.9331 10.6465 22.9067 10.5619 22.854C10.4695 22.8013 10.4233 22.7297 10.4233 22.6393C10.4233 22.5941 10.4349 22.5451 10.458 22.4924C10.4887 22.4095 10.5388 22.3455 10.608 22.3003C10.6773 22.2551 10.7196 22.2287 10.735 22.2212C10.8581 22.1458 10.9582 22.0705 11.0351 21.9952C11.1121 21.9123 11.1775 21.7805 11.2313 21.5997L12.6396 16.7293C12.6703 16.6314 12.6857 16.5372 12.6857 16.4468C12.6857 16.3639 12.6703 16.2961 12.6396 16.2434C12.6165 16.1831 12.5818 16.1153 12.5357 16.04C12.4664 15.9421 12.4318 15.863 12.4318 15.8027C12.4318 15.7801 12.4395 15.7387 12.4549 15.6784C12.4856 15.5805 12.5511 15.5127 12.6511 15.475C12.7588 15.4298 12.9204 15.4072 13.1359 15.4072H17.2682ZM16.7488 17.4751C16.8026 17.3094 16.8296 17.155 16.8296 17.0118C16.8296 16.6201 16.6026 16.4242 16.1486 16.4242H15.6291L15.0174 18.5373H15.5252C15.8484 18.5373 16.1024 18.462 16.2871 18.3113C16.4794 18.1531 16.6333 17.8744 16.7488 17.4751ZM15.9062 20.7974C15.96 20.6166 15.987 20.4508 15.987 20.3002C15.987 19.8934 15.7484 19.6899 15.2713 19.6899H14.6942L14.0362 21.9161H14.6249C14.9558 21.9161 15.2213 21.837 15.4214 21.6788C15.6214 21.513 15.783 21.2192 15.9062 20.7974Z" fill="#202020"/>
</svg>
