<svg width="20" height="20" viewBox="0 0 20 20" fill="none" xmlns="http://www.w3.org/2000/svg">
<g clip-path="url(#clip0_277_383)">
<path d="M19.1667 0H0.833333C0.372222 0 0 0.372222 0 0.833333V19.1667C0 19.6278 0.372222 20 0.833333 20H19.1667C19.6278 20 20 19.6278 20 19.1667V0.833333C20 0.372222 19.6278 0 19.1667 0ZM18.3333 18.3333H1.66667V1.66667H18.3333V18.3333Z" fill="white"/>
<path d="M10.0002 10C12.2974 10 14.1668 8.1306 14.1668 5.83337V4.16671C14.1668 3.7056 13.7946 3.33337 13.3335 3.33337C12.8724 3.33337 12.5002 3.7056 12.5002 4.16671V5.83337C12.5002 7.21115 11.3779 8.33337 10.0002 8.33337C8.62238 8.33337 7.50016 7.21115 7.50016 5.83337V4.16671C7.50016 3.7056 7.12794 3.33337 6.66683 3.33337C6.20572 3.33337 5.8335 3.7056 5.8335 4.16671V5.83337C5.8335 8.1306 7.70294 10 10.0002 10Z" fill="white"/>
</g>
<defs>
<clipPath id="clip0_277_383">
<rect width="20" height="20" fill="white"/>
</clipPath>
</defs>
</svg>
