<svg width="40" height="40" viewBox="0 0 40 40" fill="none" xmlns="http://www.w3.org/2000/svg">
<g id="icon/info">
<mask id="mask0_4047_2533" style="mask-type:alpha" maskUnits="userSpaceOnUse" x="0" y="0" width="40" height="40">
<rect id="Bounding box" width="40" height="40" transform="matrix(1 0 0 -1 0 40)" fill="#D9D9D9"/>
</mask>
<g mask="url(#mask0_4047_2533)">
<path id="info" d="M18.7503 12.0835H21.2503V21.6668H18.7503V12.0835ZM20.0003 24.5193C20.3817 24.5193 20.7014 24.6484 20.9595 24.9064C21.2175 25.1645 21.3466 25.4842 21.3466 25.8656C21.3466 26.247 21.2175 26.5667 20.9595 26.8247C20.7014 27.0825 20.3817 27.2114 20.0003 27.2114C19.6189 27.2114 19.2992 27.0825 19.0412 26.8247C18.7831 26.5667 18.6541 26.247 18.6541 25.8656C18.6541 25.4842 18.7831 25.1645 19.0412 24.9064C19.2992 24.6484 19.6189 24.5193 20.0003 24.5193ZM20.0032 4.16683C17.8132 4.16683 15.7548 4.58238 13.8278 5.4135C11.9009 6.24461 10.2248 7.37252 8.79949 8.79725C7.37421 10.222 6.24574 11.8974 5.41408 13.8235C4.58269 15.7496 4.16699 17.8075 4.16699 19.9972C4.16699 22.1872 4.58255 24.2457 5.41366 26.1727C6.24477 28.0996 7.37269 29.7757 8.79741 31.201C10.2221 32.6263 11.8975 33.7547 13.8237 34.5864C15.7498 35.4178 17.8077 35.8335 19.9974 35.8335C22.1874 35.8335 24.2459 35.4179 26.1728 34.5868C28.0998 33.7557 29.7759 32.6278 31.2012 31.2031C32.6264 29.7784 33.7549 28.1029 34.5866 26.1768C35.418 24.2507 35.8337 22.1928 35.8337 20.0031C35.8337 17.8131 35.4181 15.7546 34.587 13.8277C33.7559 11.9007 32.628 10.2246 31.2032 8.79933C29.7785 7.37405 28.1031 6.24558 26.177 5.41391C24.2509 4.58252 22.193 4.16683 20.0032 4.16683ZM20.0003 6.66683C23.7225 6.66683 26.8753 7.9585 29.4587 10.5418C32.042 13.1252 33.3337 16.2779 33.3337 20.0002C33.3337 23.7224 32.042 26.8752 29.4587 29.4585C26.8753 32.0418 23.7225 33.3335 20.0003 33.3335C16.2781 33.3335 13.1253 32.0418 10.542 29.4585C7.95866 26.8752 6.66699 23.7224 6.66699 20.0002C6.66699 16.2779 7.95866 13.1252 10.542 10.5418C13.1253 7.9585 16.2781 6.66683 20.0003 6.66683Z" fill="#BE1A21"/>
</g>
</g>
</svg>
