<svg width="21" height="23" viewBox="0 0 21 23" fill="none" xmlns="http://www.w3.org/2000/svg">
<g clip-path="url(#clip0_185_238)">
<path d="M10.5078 13.6618C6.73876 13.6618 3.67041 10.5964 3.67041 6.83092C3.67041 3.06543 6.73876 0 10.5078 0C14.2769 0 17.3453 3.06543 17.3453 6.83092C17.3453 10.5964 14.2769 13.6618 10.5078 13.6618ZM10.5078 0.709305C7.12771 0.709305 4.38039 3.45401 4.38039 6.83092C4.38039 10.2078 7.12771 12.9525 10.5078 12.9525C13.888 12.9525 16.6353 10.2078 16.6353 6.83092C16.6353 3.45401 13.8849 0.709305 10.5078 0.709305Z" fill="#4A4A4A"/>
<path d="M0.35514 23C0.35514 23 0.336618 23 0.324271 23C0.129798 22.9846 -0.0152852 22.8119 0.000149161 22.6176C0.441572 17.1991 5.05645 12.9525 10.5079 12.9525C15.9593 12.9525 20.463 17.0295 20.9971 22.4356C21.0156 22.6299 20.8736 22.8057 20.6791 22.8242C20.4816 22.8427 20.3087 22.7008 20.2902 22.5066C19.7932 17.4643 15.5858 13.6618 10.5079 13.6618C5.42996 13.6618 1.12068 17.6216 0.71013 22.6731C0.694696 22.8581 0.540352 23 0.358227 23H0.35514Z" fill="#4A4A4A"/>
</g>
<defs>
<clipPath id="clip0_185_238">
<rect width="21" height="23" fill="white"/>
</clipPath>
</defs>
</svg>
