<svg width="30" height="29" viewBox="0 0 30 29" fill="none" xmlns="http://www.w3.org/2000/svg">
<g clip-path="url(#clip0_185_205)">
<path d="M29.5889 10.4815C28.92 8.5215 26.0938 7.58126 22.2095 7.72106C22.0834 7.49628 21.8476 7.34277 21.5708 7.34277C21.4173 7.34277 21.2775 7.38937 21.1596 7.46887C21.039 7.55111 20.9458 7.66898 20.891 7.80604C20.8581 7.88828 20.8389 7.97874 20.8389 8.07468C20.8389 8.18707 20.8663 8.29124 20.9101 8.38444C21.028 8.63389 21.2775 8.80659 21.5708 8.80659C21.6064 8.80659 21.642 8.80111 21.6749 8.79563C21.9518 8.75451 22.1766 8.56262 22.2616 8.3022C22.4891 8.29398 22.7194 8.28576 22.9387 8.28576C26.1788 8.28576 28.528 9.08894 29.0653 10.6569C29.6793 12.4524 27.7934 14.9086 24.4847 17.1317L24.9864 17.4936C28.4348 15.1443 30.2852 12.5319 29.5861 10.4815H29.5889Z" fill="#4A4A4A"/>
<path d="M8.0293 6.78633V7.58403C8.0293 7.85541 8.2486 8.07471 8.51998 8.07471C8.79136 8.07471 9.01066 7.85541 9.01066 7.58403V6.78633C9.01066 6.51495 8.79136 6.29565 8.51998 6.29565C8.2486 6.29565 8.0293 6.51495 8.0293 6.78633Z" fill="#4A4A4A"/>
<path d="M12.6754 5.64874C12.6973 5.47604 12.5767 5.31705 12.404 5.29512C12.2313 5.27319 12.0723 5.3938 12.0504 5.5665L11.62 8.83131C11.5981 9.00675 11.5926 9.17944 11.6008 9.35214C11.609 9.59063 11.6447 9.82637 11.7104 10.0512C11.7625 10.2293 11.8311 10.3993 11.916 10.561C12.0175 10.7557 12.1381 10.9393 12.2834 11.1038C12.7329 11.6164 13.3333 11.8987 13.9747 11.8987H15.3563C15.9977 11.8987 16.5981 11.6164 17.0476 11.1038C17.5712 10.5062 17.8097 9.69205 17.711 8.8642C17.711 8.85324 17.711 8.84227 17.711 8.83405L17.6397 8.29951L17.6233 8.16793L17.245 5.28689C17.2231 5.1142 17.0641 4.99358 16.8914 5.01551C16.7187 5.03744 16.5981 5.19643 16.62 5.36913L17.0038 8.29128L17.023 8.43383L17.086 8.91629C17.0887 8.94096 17.0887 8.96837 17.0915 8.99304C17.1545 9.62626 16.9709 10.2403 16.5761 10.6899C16.2499 11.0627 15.8168 11.2683 15.359 11.2683H13.9774C13.5197 11.2683 13.0893 11.0627 12.7603 10.6899C12.6671 10.583 12.5849 10.4651 12.5136 10.339C12.4232 10.18 12.3546 10.01 12.308 9.82912C12.256 9.63723 12.2313 9.43438 12.2313 9.22879C12.2313 9.12462 12.2368 9.02045 12.2505 8.91354L12.6808 5.64874H12.6754Z" fill="#4A4A4A"/>
<path d="M18.8734 23.5462H18.5581L18.1963 24.9113H18.517C18.6075 24.9141 18.6979 24.8976 18.7829 24.862C18.8432 24.8373 18.9035 24.8044 18.9556 24.7633C19.0844 24.6153 19.1777 24.4261 19.2188 24.226V24.2205C19.2434 24.1246 19.2571 24.0232 19.2599 23.919C19.2599 23.6696 19.131 23.5435 18.8734 23.5435V23.5462Z" fill="#4A4A4A"/>
<path d="M19.3584 21.5424H19.0733L18.8622 22.351L18.7334 22.8444H19.013C19.161 22.8527 19.3091 22.8006 19.4269 22.7019C19.5503 22.5676 19.638 22.3921 19.6764 22.203C19.6764 22.2003 19.6764 22.1948 19.6791 22.192V22.1865C19.7093 22.0961 19.7285 22.0001 19.7312 21.9042C19.7312 21.6602 19.6051 21.5424 19.3584 21.5424Z" fill="#4A4A4A"/>
<path d="M25.899 20.413L25.6605 18.9821C25.5728 18.7491 25.3589 18.623 25.1451 18.6394C25.1177 18.5901 25.0821 18.5435 25.0519 18.4941C24.8902 18.2502 24.6819 18.0391 24.4351 17.8609C24.2624 17.7348 24.0706 17.6279 23.8622 17.5429C23.6046 17.436 23.3249 17.3565 23.0234 17.3154C22.5711 16.6438 21.8365 16.2107 21.0634 16.2409C21.0442 16.2409 21.0251 16.2409 21.0031 16.2436C20.6659 15.7584 20.1945 15.4185 19.6462 15.2759C19.0212 15.1115 18.3688 15.2239 17.8151 15.5939C17.5601 15.7639 17.3381 15.9859 17.1572 16.2463C17.1325 16.2463 17.1078 16.2436 17.0832 16.2436C16.2964 16.2326 15.5864 16.6466 15.1341 17.3182C14.2021 17.447 13.4428 17.9486 13.0316 18.6339C12.8562 18.6367 12.6862 18.7299 12.593 18.9081C12.5821 18.9273 12.5738 18.9492 12.5656 18.9711L12.3079 20.413L12.1051 21.5424L12.0064 22.0934L11.905 22.669L11.7323 23.6312L11.6363 24.174C11.6089 24.2452 11.598 24.322 11.5952 24.4015C11.5952 25.6022 14.9477 26.578 19.0788 26.578C23.2098 26.578 26.5623 25.6022 26.5623 24.4015L26.0881 21.5424L25.9017 20.413H25.899ZM21.2964 22.3291C21.2581 22.4525 21.2032 22.5676 21.1347 22.669C21.0881 22.7376 21.036 22.8006 20.9812 22.8582C20.9702 22.8719 20.9565 22.8829 20.9428 22.8938C20.8962 22.9377 20.8441 22.9788 20.792 23.0144C20.7674 23.0309 20.7427 23.0473 20.718 23.061C20.6714 23.0884 20.6221 23.1104 20.5727 23.1323C20.5371 23.146 20.5042 23.1597 20.4686 23.1679C20.4247 23.1817 20.3781 23.1899 20.3343 23.1981C20.3123 23.2008 20.2931 23.2091 20.2685 23.2118C20.4494 23.2694 20.6139 23.3818 20.74 23.538C20.8633 23.6943 20.9264 23.8971 20.9154 24.1054C20.9209 24.2178 20.9154 24.333 20.8935 24.4454C20.8715 24.5331 20.8441 24.6153 20.8085 24.6948C20.7043 24.9278 20.5399 25.1252 20.3315 25.254C19.9615 25.4459 19.553 25.5336 19.1446 25.509H16.5294C16.4582 25.5144 16.3896 25.4953 16.3266 25.4596C16.28 25.4349 16.2498 25.3856 16.2498 25.3308C16.2471 25.3006 16.2471 25.2705 16.2498 25.2403C16.2498 25.2403 16.2498 25.2403 16.2498 25.2376C16.2635 25.1882 16.2937 25.1471 16.3321 25.1197L16.3979 25.0758C16.4582 25.0347 16.513 24.9881 16.5623 24.9333C16.6117 24.8648 16.6473 24.7853 16.6692 24.7003L17.1983 22.6499L17.4395 21.7151C17.4477 21.6603 17.4477 21.6027 17.4395 21.5451C17.4477 21.504 17.4477 21.4602 17.4395 21.4218C17.4231 21.3834 17.3847 21.3423 17.3847 21.2984C17.3682 21.2765 17.3545 21.2518 17.3436 21.2244C17.3354 21.1997 17.3299 21.1751 17.3271 21.1504C17.3244 21.1257 17.3244 21.1011 17.3271 21.0764C17.3271 21.0764 17.3271 21.0764 17.3271 21.0736C17.3408 21.0133 17.382 20.9667 17.434 20.9503C17.5163 20.9174 17.6067 20.9009 17.6972 20.9064H19.9313C20.1862 20.9009 20.4357 20.9503 20.6742 21.0545C20.8661 21.1312 21.0333 21.2628 21.1594 21.4382C21.1813 21.4711 21.1923 21.5095 21.2142 21.5397C21.2745 21.6548 21.3156 21.7809 21.3266 21.9125C21.3266 21.9426 21.3321 21.97 21.3321 22.0002C21.3321 22.1126 21.3184 22.2277 21.2855 22.3346L21.2964 22.3291ZM24.4105 18.9684C23.6237 19.3083 22.456 19.5714 21.0854 19.703C20.5947 19.7496 20.0738 19.7798 19.5366 19.7907C19.3968 19.7935 19.2542 19.7962 19.1117 19.7962C16.8776 19.7962 14.9094 19.4618 13.769 18.9547C13.8101 18.8998 13.8567 18.845 13.9088 18.7957C13.9307 18.7738 13.9527 18.7546 13.9773 18.7354C14.0075 18.708 14.0349 18.6778 14.0678 18.6531C14.405 18.3763 14.8628 18.1899 15.3754 18.146C15.3781 18.146 15.3836 18.146 15.3863 18.146C15.4302 18.1405 15.4713 18.1296 15.5097 18.1104C15.5097 18.1104 15.5097 18.1104 15.5124 18.1104C15.5536 18.0884 15.5947 18.0555 15.6276 18.0199C15.6468 17.998 15.6632 17.9761 15.6769 17.9514C15.7509 17.8198 15.8414 17.6992 15.9401 17.595C16.2389 17.2798 16.6418 17.0961 17.0557 17.0961H17.064C17.1352 17.0989 17.2093 17.1071 17.2805 17.1208C17.3957 17.14 17.5108 17.1016 17.5985 17.0194C17.6259 16.992 17.6506 16.9591 17.6725 16.9234C17.7986 16.6986 17.9686 16.5068 18.1687 16.3615C18.1851 16.3505 18.2016 16.3341 18.218 16.3231C18.5936 16.0709 19.0349 15.9941 19.4625 16.1065C19.8902 16.2189 20.252 16.5068 20.4823 16.9207C20.5645 17.0687 20.7208 17.1482 20.8743 17.118C20.9456 17.1043 21.0196 17.0989 21.0771 17.0934H21.0854C21.6473 17.0934 22.1791 17.4196 22.4752 17.9432C22.541 18.061 22.6533 18.135 22.7767 18.146C22.8014 18.146 22.8233 18.1515 22.848 18.1542C23.1385 18.1844 23.4017 18.2557 23.6347 18.3571C23.9664 18.5024 24.235 18.7134 24.4132 18.9711L24.4105 18.9684Z" fill="#4A4A4A"/>
<path d="M11.3925 22.1646C11.2609 21.9618 11.0362 21.8275 10.7785 21.8275C10.4303 21.8275 10.1398 22.0714 10.0658 22.3949C9.49284 22.4634 8.93363 22.51 8.38812 22.5374C8.36893 22.2249 8.36619 21.9124 8.37442 21.6054C8.48681 17.5073 10.7757 14.078 10.8114 14.0287C10.8717 13.9382 10.8826 13.8258 10.8415 13.7271C10.8004 13.6284 10.7072 13.5572 10.6003 13.5407L6.94898 12.9623L6.07726 12.8253L5.37551 12.7156L2.0504 12.1893C1.59261 12.1125 1.19513 11.8603 0.931973 11.4793C0.668815 11.0983 0.575613 10.6405 0.666074 10.1827L0.720898 9.89213C0.720898 9.89213 0.720898 9.88391 0.720898 9.88117C0.731863 9.88117 0.742828 9.88117 0.753793 9.88117C1.58987 9.88117 2.28066 9.25617 2.39031 8.45025L3.72255 8.1679C4.53943 7.99794 5.3015 7.60046 5.92376 7.02206C6.53505 6.45189 6.98461 5.72272 7.22584 4.91406C7.59317 3.64487 8.56082 2.63609 9.8163 2.21669L12.4972 1.32304H12.5438C15.4989 1.32304 18.0592 3.32688 18.7746 6.19695L19.1858 7.86088L19.2242 8.01713L19.3613 8.5736L20.4221 12.8527C20.4632 13.0226 20.6359 13.124 20.8032 13.0829C20.9731 13.0418 21.0745 12.8691 21.0334 12.7019L19.989 8.48862L19.8492 7.92393L19.8026 7.73753L19.3832 6.04345C18.602 2.89103 15.7894 0.689819 12.5438 0.689819H12.4451C12.4123 0.689819 12.3766 0.695302 12.3465 0.706267L9.61619 1.61636C8.16334 2.10155 7.04218 3.26932 6.62003 4.73588C6.4117 5.43489 6.02244 6.06537 5.49338 6.5588C4.9561 7.06044 4.29821 7.4031 3.59097 7.54838L1.93526 7.89926C1.8448 7.91845 1.75708 7.94586 1.66936 7.97601C1.64469 7.98424 1.62276 7.99246 1.59809 8.00068C1.53779 8.02261 1.47748 8.05003 1.41717 8.07744C1.38976 8.09115 1.36235 8.10211 1.33493 8.11582C1.26366 8.15145 1.19513 8.19257 1.12934 8.23643C1.09371 8.2611 1.05807 8.28851 1.02243 8.31318C0.989539 8.33786 0.956644 8.36253 0.926491 8.3872C0.888113 8.41735 0.852477 8.45025 0.816841 8.48314C0.786688 8.51055 0.759275 8.53797 0.731863 8.56812C0.690745 8.60924 0.652367 8.65036 0.616731 8.69422C0.578354 8.74082 0.539977 8.78742 0.504341 8.83676C0.5016 8.84224 0.498858 8.84772 0.493376 8.85321C0.433069 8.94093 0.375503 9.03139 0.328902 9.12185C0.328902 9.12185 0.326161 9.12733 0.32342 9.13007C0.274077 9.22602 0.227477 9.3247 0.191841 9.42887C0.191841 9.43161 0.189099 9.43435 0.186358 9.43983C0.153463 9.544 0.126051 9.64542 0.10138 9.7633L0.0465552 10.0593C-0.0768002 10.6816 0.0520377 11.3121 0.411139 11.8329C0.77024 12.3565 1.31575 12.7019 1.94623 12.8061L4.54218 13.2172L5.28231 13.3351L6.12935 13.4694L10.0301 14.0862C9.40238 15.1471 7.84262 18.1241 7.74119 21.5725C7.73297 21.8987 7.73571 22.2277 7.75216 22.5594C7.31082 22.5676 6.8777 22.5648 6.46104 22.5457C3.58 22.4086 1.6584 21.5451 1.19239 20.1772C0.59206 18.4201 2.38483 16.0298 5.56465 13.845L4.74503 13.7134C1.63921 15.964 0.0136605 18.4146 0.677039 20.3554C1.22803 21.97 3.27573 22.9431 6.43911 23.0939C6.72968 23.1076 7.02847 23.1158 7.33001 23.1158C7.48352 23.1158 7.64251 23.1076 7.79876 23.1021C7.96597 24.703 8.50051 26.356 9.61894 27.9294C9.67924 28.0172 9.77793 28.0638 9.87661 28.0638C9.93966 28.0638 10.0027 28.0446 10.0575 28.0062C10.2001 27.9048 10.233 27.7101 10.1315 27.5676C9.0981 26.1093 8.5992 24.5769 8.43472 23.0857C8.99119 23.0583 9.56411 23.0007 10.148 22.9322C10.2768 23.1487 10.5071 23.294 10.7757 23.294C10.8963 23.294 11.0087 23.2611 11.1102 23.209C11.2938 23.1131 11.4309 22.9459 11.483 22.7403C11.4967 22.6827 11.5076 22.6224 11.5076 22.5621C11.5076 22.4305 11.4693 22.3099 11.409 22.203C11.4007 22.192 11.3953 22.1783 11.3898 22.1646H11.3925Z" fill="#4A4A4A"/>
</g>
<defs>
<clipPath id="clip0_185_205">
<rect width="29.7341" height="27.3767" fill="white" transform="translate(0 0.689819)"/>
</clipPath>
</defs>
</svg>
