<svg width="21" height="23" viewBox="0 0 21 23" fill="none" xmlns="http://www.w3.org/2000/svg">
<path d="M10.4989 13.6618C6.7334 13.6618 3.66797 10.5964 3.66797 6.83092C3.66797 3.06543 6.7334 0 10.4989 0C14.2644 0 17.3298 3.06543 17.3298 6.83092C17.3298 10.5964 14.2644 13.6618 10.4989 13.6618ZM10.4989 0.709305C7.12198 0.709305 4.37727 3.45401 4.37727 6.83092C4.37727 10.2078 7.12198 12.9525 10.4989 12.9525C13.8758 12.9525 16.6205 10.2078 16.6205 6.83092C16.6205 3.45401 13.8727 0.709305 10.4989 0.709305Z" fill="#CA1010"/>
<path d="M0.355777 23C0.355777 23 0.337274 23 0.324938 23C0.13065 22.9846 -0.014295 22.8119 0.00112465 22.6176C0.442128 17.1991 5.05261 12.9525 10.4988 12.9525C15.9451 12.9525 20.4445 17.0295 20.9781 22.4356C20.9966 22.6299 20.8547 22.8057 20.6604 22.8242C20.463 22.8427 20.2903 22.7008 20.2718 22.5066C19.7722 17.4643 15.5719 13.6618 10.4988 13.6618C5.42577 13.6618 1.12059 17.6216 0.71043 22.6731C0.69501 22.8581 0.540814 23 0.358861 23H0.355777Z" fill="#CA1010"/>
</svg>
