<svg width="24" height="24" viewBox="0 0 24 24" fill="none" xmlns="http://www.w3.org/2000/svg">
<g clip-path="url(#clip0_185_198)">
<path d="M22.9176 0.392456H0.392578V22.9175H22.9176V0.392456Z" fill="#CA1010"/>
<path d="M22.9175 23.31H0.392482C0.174057 23.31 0 23.1359 0 22.9175V0.392482C0 0.174057 0.174057 0 0.392482 0H22.9175C23.1359 0 23.31 0.174057 23.31 0.392482V22.9175C23.31 23.1359 23.1359 23.31 22.9175 23.31ZM0.784963 22.525H22.525V0.784963H0.784963V22.525Z" fill="#CA1010"/>
<path d="M11.6549 11.0236C9.18059 11.0236 7.16699 9.01001 7.16699 6.53567V4.48794C7.16699 4.26952 7.34105 4.09546 7.55947 4.09546C7.7779 4.09546 7.95196 4.26952 7.95196 4.48794V6.53567C7.95196 8.57658 9.61403 10.2387 11.6549 10.2387C13.6958 10.2387 15.3579 8.57658 15.3579 6.53567V4.48794C15.3579 4.26952 15.532 4.09546 15.7504 4.09546C15.9688 4.09546 16.1429 4.26952 16.1429 4.48794V6.53567C16.1429 9.01001 14.1293 11.0236 11.6549 11.0236Z" fill="white"/>
</g>
<defs>
<clipPath id="clip0_185_198">
<rect width="23.31" height="23.31" fill="white"/>
</clipPath>
</defs>
</svg>
