<svg width="21" height="23" viewBox="0 0 21 23" fill="none" xmlns="http://www.w3.org/2000/svg">
<g clip-path="url(#clip0_185_236)">
<path d="M20.6302 0.939609H0.369832C0.164012 0.939609 0 0.731261 0 0.469805C0 0.208348 0.164012 0 0.369832 0H20.6302C20.836 0 21 0.208348 21 0.469805C21 0.731261 20.836 0.939609 20.6302 0.939609Z" fill="#4A4A4A"/>
<path d="M20.6301 11.9861H6.15841C5.95259 11.9861 5.78857 11.7778 5.78857 11.5163C5.78857 11.2549 5.95259 11.0465 6.15841 11.0465H20.6301C20.8359 11.0465 20.9999 11.2549 20.9999 11.5163C20.9999 11.7778 20.8359 11.9861 20.6301 11.9861Z" fill="#4A4A4A"/>
<path d="M20.6302 23H0.369832C0.164012 23 0 22.7875 0 22.5302C0 22.2728 0.164012 22.0604 0.369832 22.0604H20.6302C20.836 22.0604 21 22.2728 21 22.5302C21 22.7875 20.836 23 20.6302 23Z" fill="#4A4A4A"/>
<path d="M3.58576 11.9861H0.369832C0.164012 11.9861 0 11.7778 0 11.5163C0 11.2549 0.164012 11.0465 0.369832 11.0465H3.58576C3.79158 11.0465 3.95559 11.2549 3.95559 11.5163C3.95559 11.7778 3.79158 11.9861 3.58576 11.9861Z" fill="#4A4A4A"/>
</g>
<defs>
<clipPath id="clip0_185_236">
<rect width="21" height="23" fill="white"/>
</clipPath>
</defs>
</svg>
