<svg width="30" height="28" viewBox="0 0 30 28" fill="none" xmlns="http://www.w3.org/2000/svg">
<g clip-path="url(#clip0_185_186)">
<path d="M29.4637 9.83675C28.7948 7.87927 25.7571 6.98552 21.6722 7.22129C21.6256 7.06777 21.5187 6.94165 21.3761 6.87037C21.2993 6.83199 21.2144 6.81006 21.1239 6.81006C20.8305 6.81006 20.592 7.02938 20.5536 7.31176C20.5509 7.33644 20.5454 7.36111 20.5454 7.38853C20.5454 7.45433 20.5591 7.51738 20.5783 7.57495C20.6551 7.8025 20.8689 7.96426 21.1211 7.96426C21.313 7.96426 21.4803 7.87104 21.5872 7.72574C21.6393 7.65446 21.6749 7.57221 21.6914 7.48174C22.1328 7.45433 22.5659 7.43788 22.9772 7.43788C26.2698 7.43788 28.6412 8.27954 29.2033 9.92722C29.8448 11.8052 27.9833 14.2945 24.6303 16.5454L24.8551 16.7071C28.2602 14.385 30.1354 11.8052 29.4637 9.83949V9.83675Z" fill="#CA1010"/>
<path d="M8.03027 6.09725V6.89504C8.03027 7.16646 8.2496 7.38578 8.52101 7.38578C8.79243 7.38578 9.01175 7.16646 9.01175 6.89504V6.09725C9.01175 5.82583 8.79243 5.60651 8.52101 5.60651C8.2496 5.60651 8.03027 5.82583 8.03027 6.09725Z" fill="#CA1010"/>
<path d="M12.677 4.95948C12.6989 4.78676 12.5783 4.62775 12.4055 4.60582C12.2328 4.58389 12.0738 4.70452 12.0519 4.87724L11.6215 8.14244C11.5995 8.3179 11.594 8.49062 11.6023 8.66334C11.6132 8.9512 11.6653 9.2281 11.7558 9.49403C11.7859 9.58176 11.8188 9.66675 11.8572 9.749C11.9669 9.99025 12.1067 10.2178 12.2822 10.4152C12.7318 10.9279 13.3322 11.2102 13.9737 11.2102H15.3555C15.997 11.2102 16.5974 10.9279 17.047 10.4152C17.5761 9.81205 17.8174 8.9841 17.7077 8.14244L17.694 8.02729L17.6584 7.75588L17.6227 7.47898L17.2444 4.5976C17.2225 4.42488 17.0635 4.30425 16.8907 4.32618C16.718 4.34811 16.5974 4.50713 16.6193 4.67984L17.0031 7.60235L17.0415 7.89022L17.0772 8.15889L17.0854 8.22743C17.1731 8.88814 16.9867 9.53515 16.5755 10.0012C16.2492 10.3741 15.816 10.5797 15.3582 10.5797H13.9765C13.5186 10.5797 13.0882 10.3741 12.7592 10.0012C12.6331 9.85866 12.5344 9.69965 12.4521 9.52693C12.4138 9.44468 12.3781 9.35969 12.3507 9.27196C12.2739 9.04167 12.2328 8.79493 12.2328 8.53997C12.2328 8.43579 12.2383 8.33161 12.252 8.22469L12.6824 4.95948H12.677Z" fill="#CA1010"/>
<path d="M18.8759 22.8592H18.5606L18.1987 24.2245H18.5195C18.61 24.2272 18.7004 24.2108 18.7827 24.1779C18.8457 24.1532 18.9033 24.1203 18.9581 24.0764C19.087 23.9284 19.1802 23.7392 19.2213 23.5391V23.5336C19.246 23.4349 19.2597 23.3335 19.2625 23.232C19.2625 22.9826 19.1336 22.8564 18.8759 22.8564V22.8592Z" fill="#CA1010"/>
<path d="M19.3609 20.8551H19.0758L18.8647 21.6639L18.7358 22.1573H19.0155C19.1635 22.1656 19.3116 22.1135 19.4295 22.0148C19.5528 21.8804 19.6406 21.705 19.6789 21.5186C19.6789 21.5158 19.6789 21.5103 19.6817 21.5076V21.5021C19.7118 21.4116 19.731 21.3157 19.7338 21.2197C19.7338 20.9757 19.6077 20.8578 19.3609 20.8578V20.8551Z" fill="#CA1010"/>
<path d="M25.9022 19.7255L25.6636 18.2944C25.5759 18.0614 25.3621 17.9353 25.1482 17.9517C25.1208 17.9024 25.0852 17.8558 25.055 17.8064C24.8631 17.5186 24.6081 17.2663 24.2983 17.0717C24.2161 17.0196 24.1284 16.973 24.0379 16.9291C23.7363 16.7811 23.3964 16.6769 23.0235 16.6276C22.5712 15.9559 21.8364 15.5227 21.0633 15.5529C21.0441 15.5529 21.0249 15.5529 21.003 15.5556C20.6658 15.0704 20.1942 14.7304 19.6459 14.5878C19.0208 14.4233 18.3683 14.5357 17.8145 14.9059C17.5596 15.0758 17.3375 15.2979 17.1566 15.5584C17.1319 15.5584 17.1072 15.5556 17.0825 15.5556C16.2957 15.5446 15.5857 15.9586 15.1333 16.6303C14.2012 16.7592 13.4418 17.2609 13.0305 17.9463C12.8551 17.949 12.6851 18.0422 12.5919 18.2204C12.5809 18.2396 12.5727 18.2615 12.5645 18.2835L12.3067 19.7255L12.1039 20.8551L11.9805 21.5514L11.9312 21.8338L11.7338 22.9441L11.6378 23.487C11.6104 23.5582 11.5994 23.635 11.5967 23.7145C11.5967 24.9153 14.9496 25.8913 19.0811 25.8913C23.2127 25.8913 26.5656 24.9153 26.5656 23.7145L26.0913 20.8551L25.9049 19.7255H25.9022ZM13.9133 18.1053C13.9352 18.0833 13.9572 18.0641 13.9818 18.045C14.012 18.0175 14.0394 17.9874 14.0723 17.9627C14.4095 17.6858 14.8674 17.4994 15.38 17.4555C15.3828 17.4555 15.3883 17.4555 15.391 17.4555C15.4349 17.45 15.476 17.4391 15.5144 17.4171C15.5144 17.4171 15.5144 17.4171 15.5171 17.4171C15.561 17.3952 15.5994 17.3623 15.6323 17.3239C15.6487 17.3047 15.6652 17.2828 15.6789 17.2581C15.7529 17.1265 15.8434 17.0059 15.9421 16.9017C16.2409 16.5864 16.6439 16.4028 17.0579 16.4028H17.0661C17.1374 16.4055 17.2114 16.4137 17.2827 16.4274C17.3978 16.4466 17.513 16.4082 17.6007 16.326C17.6281 16.2986 17.6528 16.2657 17.6747 16.23C17.8008 16.0052 17.9708 15.8133 18.1709 15.668C18.1874 15.657 18.2038 15.6406 18.2203 15.6296C18.5959 15.3774 19.0373 15.3006 19.465 15.413C19.8927 15.5255 20.2545 15.8133 20.4848 16.2273C20.5671 16.3753 20.7233 16.4548 20.8769 16.4247C20.9482 16.411 21.0222 16.4055 21.0797 16.4H21.088C21.65 16.4 22.1819 16.7263 22.4779 17.2499C22.5437 17.3678 22.6561 17.4418 22.7795 17.4528C22.8892 17.461 22.9934 17.4774 23.0948 17.4966C23.2209 17.5213 23.3388 17.5542 23.4539 17.5926C23.8707 17.7352 24.2051 17.9737 24.4162 18.278C23.5499 18.6536 22.2285 18.9305 20.6795 19.0456C20.4327 19.0648 20.1805 19.0785 19.9256 19.0867C19.6624 19.0977 19.3937 19.1032 19.1195 19.1032C16.8852 19.1032 14.9167 18.7687 13.7762 18.2615C13.8173 18.2067 13.864 18.1519 13.916 18.1025L13.9133 18.1053ZM21.2991 21.6419C21.2607 21.7653 21.2059 21.8804 21.1373 21.9818C21.0907 22.0504 21.0386 22.1134 20.9838 22.171C20.9728 22.1847 20.9591 22.1957 20.9454 22.2066C20.8988 22.2505 20.8467 22.2916 20.7946 22.3273C20.77 22.3437 20.7453 22.3602 20.7206 22.3739C20.674 22.4013 20.6247 22.4232 20.5753 22.4452C20.5397 22.4589 20.5068 22.4726 20.4711 22.4808C20.4273 22.4945 20.3807 22.5055 20.334 22.511C20.3094 22.5137 20.2874 22.5192 20.2628 22.5219C20.2655 22.5219 20.2682 22.5219 20.271 22.5247C20.4519 22.5822 20.6164 22.6946 20.7425 22.8509C20.8659 23.0072 20.929 23.2101 20.918 23.4184C20.9235 23.5308 20.918 23.646 20.8961 23.7584C20.8741 23.8461 20.8467 23.9283 20.8111 24.0079C20.7069 24.2381 20.5451 24.4328 20.3395 24.5616C19.9694 24.7536 19.5609 24.8413 19.1524 24.8166H16.537C16.4657 24.8221 16.3972 24.8029 16.3341 24.7673C16.2875 24.7426 16.2573 24.6932 16.2573 24.6384C16.2546 24.611 16.2546 24.5808 16.2573 24.5507C16.271 24.5013 16.3012 24.4602 16.3396 24.4328L16.4054 24.3889C16.4657 24.3478 16.5205 24.3012 16.5699 24.2464C16.6192 24.1778 16.6549 24.0983 16.6768 24.0133C16.6768 24.0133 16.6768 24.0106 16.6768 24.0079L17.2032 21.9626L17.4444 21.0278C17.4527 20.9729 17.4527 20.9154 17.4444 20.8578C17.4527 20.8167 17.4527 20.7728 17.4444 20.7344C17.428 20.696 17.3896 20.6549 17.3896 20.6111C17.3567 20.5699 17.3375 20.5178 17.332 20.463C17.3293 20.4411 17.332 20.4191 17.332 20.3972C17.332 20.3945 17.332 20.3917 17.332 20.389C17.332 20.389 17.332 20.389 17.332 20.3862C17.3457 20.3259 17.3869 20.2793 17.439 20.2629C17.5212 20.23 17.6117 20.2135 17.7021 20.219H19.9365C20.1915 20.2135 20.441 20.2629 20.6795 20.3671C20.8714 20.4438 21.0386 20.5754 21.1647 20.7509C21.1867 20.7838 21.1976 20.8222 21.2196 20.8523C21.2799 20.9675 21.321 21.0936 21.332 21.2252C21.332 21.2553 21.3375 21.2827 21.3375 21.3129C21.3375 21.4253 21.3237 21.5404 21.2909 21.6474L21.2991 21.6419Z" fill="#CA1010"/>
<path d="M11.3829 21.5131C11.276 21.3815 11.117 21.2965 10.9361 21.2965C10.64 21.2965 10.396 21.5213 10.3658 21.8091C9.6859 21.8969 9.02792 21.9599 8.39736 21.9928C8.37269 21.6309 8.36447 21.2718 8.37269 20.9181C8.4851 16.8195 10.7743 13.3898 10.8099 13.3405C10.8703 13.25 10.8812 13.1376 10.8401 13.0389C10.799 12.9402 10.7058 12.8689 10.5988 12.8525L6.70856 12.2356L6.31103 12.1725L5.37068 12.0245L2.04516 11.4981C1.58732 11.4214 1.18979 11.1691 0.926603 10.7881C0.663413 10.407 0.570199 9.94913 0.660671 9.49129L0.715502 9.20069C0.715502 9.20069 0.715502 9.19246 0.715502 9.18972C0.726469 9.18972 0.737435 9.18972 0.748401 9.18972C1.58458 9.18972 2.27545 8.56465 2.38511 7.75863L3.71751 7.47624C4.5345 7.30627 5.29666 6.90874 5.91899 6.33027C6.53036 5.76003 6.97998 5.03077 7.22123 4.22201C7.5886 2.95266 8.55637 1.94377 9.81201 1.52431L12.4933 0.63056H12.5399C15.4953 0.63056 18.0559 2.63464 18.7714 5.50506L19.1827 7.16919L19.2567 7.4735L19.3225 7.73395L20.4191 12.1616C20.4602 12.3316 20.633 12.433 20.8002 12.3919C20.9702 12.3507 21.0716 12.178 21.0305 12.0108L19.9503 7.64622L19.8845 7.38577L19.7995 7.04582L19.3801 5.35153C18.6042 2.20148 15.7914 0 12.5454 0H12.4467C12.4138 0 12.3781 0.00548313 12.348 0.0164494L9.61736 0.926649C8.16433 1.41191 7.04303 2.57981 6.62083 4.04655C6.41247 4.74565 6.02317 5.37621 5.49405 5.86969C4.9567 6.37139 4.29873 6.71409 3.5914 6.85939L1.9355 7.21031C1.84503 7.2295 1.7573 7.25692 1.66957 7.28708C1.64489 7.2953 1.62296 7.30353 1.59829 7.31175C1.53797 7.33368 1.47766 7.3611 1.41734 7.38851C1.38993 7.40222 1.36251 7.41319 1.3351 7.4269C1.26382 7.46254 1.19528 7.50366 1.12948 7.54753C1.09384 7.5722 1.0582 7.59962 1.02256 7.62429C0.989659 7.64896 0.95676 7.67364 0.926603 7.69831C0.888221 7.72847 0.852581 7.76137 0.81694 7.79427C0.786783 7.82168 0.759367 7.8491 0.731952 7.87925C0.690828 7.92038 0.652446 7.9615 0.616806 8.00537C0.578424 8.05197 0.540042 8.09858 0.504402 8.14793C0.50166 8.15341 0.498919 8.15889 0.493436 8.16438C0.433121 8.25211 0.375548 8.34258 0.328942 8.43305C0.328942 8.43305 0.3262 8.43853 0.323459 8.44128C0.274111 8.53723 0.227504 8.63593 0.191864 8.74011C0.191864 8.74285 0.189122 8.74559 0.186381 8.75107C0.153482 8.85525 0.126066 8.95669 0.101392 9.07458L0.0465608 9.37067C-0.0768096 9.993 0.0520439 10.6236 0.411189 11.1445C0.770334 11.6681 1.3159 12.0135 1.94646 12.1177L4.54273 12.5289L5.51598 12.6825L5.89706 12.7428L10.0313 13.398C9.40352 14.459 7.84357 17.4363 7.74213 20.8852C7.73116 21.2581 7.73939 21.6337 7.76406 22.0148C4.22745 22.097 1.65312 21.2581 1.06368 19.5336C0.441346 17.7132 2.17401 15.3171 5.33778 13.1184L4.97315 13.0608C1.85051 15.3034 0.164448 17.7461 0.805974 19.6241C1.40363 21.376 3.90668 22.2779 7.35831 22.2779C7.49813 22.2779 7.64618 22.2697 7.78874 22.267C7.93952 23.9147 8.46865 25.6199 9.6201 27.2457C9.68042 27.3334 9.77911 27.38 9.87781 27.38C9.94086 27.38 10.0039 27.3608 10.0588 27.3224C10.2013 27.221 10.2342 27.0263 10.1328 26.8838C9.06356 25.3759 8.5646 23.7885 8.41656 22.2533C9.04986 22.2231 9.71331 22.1573 10.396 22.0696C10.4755 22.2917 10.6866 22.4507 10.9361 22.4507C11.0101 22.4507 11.0786 22.437 11.1417 22.4123C11.35 22.3328 11.4981 22.1381 11.509 21.9051C11.509 21.8941 11.5118 21.8859 11.5118 21.8749C11.5118 21.7927 11.4953 21.7159 11.4652 21.6474C11.4432 21.598 11.4158 21.5542 11.3829 21.5131Z" fill="#CA1010"/>
</g>
<defs>
<clipPath id="clip0_185_186">
<rect width="29.5979" height="27.38" fill="white"/>
</clipPath>
</defs>
</svg>
