<svg width="24" height="24" viewBox="0 0 24 24" fill="none" xmlns="http://www.w3.org/2000/svg">
<g clip-path="url(#clip0_185_221)">
<path d="M22.9127 23.4058H0.3924C0.174021 23.4058 0 23.2283 0 23.0134V0.493047C0 0.274668 0.174021 0.100647 0.3924 0.100647H22.9127C23.1311 0.100647 23.3051 0.274668 23.3051 0.493047V23.0134C23.3051 23.2283 23.1311 23.4058 22.9127 23.4058ZM0.7848 22.621H22.5203V0.885446H0.7848V22.621Z" fill="#4A4A4A"/>
<path d="M11.6525 11.122C9.17871 11.122 7.16553 9.10878 7.16553 6.63495V4.58765C7.16553 4.36927 7.33955 4.19525 7.55793 4.19525C7.77631 4.19525 7.95033 4.36927 7.95033 4.58765V6.63495C7.95033 8.67543 9.61206 10.3372 11.6525 10.3372C13.693 10.3372 15.3547 8.67543 15.3547 6.63495V4.58765C15.3547 4.36927 15.5288 4.19525 15.7471 4.19525C15.9655 4.19525 16.1395 4.36927 16.1395 4.58765V6.63495C16.1395 9.10878 14.1264 11.122 11.6525 11.122Z" fill="#4A4A4A"/>
</g>
<defs>
<clipPath id="clip0_185_221">
<rect width="23.3051" height="23.3051" fill="white" transform="translate(0 0.100647)"/>
</clipPath>
</defs>
</svg>
