<svg width="18" height="20" viewBox="0 0 18 20" fill="none" xmlns="http://www.w3.org/2000/svg">
<path d="M12.2075 11.1861C13.9013 10.1289 15.0279 8.25835 15.0279 6.13404C15.0279 2.84309 12.3254 0.164062 9.00567 0.164062C5.68589 0.164062 2.9834 2.84309 2.9834 6.13404C2.9834 8.26581 4.1176 10.1414 5.81889 11.1961C2.65218 12.3975 0.290949 15.3228 0.00238206 18.8302C-0.0302385 19.2406 0.275893 19.6013 0.692433 19.6336C0.712508 19.6336 0.735091 19.6336 0.755165 19.6336C1.1441 19.6336 1.47282 19.3376 1.50544 18.9471C1.82161 15.1089 5.11629 12.1015 9.00818 12.1015C12.9001 12.1015 16.117 14.9895 16.4984 18.8202C16.5385 19.2307 16.9074 19.5292 17.3214 19.4894C17.7354 19.4496 18.0366 19.0839 17.9964 18.6735C17.6476 15.186 15.3391 12.3503 12.21 11.1836L12.2075 11.1861ZM9.00567 10.6115C6.51647 10.6115 4.48897 8.60162 4.48897 6.13404C4.48897 3.66645 6.51647 1.65656 9.00567 1.65656C11.4949 1.65656 13.5224 3.66645 13.5224 6.13404C13.5224 8.60162 11.4949 10.6115 9.00567 10.6115Z" fill="black"/>
</svg>
