<svg width="20" height="20" viewBox="0 0 20 20" fill="none" xmlns="http://www.w3.org/2000/svg">
<path d="M17.1385 10.9384C17.1785 10.6384 17.1985 10.3284 17.1985 9.99844C17.1985 9.67844 17.1785 9.35844 17.1285 9.05844L19.1585 7.47844C19.246 7.40634 19.3057 7.30614 19.3276 7.19491C19.3495 7.08368 19.3321 6.9683 19.2785 6.86844L17.3585 3.54844C17.302 3.448 17.2117 3.37082 17.1037 3.33055C16.9957 3.29028 16.877 3.28954 16.7685 3.32844L14.3785 4.28844C13.8785 3.90844 13.3485 3.58844 12.7585 3.34844L12.3985 0.80844C12.3808 0.69397 12.3226 0.589648 12.2345 0.514417C12.1465 0.439186 12.0343 0.398036 11.9185 0.39844H8.0785C7.8385 0.39844 7.6485 0.56844 7.6085 0.80844L7.2485 3.34844C6.6585 3.58844 6.1185 3.91844 5.6285 4.28844L3.2385 3.32844C3.0185 3.24844 2.7685 3.32844 2.6485 3.54844L0.738499 6.86844C0.618499 7.07844 0.658499 7.33844 0.858499 7.47844L2.8885 9.05844C2.8385 9.35844 2.7985 9.68844 2.7985 9.99844C2.7985 10.3084 2.8185 10.6384 2.8685 10.9384L0.838499 12.5184C0.751023 12.5905 0.691253 12.6907 0.669372 12.802C0.647491 12.9132 0.664853 13.0286 0.718499 13.1284L2.6385 16.4484C2.7585 16.6684 3.0085 16.7384 3.2285 16.6684L5.6185 15.7084C6.1185 16.0884 6.6485 16.4084 7.2385 16.6484L7.5985 19.1884C7.6485 19.4284 7.8385 19.5984 8.0785 19.5984H11.9185C12.1585 19.5984 12.3585 19.4284 12.3885 19.1884L12.7485 16.6484C13.3385 16.4084 13.8785 16.0884 14.3685 15.7084L16.7585 16.6684C16.9785 16.7484 17.2285 16.6684 17.3485 16.4484L19.2685 13.1284C19.3885 12.9084 19.3385 12.6584 19.1485 12.5184L17.1385 10.9384ZM9.9985 13.5984C8.0185 13.5984 6.3985 11.9784 6.3985 9.99844C6.3985 8.01844 8.0185 6.39844 9.9985 6.39844C11.9785 6.39844 13.5985 8.01844 13.5985 9.99844C13.5985 11.9784 11.9785 13.5984 9.9985 13.5984Z" fill="#636363" fill-opacity="0.85"/>
</svg>
