<svg width="19" height="19" viewBox="0 0 19 19" fill="none" xmlns="http://www.w3.org/2000/svg">
<g clip-path="url(#clip0_1491_873)">
<path d="M0 9C0 1.8 6.33333 0 9.5 0C13.5 0 16.1667 2.33333 17 3.5C20.6 7.9 18.8333 12.6667 17.5 14.5L18.5 16.5C18.9 17.3 18.3333 17.8333 18 18C17.1667 17.5 15.3 16.7 14.5 17.5C13.5 18.5 10 19 9.5 19C9 19 0 18 0 9Z" fill="#6D6767"/>
<path d="M13.2969 11.9999V7.63623H13.9553V9.72004H14.0085L15.8388 7.63623H16.6676L14.9077 9.60072L16.674 11.9999H15.8814L14.4709 10.0503L13.9553 10.6426V11.9999H13.2969Z" fill="white"/>
<path d="M10.207 11.9999V7.63623H10.8654V11.4331H12.8427V11.9999H10.207Z" fill="white"/>
<path d="M6.67543 11.9999H5.97656L7.54688 7.63623H8.30753L9.87784 11.9999H9.17898L7.94531 8.42884H7.91122L6.67543 11.9999ZM6.79261 10.2911H9.05966V10.845H6.79261V10.2911Z" fill="white"/>
<path d="M3 8.20299V7.63623H6.37713V8.20299H5.01562V11.9999H4.35938V8.20299H3Z" fill="white"/>
</g>
<defs>
<clipPath id="clip0_1491_873">
<rect width="19" height="19" fill="white"/>
</clipPath>
</defs>
</svg>
