<svg width="25" height="21" viewBox="0 0 25 21" fill="none" xmlns="http://www.w3.org/2000/svg">
<g clip-path="url(#clip0_1491_866)">
<path d="M5.23542 7.78174C4.96042 7.78174 4.71979 7.88674 4.53646 8.09674C4.34167 8.30674 4.25 8.55174 4.25 8.85507C4.25 9.1584 4.34167 9.39174 4.53646 9.6134C4.73125 9.8234 4.96042 9.92841 5.23542 9.92841C5.51042 9.92841 5.75104 9.8234 5.95729 9.6134C6.15208 9.4034 6.26667 9.1584 6.26667 8.85507C6.26667 8.55174 6.16354 8.30674 5.95729 8.09674C5.7625 7.87507 5.53333 7.78174 5.23542 7.78174Z" fill="#3C3535" fill-opacity="0.75"/>
<path d="M13.794 7.7583C13.519 7.7583 13.2784 7.8633 13.0951 8.0733C12.9003 8.2833 12.8086 8.5283 12.8086 8.83163C12.8086 9.13497 12.9003 9.3683 13.0951 9.58997C13.2898 9.79997 13.519 9.90497 13.794 9.90497C14.069 9.90497 14.3096 9.79997 14.5159 9.58997C14.7107 9.37997 14.8253 9.13497 14.8253 8.83163C14.8253 8.5283 14.7221 8.29497 14.5159 8.0733C14.3326 7.85163 14.0919 7.7583 13.794 7.7583Z" fill="#3C3535" fill-opacity="0.75"/>
<path d="M19.5128 7.78174C19.2378 7.78174 18.9971 7.88674 18.8138 8.09674C18.619 8.30674 18.5273 8.55174 18.5273 8.85507C18.5273 9.1584 18.619 9.39174 18.8138 9.6134C19.0086 9.8234 19.2378 9.92841 19.5128 9.92841C19.7878 9.92841 20.0284 9.8234 20.2346 9.6134C20.4294 9.4034 20.544 9.1584 20.544 8.85507C20.544 8.55174 20.4409 8.30674 20.2346 8.09674C20.0398 7.87507 19.7878 7.78174 19.5128 7.78174Z" fill="#3C3535" fill-opacity="0.75"/>
<path d="M22.0458 0H2.70417C1.22604 0 0 1.26 0 2.78833V14.07C0 15.5983 1.22604 16.8583 2.70417 16.8583H10.301C10.301 16.8583 11.7677 21 12.2948 21C12.8219 21 14.4146 16.8583 14.4146 16.8583H22.0458C23.524 16.8583 24.75 15.5983 24.75 14.07V2.78833C24.75 1.26 23.524 0 22.0458 0ZM7.18438 10.4183C6.80625 10.8617 6.21042 11.0483 5.56875 11.0483C4.98438 11.0483 4.56042 10.8733 4.25104 10.6283H4.23958V10.9433H2.78438V4.41H4.23958V6.91833H4.27396C4.675 6.56833 5.19063 6.46333 5.79792 6.42833C6.31354 6.41667 6.86354 6.74333 7.20729 7.14C7.52813 7.53667 7.76875 8.14333 7.76875 8.82C7.76875 9.555 7.58542 9.98667 7.18438 10.43V10.4183ZM10.3125 11.0017H8.83438V6.95333C8.83438 6.02 8.1125 5.90333 8.1125 5.90333V4.28167C8.1125 4.28167 10.1865 4.41 10.3125 7V11.0017ZM16.1333 9.765C16.0073 10.0683 15.824 10.3133 15.5833 10.5467C15.3542 10.7683 15.0792 10.9433 14.7698 11.0717C14.4604 11.2 14.1396 11.2583 13.8073 11.2583C13.475 11.2583 13.1542 11.2 12.8563 11.0717C12.5469 10.9433 12.2719 10.7683 12.0427 10.5467C11.8021 10.3133 11.6188 10.045 11.4927 9.765C11.3667 9.485 11.3094 9.17 11.3094 8.83167C11.3094 8.49333 11.3667 8.20167 11.4927 7.89833C11.6188 7.61833 11.8021 7.35 12.0427 7.11667C12.2833 6.895 12.5469 6.72 12.8563 6.59167C13.1656 6.46333 13.4865 6.405 13.8073 6.405C14.1281 6.405 14.4604 6.46333 14.7698 6.59167C15.0792 6.72 15.3542 6.895 15.5833 7.11667C15.824 7.35 15.9958 7.60667 16.1333 7.89833C16.2594 8.20167 16.3167 8.49333 16.3167 8.83167C16.3167 9.17 16.2594 9.46167 16.1333 9.765ZM21.9542 10.4067C21.9542 11.55 21.7365 12.25 21.2552 12.74C20.6594 13.3233 19.8229 13.3583 19.124 13.265V12.0867C19.7198 12.145 20.5333 11.7367 20.5333 10.955V10.6517H20.5219C20.1896 11.1183 19.7083 11.2933 19.0552 11.2933C18.4594 11.2933 17.9438 11.0717 17.5885 10.6517C17.2333 10.2317 17.0729 9.66 17.0729 8.94833C17.0729 8.14333 17.2677 7.51333 17.6573 7.04667C18.0583 6.58 18.6083 6.35833 19.2385 6.35833C19.8 6.35833 20.1667 6.49833 20.5219 6.825H20.5333V6.46333H21.9885V10.4183H21.9771L21.9542 10.4067Z" fill="#3C3535" fill-opacity="0.75"/>
</g>
<defs>
<clipPath id="clip0_1491_866">
<rect width="24.75" height="21" fill="white"/>
</clipPath>
</defs>
</svg>
