<svg width="25" height="18" viewBox="0 0 25 18" fill="none" xmlns="http://www.w3.org/2000/svg">
<g clip-path="url(#clip0_1491_871)">
<path d="M24.2325 2.69312C23.9513 1.63587 23.1075 0.801189 22.05 0.511834C20.115 -0.0112305 12.375 -0.0112305 12.375 -0.0112305C12.375 -0.0112305 4.635 -0.0112305 2.7 0.500705C1.63125 0.79006 0.79875 1.62474 0.5175 2.682C0 4.60732 0 8.61377 0 8.61377C0 8.61377 0 12.6202 0.5175 14.5455C0.79875 15.6028 1.6425 16.4375 2.7 16.7268C4.635 17.2388 12.375 17.2388 12.375 17.2388C12.375 17.2388 20.115 17.2388 22.05 16.7268C23.1188 16.4375 23.9513 15.6028 24.2325 14.5455C24.75 12.6202 24.75 8.61377 24.75 8.61377C24.75 8.61377 24.75 4.60732 24.2438 2.682L24.2325 2.69312ZM9.84375 12.2641V4.98571L16.3125 8.6249L9.84375 12.2641Z" fill="#3C3535" fill-opacity="0.75"/>
</g>
<defs>
<clipPath id="clip0_1491_871">
<rect width="24.75" height="17.25" fill="white"/>
</clipPath>
</defs>
</svg>
