<svg width="21" height="22" viewBox="0 0 21 22" fill="none" xmlns="http://www.w3.org/2000/svg">
<path d="M15.1398 0.033452C12.0524 -0.0133639 8.96174 -0.00834793 5.87433 0.03178C2.73043 0.0719079 0.119127 2.75881 0.0255199 6.02756C-0.0212834 7.66778 0.0174504 9.31136 0.0174504 10.9533H0.0126087C0.0126087 12.5667 -0.0196695 14.1819 0.0190643 15.7954C0.101374 19.1661 2.6691 21.8363 5.93404 21.8915C8.96819 21.9433 12.004 21.9416 15.0381 21.8915C18.3966 21.8363 20.9934 19.0407 20.9967 15.5646C20.9999 12.448 21.0031 9.32975 20.9967 6.21315C20.9886 2.92099 18.3289 0.0785958 15.1414 0.03178L15.1398 0.033452ZM19.0584 15.7837C19.0422 18.086 17.2766 19.8851 15.0639 19.8984C13.5339 19.9068 12.0023 19.8984 10.4724 19.8984C8.96819 19.8984 7.46564 19.9034 5.96148 19.8984C3.75526 19.8884 1.98803 18.1713 1.95737 15.8923C1.91218 12.637 1.91218 9.38158 1.95737 6.1262C1.98803 3.97435 3.57935 2.22544 5.65161 2.17193C8.87136 2.08833 12.0959 2.08833 15.3157 2.17193C17.4396 2.22544 19.0454 4.06296 19.0584 6.26832C19.0777 9.4401 19.0793 12.6135 19.0584 15.7853V15.7837Z" fill="#3C3535" fill-opacity="0.75"/>
<path d="M10.5121 5.36548C7.46989 5.36381 5.03773 7.85341 5.03127 10.98C5.0232 14.1351 7.51185 16.7618 10.5234 16.6949C13.6302 16.6247 15.9122 14.2187 15.98 11.0152C16.0462 7.92196 13.514 5.36715 10.5121 5.36548ZM10.4459 14.7103C8.53507 14.6685 6.9728 12.9898 6.98087 10.9867C6.98894 8.96529 8.55282 7.36184 10.5137 7.36853C12.444 7.37355 14.0353 9.02046 14.0369 11.0135C14.0369 13.0149 12.3503 14.7537 10.4459 14.7119V14.7103Z" fill="#3C3535" fill-opacity="0.75"/>
<path d="M16.1558 3.83051C15.4263 3.8188 14.8776 4.36878 14.8711 5.12104C14.8647 5.84487 15.436 6.47175 16.1139 6.48345C16.7901 6.49515 17.4098 5.87162 17.4227 5.16283C17.4373 4.44234 16.8659 3.84221 16.1558 3.83051Z" fill="#3C3535" fill-opacity="0.75"/>
</svg>
