<svg width="27" height="27" viewBox="0 0 27 27" fill="none" xmlns="http://www.w3.org/2000/svg">
<circle cx="13.5" cy="13.5" r="13.5" fill="#A2A2A2"/>
<g clip-path="url(#clip0_1286_502)">
<path d="M19.4583 7H7.54167C7.24194 7 7 7.24194 7 7.54167V19.4583C7 19.7581 7.24194 20 7.54167 20H19.4583C19.7581 20 20 19.7581 20 19.4583V7.54167C20 7.24194 19.7581 7 19.4583 7ZM18.9167 18.9167H8.08333V8.08333H18.9167V18.9167Z" fill="white"/>
<path d="M13.5013 13.5001C14.9945 13.5001 16.2096 12.2849 16.2096 10.7917V9.70841C16.2096 9.40869 15.9677 9.16675 15.668 9.16675C15.3682 9.16675 15.1263 9.40869 15.1263 9.70841V10.7917C15.1263 11.6873 14.3969 12.4167 13.5013 12.4167C12.6057 12.4167 11.8763 11.6873 11.8763 10.7917V9.70841C11.8763 9.40869 11.6344 9.16675 11.3346 9.16675C11.0349 9.16675 10.793 9.40869 10.793 9.70841V10.7917C10.793 12.2849 12.0081 13.5001 13.5013 13.5001Z" fill="white"/>
</g>
<defs>
<clipPath id="clip0_1286_502">
<rect width="13" height="13" fill="white" transform="translate(7 7)"/>
</clipPath>
</defs>
</svg>
