<svg width="13" height="13" viewBox="0 0 13 13" fill="none" xmlns="http://www.w3.org/2000/svg">
<g clip-path="url(#clip0_1285_168)">
<path d="M12.4583 0H0.541667C0.241944 0 0 0.241944 0 0.541667V12.4583C0 12.7581 0.241944 13 0.541667 13H12.4583C12.7581 13 13 12.7581 13 12.4583V0.541667C13 0.241944 12.7581 0 12.4583 0ZM11.9167 11.9167H1.08333V1.08333H11.9167V11.9167Z" fill="white"/>
<path d="M6.5013 6.50008C7.9945 6.50008 9.20964 5.28494 9.20964 3.79175V2.70841C9.20964 2.40869 8.96769 2.16675 8.66797 2.16675C8.36825 2.16675 8.1263 2.40869 8.1263 2.70841V3.79175C8.1263 4.6873 7.39686 5.41675 6.5013 5.41675C5.60575 5.41675 4.8763 4.6873 4.8763 3.79175V2.70841C4.8763 2.40869 4.63436 2.16675 4.33464 2.16675C4.03491 2.16675 3.79297 2.40869 3.79297 2.70841V3.79175C3.79297 5.28494 5.00811 6.50008 6.5013 6.50008Z" fill="white"/>
</g>
<defs>
<clipPath id="clip0_1285_168">
<rect width="13" height="13" fill="white"/>
</clipPath>
</defs>
</svg>
