<svg width="133" height="41" viewBox="0 0 133 41" fill="none" xmlns="http://www.w3.org/2000/svg">
<mask id="path-1-inside-1_933_63158" fill="white">
<path fill-rule="evenodd" clip-rule="evenodd" d="M0.152344 0.21875H132.152V4.26876C131.991 4.23597 131.824 4.21875 131.652 4.21875C130.272 4.21875 129.152 5.33804 129.152 6.71875C129.152 8.09946 130.272 9.21875 131.652 9.21875C131.824 9.21875 131.991 9.20153 132.152 9.16874V13.2688C131.991 13.236 131.824 13.2188 131.652 13.2188C130.272 13.2188 129.152 14.338 129.152 15.7188C129.152 17.0995 130.272 18.2188 131.652 18.2188C131.824 18.2188 131.991 18.2015 132.152 18.1687V22.2688C131.991 22.236 131.824 22.2188 131.652 22.2188C130.272 22.2188 129.152 23.338 129.152 24.7188C129.152 26.0995 130.272 27.2188 131.652 27.2188C131.824 27.2188 131.991 27.2015 132.152 27.1687V31.2688C131.991 31.236 131.824 31.2188 131.652 31.2188C130.272 31.2188 129.152 32.338 129.152 33.7188C129.152 35.0995 130.272 36.2188 131.652 36.2188C131.824 36.2188 131.991 36.2015 132.152 36.1687V40.2188H0.152344V36.1687C0.313899 36.2015 0.481111 36.2188 0.652344 36.2188C2.03306 36.2188 3.15234 35.0995 3.15234 33.7188C3.15234 32.338 2.03306 31.2188 0.652344 31.2188C0.481111 31.2188 0.313899 31.236 0.152344 31.2688V27.1687C0.313899 27.2015 0.481111 27.2188 0.652344 27.2188C2.03306 27.2188 3.15234 26.0995 3.15234 24.7188C3.15234 23.338 2.03306 22.2188 0.652344 22.2188C0.481111 22.2188 0.313899 22.236 0.152344 22.2688V18.1687C0.313899 18.2015 0.481111 18.2188 0.652344 18.2188C2.03306 18.2188 3.15234 17.0995 3.15234 15.7188C3.15234 14.338 2.03306 13.2188 0.652344 13.2188C0.481111 13.2188 0.313899 13.236 0.152344 13.2688V9.16874C0.313899 9.20154 0.481111 9.21875 0.652344 9.21875C2.03306 9.21875 3.15234 8.09946 3.15234 6.71875C3.15234 5.33804 2.03306 4.21875 0.652344 4.21875C0.481111 4.21875 0.313899 4.23597 0.152344 4.26876V0.21875Z"/>
</mask>
<path d="M132.152 0.21875H133.952V-1.58125H132.152V0.21875ZM0.152344 0.21875V-1.58125H-1.64766V0.21875H0.152344ZM132.152 4.26876L131.794 6.03278L133.952 6.47084V4.26876H132.152ZM132.152 9.16874H133.952V6.96666L131.794 7.40471L132.152 9.16874ZM132.152 13.2688L131.794 15.0328L133.952 15.4708V13.2688H132.152ZM132.152 18.1687H133.952V15.9667L131.794 16.4047L132.152 18.1687ZM132.152 22.2688L131.794 24.0328L133.952 24.4708V22.2688H132.152ZM132.152 27.1687H133.952V24.9667L131.794 25.4047L132.152 27.1687ZM132.152 31.2688L131.794 33.0328L133.952 33.4708V31.2688H132.152ZM132.152 36.1687H133.952V33.9666L131.794 34.4047L132.152 36.1687ZM132.152 40.2188V42.0187H133.952V40.2188H132.152ZM0.152344 40.2188H-1.64766V42.0187H0.152344V40.2188ZM0.152344 36.1687L0.510432 34.4047L-1.64766 33.9666V36.1687H0.152344ZM0.152344 31.2688H-1.64766V33.4708L0.510412 33.0328L0.152344 31.2688ZM0.152344 27.1687L0.510412 25.4047L-1.64766 24.9667V27.1687H0.152344ZM0.152344 22.2688H-1.64766V24.4708L0.510412 24.0328L0.152344 22.2688ZM0.152344 18.1687L0.510412 16.4047L-1.64766 15.9667V18.1687H0.152344ZM0.152344 13.2688H-1.64766V15.4708L0.510422 15.0328L0.152344 13.2688ZM0.152344 9.16874L0.510422 7.40472L-1.64766 6.96665V9.16874H0.152344ZM0.152344 4.26876H-1.64766V6.47085L0.510422 6.03278L0.152344 4.26876ZM132.152 -1.58125H0.152344V2.01875H132.152V-1.58125ZM133.952 4.26876V0.21875H130.352V4.26876H133.952ZM131.652 6.01875C131.703 6.01875 131.75 6.02378 131.794 6.03278L132.51 2.50473C132.232 2.44815 131.945 2.41875 131.652 2.41875V6.01875ZM130.952 6.71875C130.952 6.33215 131.266 6.01875 131.652 6.01875V2.41875C129.278 2.41875 127.352 4.34392 127.352 6.71875H130.952ZM131.652 7.41875C131.266 7.41875 130.952 7.10535 130.952 6.71875H127.352C127.352 9.09358 129.278 11.0188 131.652 11.0188V7.41875ZM131.794 7.40471C131.75 7.41372 131.703 7.41875 131.652 7.41875V11.0188C131.945 11.0188 132.232 10.9893 132.51 10.9328L131.794 7.40471ZM133.952 13.2688V9.16874H130.352V13.2688H133.952ZM131.652 15.0188C131.703 15.0188 131.75 15.0238 131.794 15.0328L132.51 11.5047C132.232 11.4482 131.945 11.4187 131.652 11.4187V15.0188ZM130.952 15.7188C130.952 15.3322 131.266 15.0188 131.652 15.0188V11.4187C129.278 11.4187 127.352 13.3439 127.352 15.7188H130.952ZM131.652 16.4188C131.266 16.4188 130.952 16.1053 130.952 15.7188H127.352C127.352 18.0936 129.278 20.0187 131.652 20.0187V16.4188ZM131.794 16.4047C131.75 16.4137 131.703 16.4188 131.652 16.4188V20.0187C131.945 20.0187 132.232 19.9893 132.51 19.9328L131.794 16.4047ZM133.952 22.2688V18.1687H130.352V22.2688H133.952ZM131.652 24.0187C131.703 24.0187 131.75 24.0238 131.794 24.0328L132.51 20.5047C132.232 20.4482 131.945 20.4188 131.652 20.4188V24.0187ZM130.952 24.7188C130.952 24.3322 131.266 24.0187 131.652 24.0187V20.4188C129.278 20.4188 127.352 22.3439 127.352 24.7188H130.952ZM131.652 25.4188C131.266 25.4188 130.952 25.1053 130.952 24.7188H127.352C127.352 27.0936 129.278 29.0187 131.652 29.0187V25.4188ZM131.794 25.4047C131.75 25.4137 131.703 25.4188 131.652 25.4188V29.0187C131.945 29.0187 132.232 28.9893 132.51 28.9328L131.794 25.4047ZM133.952 31.2688V27.1687H130.352V31.2688H133.952ZM131.652 33.0187C131.703 33.0187 131.75 33.0238 131.794 33.0328L132.51 29.5047C132.232 29.4482 131.945 29.4188 131.652 29.4188V33.0187ZM130.952 33.7188C130.952 33.3322 131.266 33.0187 131.652 33.0187V29.4188C129.278 29.4188 127.352 31.3439 127.352 33.7188H130.952ZM131.652 34.4188C131.266 34.4188 130.952 34.1053 130.952 33.7188H127.352C127.352 36.0936 129.278 38.0187 131.652 38.0187V34.4188ZM131.794 34.4047C131.75 34.4137 131.703 34.4188 131.652 34.4188V38.0187C131.945 38.0187 132.232 37.9893 132.51 37.9328L131.794 34.4047ZM133.952 40.2188V36.1687H130.352V40.2188H133.952ZM0.152344 42.0187H132.152V38.4188H0.152344V42.0187ZM-1.64766 36.1687V40.2188H1.95234V36.1687H-1.64766ZM0.652344 34.4188C0.602053 34.4188 0.554792 34.4137 0.510432 34.4047L-0.205745 37.9328C0.0730058 37.9893 0.360169 38.0187 0.652344 38.0187V34.4188ZM1.35234 33.7188C1.35234 34.1054 1.03894 34.4188 0.652344 34.4188V38.0187C3.02717 38.0187 4.95234 36.0936 4.95234 33.7188H1.35234ZM0.652344 33.0187C1.03894 33.0187 1.35234 33.3321 1.35234 33.7188H4.95234C4.95234 31.3439 3.02717 29.4188 0.652344 29.4188V33.0187ZM0.510412 33.0328C0.554785 33.0238 0.602053 33.0187 0.652344 33.0187V29.4188C0.360169 29.4188 0.0730127 29.4482 -0.205725 29.5047L0.510412 33.0328ZM-1.64766 27.1687V31.2688H1.95234V27.1687H-1.64766ZM0.652344 25.4188C0.602053 25.4188 0.554785 25.4137 0.510412 25.4047L-0.205725 28.9328C0.0730127 28.9893 0.360169 29.0187 0.652344 29.0187V25.4188ZM1.35234 24.7188C1.35234 25.1054 1.03894 25.4188 0.652344 25.4188V29.0187C3.02717 29.0187 4.95234 27.0936 4.95234 24.7188H1.35234ZM0.652344 24.0187C1.03894 24.0187 1.35234 24.3321 1.35234 24.7188H4.95234C4.95234 22.3439 3.02717 20.4188 0.652344 20.4188V24.0187ZM0.510412 24.0328C0.554785 24.0238 0.602053 24.0187 0.652344 24.0187V20.4188C0.360169 20.4188 0.0730127 20.4482 -0.205725 20.5047L0.510412 24.0328ZM-1.64766 18.1687V22.2688H1.95234V18.1687H-1.64766ZM0.652344 16.4188C0.602053 16.4188 0.554785 16.4137 0.510412 16.4047L-0.205725 19.9328C0.0730127 19.9893 0.360169 20.0187 0.652344 20.0187V16.4188ZM1.35234 15.7188C1.35234 16.1053 1.03894 16.4188 0.652344 16.4188V20.0187C3.02717 20.0187 4.95234 18.0936 4.95234 15.7188H1.35234ZM0.652344 15.0188C1.03894 15.0188 1.35234 15.3322 1.35234 15.7188H4.95234C4.95234 13.3439 3.02717 11.4187 0.652344 11.4187V15.0188ZM0.510422 15.0328C0.554781 15.0238 0.602046 15.0188 0.652344 15.0188V11.4187C0.360175 11.4187 0.073016 11.4482 -0.205735 11.5047L0.510422 15.0328ZM-1.64766 9.16874V13.2688H1.95234V9.16874H-1.64766ZM0.652344 7.41875C0.602046 7.41875 0.554781 7.41372 0.510422 7.40472L-0.205735 10.9328C0.073016 10.9893 0.360175 11.0188 0.652344 11.0188V7.41875ZM1.35234 6.71875C1.35234 7.10535 1.03894 7.41875 0.652344 7.41875V11.0188C3.02717 11.0188 4.95234 9.09357 4.95234 6.71875H1.35234ZM0.652344 6.01875C1.03894 6.01875 1.35234 6.33215 1.35234 6.71875H4.95234C4.95234 4.34393 3.02717 2.41875 0.652344 2.41875V6.01875ZM0.510422 6.03278C0.554785 6.02378 0.60205 6.01875 0.652344 6.01875V2.41875C0.360172 2.41875 0.0730126 2.44815 -0.205735 2.50474L0.510422 6.03278ZM-1.64766 0.21875V4.26876H1.95234V0.21875H-1.64766Z" fill="#CA1010" mask="url(#path-1-inside-1_933_63158)"/>
<path d="M66.4553 19.5226H63.715V17.8983H66.4553V19.5226ZM67.9249 22.8817H65.936V14.4287H67.9249V22.8817ZM63.0631 23.1967C64.0723 23.1967 64.9452 23.3053 65.6818 23.5226C66.4185 23.7399 66.982 24.0548 67.3724 24.4674C67.7666 24.8762 67.9636 25.3661 67.9636 25.937C67.9636 26.5079 67.7666 26.9978 67.3724 27.4066C66.982 27.8154 66.4185 28.1285 65.6818 28.3458C64.9452 28.5668 64.0723 28.6773 63.0631 28.6773C62.0538 28.6773 61.1828 28.5668 60.4498 28.3458C59.7205 28.1285 59.1588 27.8154 58.7647 27.4066C58.3706 26.9978 58.1754 26.5079 58.1791 25.937C58.1754 25.3661 58.3706 24.8762 58.7647 24.4674C59.1588 24.0548 59.7224 23.7399 60.4553 23.5226C61.1883 23.3053 62.0575 23.1967 63.0631 23.1967ZM63.0631 24.7105C62.4295 24.7105 61.8973 24.7565 61.4664 24.8486C61.0354 24.937 60.7095 25.0733 60.4885 25.2574C60.2712 25.4379 60.1625 25.6644 60.1625 25.937C60.1625 26.2059 60.2712 26.4305 60.4885 26.611C60.7095 26.7915 61.0354 26.9278 61.4664 27.0199C61.8973 27.1083 62.4295 27.1525 63.0631 27.1525C63.6966 27.1525 64.2288 27.1083 64.6597 27.0199C65.0944 26.9278 65.4222 26.7915 65.6432 26.611C65.8678 26.4305 65.982 26.2059 65.9857 25.937C65.982 25.6644 65.8678 25.4379 65.6432 25.2574C65.4222 25.0733 65.0944 24.937 64.6597 24.8486C64.2288 24.7565 63.6966 24.7105 63.0631 24.7105ZM60.8973 16.7933C60.8973 17.7178 60.7481 18.5834 60.4498 19.39C60.1551 20.1967 59.7058 20.9057 59.1017 21.5171C58.5014 22.1285 57.761 22.5852 56.8807 22.8873L55.8476 21.3071C56.6063 21.0567 57.2435 20.6939 57.7592 20.2187C58.2748 19.7436 58.6561 19.2132 58.9028 18.6276C59.1496 18.0383 59.2748 17.4269 59.2785 16.7933V15.8596H60.8973V16.7933ZM61.3061 16.7768C61.3061 17.3624 61.424 17.9259 61.6597 18.4674C61.8992 19.0088 62.2638 19.4987 62.7537 19.937C63.2435 20.3716 63.8513 20.7086 64.5769 20.948L63.5934 22.5171C62.7352 22.2372 62.0133 21.8081 61.4277 21.2298C60.8421 20.6515 60.4038 19.9812 60.1128 19.2188C59.8255 18.4563 59.6818 17.6423 59.6818 16.7768V15.8596H61.3061V16.7768ZM64.1404 16.8983H56.4277V15.2961H64.1404V16.8983ZM82.0344 28.6607H80.0178V14.4287H82.0344V28.6607ZM77.7747 15.9259C77.771 17.4508 77.5648 18.8357 77.1559 20.0806C76.7471 21.3219 76.0565 22.4618 75.0841 23.5005C74.1154 24.5392 72.8115 25.4453 71.1725 26.2188L70.1338 24.6331C71.4966 23.9849 72.5924 23.2574 73.4211 22.4508C74.2535 21.6442 74.8576 20.7381 75.2333 19.7326C75.609 18.7234 75.7987 17.5687 75.8023 16.2685V15.9259H77.7747ZM76.7195 17.4895H70.8963V15.9259H76.7195V17.4895ZM94.7295 16.8541H85.7239V15.2685H94.7295V16.8541ZM97.2101 22.9259H84.2378V21.3182H97.2101V22.9259ZM91.6632 28.6718H89.6521V22.4397H91.6632V28.6718ZM95.6853 16.611C95.6816 17.2887 95.6705 17.8817 95.6521 18.39C95.6337 18.8946 95.5821 19.4784 95.4974 20.1414C95.4164 20.8007 95.2912 21.5134 95.1217 22.2795L93.1438 22.053C93.3133 21.3237 93.4367 20.6423 93.514 20.0088C93.595 19.3716 93.6448 18.8118 93.6632 18.3292C93.6853 17.8431 93.6982 17.2648 93.7018 16.5944V16.5447V15.2685H95.6853V16.5447V16.611ZM111.358 22.9094H98.3859V21.3237H111.358V22.9094ZM105.861 21.8486H103.861V19.0143H105.861V21.8486ZM109.811 28.6994H107.844V25.4618H99.8223V23.8928H109.811V28.6994ZM109.96 20.0585H99.9549V18.4563H109.96V20.0585ZM109.822 16.5779H101.949V19.3348H99.9549V15.0088H109.822V16.5779Z" fill="#CA1010"/>
<circle cx="27.1523" cy="28.2188" r="2" stroke="#CA1010" stroke-width="2"/>
<circle cx="40.1523" cy="28.2188" r="2" stroke="#CA1010" stroke-width="2"/>
<path fill-rule="evenodd" clip-rule="evenodd" d="M39.1523 18.2188H42.1911L45.1523 21.9203V26.2188H39.1523V18.2188ZM39.1523 16.2188H43.1523L47.1523 21.2188V26.2188V28.2188H45.1523L41.1524 28.2188C41.1524 27.6665 40.7047 27.2188 40.1524 27.2188C39.6001 27.2188 39.1524 27.6665 39.1524 28.2188L39.1523 28.2188H37.1523V26.2188V18.2188V16.2188H39.1523Z" fill="#CA1010"/>
<line x1="29.1523" y1="17.2188" x2="21.1523" y2="17.2188" stroke="#CA1010" stroke-width="2"/>
<path fill-rule="evenodd" clip-rule="evenodd" d="M23.1523 14.2188H37.1523V26.2188H23.1523V25.2187H21.1523V26.2188V28.2188H23.1523L26.1523 28.2188C26.1523 27.6665 26.6001 27.2188 27.1523 27.2188C27.7046 27.2188 28.1523 27.6665 28.1523 28.2188L37.1523 28.2188H39.1523V26.2188V14.2188V12.2188H37.1523H23.1523H21.1523V14.2188V15.2188H23.1523V14.2188ZM21.1523 24.2187H23.1523V22.2188H21.1523V24.2187ZM23.1523 19.2188V21.2188H21.1523V19.2188H23.1523ZM21.1523 18.2188H23.1523V16.2188H21.1523V18.2188Z" fill="#CA1010"/>
<line x1="27.1523" y1="20.2188" x2="19.1523" y2="20.2188" stroke="#CA1010" stroke-width="2"/>
<line x1="27.1523" y1="23.2188" x2="19.1523" y2="23.2188" stroke="#CA1010" stroke-width="2"/>
</svg>
