<svg width="39" height="39" viewBox="0 0 39 39" fill="none" xmlns="http://www.w3.org/2000/svg">
<path fill-rule="evenodd" clip-rule="evenodd" d="M19.9209 38.0254C30.4143 38.0254 38.9209 29.5188 38.9209 19.0254C38.9209 8.53198 30.4143 0.0253906 19.9209 0.0253906C9.42749 0.0253906 0.920898 8.53198 0.920898 19.0254C0.920898 29.5188 9.42749 38.0254 19.9209 38.0254ZM27.0762 18.4951L22.3033 13.7221C22.0104 13.4292 21.5355 13.4292 21.2426 13.7221C20.9497 14.015 20.9497 14.4899 21.2426 14.7828L24.7352 18.2754H12.5459V19.7754H24.7352L21.2426 23.2681C20.9497 23.5609 20.9497 24.0358 21.2426 24.3287C21.5355 24.6216 22.0104 24.6216 22.3033 24.3287L27.0762 19.5557C27.3691 19.2628 27.3691 18.788 27.0762 18.4951Z" fill="white"/>
</svg>
