<svg width="16" height="16" viewBox="0 0 16 16" fill="none" xmlns="http://www.w3.org/2000/svg">
<path fill-rule="evenodd" clip-rule="evenodd" d="M3.05703 1.05752C3.30708 0.807468 3.64622 0.666992 3.99984 0.666992H11.9998C12.3535 0.666992 12.6926 0.807467 12.9426 1.05752C13.1927 1.30757 13.3332 1.6467 13.3332 2.00033V14.667C13.3332 14.9167 13.1936 15.1455 12.9716 15.2598C12.7495 15.374 12.4822 15.3546 12.279 15.2095L10.3332 13.8196L8.38733 15.2095C8.15553 15.375 7.84414 15.375 7.61234 15.2095L5.6665 13.8196L3.72066 15.2095C3.51745 15.3546 3.25016 15.374 3.02812 15.2598C2.80607 15.1455 2.6665 14.9167 2.6665 14.667V2.00033C2.6665 1.6467 2.80698 1.30756 3.05703 1.05752ZM11.9998 2.00033H3.99984L3.99984 13.3715L5.27901 12.4578C5.51081 12.2923 5.8222 12.2923 6.054 12.4578L7.99984 13.8477L9.94568 12.4578C10.1775 12.2923 10.4889 12.2923 10.7207 12.4578L11.9998 13.3715V2.00033ZM5.33317 4.66699C5.33317 4.2988 5.63165 4.00033 5.99984 4.00033H9.99984C10.368 4.00033 10.6665 4.2988 10.6665 4.66699C10.6665 5.03518 10.368 5.33366 9.99984 5.33366H5.99984C5.63165 5.33366 5.33317 5.03518 5.33317 4.66699ZM5.33317 7.33366C5.33317 6.96547 5.63165 6.66699 5.99984 6.66699H9.99984C10.368 6.66699 10.6665 6.96547 10.6665 7.33366C10.6665 7.70185 10.368 8.00033 9.99984 8.00033H5.99984C5.63165 8.00033 5.33317 7.70185 5.33317 7.33366ZM5.33317 10.0003C5.33317 9.63213 5.63165 9.33366 5.99984 9.33366H9.99984C10.368 9.33366 10.6665 9.63213 10.6665 10.0003C10.6665 10.3685 10.368 10.667 9.99984 10.667H5.99984C5.63165 10.667 5.33317 10.3685 5.33317 10.0003Z" fill="#ED3333"/>
</svg>
