<svg width="13" height="13" viewBox="0 0 13 13" fill="none" xmlns="http://www.w3.org/2000/svg">
<circle cx="6.5" cy="6.5" r="6.5" fill="#BE1A21"/>
<path fill-rule="evenodd" clip-rule="evenodd" d="M10.2371 3.05986C10.4802 3.19078 10.5712 3.49401 10.4402 3.73715L6.94024 10.2371L6.1 10.3001C5.61407 9.65219 4.97886 8.91916 4.41891 8.3511C4.13826 8.06637 3.88507 7.83184 3.68498 7.67214C3.58414 7.59166 3.5071 7.53852 3.45394 7.50802C3.44451 7.50261 3.43677 7.49846 3.43063 7.49532C3.18732 7.46155 3 7.2527 3 7.0001C3 6.72395 3.22386 6.5001 3.5 6.5001C3.69034 6.5001 3.85739 6.58661 3.95153 6.64061C4.06633 6.70647 4.18774 6.79395 4.30877 6.89055C4.55243 7.08502 4.83674 7.35049 5.13109 7.6491C5.5505 8.07458 6.00767 8.58514 6.42163 9.09101L9.55976 3.26305C9.69068 3.01991 9.99391 2.92894 10.2371 3.05986ZM3.4122 7.48691C3.41218 7.48683 3.4135 7.48728 3.41628 7.48848C3.41362 7.48757 3.41223 7.48698 3.4122 7.48691Z" fill="white"/>
</svg>
