<svg width="28" height="43" viewBox="0 0 28 43" fill="none" xmlns="http://www.w3.org/2000/svg">
<path d="M0.245 43V38.05C3.435 34.585 6.515 31.12 9.21 28.04C15.205 21.275 17.9 17.645 17.9 11.65C17.9 6.04 15.315 2.85 11.08 2.85C9.54 2.85 7.89 3.235 6.24 4.005L8.99 2.795L7.835 8.735C7.23 12.475 5.415 13.355 3.71 13.355C2.115 13.355 0.74 12.42 0.135 10.99C0.465 4.445 6.845 0.979997 14.16 0.979997C22.85 0.979997 26.865 5.655 26.865 12.2C26.865 18.14 21.805 22.43 11.575 30.46C9.54 32.11 6.515 34.64 3.545 37.225L4.205 35.135V36.235H27.855V43H0.245Z" fill="#CA1010"/>
</svg>
