<svg width="29" height="44" viewBox="0 0 29 44" fill="none" xmlns="http://www.w3.org/2000/svg">
<path d="M13.565 43.935C5.205 43.935 0.75 40.305 0.255 34.145C0.86 32.385 2.29 31.615 3.72 31.615C5.92 31.615 7.295 32.715 7.79 36.4L8.78 42.34L5.975 40.745C7.57 41.57 8.78 42.01 10.705 42.01C16.37 42.01 19.505 38.82 19.505 32.66C19.505 26.17 16.535 22.705 10.925 22.705H8.78V20.56H10.65C15.49 20.56 18.735 17.59 18.735 11.045C18.735 5.6 16.26 2.85 12.08 2.85C10.595 2.85 8.89 3.235 6.855 4.06L10.32 2.685L9.22 8.35C8.725 11.155 7.02 12.09 5.095 12.09C3.72 12.09 2.62 11.43 2.015 10.385C2.18 3.785 7.955 0.979997 14.665 0.979997C23.355 0.979997 27.48 5.05 27.48 10.715C27.48 16.49 23.74 20.945 13.345 21.88V21C24.84 21.605 28.745 26.115 28.745 32.605C28.745 39.315 22.97 43.935 13.565 43.935Z" fill="#CA1010"/>
</svg>
