<svg width="115" height="120" viewBox="0 0 115 120" fill="none" xmlns="http://www.w3.org/2000/svg">
<path d="M100.776 4.32963L101.705 3.56397C101.704 3.97585 101.642 4.3853 101.52 4.77877C100.713 6.44464 99.8101 8.06308 99.0124 9.73282C97.1507 13.6221 95.2004 17.4766 93.5268 21.4452C91.562 26.1108 89.7544 30.85 88.0596 35.623C86.4912 40.0418 85.0926 44.5283 83.7451 49.0187C82.1892 54.207 80.7549 59.4341 79.3013 64.6524C78.901 66.0888 78.6068 67.5563 78.2161 69.2076C78.4668 69.108 78.7088 68.9875 78.9396 68.8475C81.888 66.5399 84.8296 64.2245 87.7645 61.9014C88.0662 61.6505 88.2954 61.3229 88.4281 60.9528C89.2316 58.651 89.9878 56.3317 90.7807 54.026C90.9313 53.6822 91.1107 53.352 91.317 53.0387L91.6353 53.1849L89.2943 60.2897L89.4612 60.4194C89.6347 60.3458 89.801 60.256 89.9579 60.1513C91.7125 58.7487 93.4728 57.3529 95.1984 55.9155C95.5521 55.6193 95.8189 55.2322 95.9701 54.7956C96.7418 52.3611 97.4488 49.9073 98.1819 47.4613C99.2519 43.8895 100.321 40.318 101.39 36.7468C101.434 36.5102 101.464 36.2709 101.478 36.0305C101.086 36.3287 100.887 36.5068 100.663 36.6433C100.134 37.0226 99.5687 37.347 98.9748 37.6112C98.6778 37.7252 98.3572 37.7625 98.0422 37.7197C97.7272 37.6769 97.4279 37.5554 97.1719 37.3664C96.9158 37.1774 96.7112 36.9268 96.5767 36.6378C96.4422 36.3488 96.3822 36.0304 96.4022 35.7121C96.4783 34.5446 96.6993 33.3912 97.0601 32.2787C97.9282 29.7039 98.8523 27.1388 99.9027 24.6318C101.372 21.1306 102.906 17.6537 104.544 14.229C106.304 10.1824 108.507 6.34415 111.11 2.78476C111.44 2.36563 111.675 1.87293 111.998 1.448C112.177 1.20838 112.443 1.04915 112.739 1.00477C113.034 0.960388 113.334 1.03442 113.576 1.21084C114.134 1.50123 114.036 2.03362 113.876 2.44984C113.181 4.26381 112.409 6.04971 111.702 7.85981C110.063 12.0511 108.351 16.2163 106.85 20.4569C105.418 24.4972 104.213 28.6198 102.917 32.7085C102.802 33.0678 102.751 33.4446 102.766 33.8216C105.248 31.4017 107.437 28.6955 109.286 25.7595L109.575 25.8882C109.507 26.1621 109.46 26.4448 109.365 26.709C108.088 30.2595 106.825 33.8158 105.517 37.3567C104.501 40.1018 105.117 42.6679 106.263 45.1904C106.597 45.9261 106.795 45.9299 107.339 45.3976C108.297 44.4615 109.285 43.5584 110.26 42.636L110.386 42.7637C109.544 43.6223 108.686 44.4664 107.878 45.3521C107.693 45.5831 107.591 45.8699 107.588 46.1661C107.578 46.7469 107.672 47.3345 107.691 47.9201C107.669 48.1058 107.62 48.2872 107.545 48.4583L107.268 48.4525C107.254 48.1395 107.221 47.8277 107.172 47.5184C107.105 47.1931 106.979 46.8795 106.882 46.5611C106.605 46.679 106.34 46.8256 106.092 46.9986C103.282 49.433 100.557 51.9759 97.6494 54.2893C95.9865 55.6135 95.5573 57.4139 94.9747 59.2259C93.6696 63.2856 92.3819 67.3501 91.0199 71.3923C90.0553 74.2585 89.0049 77.0946 87.968 79.9346C87.634 80.8857 87.2423 81.8154 86.7951 82.7185C86.5057 83.2867 86.0765 83.9768 85.3077 83.7523C84.5679 83.5403 84.5601 82.7611 84.6325 82.1396C84.8158 80.4622 85.0183 78.7847 85.3154 77.1236C85.843 74.123 86.4314 71.131 87.0111 68.138C87.204 67.1294 87.451 66.1305 87.669 65.1267C87.6881 65.0499 87.6893 64.9696 87.6726 64.8923C87.6559 64.8149 87.6216 64.7424 87.5725 64.6804C87.4318 64.9308 87.3061 65.1893 87.1963 65.4548C84.4723 73.2252 82.2492 81.1635 80.5408 89.2203C79.1691 95.786 77.9682 102.385 76.6342 108.967C76.0507 111.84 75.3369 114.686 74.6433 117.534C74.5034 117.979 74.2849 118.394 73.998 118.761C73.7492 119.118 73.4058 119.071 73.2216 118.693C72.999 118.256 72.8314 117.793 72.7229 117.315C72.0372 113.689 71.8606 109.984 72.1982 106.309C72.4547 102.872 72.6746 99.4256 73.1058 96.0087C73.7193 91.1456 74.4514 86.2951 75.2481 81.4592C75.77 78.291 76.4963 75.1567 77.1281 72.006C77.2004 71.6469 77.2496 71.2829 77.3432 70.7186C77.0582 70.8773 76.7828 71.0529 76.5185 71.2442C73.8182 73.5298 70.9321 75.5845 67.8904 77.3869C65.9697 78.6939 63.8125 79.6104 61.5406 80.0847C60.3413 80.3672 59.0798 80.1763 58.017 79.5513C57.607 79.2783 57.4797 79.6578 57.362 79.9172C56.7939 81.1756 56.2778 82.4659 55.6817 83.7136C53.6503 87.9649 51.6565 92.2365 49.5248 96.4375C47.914 99.6115 46.172 102.722 44.3808 105.799C43.1442 107.922 41.7658 109.968 40.3633 111.987C39.8926 112.664 39.364 113.439 38.3454 113.463C38.1 113.483 37.8538 113.435 37.633 113.326C37.4123 113.216 37.2251 113.049 37.0915 112.842C36.3277 111.791 35.9267 110.518 35.9494 109.218C36.0902 105.231 36.5138 101.26 37.2169 97.3338C37.2784 97.062 37.2565 96.7779 37.1542 96.5188C37.0442 96.7656 36.9304 97.0115 36.8243 97.2612C36.2764 98.5535 35.7632 99.8631 35.1594 101.127C35.0099 101.439 34.5537 101.602 34.2382 101.834C34.028 101.476 33.6267 101.113 33.6373 100.761C33.6913 98.959 33.8351 97.1586 33.9759 95.3601C34.2257 92.1794 34.5025 89.0006 34.7524 85.8199C34.754 85.4686 34.7279 85.1177 34.6742 84.7706L34.3849 84.6593C33.6257 85.5614 32.8194 86.4287 32.1171 87.3696C29.1106 91.4099 26.1609 95.4928 23.1292 99.5147C22.2475 100.575 21.3095 101.588 20.3194 102.547C20.2262 102.653 20.1225 102.749 20.0098 102.833C19.7829 103.057 19.4983 103.213 19.188 103.284C18.8776 103.355 18.5537 103.338 18.2523 103.236C17.994 103.084 17.7939 102.85 17.6842 102.571C17.5745 102.292 17.5616 101.984 17.6476 101.696C17.9533 99.775 18.3353 97.8662 18.6903 95.9525C18.7568 95.5925 18.8301 95.2333 18.9005 94.8742L18.7481 94.8074C18.6324 94.9875 18.5108 95.1646 18.4019 95.3485C16.9868 97.7259 15.6046 100.124 14.1413 102.47C13.6895 103.154 13.1321 103.762 12.49 104.271C11.3817 105.184 10.5001 104.814 10.2714 103.406C10.1963 103.014 10.1617 102.615 10.1682 102.216C10.2453 98.9762 9.98995 95.7368 9.40622 92.5492C9.39175 92.4611 9.38982 92.3711 9.5403 92.2288C9.69489 92.5677 9.81229 92.9224 9.89044 93.2868C10.156 95.7796 10.4017 98.2744 10.6274 100.771C10.6988 101.545 10.6534 102.327 10.7711 103.087C10.8309 103.468 11.0759 104.036 11.3498 104.112C11.5619 104.136 11.7768 104.111 11.9776 104.038C12.1783 103.965 12.3597 103.847 12.5073 103.692C13.3828 102.719 14.1735 101.673 14.8705 100.564C16.3869 98.0056 17.7893 95.3795 19.2478 92.7863C19.371 92.6156 19.5134 92.4597 19.6722 92.3217L19.895 92.4117C19.7638 93.1783 19.6519 93.9479 19.4986 94.7087C19.0992 96.6872 18.6719 98.659 18.2784 100.638C18.193 101.076 18.1583 101.522 18.1752 101.967C18.2051 102.772 18.6951 103.055 19.4098 102.664C19.8017 102.454 20.1547 102.178 20.4535 101.848C21.7952 100.316 23.1678 98.8051 24.4083 97.1954C26.2689 94.7881 28.0187 92.2946 29.8379 89.8553C31.0404 88.242 32.2676 86.6481 33.5196 85.0736C33.7845 84.7791 34.1056 84.5411 34.464 84.3737C34.8498 84.1675 35.1855 84.3118 35.2221 84.7725C35.3028 85.5166 35.3245 86.2659 35.2867 87.0134C35.0456 90.0296 34.7514 93.0409 34.49 96.0551C34.3685 97.4561 34.2656 98.858 34.1813 100.261C34.1942 100.569 34.2388 100.876 34.3144 101.175L34.571 101.244C34.8176 100.907 35.0305 100.546 35.2067 100.167C36.2899 97.0938 37.3451 94.0108 38.4091 90.9298C38.4428 90.7693 38.4983 90.6143 38.574 90.469C38.6843 90.3515 38.811 90.2508 38.9502 90.1699L39.1643 90.2754C39.0496 90.9278 38.9415 91.5812 38.819 92.2326C38.303 94.973 37.7242 97.7036 37.2853 100.46C36.968 102.449 36.7944 104.464 36.6343 106.472C36.4934 108.241 36.2484 110.02 37.0751 111.732C37.7638 113.156 38.5981 113.385 39.583 112.144C40.6418 110.772 41.6214 109.341 42.5172 107.857C43.9371 105.567 45.3444 103.266 46.6437 100.907C48.2024 98.0753 49.7062 95.2091 51.1174 92.3014C53.1632 88.0849 55.1136 83.82 57.0775 79.5639C57.1691 79.2205 57.1936 78.8625 57.1498 78.5098C57.0944 77.6303 57.1112 76.7478 57.2 75.8711C58.038 72.2829 59.1522 68.7654 60.5326 65.3503C61.7865 61.8114 63 58.2628 64.2674 54.7307C66.0422 49.7863 67.835 44.8497 69.6459 39.9208C70.1282 38.6063 70.6375 37.3073 71.1342 35.9967L70.9818 35.8747C70.8323 36.017 70.6732 36.1506 70.5333 36.3035C68.4267 38.5976 66.3017 40.8762 64.223 43.1964C61.6447 46.0742 59.1773 49.0545 56.5315 51.8675C52.4346 56.2149 48.277 60.5056 44.0586 64.7395C40.2755 68.5397 36.3999 72.2441 32.5223 75.9534C30.8378 77.6174 28.9285 79.0354 26.8506 80.166C25.6873 80.8527 24.302 81.0542 22.9923 80.7274C21.8348 80.407 21.3718 79.9801 21.4991 78.7827C21.6634 76.562 22.0027 74.3578 22.5138 72.1909C23.8758 67.1681 25.3883 62.1821 26.9625 57.2203C28.2743 53.0871 29.7877 49.0178 31.1622 44.9029C32.1413 41.9681 33.0239 38.9983 33.9749 36.0557C34.7611 33.6232 35.5588 31.1936 36.395 28.7785C37.3471 26.0324 38.3242 23.2931 39.3399 20.5711C39.6997 19.609 40.208 18.7039 40.6604 17.7757C40.6997 17.6762 40.7596 17.5862 40.8363 17.5118C40.913 17.4374 41.0046 17.3803 41.1051 17.3443C41.2055 17.3083 41.3124 17.2942 41.4187 17.303C41.525 17.3118 41.6282 17.3432 41.7214 17.3953C42.1863 17.6024 41.8748 17.9392 41.7629 18.2267C41.6904 18.4756 41.5501 18.6992 41.3578 18.8724C41.4414 18.5665 41.5256 18.2606 41.6105 17.9547L41.4157 17.8444C41.2469 18.0293 41.0125 18.1861 40.9208 18.4039C40.0083 20.5586 38.9917 22.6784 38.2461 24.8892C35.6089 32.7375 33.0865 40.6235 30.4841 48.4825C28.7479 53.7376 26.8612 58.9472 25.1905 64.2236C23.7587 68.5226 22.7045 72.9392 22.0402 77.4227C22.0007 77.7238 21.9988 78.0306 21.9775 78.3346C21.855 80.0769 22.8707 80.4389 24.2703 80.3886C25.8129 80.2129 27.2732 79.5979 28.4788 78.6162C31.175 76.6267 33.6925 74.4042 36.0025 71.9741C39.4273 68.6449 42.8239 65.2867 46.1922 61.8995C49.4872 58.5735 52.7793 55.2398 55.9605 51.8045C59.2545 48.2502 62.3961 44.5535 65.64 40.9507C67.3637 39.0371 69.1617 37.1902 70.9278 35.3143C71.0169 35.2051 71.1231 35.1113 71.2423 35.0364C71.4738 34.9154 71.7245 34.8274 71.9628 34.7248C71.9418 34.9799 71.8975 35.2327 71.8306 35.4798C70.8931 38.0081 69.9237 40.5248 69.0006 43.059C67.5325 47.0909 66.0811 51.1286 64.6465 55.1721C63.4716 58.4893 62.344 61.822 61.1846 65.1422C60.2654 67.777 59.2912 70.3924 58.4153 73.0417C58.0577 74.2326 57.7679 75.4429 57.5472 76.6668C57.5024 77.0696 57.4982 77.4759 57.5347 77.8796L57.77 77.9222C58.1481 77.1091 58.5291 76.298 58.9034 75.4829C60.929 71.0748 62.8842 66.6348 64.9908 62.2673C67.0869 57.9192 69.3121 53.633 71.5201 49.3401C73.0528 46.3607 74.5652 43.3648 76.2465 40.4667C79.1566 35.4382 82.0754 30.4086 85.2006 25.5146C87.9477 21.2139 90.9379 17.0661 93.9088 12.9155C95.6402 10.4956 97.5385 8.2015 99.3789 5.86483C99.811 5.31696 100.317 4.8291 100.787 4.31608C100.549 4.74428 100.286 5.15888 100.002 5.55798C99.2468 6.51046 98.4114 7.40196 97.687 8.3767C95.1792 11.7588 92.6153 15.106 90.2357 18.5781C87.4027 22.7104 84.6055 26.8775 82.0368 31.1762C78.9936 36.258 76.123 41.4502 73.3431 46.6821C70.5381 51.9575 67.8875 57.3171 65.2532 62.6816C63.5295 66.1943 61.9524 69.7797 60.3155 73.336C59.6198 74.8473 58.933 76.3638 58.2552 77.8854C58.0835 78.2678 57.8231 78.714 58.3121 79.0141C58.7525 79.3178 59.2501 79.528 59.7744 79.6317C61.156 79.7671 62.5487 79.5334 63.8112 78.9541C66.7424 77.6506 69.5105 76.0054 72.0583 74.0523C73.7945 72.7817 75.5134 71.4891 77.2149 70.1746C77.4654 69.9415 77.6472 69.6438 77.7406 69.3141C77.893 68.8737 77.9335 68.3974 78.055 67.9435C79.0823 64.0183 80.0508 60.0768 81.1648 56.1759C82.6397 51.0137 84.0798 45.8331 85.8102 40.7552C87.8522 34.7654 90.0987 28.8415 92.4301 22.9582C93.905 19.2354 95.6537 15.619 97.361 11.994C98.3594 9.87511 99.5323 7.83948 100.593 5.74867C100.808 5.32664 101.205 4.86976 100.779 4.33738L100.776 4.32963ZM73.5698 118.319L73.8649 118.311C74.1591 116.836 74.871 115.526 75.1305 114.001C75.797 110.095 76.6661 106.224 77.484 102.344C78.7756 96.2158 80.0093 90.0741 81.4204 83.973C83.0113 76.9233 85.1067 69.9979 87.6902 63.2507C87.7378 63.0239 87.7585 62.7923 87.7519 62.5606C87.4857 62.7271 87.3429 62.7997 87.2195 62.8965C84.4222 65.0918 81.6452 67.3065 78.8277 69.4728C78.2717 69.8641 77.8892 70.457 77.7609 71.1261C77.049 74.7647 76.2677 78.3859 75.6388 82.0438C74.9472 86.0667 74.2951 90.1021 73.8109 94.155C73.3132 98.3221 73.0142 102.514 72.6756 106.7C72.3881 110.144 72.5669 113.611 73.2071 117.007C73.291 117.451 73.4492 117.878 73.5727 118.319H73.5698ZM96.845 34.8322C96.9135 36.9927 98.0391 37.7361 99.5043 36.9317C100.869 36.1806 102.109 35.2417 102.337 33.4983C102.375 33.3146 102.427 33.1343 102.494 32.9592C103.748 28.9315 104.886 24.866 106.276 20.8877C107.766 16.6209 109.47 12.4276 111.12 8.21699C111.846 6.3643 112.673 4.5513 113.435 2.71119C113.477 2.49166 113.478 2.26632 113.44 2.0462C113.201 2.02619 112.96 2.04317 112.727 2.09653C111.855 2.56298 111.143 3.28164 110.683 4.15927C108.658 7.2766 106.853 10.5324 105.281 13.9028C104.027 16.3653 102.87 18.883 101.797 21.4297C100.377 24.7973 99.049 28.2055 97.7459 31.6234C97.3877 32.6762 97.0854 33.7473 96.8402 34.8322H96.845ZM96.3116 54.8207C96.5873 54.6709 96.8535 54.5037 97.1083 54.3203C97.8269 53.7221 98.5291 53.1045 99.2381 52.4957C101.507 50.5452 103.781 48.6006 106.033 46.6317C106.097 46.5395 106.14 46.4334 106.157 46.3218C106.173 46.2102 106.164 46.0963 106.129 45.989C105.692 44.8274 105.146 43.7104 104.77 42.5343C104.378 41.392 104.344 40.1566 104.673 38.9945C105.441 36.4132 106.224 33.8384 107.022 31.2701C107.267 30.4822 107.573 29.7136 107.851 28.9373C107.773 28.937 107.696 28.9538 107.626 28.9864C107.555 29.019 107.493 29.0666 107.443 29.126C106.463 30.2876 105.5 31.4646 104.505 32.6107C103.284 34.0191 102.055 35.3297 101.55 37.286C100.529 41.2547 99.2275 45.144 98.043 49.0671C97.4835 50.9227 96.927 52.7783 96.3135 54.8178L96.3116 54.8207ZM95.3991 56.6937L95.2438 56.5815C95.0522 56.6835 94.8673 56.7976 94.6901 56.9231C92.9703 58.2928 91.2447 59.6547 89.5509 61.0564C89.2396 61.336 89.0026 61.6889 88.8612 62.0834C88.6561 62.6577 88.4996 63.2483 88.3934 63.849C87.7741 66.9774 87.1452 70.104 86.5684 73.2382C86.0562 76.0279 85.6038 78.8292 85.1399 81.6286C85.0856 82.0004 85.083 82.3779 85.1321 82.7504C85.2016 83.3312 85.5816 83.4783 85.9877 83.065C86.2886 82.7743 86.5289 82.4266 86.6948 82.0419C87.8609 78.9792 89.0657 75.9224 90.1267 72.8249C91.7761 68.0141 93.3233 63.1694 94.9091 58.3373C95.0875 57.7953 95.2351 57.2435 95.3914 56.6918" fill="black"/>
<path d="M95.3991 56.6937L95.2438 56.5815C95.0522 56.6835 94.8673 56.7976 94.6901 56.9231C92.9703 58.2928 91.2447 59.6547 89.5509 61.0564C89.2396 61.336 89.0026 61.6889 88.8612 62.0834C88.6561 62.6577 88.4996 63.2483 88.3934 63.849C87.7741 66.9774 87.1452 70.104 86.5684 73.2382C86.0562 76.0279 85.6038 78.8292 85.1399 81.6286C85.0856 82.0004 85.083 82.3779 85.1321 82.7504C85.2016 83.3312 85.5816 83.4783 85.9877 83.065C86.2886 82.7743 86.5289 82.4266 86.6948 82.0419C87.8609 78.9792 89.0657 75.9224 90.1267 72.8249C91.7761 68.0141 93.3233 63.1694 94.9091 58.3373C95.0875 57.7953 95.2351 57.2435 95.3914 56.6918M100.776 4.32963L101.705 3.56397C101.704 3.97585 101.642 4.3853 101.52 4.77877C100.713 6.44464 99.8101 8.06308 99.0124 9.73282C97.1507 13.6221 95.2004 17.4766 93.5268 21.4452C91.562 26.1108 89.7544 30.85 88.0596 35.623C86.4912 40.0418 85.0926 44.5283 83.7451 49.0187C82.1892 54.207 80.7549 59.4341 79.3013 64.6524C78.901 66.0888 78.6068 67.5563 78.2161 69.2076C78.4668 69.108 78.7088 68.9875 78.9396 68.8475C81.888 66.5399 84.8296 64.2245 87.7645 61.9014C88.0662 61.6505 88.2954 61.3229 88.4281 60.9528C89.2316 58.651 89.9878 56.3317 90.7807 54.026C90.9313 53.6822 91.1107 53.352 91.317 53.0387L91.6353 53.1849L89.2943 60.2897L89.4612 60.4194C89.6347 60.3458 89.801 60.256 89.9579 60.1513C91.7125 58.7487 93.4728 57.3529 95.1984 55.9155C95.5521 55.6193 95.8189 55.2322 95.9701 54.7956C96.7418 52.3611 97.4488 49.9073 98.1819 47.4613C99.2519 43.8895 100.321 40.318 101.39 36.7468C101.434 36.5102 101.464 36.2709 101.478 36.0305C101.086 36.3287 100.887 36.5068 100.663 36.6433C100.134 37.0226 99.5687 37.347 98.9748 37.6112C98.6778 37.7252 98.3572 37.7625 98.0422 37.7197C97.7272 37.6769 97.4279 37.5554 97.1719 37.3664C96.9158 37.1774 96.7112 36.9268 96.5767 36.6378C96.4422 36.3488 96.3822 36.0304 96.4022 35.7121C96.4783 34.5446 96.6993 33.3912 97.0601 32.2787C97.9282 29.7039 98.8523 27.1388 99.9027 24.6318C101.372 21.1306 102.906 17.6537 104.544 14.229C106.304 10.1824 108.507 6.34415 111.11 2.78476C111.44 2.36563 111.675 1.87293 111.998 1.448C112.177 1.20838 112.443 1.04915 112.739 1.00477C113.034 0.960388 113.334 1.03442 113.576 1.21084C114.134 1.50123 114.036 2.03362 113.876 2.44984C113.181 4.26381 112.409 6.04971 111.702 7.85981C110.063 12.0511 108.351 16.2163 106.85 20.4569C105.418 24.4972 104.213 28.6198 102.917 32.7085C102.802 33.0678 102.751 33.4446 102.766 33.8216C105.248 31.4017 107.437 28.6955 109.286 25.7595L109.575 25.8882C109.507 26.1621 109.46 26.4448 109.365 26.709C108.088 30.2595 106.825 33.8158 105.517 37.3567C104.501 40.1018 105.117 42.6679 106.263 45.1904C106.597 45.9261 106.795 45.9299 107.339 45.3976C108.297 44.4615 109.285 43.5584 110.26 42.636L110.386 42.7637C109.544 43.6223 108.686 44.4664 107.878 45.3521C107.693 45.5831 107.591 45.8699 107.588 46.1661C107.578 46.7469 107.672 47.3345 107.691 47.9201C107.669 48.1058 107.62 48.2872 107.545 48.4583L107.268 48.4525C107.254 48.1395 107.221 47.8277 107.172 47.5184C107.105 47.1931 106.979 46.8795 106.882 46.5611C106.605 46.679 106.34 46.8256 106.092 46.9986C103.282 49.433 100.557 51.9759 97.6494 54.2893C95.9865 55.6135 95.5573 57.4139 94.9747 59.2259C93.6696 63.2856 92.3819 67.3501 91.0199 71.3923C90.0553 74.2585 89.0049 77.0946 87.968 79.9346C87.634 80.8857 87.2423 81.8154 86.7951 82.7185C86.5057 83.2867 86.0765 83.9768 85.3077 83.7523C84.5679 83.5403 84.5601 82.7611 84.6325 82.1396C84.8158 80.4622 85.0183 78.7847 85.3154 77.1236C85.843 74.123 86.4314 71.131 87.0111 68.138C87.204 67.1294 87.451 66.1305 87.669 65.1267C87.6881 65.0499 87.6893 64.9696 87.6726 64.8923C87.6559 64.8149 87.6216 64.7424 87.5725 64.6804C87.4318 64.9308 87.3061 65.1893 87.1963 65.4548C84.4723 73.2252 82.2492 81.1635 80.5408 89.2203C79.1691 95.786 77.9682 102.385 76.6342 108.967C76.0507 111.84 75.3369 114.686 74.6433 117.534C74.5034 117.979 74.2849 118.394 73.998 118.761C73.7492 119.118 73.4058 119.071 73.2216 118.693C72.999 118.256 72.8314 117.793 72.7229 117.315C72.0372 113.689 71.8606 109.984 72.1982 106.309C72.4547 102.872 72.6746 99.4256 73.1058 96.0087C73.7193 91.1456 74.4514 86.2951 75.2481 81.4592C75.77 78.291 76.4963 75.1567 77.1281 72.006C77.2004 71.6469 77.2496 71.2829 77.3432 70.7186C77.0582 70.8773 76.7828 71.0529 76.5185 71.2442C73.8182 73.5298 70.9321 75.5845 67.8904 77.3869C65.9697 78.6939 63.8125 79.6104 61.5406 80.0847C60.3413 80.3672 59.0798 80.1763 58.017 79.5513C57.607 79.2783 57.4797 79.6578 57.362 79.9172C56.7939 81.1756 56.2778 82.4659 55.6817 83.7136C53.6503 87.9649 51.6565 92.2365 49.5248 96.4375C47.914 99.6115 46.172 102.722 44.3808 105.799C43.1442 107.922 41.7658 109.968 40.3633 111.987C39.8926 112.664 39.364 113.439 38.3454 113.463C38.1 113.483 37.8538 113.435 37.633 113.326C37.4123 113.216 37.2251 113.049 37.0915 112.842C36.3277 111.791 35.9267 110.518 35.9494 109.218C36.0902 105.231 36.5138 101.26 37.2169 97.3338C37.2784 97.062 37.2565 96.7779 37.1542 96.5188C37.0442 96.7656 36.9304 97.0115 36.8243 97.2612C36.2764 98.5535 35.7632 99.8631 35.1594 101.127C35.0099 101.439 34.5537 101.602 34.2382 101.834C34.028 101.476 33.6267 101.113 33.6373 100.761C33.6913 98.959 33.8351 97.1586 33.9759 95.3601C34.2257 92.1794 34.5025 89.0006 34.7524 85.8199C34.754 85.4686 34.7279 85.1177 34.6742 84.7706L34.3849 84.6593C33.6257 85.5614 32.8194 86.4287 32.1171 87.3696C29.1106 91.4099 26.1609 95.4928 23.1292 99.5147C22.2475 100.575 21.3095 101.588 20.3194 102.547C20.2262 102.653 20.1225 102.749 20.0098 102.833C19.7829 103.057 19.4983 103.213 19.188 103.284C18.8776 103.355 18.5537 103.338 18.2523 103.236C17.994 103.084 17.7939 102.85 17.6842 102.571C17.5745 102.292 17.5616 101.984 17.6476 101.696C17.9533 99.775 18.3353 97.8662 18.6903 95.9525C18.7568 95.5925 18.8301 95.2333 18.9005 94.8742L18.7481 94.8074C18.6324 94.9875 18.5108 95.1646 18.4019 95.3485C16.9868 97.7259 15.6046 100.124 14.1413 102.47C13.6895 103.154 13.1321 103.762 12.49 104.271C11.3817 105.184 10.5001 104.814 10.2714 103.406C10.1963 103.014 10.1617 102.615 10.1682 102.216C10.2453 98.9762 9.98995 95.7368 9.40622 92.5492C9.39175 92.4611 9.38982 92.3711 9.5403 92.2288C9.69489 92.5677 9.81229 92.9224 9.89044 93.2868C10.156 95.7796 10.4017 98.2744 10.6274 100.771C10.6988 101.545 10.6534 102.327 10.7711 103.087C10.8309 103.468 11.0759 104.036 11.3498 104.112C11.5619 104.136 11.7768 104.111 11.9776 104.038C12.1783 103.965 12.3597 103.847 12.5073 103.692C13.3828 102.719 14.1735 101.673 14.8705 100.564C16.3869 98.0056 17.7893 95.3795 19.2478 92.7863C19.371 92.6156 19.5134 92.4597 19.6722 92.3217L19.895 92.4117C19.7638 93.1783 19.6519 93.9479 19.4986 94.7087C19.0992 96.6872 18.6719 98.659 18.2784 100.638C18.193 101.076 18.1583 101.522 18.1752 101.967C18.2051 102.772 18.6951 103.055 19.4098 102.664C19.8017 102.454 20.1547 102.178 20.4535 101.848C21.7952 100.316 23.1678 98.8051 24.4083 97.1954C26.2689 94.7881 28.0187 92.2946 29.8379 89.8553C31.0404 88.242 32.2676 86.6481 33.5196 85.0736C33.7845 84.7791 34.1056 84.5411 34.464 84.3737C34.8498 84.1675 35.1855 84.3118 35.2221 84.7725C35.3028 85.5166 35.3245 86.2659 35.2867 87.0134C35.0456 90.0296 34.7514 93.0409 34.49 96.0551C34.3685 97.4561 34.2656 98.858 34.1813 100.261C34.1942 100.569 34.2388 100.876 34.3144 101.175L34.571 101.244C34.8176 100.907 35.0305 100.546 35.2067 100.167C36.2899 97.0938 37.3451 94.0108 38.4091 90.9298C38.4428 90.7693 38.4983 90.6143 38.574 90.469C38.6843 90.3515 38.811 90.2508 38.9502 90.1699L39.1643 90.2754C39.0496 90.9278 38.9415 91.5812 38.819 92.2326C38.303 94.973 37.7242 97.7036 37.2853 100.46C36.968 102.449 36.7944 104.464 36.6343 106.472C36.4934 108.241 36.2484 110.02 37.0751 111.732C37.7638 113.156 38.5981 113.385 39.583 112.144C40.6418 110.772 41.6214 109.341 42.5172 107.857C43.9371 105.567 45.3444 103.266 46.6437 100.907C48.2024 98.0753 49.7062 95.2091 51.1174 92.3014C53.1632 88.0849 55.1136 83.82 57.0775 79.5639C57.1691 79.2205 57.1936 78.8625 57.1498 78.5098C57.0944 77.6303 57.1112 76.7478 57.2 75.8711C58.038 72.2829 59.1522 68.7654 60.5326 65.3503C61.7865 61.8114 63 58.2628 64.2674 54.7307C66.0422 49.7863 67.835 44.8497 69.6459 39.9208C70.1282 38.6063 70.6375 37.3073 71.1342 35.9967L70.9818 35.8747C70.8323 36.017 70.6732 36.1506 70.5333 36.3035C68.4267 38.5976 66.3017 40.8762 64.223 43.1964C61.6447 46.0742 59.1773 49.0545 56.5315 51.8675C52.4346 56.2149 48.277 60.5056 44.0586 64.7395C40.2755 68.5397 36.3999 72.2441 32.5223 75.9534C30.8378 77.6174 28.9285 79.0354 26.8506 80.166C25.6873 80.8527 24.302 81.0542 22.9923 80.7274C21.8348 80.407 21.3718 79.9801 21.4991 78.7827C21.6634 76.562 22.0027 74.3578 22.5138 72.1909C23.8758 67.1681 25.3883 62.1821 26.9625 57.2203C28.2743 53.0871 29.7877 49.0178 31.1622 44.9029C32.1413 41.9681 33.0239 38.9983 33.9749 36.0557C34.7611 33.6232 35.5588 31.1936 36.395 28.7785C37.3471 26.0324 38.3242 23.2931 39.3399 20.5711C39.6997 19.609 40.208 18.7039 40.6604 17.7757C40.6997 17.6762 40.7596 17.5862 40.8363 17.5118C40.913 17.4374 41.0046 17.3803 41.1051 17.3443C41.2055 17.3083 41.3124 17.2942 41.4187 17.303C41.525 17.3118 41.6282 17.3432 41.7214 17.3953C42.1863 17.6024 41.8748 17.9392 41.7629 18.2267C41.6904 18.4756 41.5501 18.6992 41.3578 18.8724C41.4414 18.5665 41.5256 18.2606 41.6105 17.9547L41.4157 17.8444C41.2469 18.0293 41.0125 18.1861 40.9208 18.4039C40.0083 20.5586 38.9917 22.6784 38.2461 24.8892C35.6089 32.7375 33.0865 40.6235 30.4841 48.4825C28.7479 53.7376 26.8612 58.9472 25.1905 64.2236C23.7587 68.5226 22.7045 72.9392 22.0402 77.4227C22.0007 77.7238 21.9988 78.0306 21.9775 78.3346C21.855 80.0769 22.8707 80.4389 24.2703 80.3886C25.8129 80.2129 27.2732 79.5979 28.4788 78.6162C31.175 76.6267 33.6925 74.4042 36.0025 71.9741C39.4273 68.6449 42.8239 65.2867 46.1922 61.8995C49.4872 58.5735 52.7793 55.2398 55.9605 51.8045C59.2545 48.2502 62.3961 44.5535 65.64 40.9507C67.3637 39.0371 69.1617 37.1902 70.9278 35.3143C71.0169 35.2051 71.1231 35.1113 71.2423 35.0364C71.4738 34.9154 71.7245 34.8274 71.9628 34.7248C71.9418 34.9799 71.8975 35.2327 71.8306 35.4798C70.8931 38.0081 69.9237 40.5248 69.0006 43.059C67.5325 47.0909 66.0811 51.1286 64.6465 55.1721C63.4716 58.4893 62.344 61.822 61.1846 65.1422C60.2654 67.777 59.2912 70.3924 58.4153 73.0417C58.0577 74.2326 57.7679 75.4429 57.5472 76.6668C57.5024 77.0696 57.4982 77.4759 57.5347 77.8796L57.77 77.9222C58.1481 77.1091 58.5291 76.298 58.9034 75.4829C60.929 71.0748 62.8842 66.6348 64.9908 62.2673C67.0869 57.9192 69.3121 53.633 71.5201 49.3401C73.0528 46.3607 74.5652 43.3648 76.2465 40.4667C79.1566 35.4382 82.0754 30.4086 85.2006 25.5146C87.9477 21.2139 90.9379 17.0661 93.9088 12.9155C95.6402 10.4956 97.5385 8.2015 99.3789 5.86483C99.811 5.31696 100.317 4.8291 100.787 4.31608C100.549 4.74428 100.286 5.15888 100.002 5.55798C99.2468 6.51046 98.4114 7.40196 97.687 8.3767C95.1792 11.7588 92.6153 15.106 90.2357 18.5781C87.4027 22.7104 84.6055 26.8775 82.0368 31.1762C78.9936 36.258 76.123 41.4502 73.3431 46.6821C70.5381 51.9575 67.8875 57.3171 65.2532 62.6816C63.5295 66.1943 61.9524 69.7797 60.3155 73.336C59.6198 74.8473 58.933 76.3638 58.2552 77.8854C58.0835 78.2678 57.8231 78.714 58.3121 79.0141C58.7525 79.3178 59.2501 79.528 59.7744 79.6317C61.156 79.7671 62.5487 79.5334 63.8112 78.9541C66.7424 77.6506 69.5105 76.0054 72.0583 74.0523C73.7945 72.7817 75.5134 71.4891 77.2149 70.1746C77.4654 69.9415 77.6472 69.6438 77.7406 69.3141C77.893 68.8737 77.9335 68.3974 78.055 67.9435C79.0823 64.0183 80.0508 60.0768 81.1648 56.1759C82.6397 51.0137 84.0798 45.8331 85.8102 40.7552C87.8522 34.7654 90.0987 28.8415 92.4301 22.9582C93.905 19.2354 95.6537 15.619 97.361 11.994C98.3594 9.87511 99.5323 7.83948 100.593 5.74867C100.808 5.32664 101.205 4.86976 100.779 4.33738L100.776 4.32963ZM73.5698 118.319L73.8649 118.311C74.1591 116.836 74.871 115.526 75.1305 114.001C75.797 110.095 76.6661 106.224 77.484 102.344C78.7756 96.2158 80.0093 90.0741 81.4204 83.973C83.0113 76.9233 85.1067 69.9979 87.6902 63.2507C87.7378 63.0239 87.7585 62.7923 87.7519 62.5606C87.4857 62.7271 87.3429 62.7997 87.2195 62.8965C84.4222 65.0918 81.6452 67.3065 78.8277 69.4728C78.2717 69.8641 77.8892 70.457 77.7609 71.1261C77.049 74.7647 76.2677 78.3859 75.6388 82.0438C74.9472 86.0667 74.2951 90.1021 73.8109 94.155C73.3132 98.3221 73.0142 102.514 72.6756 106.7C72.3881 110.144 72.5669 113.611 73.2071 117.007C73.291 117.451 73.4492 117.878 73.5727 118.319H73.5698ZM96.845 34.8322C96.9135 36.9927 98.0391 37.7361 99.5043 36.9317C100.869 36.1806 102.109 35.2417 102.337 33.4983C102.375 33.3146 102.427 33.1343 102.494 32.9592C103.748 28.9315 104.886 24.866 106.276 20.8877C107.766 16.6209 109.47 12.4276 111.12 8.21699C111.846 6.3643 112.673 4.5513 113.435 2.71119C113.477 2.49166 113.478 2.26632 113.44 2.0462C113.201 2.02619 112.96 2.04317 112.727 2.09653C111.855 2.56298 111.143 3.28164 110.683 4.15927C108.658 7.2766 106.853 10.5324 105.281 13.9028C104.027 16.3653 102.87 18.883 101.797 21.4297C100.377 24.7973 99.049 28.2055 97.7459 31.6234C97.3877 32.6762 97.0854 33.7473 96.8402 34.8322H96.845ZM96.3116 54.8207C96.5873 54.6709 96.8535 54.5037 97.1083 54.3203C97.8269 53.7221 98.5291 53.1045 99.2381 52.4957C101.507 50.5452 103.781 48.6006 106.033 46.6317C106.097 46.5395 106.14 46.4334 106.157 46.3218C106.173 46.2102 106.164 46.0963 106.129 45.989C105.692 44.8274 105.146 43.7104 104.77 42.5343C104.378 41.392 104.344 40.1566 104.673 38.9945C105.441 36.4132 106.224 33.8384 107.022 31.2701C107.267 30.4822 107.573 29.7136 107.851 28.9373C107.773 28.937 107.696 28.9538 107.626 28.9864C107.555 29.019 107.493 29.0666 107.443 29.126C106.463 30.2876 105.5 31.4646 104.505 32.6107C103.284 34.0191 102.055 35.3297 101.55 37.286C100.529 41.2547 99.2275 45.144 98.043 49.0671C97.4835 50.9227 96.927 52.7783 96.3135 54.8178L96.3116 54.8207Z" stroke="black" stroke-width="0.5"/>
<path d="M1.64322 83.9151C1.73936 83.4946 1.86507 83.0816 2.0194 82.679C2.84797 80.8718 3.66497 79.0568 4.57842 77.2932C4.88238 76.798 5.31617 76.3961 5.83237 76.1317C6.50757 75.7445 7.07281 76.1317 7.08631 76.9244C7.09905 77.371 7.04043 77.8167 6.91269 78.2447C6.33313 80.2571 5.30388 82.1103 3.90322 83.6634C3.53918 84.0548 3.07297 84.3359 2.55763 84.4746C2.43555 84.4791 2.31616 84.5118 2.20873 84.5702C2.1013 84.6286 2.00872 84.711 1.93818 84.8111C1.86764 84.9112 1.82104 85.0262 1.80201 85.1473C1.78297 85.2684 1.79201 85.3923 1.82841 85.5093C1.88918 85.9652 1.98371 86.4163 2.06377 86.8703L1.88243 86.9284C1.7102 86.4588 1.58893 85.972 1.52071 85.4764C1.49499 85.0816 1.38302 84.6972 1.19276 84.3507C0.967083 83.7893 0.933162 83.1688 1.0963 82.5861C1.47679 81.2092 1.93112 79.854 2.45732 78.5264C2.82579 77.5826 3.33605 76.695 3.78264 75.7812L4.01125 75.8655C3.84438 76.3136 3.67558 76.7618 3.5116 77.2109C2.82289 79.0985 2.12068 80.9812 1.46188 82.8784C1.40422 83.2153 1.39934 83.5592 1.44741 83.8976L1.64032 83.9151H1.64322ZM2.05412 84.3894C2.54168 84.1505 3.00355 83.8622 3.4325 83.5289C4.96037 82.0245 6.02854 80.1137 6.51143 78.0211C6.55982 77.793 6.56927 77.5584 6.5394 77.3271C6.49117 76.8828 6.22784 76.8073 5.91918 77.0783C5.47043 77.4524 5.05505 77.865 4.67777 78.3115C3.45796 79.9208 2.56849 81.757 2.06088 83.7137C2.03555 83.9388 2.03361 84.1659 2.05509 84.3913" fill="black"/>
<path fill-rule="evenodd" clip-rule="evenodd" d="M3.65718 75.4688L4.33307 75.7177L4.24553 75.9528C4.20008 76.0749 4.15456 76.1968 4.10909 76.3185C3.98719 76.6449 3.86561 76.9704 3.74645 77.2968C3.58172 77.7482 3.41634 78.1991 3.25104 78.6498C2.81796 79.8305 2.3855 81.0095 1.967 82.1932C2.00135 82.1181 2.03571 82.043 2.07007 81.9679C2.80447 80.3628 3.54224 78.7504 4.35643 77.1784L4.3606 77.1703L4.36535 77.1626C4.69224 76.63 5.1584 76.1974 5.71323 75.9119C6.10689 75.6881 6.51844 75.6651 6.84352 75.8759C7.16208 76.0826 7.32826 76.4696 7.33625 76.9189C7.34957 77.3911 7.28757 77.8625 7.15259 78.3152C6.56248 80.3635 5.51471 82.2499 4.08887 83.831L4.08631 83.8338C3.69041 84.2595 3.18328 84.5652 2.6226 84.7161L2.59524 84.7235L2.56694 84.7245C2.4834 84.7276 2.40167 84.75 2.32807 84.79C2.25447 84.83 2.19096 84.8865 2.14253 84.9552C2.0941 85.024 2.06206 85.103 2.04897 85.1863C2.03588 85.2696 2.0421 85.3547 2.06713 85.4352L2.07342 85.4554L2.07622 85.4764C2.11774 85.7879 2.17468 86.0934 2.23301 86.4064C2.25879 86.5447 2.28485 86.6845 2.30997 86.827L2.34788 87.0419L1.73031 87.2397L1.64772 87.0146C1.46932 86.5282 1.34371 86.024 1.27305 85.5106L1.27183 85.5017L1.27124 85.4928C1.24789 85.1344 1.14627 84.7856 0.973612 84.4711L0.966397 84.458L0.960804 84.444C0.714622 83.8317 0.677584 83.1549 0.855445 82.5192C1.23825 81.1341 1.69532 79.7707 2.22468 78.435C2.48325 77.7728 2.81418 77.1302 3.13818 76.5009C3.2818 76.222 3.42405 75.9458 3.55804 75.6716L3.65718 75.4688ZM2.97197 77.9585C2.87201 78.1754 2.7773 78.3944 2.6902 78.6175L2.68973 78.6187C2.29382 79.6176 1.93883 80.6322 1.62565 81.66C2.00475 80.5955 2.39394 79.5345 2.78267 78.4747C2.8458 78.3026 2.90892 78.1305 2.97197 77.9585ZM1.38185 84.1429C1.39362 84.1769 1.40614 84.2107 1.41942 84.2442C1.51626 84.4229 1.59413 84.6106 1.65213 84.8042C1.67578 84.7567 1.70306 84.7108 1.73382 84.6672C1.80973 84.5595 1.90511 84.4673 2.0148 84.3953L1.80622 84.4152C1.79829 84.332 1.79333 84.2486 1.79133 84.1652H1.62905L1.38185 84.1429ZM4.29466 78.4083C4.35511 78.3252 4.4164 78.2426 4.47853 78.1606L4.48654 78.1501C4.87255 77.6932 5.29773 77.2712 5.75675 76.8884C5.92985 76.7372 6.16976 76.6106 6.41308 76.6999C6.66202 76.7913 6.76032 77.0503 6.78766 77.2977C6.79823 77.3802 6.80434 77.4632 6.80598 77.5462C6.83205 77.3428 6.84228 77.1373 6.83642 76.9317L6.83633 76.9288C6.83049 76.5859 6.70733 76.3836 6.57143 76.2954C6.44316 76.2122 6.23669 76.1881 5.95673 76.3487L5.9465 76.3545C5.47382 76.5967 5.07594 76.9638 4.79616 77.4165C4.62588 77.7454 4.45896 78.0761 4.29466 78.4083ZM2.29187 83.9835C2.63269 83.7944 2.95888 83.5795 3.26756 83.3405C4.75539 81.8717 5.79595 80.008 6.26732 77.9673C6.30946 77.7674 6.31763 77.5618 6.29146 77.3593L6.29081 77.3542C6.28105 77.2643 6.26212 77.2114 6.24701 77.1842C6.2439 77.1786 6.24124 77.1746 6.23913 77.1717C6.23511 77.1725 6.2295 77.1739 6.2221 77.1765C6.19234 77.1869 6.14534 77.2126 6.08413 77.2663L6.0793 77.2706C5.64342 77.6339 5.23977 78.0345 4.873 78.468C3.67883 80.0449 2.80693 81.8431 2.3074 83.7592C2.29944 83.8338 2.29427 83.9086 2.29187 83.9835Z" fill="black"/>
</svg>
