<svg width="119" height="84" viewBox="0 0 119 84" fill="none" xmlns="http://www.w3.org/2000/svg">
<path d="M20.48 0.757812C23.84 0.757812 26.4667 1.55781 28.36 3.15781C30.2533 4.73115 31.2 7.01115 31.2 9.99781C31.2 11.4111 30.9867 12.9311 30.56 14.5578C29.76 17.5445 28.52 20.0778 26.84 22.1578C25.16 24.2378 23.16 25.8111 20.84 26.8778C18.52 27.9445 16 28.4778 13.28 28.4778C9.94668 28.4778 7.33334 27.6911 5.44001 26.1178C3.54668 24.5178 2.60001 22.2245 2.60001 19.2378C2.60001 17.8778 2.82668 16.3178 3.28001 14.5578C4.05334 11.5978 5.26668 9.09115 6.92001 7.03781C8.60001 4.95781 10.5867 3.39781 12.88 2.35781C15.2 1.29115 17.7333 0.757812 20.48 0.757812ZM19.76 4.67781C18.96 4.67781 18.24 4.99781 17.6 5.63781C16.96 6.27781 16.32 7.33115 15.68 8.79781C15.0667 10.2378 14.4 12.2511 13.68 14.8378C12.6133 18.5711 12.08 21.1445 12.08 22.5578C12.08 23.3845 12.2267 23.9845 12.52 24.3578C12.8133 24.7311 13.28 24.9178 13.92 24.9178C14.72 24.9178 15.44 24.5978 16.08 23.9578C16.72 23.2911 17.3467 22.2378 17.96 20.7978C18.5733 19.3578 19.2533 17.3711 20 14.8378C21.04 11.1578 21.56 8.57115 21.56 7.07781C21.56 6.22448 21.4133 5.61115 21.12 5.23781C20.8267 4.86448 20.3733 4.67781 19.76 4.67781Z" fill="#202020"/>
<path d="M53.296 22.4778C53.2426 22.6911 53.216 22.8511 53.216 22.9578C53.216 23.1445 53.2559 23.2911 53.3359 23.3978C53.4426 23.5045 53.576 23.5578 53.736 23.5578C54.056 23.5578 54.3226 23.4245 54.5359 23.1578C54.7759 22.8645 54.9359 22.7178 55.0159 22.7178C55.1493 22.7178 55.256 22.8111 55.336 22.9978C55.4426 23.1578 55.496 23.3578 55.496 23.5978C55.5226 24.3445 55.256 25.0911 54.6959 25.8378C54.136 26.5578 53.3493 27.1578 52.336 27.6378C51.3226 28.1178 50.1893 28.3578 48.936 28.3578C47.3626 28.3578 46.1093 28.0378 45.176 27.3978C44.2426 26.7578 43.6426 25.9178 43.3759 24.8778C42.4159 25.9445 41.3493 26.7578 40.1759 27.3178C39.0293 27.8511 37.8559 28.1178 36.6559 28.1178C34.7893 28.1178 33.2159 27.6645 31.9359 26.7578C30.6826 25.8245 30.0559 24.5311 30.0559 22.8778C30.0559 22.1311 30.1893 21.3578 30.4559 20.5578L33.0159 12.1978C33.0959 11.9578 33.1359 11.7578 33.1359 11.5978C33.1359 11.3045 33.0693 11.0778 32.9359 10.9178C32.8026 10.7311 32.6026 10.5445 32.3359 10.3578C32.0693 10.1445 31.8826 9.95781 31.7759 9.79781C31.6693 9.63781 31.6559 9.42448 31.7359 9.15781C31.8959 8.54448 32.736 8.01115 34.256 7.55781C35.776 7.07781 37.3626 6.83781 39.0159 6.83781C40.5626 6.83781 41.696 7.13115 42.416 7.71781C43.136 8.30448 43.4959 9.10448 43.4959 10.1178C43.4959 10.7311 43.4026 11.3178 43.216 11.8778L40.6959 20.1978C40.5893 20.4911 40.5359 20.7711 40.5359 21.0378C40.5359 21.4111 40.6426 21.6911 40.8559 21.8778C41.0693 22.0645 41.3493 22.1578 41.6959 22.1578C42.2026 22.1578 42.616 22.0111 42.936 21.7178C43.256 21.4245 43.5759 20.9311 43.896 20.2378L46.3359 12.1978C46.4159 11.9578 46.456 11.7578 46.456 11.5978C46.456 11.3045 46.3893 11.0778 46.256 10.9178C46.1226 10.7311 45.9359 10.5445 45.6959 10.3578C45.4293 10.1445 45.2426 9.95781 45.136 9.79781C45.0293 9.63781 45.016 9.42448 45.096 9.15781C45.2293 8.54448 46.056 8.01115 47.576 7.55781C49.096 7.07781 50.6826 6.83781 52.336 6.83781C53.8826 6.83781 55.016 7.13115 55.736 7.71781C56.4826 8.30448 56.8559 9.09115 56.8559 10.0778C56.8559 10.5845 56.7493 11.1845 56.5359 11.8778L53.296 22.4778Z" fill="#202020"/>
<path d="M75.7978 6.83781C77.2912 6.83781 78.4778 7.29115 79.3578 8.19781C80.2645 9.10448 80.7178 10.2245 80.7178 11.5578C80.7178 12.0645 80.6645 12.5311 80.5578 12.9578C80.2912 14.0511 79.7845 14.8911 79.0378 15.4778C78.2912 16.0645 77.3978 16.3578 76.3578 16.3578C75.3445 16.3578 74.5712 16.1178 74.0378 15.6378C73.5312 15.1578 73.0778 14.5178 72.6778 13.7178C72.4645 13.2645 72.2645 12.9311 72.0778 12.7178C71.8912 12.5045 71.6778 12.3978 71.4378 12.3978C71.1712 12.3978 70.9312 12.5045 70.7178 12.7178C70.5312 12.9311 70.3578 13.3045 70.1978 13.8378L67.1178 23.8378C67.0645 23.9711 67.0378 24.1711 67.0378 24.4378C67.0378 24.7845 67.1312 25.0778 67.3178 25.3178C67.5312 25.5311 67.8112 25.7445 68.1578 25.9578C68.4778 26.1711 68.6912 26.3445 68.7978 26.4778C68.9045 26.6111 68.9445 26.7845 68.9178 26.9978C68.8645 27.3445 68.6645 27.5978 68.3178 27.7578C67.9978 27.9178 67.4378 27.9978 66.6378 27.9978H56.3978C55.7045 27.9978 55.2112 27.8911 54.9178 27.6778C54.5978 27.4378 54.4778 27.1311 54.5578 26.7578C54.6645 26.4378 54.9445 26.1578 55.3978 25.9178C55.7978 25.7045 56.1312 25.4511 56.3978 25.1578C56.6645 24.8645 56.8912 24.3978 57.0778 23.7578L60.6378 12.1978C60.6912 12.0645 60.7178 11.8778 60.7178 11.6378C60.7178 11.3445 60.6512 11.1178 60.5178 10.9578C60.4112 10.7978 60.2245 10.5978 59.9578 10.3578C59.6912 10.1445 59.5045 9.95781 59.3978 9.79781C59.2912 9.63781 59.2778 9.42448 59.3578 9.15781C59.5178 8.54448 60.3578 8.01115 61.8778 7.55781C63.3978 7.07781 64.9845 6.83781 66.6378 6.83781C67.7312 6.83781 68.6378 7.09115 69.3578 7.59781C70.0778 8.07781 70.5445 8.77115 70.7578 9.67781C72.0378 7.78448 73.7178 6.83781 75.7978 6.83781Z" fill="#202020"/>
<path d="M15.96 49.1178C17.4533 49.1178 18.8267 49.3045 20.08 49.6778C21.36 50.0245 22.6533 50.5845 23.96 51.3578L24.88 50.5978C25.52 50.0911 26.04 49.7445 26.44 49.5578C26.8667 49.3711 27.3467 49.2778 27.88 49.2778C28.52 49.2778 29.0267 49.4245 29.4 49.7178C29.7733 49.9845 29.96 50.3845 29.96 50.9178C29.96 51.1311 29.92 51.3578 29.84 51.5978L28.16 57.1178C27.9733 57.7578 27.7333 58.2111 27.44 58.4778C27.1733 58.7445 26.76 58.8778 26.2 58.8778C25.6133 58.8778 25.0933 58.7045 24.64 58.3578C24.2133 57.9845 23.5333 57.2378 22.6 56.1178C21.6667 55.0512 20.8133 54.3045 20.04 53.8778C19.2933 53.4245 18.52 53.1978 17.72 53.1978C17.1333 53.1978 16.64 53.3978 16.24 53.7978C15.84 54.1711 15.64 54.6378 15.64 55.1978C15.64 55.8378 15.96 56.4378 16.6 56.9978C17.24 57.5311 18.24 58.2111 19.6 59.0378C20.9867 59.8645 22.1333 60.6111 23.04 61.2778C23.9467 61.9445 24.72 62.7711 25.36 63.7578C26 64.7445 26.32 65.8778 26.32 67.1578C26.32 67.9845 26.1867 68.8112 25.92 69.6378C25.28 71.7712 24.04 73.3978 22.2 74.5178C20.36 75.6111 18.2133 76.1578 15.76 76.1578C13.92 76.1578 12.3733 75.9445 11.12 75.5178C9.86668 75.0911 8.58668 74.3712 7.28001 73.3578L5.84001 74.5578C5.17334 75.1178 4.62668 75.5045 4.20001 75.7178C3.77334 75.9045 3.29334 75.9978 2.76001 75.9978C2.14668 75.9978 1.65334 75.8511 1.28001 75.5578C0.933343 75.2645 0.76001 74.8645 0.76001 74.3578C0.76001 74.0912 0.813343 73.8111 0.92001 73.5178L2.88001 67.5578C3.09334 66.8645 3.38668 66.3712 3.76001 66.0778C4.13334 65.7845 4.61334 65.6378 5.20001 65.6378C5.81334 65.6378 6.36001 65.8512 6.84001 66.2778C7.34668 66.7045 8.00001 67.4778 8.80001 68.5978C9.65334 69.8245 10.44 70.6778 11.16 71.1578C11.9067 71.6378 12.7867 71.8778 13.8 71.8778C14.52 71.8778 15.0667 71.7711 15.44 71.5578C15.84 71.3178 16.12 70.9445 16.28 70.4378C16.3333 70.3045 16.36 70.1045 16.36 69.8378C16.36 69.1978 16.0533 68.6112 15.44 68.0778C14.8267 67.5445 13.88 66.9045 12.6 66.1578C11.24 65.3311 10.1333 64.5978 9.28001 63.9578C8.42668 63.2911 7.68001 62.4645 7.04001 61.4778C6.42668 60.4912 6.12001 59.3311 6.12001 57.9978C6.12001 57.0645 6.26668 56.1445 6.56001 55.2378C7.12001 53.3978 8.26668 51.9178 10 50.7978C11.7333 49.6778 13.72 49.1178 15.96 49.1178Z" fill="#202020"/>
<path d="M45.6581 55.3578C46.1648 55.3578 46.5515 55.4645 46.8181 55.6778C47.1115 55.8911 47.2581 56.1845 47.2581 56.5578C47.2581 56.6645 47.2315 56.8511 47.1781 57.1178C46.8315 58.2911 46.0315 58.8778 44.7781 58.8778H42.4581L39.4581 68.7578C39.3248 69.1578 39.2581 69.5712 39.2581 69.9978C39.2581 70.4778 39.3915 70.8112 39.6581 70.9978C39.9248 71.1845 40.2981 71.2778 40.7781 71.2778C41.2048 71.2778 41.7381 71.2245 42.3781 71.1178C42.6981 71.0378 42.9781 70.9978 43.2181 70.9978C43.4048 70.9978 43.5381 71.0645 43.6181 71.1978C43.7248 71.3045 43.7781 71.4512 43.7781 71.6378C43.8048 72.1712 43.4048 72.8245 42.5781 73.5978C41.7781 74.3445 40.6848 74.9978 39.2981 75.5578C37.9115 76.0911 36.3781 76.3578 34.6981 76.3578C32.8848 76.3578 31.4315 75.9445 30.3381 75.1178C29.2448 74.2911 28.6981 73.1578 28.6981 71.7178C28.6981 71.0512 28.8048 70.4112 29.0181 69.7978L31.5781 61.8778C31.7115 61.4245 31.7781 61.0645 31.7781 60.7978C31.7781 60.2645 31.6448 59.8112 31.3781 59.4378C31.1381 59.0645 30.7915 58.6778 30.3381 58.2778C29.9381 57.9045 29.6581 57.5978 29.4981 57.3578C29.3381 57.0911 29.2981 56.7845 29.3781 56.4378C29.4848 56.0911 29.7115 55.8245 30.0581 55.6378C30.4048 55.4511 30.9515 55.3578 31.6981 55.3578H33.9381L36.4581 52.8378C37.3381 51.9578 38.1381 51.3445 38.8581 50.9978C39.6048 50.6511 40.5648 50.4778 41.7381 50.4778C43.4181 50.4778 44.2581 51.1178 44.2581 52.3978C44.2581 52.7978 44.2048 53.1711 44.0981 53.5178L43.5381 55.3578H45.6581Z" fill="#202020"/>
<path d="M59.6456 54.8378C63.2723 54.8378 65.939 55.5711 67.6456 57.0378C69.379 58.5045 70.2456 60.4245 70.2456 62.7978C70.2456 63.5978 70.139 64.4911 69.9256 65.4778C69.419 67.6645 68.4723 69.5845 67.0856 71.2378C65.699 72.8645 63.9923 74.1311 61.9656 75.0378C59.9656 75.9178 57.7923 76.3578 55.4456 76.3578C51.739 76.3578 48.9923 75.6245 47.2056 74.1578C45.4456 72.6645 44.5656 70.6911 44.5656 68.2378C44.5656 67.4111 44.6723 66.4911 44.8856 65.4778C45.3923 63.3978 46.3523 61.5578 47.7656 59.9578C49.2056 58.3311 50.9523 57.0778 53.0056 56.1978C55.0856 55.2911 57.299 54.8378 59.6456 54.8378ZM59.5256 58.3978C58.9656 58.3978 58.3656 58.9045 57.7256 59.9178C57.1123 60.9045 56.379 62.7845 55.5256 65.5578C54.6723 68.3311 54.2456 70.2778 54.2456 71.3978C54.2456 71.9845 54.339 72.3845 54.5256 72.5978C54.7123 72.7845 54.9656 72.8778 55.2856 72.8778C55.8456 72.9311 56.419 72.4512 57.0056 71.4378C57.619 70.4245 58.379 68.4511 59.2856 65.5178C60.1123 62.9311 60.5256 61.0511 60.5256 59.8778C60.5256 59.3178 60.4323 58.9311 60.2456 58.7178C60.0856 58.5045 59.8456 58.3978 59.5256 58.3978Z" fill="#202020"/>
<path d="M89.2556 54.8378C90.749 54.8378 91.9356 55.2911 92.8156 56.1978C93.7223 57.1045 94.1756 58.2245 94.1756 59.5578C94.1756 60.0645 94.1223 60.5311 94.0156 60.9578C93.749 62.0511 93.2423 62.8911 92.4956 63.4778C91.749 64.0645 90.8556 64.3578 89.8156 64.3578C88.8023 64.3578 88.029 64.1178 87.4956 63.6378C86.989 63.1578 86.5356 62.5178 86.1356 61.7178C85.9223 61.2645 85.7223 60.9311 85.5356 60.7178C85.349 60.5045 85.1356 60.3978 84.8956 60.3978C84.629 60.3978 84.389 60.5045 84.1756 60.7178C83.989 60.9311 83.8156 61.3045 83.6556 61.8378L80.5756 71.8378C80.5223 71.9711 80.4956 72.1712 80.4956 72.4378C80.4956 72.7845 80.589 73.0778 80.7756 73.3178C80.989 73.5311 81.269 73.7445 81.6156 73.9578C81.9356 74.1711 82.149 74.3445 82.2556 74.4778C82.3623 74.6111 82.4023 74.7845 82.3756 74.9978C82.3223 75.3445 82.1223 75.5978 81.7756 75.7578C81.4556 75.9178 80.8956 75.9978 80.0956 75.9978H69.8556C69.1623 75.9978 68.669 75.8911 68.3756 75.6778C68.0556 75.4378 67.9356 75.1311 68.0156 74.7578C68.1223 74.4378 68.4023 74.1578 68.8556 73.9178C69.2556 73.7045 69.589 73.4512 69.8556 73.1578C70.1223 72.8645 70.349 72.3978 70.5356 71.7578L74.0956 60.1978C74.149 60.0645 74.1756 59.8778 74.1756 59.6378C74.1756 59.3445 74.109 59.1178 73.9756 58.9578C73.869 58.7978 73.6823 58.5978 73.4156 58.3578C73.149 58.1445 72.9623 57.9578 72.8556 57.7978C72.749 57.6378 72.7356 57.4245 72.8156 57.1578C72.9756 56.5445 73.8156 56.0111 75.3356 55.5578C76.8556 55.0778 78.4423 54.8378 80.0956 54.8378C81.189 54.8378 82.0956 55.0911 82.8156 55.5978C83.5356 56.0778 84.0023 56.7711 84.2156 57.6778C85.4956 55.7845 87.1756 54.8378 89.2556 54.8378Z" fill="#202020"/>
<path d="M114.781 54.8378C115.955 54.8378 116.888 55.3178 117.581 56.2778C118.301 57.2111 118.661 58.4911 118.661 60.1178C118.661 61.5312 118.408 63.0511 117.901 64.6778C116.915 67.9578 115.328 71.0511 113.141 73.9578C110.981 76.8645 108.488 79.1978 105.661 80.9578C102.861 82.7178 100.061 83.5978 97.2613 83.5978C95.8746 83.5978 94.6746 83.3578 93.6613 82.8778C92.6746 82.3978 91.9279 81.7578 91.4213 80.9578C90.8879 80.1578 90.6213 79.3045 90.6213 78.3978C90.6213 77.9978 90.6879 77.5578 90.8213 77.0778C91.0613 76.3312 91.4613 75.7578 92.0213 75.3578C92.5813 74.9578 93.2479 74.7578 94.0213 74.7578C95.2479 74.7578 96.2479 75.1712 97.0213 75.9978C97.8213 76.8512 98.3279 78.0111 98.5413 79.4778C100.248 79.3978 101.821 78.6645 103.261 77.2778C101.901 77.0378 100.888 76.5845 100.221 75.9178C99.5813 75.2245 99.1413 74.1578 98.9013 72.7178L97.3013 62.9178C97.2213 62.4111 97.1013 62.0645 96.9413 61.8778C96.8079 61.6645 96.6213 61.5578 96.3813 61.5578C96.1946 61.5578 95.9679 61.6511 95.7013 61.8378C95.4613 62.0245 95.2879 62.1178 95.1813 62.1178C94.9679 62.1178 94.8613 61.8912 94.8613 61.4378C94.8613 61.0645 94.9279 60.6645 95.0613 60.2378C95.5413 58.7178 96.4346 57.4378 97.7413 56.3978C99.0479 55.3311 100.568 54.7978 102.301 54.7978C104.008 54.7978 105.261 55.3045 106.061 56.3178C106.888 57.3311 107.421 58.8911 107.661 60.9978L108.861 69.7978C108.941 70.4645 109.181 70.7978 109.581 70.7978C110.061 70.7978 110.621 70.3711 111.261 69.5178C111.901 68.6378 112.528 67.3978 113.141 65.7978C112.341 65.0778 111.728 64.2511 111.301 63.3178C110.875 62.3845 110.661 61.3845 110.661 60.3178C110.661 59.4911 110.768 58.7445 110.981 58.0778C111.301 57.0111 111.795 56.2111 112.461 55.6778C113.155 55.1178 113.928 54.8378 114.781 54.8378Z" fill="#202020"/>
</svg>
