<svg width="165" height="77" viewBox="0 0 165 77" fill="none" xmlns="http://www.w3.org/2000/svg">
<path d="M20.4801 0.757812C23.8401 0.757812 26.4668 1.55781 28.3601 3.15781C30.2534 4.73115 31.2001 7.01115 31.2001 9.99781C31.2001 11.4111 30.9868 12.9311 30.5601 14.5578C29.7601 17.5445 28.5201 20.0778 26.8401 22.1578C25.1601 24.2378 23.1601 25.8111 20.8401 26.8778C18.5201 27.9445 16.0001 28.4778 13.2801 28.4778C9.94676 28.4778 7.33342 27.6911 5.44009 26.1178C3.54676 24.5178 2.60009 22.2245 2.60009 19.2378C2.60009 17.8778 2.82676 16.3178 3.28009 14.5578C4.05342 11.5978 5.26676 9.09115 6.92009 7.03781C8.60009 4.95781 10.5868 3.39781 12.8801 2.35781C15.2001 1.29115 17.7334 0.757812 20.4801 0.757812ZM19.7601 4.67781C18.9601 4.67781 18.2401 4.99781 17.6001 5.63781C16.9601 6.27781 16.3201 7.33115 15.6801 8.79781C15.0668 10.2378 14.4001 12.2511 13.6801 14.8378C12.6134 18.5711 12.0801 21.1445 12.0801 22.5578C12.0801 23.3845 12.2268 23.9845 12.5201 24.3578C12.8134 24.7311 13.2801 24.9178 13.9201 24.9178C14.7201 24.9178 15.4401 24.5978 16.0801 23.9578C16.7201 23.2911 17.3468 22.2378 17.9601 20.7978C18.5734 19.3578 19.2534 17.3711 20.0001 14.8378C21.0401 11.1578 21.5601 8.57115 21.5601 7.07781C21.5601 6.22448 21.4134 5.61115 21.1201 5.23781C20.8268 4.86448 20.3734 4.67781 19.7601 4.67781Z" fill="#202020"/>
<path d="M53.296 22.4778C53.2427 22.6911 53.216 22.8511 53.216 22.9578C53.216 23.1445 53.256 23.2911 53.336 23.3978C53.4427 23.5045 53.576 23.5578 53.736 23.5578C54.056 23.5578 54.3227 23.4245 54.536 23.1578C54.776 22.8645 54.936 22.7178 55.016 22.7178C55.1494 22.7178 55.256 22.8111 55.336 22.9978C55.4427 23.1578 55.496 23.3578 55.496 23.5978C55.5227 24.3445 55.256 25.0911 54.696 25.8378C54.136 26.5578 53.3494 27.1578 52.336 27.6378C51.3227 28.1178 50.1894 28.3578 48.936 28.3578C47.3627 28.3578 46.1094 28.0378 45.176 27.3978C44.2427 26.7578 43.6427 25.9178 43.376 24.8778C42.416 25.9445 41.3494 26.7578 40.176 27.3178C39.0294 27.8511 37.856 28.1178 36.656 28.1178C34.7894 28.1178 33.216 27.6645 31.936 26.7578C30.6827 25.8245 30.056 24.5311 30.056 22.8778C30.056 22.1311 30.1894 21.3578 30.456 20.5578L33.016 12.1978C33.096 11.9578 33.136 11.7578 33.136 11.5978C33.136 11.3045 33.0694 11.0778 32.936 10.9178C32.8027 10.7311 32.6027 10.5445 32.336 10.3578C32.0694 10.1445 31.8827 9.95781 31.776 9.79781C31.6694 9.63781 31.656 9.42448 31.736 9.15781C31.896 8.54448 32.736 8.01115 34.256 7.55781C35.776 7.07781 37.3627 6.83781 39.016 6.83781C40.5627 6.83781 41.696 7.13115 42.416 7.71781C43.136 8.30448 43.496 9.10448 43.496 10.1178C43.496 10.7311 43.4027 11.3178 43.216 11.8778L40.696 20.1978C40.5894 20.4911 40.536 20.7711 40.536 21.0378C40.536 21.4111 40.6427 21.6911 40.856 21.8778C41.0694 22.0645 41.3494 22.1578 41.696 22.1578C42.2027 22.1578 42.616 22.0111 42.936 21.7178C43.256 21.4245 43.576 20.9311 43.896 20.2378L46.336 12.1978C46.416 11.9578 46.456 11.7578 46.456 11.5978C46.456 11.3045 46.3894 11.0778 46.256 10.9178C46.1227 10.7311 45.936 10.5445 45.696 10.3578C45.4294 10.1445 45.2427 9.95781 45.136 9.79781C45.0294 9.63781 45.016 9.42448 45.096 9.15781C45.2294 8.54448 46.056 8.01115 47.576 7.55781C49.096 7.07781 50.6827 6.83781 52.336 6.83781C53.8827 6.83781 55.016 7.13115 55.736 7.71781C56.4827 8.30448 56.856 9.09115 56.856 10.0778C56.856 10.5845 56.7494 11.1845 56.536 11.8778L53.296 22.4778Z" fill="#202020"/>
<path d="M75.7979 6.83781C77.2912 6.83781 78.4779 7.29115 79.3579 8.19781C80.2646 9.10448 80.7179 10.2245 80.7179 11.5578C80.7179 12.0645 80.6646 12.5311 80.5579 12.9578C80.2912 14.0511 79.7846 14.8911 79.0379 15.4778C78.2912 16.0645 77.3979 16.3578 76.3579 16.3578C75.3446 16.3578 74.5712 16.1178 74.0379 15.6378C73.5312 15.1578 73.0779 14.5178 72.6779 13.7178C72.4646 13.2645 72.2646 12.9311 72.0779 12.7178C71.8912 12.5045 71.6779 12.3978 71.4379 12.3978C71.1712 12.3978 70.9312 12.5045 70.7179 12.7178C70.5312 12.9311 70.3579 13.3045 70.1979 13.8378L67.1179 23.8378C67.0646 23.9711 67.0379 24.1711 67.0379 24.4378C67.0379 24.7845 67.1312 25.0778 67.3179 25.3178C67.5312 25.5311 67.8112 25.7445 68.1579 25.9578C68.4779 26.1711 68.6912 26.3445 68.7979 26.4778C68.9046 26.6111 68.9446 26.7845 68.9179 26.9978C68.8646 27.3445 68.6646 27.5978 68.3179 27.7578C67.9979 27.9178 67.4379 27.9978 66.6379 27.9978H56.3979C55.7046 27.9978 55.2112 27.8911 54.9179 27.6778C54.5979 27.4378 54.4779 27.1311 54.5579 26.7578C54.6646 26.4378 54.9446 26.1578 55.3979 25.9178C55.7979 25.7045 56.1312 25.4511 56.3979 25.1578C56.6646 24.8645 56.8912 24.3978 57.0779 23.7578L60.6379 12.1978C60.6912 12.0645 60.7179 11.8778 60.7179 11.6378C60.7179 11.3445 60.6512 11.1178 60.5179 10.9578C60.4112 10.7978 60.2246 10.5978 59.9579 10.3578C59.6912 10.1445 59.5046 9.95781 59.3979 9.79781C59.2912 9.63781 59.2779 9.42448 59.3579 9.15781C59.5179 8.54448 60.3579 8.01115 61.8779 7.55781C63.3979 7.07781 64.9846 6.83781 66.6379 6.83781C67.7312 6.83781 68.6379 7.09115 69.3579 7.59781C70.0779 8.07781 70.5446 8.77115 70.7579 9.67781C72.0379 7.78448 73.7179 6.83781 75.7979 6.83781Z" fill="#202020"/>
<path d="M22.5601 49.3578C25.3868 49.3578 27.5601 49.9711 29.0801 51.1978C30.6268 52.4245 31.4001 54.0512 31.4001 56.0778C31.4001 56.8778 31.2801 57.7178 31.0401 58.5978C30.2934 61.2645 28.8134 63.2378 26.6001 64.5178C24.4134 65.7978 21.6401 66.4378 18.2801 66.4378H14.1601L12.8001 71.2778C12.7468 71.4378 12.7201 71.6511 12.7201 71.9178C12.7201 72.2911 12.8001 72.5978 12.9601 72.8378C13.1468 73.0778 13.4134 73.3578 13.7601 73.6778C14.0534 73.9445 14.2534 74.1445 14.3601 74.2778C14.4668 74.4112 14.5201 74.5711 14.5201 74.7578C14.5201 75.2111 14.3068 75.5312 13.8801 75.7178C13.4534 75.9045 12.8268 75.9978 12.0001 75.9978H1.96009C1.26676 75.9978 0.746755 75.8778 0.400088 75.6378C0.0534218 75.3712 -0.0665782 75.0111 0.0400885 74.5578C0.0934218 74.3178 0.200088 74.1312 0.360088 73.9978C0.493422 73.8378 0.706755 73.6645 1.00009 73.4778C1.45342 73.2111 1.81342 72.9312 2.08009 72.6378C2.34676 72.3445 2.56009 71.8912 2.72009 71.2778L7.60009 54.0378C7.70676 53.6911 7.76009 53.3578 7.76009 53.0378C7.76009 52.7445 7.70676 52.5045 7.60009 52.3178C7.52009 52.1045 7.40009 51.8645 7.24009 51.5978C7.00009 51.2511 6.88009 50.9711 6.88009 50.7578C6.88009 50.6778 6.90676 50.5311 6.96009 50.3178C7.06676 49.9711 7.29342 49.7311 7.64009 49.5978C8.01342 49.4378 8.57342 49.3578 9.32009 49.3578H22.5601ZM21.5201 57.8778C21.8134 56.8911 21.9601 56.0245 21.9601 55.2778C21.9601 53.7311 21.2401 52.9578 19.8001 52.9578H18.0001L15.1601 62.8378H16.9201C18.0401 62.8378 18.9468 62.4912 19.6401 61.7978C20.3601 61.0778 20.9868 59.7711 21.5201 57.8778Z" fill="#202020"/>
<path d="M47.1448 54.8378C48.6381 54.8378 49.8248 55.2911 50.7048 56.1978C51.6114 57.1045 52.0648 58.2245 52.0648 59.5578C52.0648 60.0645 52.0114 60.5311 51.9048 60.9578C51.6381 62.0511 51.1314 62.8911 50.3848 63.4778C49.6381 64.0645 48.7448 64.3578 47.7048 64.3578C46.6914 64.3578 45.9181 64.1178 45.3848 63.6378C44.8781 63.1578 44.4248 62.5178 44.0248 61.7178C43.8114 61.2645 43.6114 60.9311 43.4248 60.7178C43.2381 60.5045 43.0248 60.3978 42.7848 60.3978C42.5181 60.3978 42.2781 60.5045 42.0648 60.7178C41.8781 60.9311 41.7048 61.3045 41.5448 61.8378L38.4648 71.8378C38.4114 71.9711 38.3848 72.1712 38.3848 72.4378C38.3848 72.7845 38.4781 73.0778 38.6648 73.3178C38.8781 73.5311 39.1581 73.7445 39.5048 73.9578C39.8248 74.1711 40.0381 74.3445 40.1448 74.4778C40.2514 74.6111 40.2914 74.7845 40.2648 74.9978C40.2114 75.3445 40.0114 75.5978 39.6648 75.7578C39.3448 75.9178 38.7848 75.9978 37.9848 75.9978H27.7448C27.0514 75.9978 26.5581 75.8911 26.2648 75.6778C25.9448 75.4378 25.8248 75.1311 25.9048 74.7578C26.0114 74.4378 26.2914 74.1578 26.7448 73.9178C27.1448 73.7045 27.4781 73.4512 27.7448 73.1578C28.0114 72.8645 28.2381 72.3978 28.4248 71.7578L31.9848 60.1978C32.0381 60.0645 32.0648 59.8778 32.0648 59.6378C32.0648 59.3445 31.9981 59.1178 31.8648 58.9578C31.7581 58.7978 31.5714 58.5978 31.3048 58.3578C31.0381 58.1445 30.8514 57.9578 30.7448 57.7978C30.6381 57.6378 30.6248 57.4245 30.7048 57.1578C30.8648 56.5445 31.7048 56.0111 33.2248 55.5578C34.7448 55.0778 36.3314 54.8378 37.9848 54.8378C39.0781 54.8378 39.9848 55.0911 40.7048 55.5978C41.4248 56.0778 41.8914 56.7711 42.1048 57.6778C43.3848 55.7845 45.0648 54.8378 47.1448 54.8378Z" fill="#202020"/>
<path d="M65.3488 54.8378C68.9755 54.8378 71.6422 55.5711 73.3488 57.0378C75.0822 58.5045 75.9488 60.4245 75.9488 62.7978C75.9488 63.5978 75.8422 64.4911 75.6288 65.4778C75.1222 67.6645 74.1755 69.5845 72.7888 71.2378C71.4022 72.8645 69.6955 74.1311 67.6688 75.0378C65.6688 75.9178 63.4955 76.3578 61.1488 76.3578C57.4422 76.3578 54.6955 75.6245 52.9088 74.1578C51.1488 72.6645 50.2688 70.6911 50.2688 68.2378C50.2688 67.4111 50.3755 66.4911 50.5888 65.4778C51.0955 63.3978 52.0555 61.5578 53.4688 59.9578C54.9088 58.3311 56.6555 57.0778 58.7088 56.1978C60.7888 55.2911 63.0022 54.8378 65.3488 54.8378ZM65.2288 58.3978C64.6688 58.3978 64.0688 58.9045 63.4288 59.9178C62.8155 60.9045 62.0822 62.7845 61.2288 65.5578C60.3755 68.3311 59.9488 70.2778 59.9488 71.3978C59.9488 71.9845 60.0422 72.3845 60.2288 72.5978C60.4155 72.7845 60.6688 72.8778 60.9888 72.8778C61.5488 72.9311 62.1222 72.4512 62.7088 71.4378C63.3222 70.4245 64.0822 68.4511 64.9888 65.5178C65.8155 62.9311 66.2288 61.0511 66.2288 59.8778C66.2288 59.3178 66.1355 58.9311 65.9488 58.7178C65.7888 58.5045 65.5488 58.3978 65.2288 58.3978Z" fill="#202020"/>
<path d="M89.8388 54.6378C91.4655 54.6378 92.8922 54.8778 94.1188 55.3578C95.3455 55.8111 96.2922 56.4511 96.9588 57.2778C97.6522 58.0778 97.9988 58.9711 97.9988 59.9578C97.9988 61.0245 97.6255 61.9045 96.8788 62.5978C96.1588 63.2911 95.1722 63.6378 93.9188 63.6378C92.6388 63.6378 91.6388 63.3178 90.9188 62.6778C90.1988 62.0111 89.8388 61.1178 89.8388 59.9978C89.8388 59.4645 89.9188 58.9045 90.0788 58.3178C88.9588 58.6111 87.9588 59.1978 87.0788 60.0778C86.2255 60.9311 85.6522 62.0645 85.3588 63.4778C85.1988 64.2778 85.1188 64.9978 85.1188 65.6378C85.1188 67.0778 85.5188 68.1711 86.3188 68.9178C87.1188 69.6645 88.2655 70.0378 89.7588 70.0378C90.6122 70.0378 91.3455 69.9578 91.9588 69.7978C92.5722 69.6112 93.1988 69.3712 93.8388 69.0778C94.3722 68.8112 94.7588 68.6778 94.9988 68.6778C95.1588 68.6778 95.2655 68.7178 95.3188 68.7978C95.3722 68.8512 95.3988 68.9845 95.3988 69.1978C95.4255 70.1845 95.0122 71.2245 94.1588 72.3178C93.3322 73.3845 92.1722 74.2911 90.6788 75.0378C89.2122 75.7578 87.5588 76.1178 85.7188 76.1178C83.7988 76.1178 82.0922 75.7712 80.5988 75.0778C79.1322 74.3578 77.9855 73.3445 77.1588 72.0378C76.3588 70.7045 75.9588 69.1578 75.9588 67.3978C75.9588 66.5711 76.0655 65.6511 76.2788 64.6378C76.9988 61.3311 78.5855 58.8378 81.0388 57.1578C83.5188 55.4778 86.4522 54.6378 89.8388 54.6378Z" fill="#202020"/>
<path d="M109.759 54.6378C113.145 54.6378 115.599 55.1845 117.119 56.2778C118.639 57.3445 119.399 58.7178 119.399 60.3978C119.399 60.9045 119.345 61.3712 119.239 61.7978C118.839 63.5578 117.719 64.8245 115.879 65.5978C114.065 66.3445 111.919 66.7178 109.439 66.7178C108.185 66.7178 107.012 66.6378 105.919 66.4778C105.892 67.8645 106.265 68.8378 107.039 69.3978C107.812 69.9578 108.892 70.2378 110.279 70.2378C110.919 70.2378 111.532 70.1711 112.119 70.0378C112.705 69.8778 113.452 69.6512 114.359 69.3578C115.105 69.0912 115.612 68.9578 115.879 68.9578C116.172 68.9578 116.319 69.1311 116.319 69.4778C116.345 70.4111 115.999 71.3978 115.279 72.4378C114.559 73.4512 113.492 74.3178 112.079 75.0378C110.665 75.7578 108.959 76.1178 106.959 76.1178C103.999 76.1178 101.572 75.3711 99.6785 73.8778C97.7852 72.3845 96.8385 70.2112 96.8385 67.3578C96.8385 66.5578 96.9452 65.6245 97.1585 64.5578C97.8252 61.2778 99.2785 58.8111 101.519 57.1578C103.785 55.4778 106.532 54.6378 109.759 54.6378ZM106.199 64.0778C106.305 64.1045 106.452 64.1178 106.639 64.1178C107.759 64.1178 108.612 63.5978 109.199 62.5578C109.785 61.5178 110.065 60.3578 110.039 59.0778C110.012 58.3311 109.799 57.9578 109.399 57.9578C109.105 57.9578 108.759 58.1978 108.359 58.6778C107.959 59.1311 107.559 59.8245 107.159 60.7578C106.785 61.6911 106.465 62.7978 106.199 64.0778Z" fill="#202020"/>
<path d="M130.941 54.4778C133.155 54.4778 135.061 54.6778 136.661 55.0778C138.288 55.4778 139.528 56.0378 140.381 56.7578C141.261 57.4778 141.701 58.2911 141.701 59.1978C141.701 60.1311 141.328 60.8912 140.581 61.4778C139.861 62.0645 138.848 62.3578 137.541 62.3578C136.208 62.3578 135.075 62.0245 134.141 61.3578C133.235 60.6911 132.781 59.8511 132.781 58.8378C132.781 58.4911 132.835 58.1578 132.941 57.8378C132.461 57.7045 132.035 57.6378 131.661 57.6378C130.995 57.6378 130.435 57.7978 129.981 58.1178C129.555 58.4378 129.355 58.8911 129.381 59.4778C129.381 60.1711 129.728 60.7578 130.421 61.2378C131.115 61.7178 132.235 62.3178 133.781 63.0378C135.115 63.6245 136.208 64.1711 137.061 64.6778C137.941 65.1578 138.675 65.7711 139.261 66.5178C139.875 67.2645 140.181 68.1445 140.181 69.1578C140.181 69.3712 140.128 69.7712 140.021 70.3578C139.595 72.1445 138.408 73.5578 136.461 74.5978C134.515 75.6378 131.955 76.1578 128.781 76.1578C125.208 76.1578 122.368 75.6778 120.261 74.7178C118.181 73.7578 117.141 72.4378 117.141 70.7578C117.141 69.6111 117.488 68.7445 118.181 68.1578C118.875 67.5711 119.795 67.2778 120.941 67.2778C122.275 67.2778 123.408 67.6911 124.341 68.5178C125.301 69.3445 125.781 70.3978 125.781 71.6778C125.781 72.0245 125.741 72.3845 125.661 72.7578C126.301 72.9178 126.915 72.9978 127.501 72.9978C128.195 72.9978 128.768 72.8112 129.221 72.4378C129.675 72.0645 129.901 71.5445 129.901 70.8778C129.875 70.2645 129.568 69.7445 128.981 69.3178C128.395 68.8645 127.461 68.3312 126.181 67.7178C124.981 67.1578 123.995 66.6378 123.221 66.1578C122.448 65.6511 121.781 65.0245 121.221 64.2778C120.688 63.5311 120.421 62.6511 120.421 61.6378C120.421 59.4511 121.328 57.7178 123.141 56.4378C124.981 55.1311 127.581 54.4778 130.941 54.4778Z" fill="#202020"/>
<path d="M153.852 54.4778C156.066 54.4778 157.972 54.6778 159.572 55.0778C161.199 55.4778 162.439 56.0378 163.292 56.7578C164.172 57.4778 164.612 58.2911 164.612 59.1978C164.612 60.1311 164.239 60.8912 163.492 61.4778C162.772 62.0645 161.759 62.3578 160.452 62.3578C159.119 62.3578 157.986 62.0245 157.052 61.3578C156.146 60.6911 155.692 59.8511 155.692 58.8378C155.692 58.4911 155.746 58.1578 155.852 57.8378C155.372 57.7045 154.946 57.6378 154.572 57.6378C153.906 57.6378 153.346 57.7978 152.892 58.1178C152.466 58.4378 152.266 58.8911 152.292 59.4778C152.292 60.1711 152.639 60.7578 153.332 61.2378C154.026 61.7178 155.146 62.3178 156.692 63.0378C158.026 63.6245 159.119 64.1711 159.972 64.6778C160.852 65.1578 161.586 65.7711 162.172 66.5178C162.786 67.2645 163.092 68.1445 163.092 69.1578C163.092 69.3712 163.039 69.7712 162.932 70.3578C162.506 72.1445 161.319 73.5578 159.372 74.5978C157.426 75.6378 154.866 76.1578 151.692 76.1578C148.119 76.1578 145.279 75.6778 143.172 74.7178C141.092 73.7578 140.052 72.4378 140.052 70.7578C140.052 69.6111 140.399 68.7445 141.092 68.1578C141.786 67.5711 142.706 67.2778 143.852 67.2778C145.186 67.2778 146.319 67.6911 147.252 68.5178C148.212 69.3445 148.692 70.3978 148.692 71.6778C148.692 72.0245 148.652 72.3845 148.572 72.7578C149.212 72.9178 149.826 72.9978 150.412 72.9978C151.106 72.9978 151.679 72.8112 152.132 72.4378C152.586 72.0645 152.812 71.5445 152.812 70.8778C152.786 70.2645 152.479 69.7445 151.892 69.3178C151.306 68.8645 150.372 68.3312 149.092 67.7178C147.892 67.1578 146.906 66.6378 146.132 66.1578C145.359 65.6511 144.692 65.0245 144.132 64.2778C143.599 63.5311 143.332 62.6511 143.332 61.6378C143.332 59.4511 144.239 57.7178 146.052 56.4378C147.892 55.1311 150.492 54.4778 153.852 54.4778Z" fill="#202020"/>
</svg>
