<svg width="120" height="120" viewBox="0 0 120 120" fill="none" xmlns="http://www.w3.org/2000/svg">
<rect x="0.5" y="0.5" width="119" height="119" rx="7.5" fill="currentBackgroundColor"/>
<rect x="0.5" y="0.5" width="119" height="119" rx="7.5" stroke="currentColor"/>
<path d="M88.2359 31.632C88.2359 32.976 87.3719 34.272 85.7159 34.344C85.0919 34.38 84.4079 34.344 83.8559 34.656C83.3399 34.92 83.0039 35.412 82.5599 35.712C82.3079 35.88 82.0199 35.988 81.7199 36.06C80.8079 36.288 80.0159 36.012 78.9479 36.624C78.6359 36.804 78.2759 36.912 77.9639 37.08C77.6879 37.224 77.4239 37.38 77.1479 37.524C76.6559 37.776 76.1639 37.992 75.6239 38.052C74.7839 38.148 73.4039 37.176 73.3319 37.128C72.6959 36.672 72.4079 36.276 72.4199 36.204C72.4199 36.204 72.5279 36.096 73.2839 36.252C73.7159 36.348 74.0879 36.396 74.3879 36.444C74.9039 36.516 75.2639 36.576 75.3719 36.732C75.4079 36.78 75.4439 36.864 75.3959 37.08C75.3839 37.164 75.4319 37.236 75.5159 37.26C75.5999 37.272 75.6719 37.224 75.6959 37.14C75.7439 36.888 75.7199 36.708 75.6239 36.564C75.4439 36.312 75.0599 36.252 74.4359 36.156C74.1359 36.108 73.7759 36.06 73.3559 35.964C72.6239 35.808 72.2639 35.844 72.1559 36.072C72.0719 36.264 72.2279 36.528 72.4679 36.78C72.2519 36.684 71.8319 36.564 70.5719 36.756C68.0519 37.14 67.6439 39.012 64.6079 39.252C63.8639 39.312 63.1919 38.892 62.7239 38.892C62.1839 38.892 62.0879 39.216 61.1999 39.156C60.5519 39.108 59.8319 38.724 59.4839 38.664C59.1239 38.604 58.6679 38.952 57.8279 38.592C57.2639 38.352 57.2039 38.184 56.3879 37.872C55.8239 37.656 55.4279 37.98 54.6359 37.512C52.5719 36.288 51.7319 35.808 49.2239 35.28C47.8799 35.004 46.5119 35.04 45.5159 35.484C44.3399 35.988 43.7879 37.416 42.4199 37.632C41.6999 37.752 40.0319 37.308 38.9279 37.212C37.6799 37.104 37.2599 36.936 36.5519 36.384C35.1719 35.292 35.1959 34.032 33.8519 32.904C33.5039 32.616 31.6919 32.856 31.6919 31.632C31.6919 30.408 33.5159 30.648 33.8519 30.36C35.1959 29.232 35.1719 27.972 36.5519 26.88C37.2599 26.328 37.6919 26.16 38.9279 26.052C40.0199 25.956 41.6879 25.512 42.4199 25.632C43.7879 25.836 44.3399 27.264 45.5159 27.78C46.5119 28.224 47.8799 28.26 49.2239 27.984C51.7319 27.468 52.5719 26.976 54.6359 25.752C55.4279 25.284 55.8239 25.608 56.3879 25.392C57.2039 25.08 57.2759 24.912 57.8279 24.672C58.6559 24.312 59.1119 24.66 59.4839 24.6C59.8319 24.54 60.5519 24.156 61.1999 24.108C62.0759 24.048 62.1719 24.36 62.7239 24.372C63.2039 24.372 63.8639 23.952 64.6079 24.012C67.6439 24.252 68.0519 26.112 70.5719 26.508C71.8319 26.7 72.2519 26.58 72.4679 26.484C72.2279 26.736 72.0719 26.988 72.1559 27.192C72.2159 27.336 72.3719 27.396 72.6359 27.396C72.8159 27.396 73.0559 27.36 73.3559 27.3C73.7759 27.216 74.1479 27.156 74.4359 27.108C75.0599 27.012 75.4439 26.952 75.6239 26.7C75.7199 26.556 75.7439 26.376 75.6959 26.124C75.6839 26.04 75.5999 25.992 75.5159 26.004C75.4319 26.016 75.3839 26.1 75.3959 26.184C75.4439 26.4 75.3959 26.484 75.3719 26.532C75.2639 26.688 74.8919 26.736 74.3879 26.82C74.0879 26.868 73.7159 26.916 73.2839 27.012C72.9479 27.084 72.7439 27.108 72.6119 27.108C72.4559 27.108 72.4199 27.072 72.4079 27.072C72.3959 26.988 72.6839 26.604 73.3079 26.136C73.3679 26.088 74.7599 25.104 75.5999 25.212C76.1399 25.272 76.6319 25.488 77.1239 25.74C77.3999 25.884 77.6639 26.04 77.9399 26.184C78.2639 26.352 78.6119 26.472 78.9239 26.64C79.9919 27.24 80.7959 26.976 81.6959 27.204C81.9959 27.276 82.2839 27.396 82.5359 27.552C82.9919 27.852 83.3159 28.344 83.8319 28.608C84.3839 28.92 85.0559 28.884 85.6919 28.92C87.3479 29.004 88.2119 30.288 88.2119 31.632H88.2359Z" fill="currentColor"/>
<path d="M74.94 45.8278C73.8 45.9478 73.236 46.7158 72.864 47.9038C72.168 50.1118 70.8 50.6879 71.796 51.9239C72.792 53.1599 75 54.6839 76.14 53.6159C77.268 52.5479 76.404 49.5479 76.128 48.2399C75.84 46.9319 75.684 45.7558 74.964 45.8278H74.94Z" fill="currentColor"/>
<path d="M85.164 49.68C82.812 49.416 83.952 48.372 82.92 47.448C81.888 46.524 78.156 45.372 76.824 45.696C76.572 45.756 76.332 45.828 76.116 45.912C76.392 46.392 76.536 47.076 76.668 47.736C76.692 47.868 76.728 48 76.752 48.132C76.788 48.276 76.824 48.432 76.86 48.612C77.256 50.328 77.856 52.92 76.584 54.12C76.212 54.468 75.732 54.648 75.18 54.648C74.1 54.648 72.96 53.94 72.12 53.208C72.06 53.388 72 53.556 71.94 53.736C70.824 56.748 69.432 58.428 67.92 59.412C67.284 59.832 66.744 60.036 65.7 60.42C59.232 62.784 53.088 61.56 52.212 61.32C51.672 61.164 51.192 60.876 50.844 60.792C50.4 60.684 49.74 60.588 48.768 60.576C48.12 60.576 47.064 60.552 45.78 60.96C44.568 61.332 43.704 61.908 43.44 62.1C43.332 62.184 43.212 62.256 43.104 62.352C38.28 63.528 33.936 62.7 34.5 60.54C35.064 58.392 40.32 55.8 41.112 58.392C41.508 59.7 42 59.448 42.084 59.136C42.168 58.812 42.42 57.576 41.34 56.7C39.864 55.512 37.944 55.428 35.34 56.856C32.736 58.296 27.24 63.072 38.616 65.784C38.952 65.868 39.288 65.94 39.6 66.012C39.3 66.792 38.952 67.956 38.928 69.396C38.88 71.76 39.744 72.3 40.068 74.64C40.416 77.16 40.068 81.264 37.884 82.512C37.044 82.992 36.132 82.932 35.736 83.736C35.424 84.36 35.712 84.9 35.964 85.92C36.192 86.88 36.192 88.452 36.192 91.596C36.192 93.408 36.132 94.032 36.624 94.488C36.984 94.824 37.62 94.788 38.784 94.896C41.964 95.184 42 94.32 41.496 92.964C41.34 92.544 41.124 92.28 40.872 92.124C40.224 91.704 39.624 92.208 39.192 92.004C38.256 91.56 38.244 88.308 39.708 85.488C40.428 84.108 41.4 83.028 42.336 81.996C43.68 80.496 44.724 79.728 45.108 78.204C45.348 77.256 45.396 76.452 45.396 76.452C45.456 75.444 45.3 75.108 45.468 74.472C45.696 73.608 46.308 73.068 46.536 72.84C47.928 71.532 51.156 71.508 53.436 72.888C55.248 73.98 56.856 76.212 58.152 76.44C58.404 76.488 58.848 76.56 59.316 76.848C59.748 77.1 59.76 77.256 60.132 77.484C60.684 77.832 60.96 77.664 61.764 77.892C62.7 78.156 62.604 78.456 63.384 78.648C64.056 78.804 64.272 78.612 65.256 78.624C66.072 78.624 66.42 78.768 67.212 78.888C68.028 79.008 69.252 79.008 70.908 78.36C71.16 79.224 71.292 79.92 71.376 80.34C71.748 82.392 72.168 86.52 71.664 90.216C71.592 90.732 71.448 91.416 71.82 92.076C72.276 92.856 73.248 92.964 73.764 93.972C74.532 95.484 74.052 96.156 77.136 95.964C80.22 95.772 79.8 95.22 79.752 94.32C79.692 93.06 78.012 91.476 76.356 92.436C75.684 92.82 74.304 90.912 75 85.992C75.336 83.604 75.996 78.804 76.092 75.492C76.992 74.052 77.496 72.78 77.784 71.88C78.36 70.104 78.396 68.052 78.252 66.204C78.024 63.48 78.156 60.276 79.44 57.78C80.592 55.536 83.196 56.46 85.236 56.28C87.204 56.1 88.032 54.828 88.176 52.908C88.26 51.732 88.572 50.496 87.792 49.812C86.892 49.02 85.308 49.608 85.152 49.668L85.164 49.68Z" fill="currentColor"/>
</svg>
