<svg width="120" height="120" viewBox="0 0 120 120" fill="none" xmlns="http://www.w3.org/2000/svg">
<rect x="0.5" y="0.5" width="119" height="119" rx="7.5" fill="currentBackgroundColor"/>
<rect x="0.5" y="0.5" width="119" height="119" rx="7.5" stroke="currentColor"/>
<path d="M88.2479 31.404C88.2479 31.32 88.2719 31.248 88.2719 31.164H88.2359C88.0559 30 87.2159 28.992 85.7519 28.92C85.1279 28.884 84.4439 28.92 83.8919 28.608C83.3759 28.344 83.0399 27.852 82.5959 27.552C82.3439 27.384 82.0559 27.276 81.7559 27.204C80.8439 26.976 80.0519 27.24 78.9839 26.64C78.6719 26.46 78.3119 26.352 77.9999 26.184C77.7239 26.04 77.4599 25.884 77.1839 25.74C76.6919 25.488 76.1999 25.272 75.6599 25.212C74.8199 25.116 73.4399 26.088 73.3679 26.136C72.7319 26.604 72.4439 26.988 72.4679 27.072C72.4679 27.072 72.5039 27.108 72.6719 27.108C72.8039 27.108 73.0079 27.084 73.3439 27.012C73.7759 26.916 74.1479 26.868 74.4479 26.82C74.9639 26.748 75.3239 26.688 75.4319 26.532C75.4679 26.484 75.5039 26.4 75.4559 26.184C75.4439 26.1 75.4919 26.028 75.5759 26.004C75.6599 25.992 75.7319 26.04 75.7559 26.124C75.8039 26.376 75.7799 26.556 75.6839 26.7C75.5039 26.952 75.1199 27.012 74.4959 27.108C74.1959 27.156 73.8359 27.204 73.4159 27.3C73.1159 27.36 72.8759 27.396 72.6959 27.396C72.4319 27.396 72.2759 27.324 72.2159 27.192C72.1319 27 72.2879 26.736 72.5279 26.484C72.3119 26.58 71.8919 26.7 70.6319 26.508C68.1119 26.124 67.7039 24.252 64.6679 24.012C63.9239 23.952 63.2519 24.372 62.7839 24.372C62.2439 24.372 62.1479 24.048 61.2599 24.108C60.6119 24.156 59.8919 24.54 59.5439 24.6C59.1839 24.66 58.7279 24.312 57.8879 24.672C57.3239 24.912 57.2639 25.08 56.4479 25.392C55.8839 25.608 55.4879 25.284 54.6959 25.752C53.7479 26.316 53.0519 26.676 52.3439 26.952C50.9639 27.492 49.8239 27.528 49.3799 27.552C47.7599 27.66 46.4039 27.432 45.7079 27.168C43.7159 26.448 43.8479 25.788 42.4919 25.632C41.2319 25.476 41.0039 25.884 38.9999 26.052C37.7519 26.16 37.3319 26.328 36.6239 26.88C35.2439 27.972 35.0639 29.232 33.7199 30.36C33.4319 30.6 32.2559 30.48 31.8839 31.152H31.7639C31.7639 31.248 31.7879 31.308 31.7999 31.392C31.7879 31.464 31.7639 31.536 31.7639 31.632H31.8839C32.2559 32.316 33.4319 32.184 33.7199 32.424C35.0639 33.552 35.2439 34.812 36.6239 35.904C37.3319 36.456 37.7639 36.624 38.9999 36.732C41.0039 36.9 41.2199 37.308 42.4919 37.152C43.8599 36.984 43.7279 36.336 45.7079 35.616C46.4039 35.364 47.7599 35.124 49.3799 35.232C49.8239 35.268 50.9639 35.292 52.3439 35.832C53.0519 36.108 53.7479 36.468 54.6959 37.032C55.4879 37.5 55.8839 37.176 56.4479 37.392C57.2639 37.704 57.3359 37.872 57.8879 38.112C58.7159 38.472 59.1719 38.124 59.5439 38.184C59.8919 38.244 60.6119 38.628 61.2599 38.676C62.1359 38.736 62.2319 38.424 62.7839 38.412C63.2639 38.412 63.9239 38.832 64.6679 38.772C67.7039 38.532 68.1119 36.672 70.6319 36.276C71.8919 36.084 72.3119 36.204 72.5279 36.3C72.2879 36.048 72.1319 35.796 72.2159 35.592C72.2759 35.448 72.4319 35.388 72.6959 35.388C72.8759 35.388 73.1159 35.424 73.4159 35.484C73.8359 35.568 74.2079 35.628 74.4959 35.676C75.1199 35.772 75.5039 35.832 75.6839 36.084C75.7799 36.228 75.8039 36.408 75.7559 36.66C75.7439 36.744 75.6599 36.792 75.5759 36.78C75.4919 36.768 75.4439 36.684 75.4559 36.6C75.5039 36.384 75.4559 36.3 75.4319 36.252C75.3239 36.096 74.9519 36.048 74.4479 35.964C74.1479 35.916 73.7759 35.868 73.3439 35.772C73.0079 35.7 72.8039 35.676 72.6719 35.676C72.5159 35.676 72.4799 35.712 72.4679 35.712C72.4559 35.796 72.7439 36.18 73.3679 36.648C73.4279 36.696 74.8199 37.68 75.6599 37.572C76.1999 37.512 76.6919 37.296 77.1839 37.044C77.4599 36.9 77.7239 36.744 77.9999 36.6C78.3239 36.432 78.6719 36.312 78.9839 36.144C80.0519 35.544 80.8559 35.808 81.7559 35.58C82.0559 35.508 82.3439 35.388 82.5959 35.232C83.0519 34.932 83.3759 34.44 83.8919 34.176C84.4439 33.864 85.1159 33.9 85.7519 33.864C87.2159 33.792 88.0559 32.784 88.2359 31.62H88.2719C88.2719 31.536 88.2599 31.464 88.2479 31.38V31.404Z" fill="currentColor"/>
<path d="M74.9759 45.8278C73.8359 45.9478 73.2719 46.7158 72.8999 47.9038C72.2039 50.1118 70.8359 50.6879 71.8319 51.9239C72.8279 53.1599 75.0359 54.6839 76.1759 53.6159C77.3039 52.5479 76.4399 49.5479 76.1639 48.2399C75.8759 46.9319 75.7199 45.7558 74.9999 45.8278H74.9759Z" fill="currentColor"/>
<path d="M85.1999 49.68C82.8479 49.416 83.9879 48.372 82.9559 47.448C81.9239 46.524 78.1919 45.372 76.8599 45.696C76.6079 45.756 76.3679 45.828 76.1519 45.912C76.4279 46.392 76.5719 47.076 76.7039 47.736C76.7279 47.868 76.7639 48 76.7879 48.132C76.8239 48.276 76.8599 48.432 76.8959 48.612C77.2919 50.328 77.8919 52.92 76.6199 54.12C76.2479 54.468 75.7679 54.648 75.2159 54.648C74.1359 54.648 72.9959 53.94 72.1559 53.208C72.0959 53.388 72.0359 53.556 71.9759 53.736C70.3199 58.188 68.0519 59.736 65.7359 60.408C61.5839 61.62 56.3879 62.064 51.5519 61.284C47.9399 60.696 46.1159 60.204 43.4759 62.076C43.3679 62.16 43.2479 62.232 43.1399 62.328C38.3159 63.504 35.2079 62.568 35.7599 60.408C36.3239 58.26 40.9799 57.3 41.1479 58.368C41.4239 60.192 41.8559 59.46 41.9519 59.136C42.0359 58.812 42.4679 57.552 41.3759 56.676C39.8999 55.488 37.9799 55.404 35.3759 56.832C32.7719 58.272 27.2759 63.048 38.6519 65.76C38.9879 65.844 39.3239 65.916 39.6359 65.988C38.4719 68.4 39.5279 71.604 39.1199 74.652C38.6519 78.192 37.0199 83.196 35.7599 83.724C34.4999 84.252 36.1919 88.128 36.2159 91.584C36.2159 95.04 36.4199 94.668 38.8199 94.884C41.9999 95.172 42.0359 94.308 41.5319 92.952C41.0279 91.596 39.7919 91.86 39.2279 91.98C38.6639 92.112 38.5079 86.376 39.2279 85.212C39.9359 84.048 45.4679 78.816 45.5639 77.772C45.6599 76.728 44.8199 76.572 45.5039 74.448C46.1879 72.312 48.0479 71.676 51.1079 72.636C54.1679 73.596 59.5439 78.396 63.4319 78.636C67.3199 78.876 70.6199 78.432 70.6199 78.432C71.0999 81.432 72.0839 88.104 71.7119 90.216C71.2319 92.964 73.0439 92.46 73.8119 93.972C74.5799 95.484 74.0999 96.156 77.1839 95.964C80.2679 95.772 79.8479 95.22 79.7999 94.32C79.7399 93.06 78.0599 91.476 76.4039 92.436C75.7319 92.82 74.3519 90.912 75.0479 85.992C75.3839 83.604 76.0439 78.804 76.1399 75.492C78.5159 73.392 80.5079 69.96 79.2599 64.488C78.7079 62.076 78.8159 61.044 79.7159 58.944C80.0759 58.104 80.1119 56.664 82.4279 56.352C84.7439 56.04 87.8999 57.312 88.2119 52.908C88.5239 48.516 87.5399 49.932 85.1999 49.668V49.68Z" fill="currentColor"/>
</svg>
