<svg width="120" height="120" viewBox="0 0 120 120" fill="none" xmlns="http://www.w3.org/2000/svg">
<rect x="0.5" y="0.5" width="119" height="119" rx="7.5" fill="currentBackgroundColor"/>
<rect x="0.5" y="0.5" width="119" height="119" rx="7.5" stroke="currentColor"/>
<path d="M85.7519 28.8479C85.1279 28.8119 84.444 28.5719 83.9039 28.2599C83.3879 27.9959 83.0519 27.7799 82.6079 27.4799C82.3559 27.3119 82.068 27.2039 81.768 27.1319C80.8559 26.9039 80.0639 27.0359 78.984 26.4239C78.672 26.2439 77.448 25.7999 77.184 25.6559C76.692 25.4039 76.2 25.1879 75.66 25.1279C74.82 25.0319 73.44 26.0039 73.38 26.0519C72.744 26.5199 72.456 26.9039 72.48 26.9879C72.48 26.9879 72.516 27.0239 72.684 27.0239C72.816 27.0239 73.02 26.9999 73.356 26.9279C73.788 26.8319 74.16 26.7839 74.4599 26.7359C74.976 26.6639 75.3479 26.6039 75.444 26.4479C75.4799 26.3999 75.5159 26.3159 75.468 26.0999C75.456 26.0159 75.504 25.9439 75.588 25.9199C75.672 25.9079 75.7439 25.9559 75.768 26.0399C75.816 26.2919 75.792 26.4719 75.696 26.6159C75.516 26.8679 75.132 26.9279 74.508 27.0239C74.208 27.0719 73.8479 27.1199 73.428 27.2159C73.1279 27.2759 72.888 27.3119 72.708 27.3119C72.444 27.3119 72.2879 27.2399 72.228 27.1079C72.144 26.9159 72.3 26.6519 72.54 26.3999C72.324 26.4959 71.9039 26.6159 70.644 26.4239C68.124 26.0279 68.064 23.9999 64.464 24.1079C63.012 24.1559 62.388 23.9399 61.548 24.0119C60.948 24.0599 60.372 24.2879 59.82 24.3599C59.268 24.4319 58.728 24.4079 58.332 24.4919C57.336 24.6839 57.384 25.0679 56.46 25.3079C51.708 26.5559 48.012 28.1519 42.492 25.5479C41.832 25.2359 40.608 25.4999 39.516 25.5959C38.268 25.7039 37.344 26.2439 36.624 26.8079C35.244 27.8999 35.064 29.1719 33.708 30.2999C33.36 30.5879 31.752 30.3359 31.752 31.5719C31.752 32.8079 33.36 32.5559 33.708 32.8439C35.052 33.9719 35.232 35.2439 36.624 36.3359C37.332 36.8879 38.268 37.4399 39.516 37.5479C40.608 37.6439 41.832 37.9079 42.492 37.5959C48.012 34.9919 51.708 36.5999 56.46 37.8359C57.384 38.0759 57.336 38.4599 58.332 38.6519C58.728 38.7239 59.256 38.7119 59.82 38.7839C60.372 38.8559 60.948 39.0839 61.548 39.1319C62.388 39.2039 63.012 38.9879 64.464 39.0359C68.064 39.1439 68.124 37.1159 70.644 36.7199C71.9039 36.5279 72.324 36.6479 72.54 36.7439C72.3 36.4919 72.144 36.2279 72.228 36.0359C72.2879 35.8919 72.444 35.8319 72.708 35.8319C72.888 35.8319 73.1279 35.8679 73.428 35.9279C73.8479 36.0239 74.22 36.0719 74.508 36.1199C75.132 36.2159 75.516 36.2759 75.696 36.5279C75.792 36.6719 75.816 36.8519 75.768 37.1039C75.756 37.1879 75.672 37.2359 75.588 37.2239C75.504 37.2119 75.456 37.1279 75.468 37.0439C75.5159 36.8279 75.4679 36.7439 75.444 36.6959C75.3359 36.5399 74.964 36.4919 74.4599 36.4079C74.16 36.3599 73.788 36.3119 73.356 36.2159C73.02 36.1439 72.816 36.1199 72.684 36.1199C72.528 36.1199 72.492 36.1559 72.48 36.1559C72.468 36.2399 72.756 36.6239 73.38 37.0919C73.452 37.1399 74.832 38.1239 75.672 38.0159C76.212 37.9559 76.704 37.7519 77.196 37.4879C77.472 37.3439 78.684 36.8999 78.996 36.7199C80.064 36.1199 80.868 36.2399 81.78 36.0119C82.08 35.9399 82.368 35.8319 82.6199 35.6639C83.076 35.3639 83.4 35.1479 83.916 34.8839C84.468 34.5719 85.14 34.3319 85.764 34.2959C87.42 34.2119 88.284 32.9159 88.284 31.5719C88.284 30.2279 87.42 28.9319 85.764 28.8479H85.7519Z" fill="currentColor"/>
<path d="M85.2119 49.5601C82.8599 49.2961 83.9999 48.2521 82.9679 47.3161C81.9359 46.3801 78.2039 45.2401 76.8719 45.5521C76.6199 45.6121 76.3799 45.6841 76.1639 45.7681C76.4399 46.2601 76.5839 46.9321 76.7159 47.6041C76.7399 47.7361 76.7759 47.8681 76.7999 48.0001C76.8359 48.1441 76.8719 48.3001 76.9079 48.4801C77.3039 50.1961 77.9039 52.8001 76.6319 54.0001C76.2599 54.3481 75.7799 54.5401 75.2279 54.5401C74.1479 54.5401 73.0079 53.8321 72.1679 53.1001C72.1079 53.2801 72.0479 53.4481 71.9879 53.6281C70.3319 58.0921 68.0639 59.6401 65.7479 60.3241C61.5959 61.5361 57.6239 62.0041 52.7879 61.2241C49.1759 60.6361 46.1279 60.1321 43.4879 62.0041C43.3799 62.0881 43.2599 62.1601 43.1519 62.2561C38.3279 63.4321 35.8559 62.4721 36.4199 60.3121C36.9839 58.1521 41.0039 57.2281 41.1599 58.2841C41.4359 60.1201 41.8679 59.3761 41.9639 59.0521C42.0479 58.7281 42.4799 57.4561 41.3879 56.5801C39.9119 55.3921 37.9799 55.3081 35.3759 56.7361C32.7719 58.1761 27.2759 62.9761 38.6519 65.6881C38.9999 65.7721 39.3239 65.8441 39.6479 65.9161C38.4839 68.3401 39.5399 71.5561 39.1319 74.6041C38.6639 78.1561 37.0319 83.1721 35.7719 83.7001C34.5119 84.2281 36.2039 88.1161 36.2279 91.5841C36.2279 95.0521 36.4319 94.6681 38.8319 94.8961C42.0239 95.1841 42.0479 94.3201 41.5439 92.9521C41.0399 91.5841 39.8039 91.8481 39.2399 91.9801C38.6759 92.1121 38.5199 86.3641 39.2399 85.1881C39.9479 84.0241 45.4799 78.7801 45.5759 77.7361C45.6719 76.6921 45.7799 76.7521 46.4639 74.6161C47.1479 72.4801 48.5639 72.7441 51.6239 73.7041C54.6839 74.6641 59.5799 78.3601 63.4559 78.6001C67.3439 78.8401 70.6439 78.3961 70.6439 78.3961C71.1239 81.4081 72.1079 88.1041 71.7359 90.2041C71.2559 92.9521 73.0679 92.4601 73.8359 93.9721C74.6159 95.4841 74.1239 96.1681 77.2079 95.9761C80.2919 95.7841 79.8719 95.2321 79.8239 94.3321C79.7639 93.0601 78.0839 91.4761 76.4279 92.4361C75.7559 92.8201 74.3759 90.9121 75.0719 85.9681C75.3479 83.9641 75.8639 80.2681 76.0799 77.1721C76.1519 76.1161 76.5839 75.1321 77.2679 74.3401C79.1039 72.2041 80.3399 69.0241 79.2959 64.4281C78.7439 62.0161 78.8519 60.9721 79.7519 58.8721C80.0999 58.0321 80.1479 56.5921 82.4639 56.2801C84.7799 55.9681 87.9359 57.2401 88.2479 52.8241C88.5599 48.4201 87.5759 49.8481 85.2359 49.5721L85.2119 49.5601Z" fill="currentColor"/>
<path d="M74.9639 45.864C73.8239 45.984 73.2599 46.752 72.8879 47.94C72.1919 50.148 70.8239 50.724 71.8199 51.96C72.8159 53.196 75.0239 54.708 76.1519 53.652C77.2799 52.584 76.4159 49.584 76.1399 48.276C75.8519 46.968 75.6959 45.792 74.9759 45.864H74.9639Z" fill="currentColor"/>
</svg>
