<svg width="120" height="120" viewBox="0 0 120 120" fill="none" xmlns="http://www.w3.org/2000/svg">
<rect x="0.5" y="0.5" width="119" height="119" rx="7.5" fill="currentBackgroundColor"/>
<rect x="0.5" y="0.5" width="119" height="119" rx="7.5" stroke="currentColor"/>
<path d="M88.2719 31.5719C88.2719 30.2279 87.4079 28.9319 85.7519 28.8479C85.1279 28.8119 84.4439 28.5719 83.9039 28.2599C83.3879 27.9959 83.0519 27.7799 82.6079 27.4799C82.3559 27.3119 82.0679 27.2039 81.7679 27.1319C80.8559 26.9039 80.0639 27.0359 78.9839 26.4239C78.6719 26.2439 77.4479 25.7999 77.1839 25.6559C76.6919 25.4039 76.1999 25.1879 75.6599 25.1279C74.8199 25.0319 73.4399 26.0039 73.3799 26.0519C72.7439 26.5199 72.4559 26.9039 72.4799 26.9879C72.4799 26.9879 72.5159 27.0239 72.6839 27.0239C72.8159 27.0239 73.0199 26.9999 73.3559 26.9279C73.7879 26.8319 74.1599 26.7839 74.4599 26.7359C74.9759 26.6639 75.3479 26.6039 75.4439 26.4479C75.4799 26.3999 75.5159 26.3159 75.4679 26.0999C75.4559 26.0159 75.5039 25.9439 75.5879 25.9199C75.6719 25.9079 75.7439 25.9559 75.7679 26.0399C75.8159 26.2919 75.7919 26.4719 75.6959 26.6159C75.5159 26.8679 75.1319 26.9279 74.5079 27.0239C74.2079 27.0719 73.8479 27.1199 73.4279 27.2159C73.1279 27.2759 72.8879 27.3119 72.7079 27.3119C72.4439 27.3119 72.2879 27.2399 72.2279 27.1079C72.1439 26.9159 72.2999 26.6519 72.5399 26.3999C72.3119 26.6519 71.5199 26.5199 71.2439 26.4959C70.5239 26.4359 69.8639 26.2319 69.2159 25.8959C67.5959 25.0439 66.3719 24.0359 64.4519 24.0959C62.9999 24.1439 62.3759 23.9279 61.5359 23.9999C60.9359 24.0479 60.3599 24.2759 59.8079 24.3479C57.2639 24.6719 54.9719 25.9559 52.4519 26.4359C50.3999 26.8319 48.5159 26.6999 46.4039 26.3399C45.2519 26.1479 44.2559 25.8479 43.1399 25.5239C42.0119 25.1999 40.6799 25.3799 39.5159 25.4879C38.2679 25.5959 37.3439 26.2439 36.6239 26.7959C35.2439 27.8879 35.1239 28.8359 33.7799 29.9759C33.4319 30.2639 31.7639 30.3359 31.7639 31.5599C31.7639 32.7839 33.4439 32.8559 33.7799 33.1439C35.1239 34.2719 35.2439 35.2319 36.6239 36.3239C37.3319 36.8759 38.2679 37.5239 39.5159 37.6319C40.6799 37.7279 42.0119 37.9199 43.1399 37.5959C44.2559 37.2719 45.2519 36.9719 46.4039 36.7799C48.5159 36.4199 50.3999 36.2879 52.4519 36.6839C54.9599 37.1639 57.2519 38.4479 59.8079 38.7719C60.3599 38.8439 60.9359 39.0719 61.5359 39.1199C62.3759 39.1919 62.9999 38.9759 64.4519 39.0239C66.3719 39.0839 67.5959 38.0759 69.2159 37.2239C69.8639 36.8879 70.5239 36.6959 71.2439 36.6239C71.5199 36.5999 72.3119 36.4679 72.5399 36.7199C72.2999 36.4679 72.1439 36.2039 72.2279 36.0119C72.2879 35.8799 72.4439 35.8079 72.7079 35.8079C72.8879 35.8079 73.1279 35.8439 73.4279 35.9039C73.8479 35.9999 74.2079 36.0479 74.5079 36.0959C75.1319 36.1919 75.5159 36.2519 75.6959 36.5039C75.7919 36.6479 75.8159 36.8279 75.7679 37.0799C75.7559 37.1639 75.6719 37.2119 75.5879 37.1999C75.5039 37.1879 75.4559 37.1039 75.4679 37.0199C75.5159 36.8039 75.4679 36.7199 75.4439 36.6719C75.3359 36.5159 74.9639 36.4679 74.4599 36.3839C74.1599 36.3359 73.7879 36.2879 73.3559 36.1919C73.0199 36.1199 72.8159 36.0959 72.6839 36.0959C72.5279 36.0959 72.4919 36.1319 72.4799 36.1319C72.4679 36.2159 72.7559 36.5999 73.3799 37.0679C73.4519 37.1159 74.8319 38.0999 75.6599 37.9919C76.1999 37.9319 76.7039 37.7159 77.1839 37.4639C77.4599 37.3199 78.6719 36.8759 78.9839 36.6959C80.0519 36.0959 80.8559 36.2159 81.7679 35.9879C82.0679 35.9159 82.3559 35.8079 82.6079 35.6399C83.0639 35.3399 83.3879 35.1239 83.9039 34.8599C84.4559 34.5479 85.1279 34.3079 85.7519 34.2719C87.4079 34.1879 88.2719 32.8919 88.2719 31.5479V31.5719Z" fill="currentColor"/>
<path d="M85.2119 49.5601C82.8599 49.2961 83.9999 48.2521 82.9679 47.3161C81.9359 46.3801 78.2039 45.2401 76.8719 45.5521C76.6199 45.6121 76.3799 45.6841 76.1639 45.7681C76.4399 46.2601 76.5839 46.9321 76.7159 47.6041C76.7399 47.7361 76.7759 47.8681 76.7999 48.0001C76.8359 48.1441 76.8719 48.3001 76.9079 48.4801C77.3039 50.1961 77.9039 52.8001 76.6319 54.0001C76.2599 54.3481 75.7799 54.5401 75.2279 54.5401C74.1479 54.5401 73.0079 53.8321 72.1679 53.1001C72.1079 53.2801 72.0479 53.4481 71.9879 53.6281C70.3319 58.0921 68.0639 59.6401 65.7479 60.3241C61.5959 61.5361 57.6239 62.0041 52.7879 61.2241C49.1759 60.6361 46.1279 60.1321 43.4879 62.0041C43.3799 62.0881 43.2599 62.1601 43.1519 62.2561C38.3279 63.4321 35.8559 62.4721 36.4199 60.3121C36.9839 58.1521 41.0039 57.2281 41.1599 58.2841C41.4359 60.1201 41.8679 59.3761 41.9639 59.0521C42.0479 58.7281 42.4799 57.4561 41.3879 56.5801C39.9119 55.3921 37.9799 55.3081 35.3759 56.7361C32.7719 58.1761 27.2759 62.9761 38.6519 65.6881C38.9999 65.7721 39.3239 65.8441 39.6479 65.9161C38.4839 68.3401 39.5399 71.5561 39.1319 74.6041C38.6639 78.1561 37.0319 83.1721 35.7719 83.7001C34.5119 84.2281 36.2039 88.1161 36.2279 91.5841C36.2279 95.0521 36.4319 94.6681 38.8319 94.8961C42.0239 95.1841 42.0479 94.3201 41.5439 92.9521C41.0399 91.5841 39.8039 91.8481 39.2399 91.9801C38.6759 92.1121 38.5199 86.3641 39.2399 85.1881C39.8279 84.2041 40.7879 83.3761 41.5679 82.5481C42.3359 81.7441 43.1039 80.9401 43.8359 80.1121C44.4719 79.3921 45.1679 79.0801 45.5039 78.1561C45.9359 76.9801 46.5599 75.7441 47.0519 74.5801C47.2439 74.1241 47.5799 73.7161 48.0479 73.5241C49.2239 73.0681 50.1119 73.4401 51.6119 74.1121C54.5039 75.4201 55.3319 76.2001 57.1199 77.1001C57.9239 77.5081 60.3479 78.6481 63.4439 79.0081C66.8759 79.4161 70.6319 78.3841 70.6319 78.3841C71.1119 81.3961 72.0959 88.0921 71.7239 90.1921C71.2439 92.9401 73.0559 92.4481 73.8239 93.9601C74.6039 95.4721 74.1119 96.1561 77.1959 95.9641C80.2799 95.7721 79.8599 95.2201 79.8119 94.3201C79.7519 93.0481 78.0719 91.4641 76.4159 92.4241C75.7439 92.8081 74.3639 90.9001 75.0599 85.9561C75.3359 83.9521 75.8519 80.2561 76.0679 77.1601C76.1399 76.1041 76.5719 75.1201 77.2559 74.3281C79.0919 72.1921 80.3279 69.0121 79.2839 64.4161C78.7319 62.0041 78.8399 60.9601 79.7399 58.8601C80.0879 58.0201 80.1359 56.5801 82.4519 56.2681C84.7679 55.9561 87.9239 57.2281 88.2359 52.8121C88.5479 48.4081 87.5639 49.8361 85.2359 49.5721L85.2119 49.5601Z" fill="currentColor"/>
<path d="M74.9639 45.864C73.8239 45.984 73.2599 46.752 72.8879 47.94C72.1919 50.148 70.8239 50.724 71.8199 51.96C72.8159 53.196 75.0239 54.708 76.1519 53.652C77.2799 52.584 76.4159 49.584 76.1399 48.276C75.8519 46.968 75.6959 45.792 74.9759 45.864H74.9639Z" fill="currentColor"/>
</svg>
