<svg width="120" height="120" viewBox="0 0 120 120" fill="none" xmlns="http://www.w3.org/2000/svg">
<rect x="0.5" y="0.5" width="119" height="119" rx="7.5" fill="currentBackgroundColor"/>
<rect x="0.5" y="0.5" width="119" height="119" rx="7.5" stroke="currentColor"/>
<path d="M85.464 29.124C84.852 29.088 84.168 29.124 83.628 28.812C83.112 28.548 82.788 28.056 82.344 27.768C82.092 27.6 81.804 27.492 81.516 27.42C80.616 27.192 79.824 27.456 78.768 26.868C78.456 26.688 78.108 26.58 77.796 26.412C77.532 26.268 77.256 26.112 76.992 25.968C76.512 25.716 76.02 25.5 75.48 25.44C74.652 25.344 73.284 26.316 73.224 26.364C72.6 26.82 72.312 27.204 72.336 27.288C72.336 27.288 72.372 27.324 72.528 27.324C72.66 27.324 72.864 27.3 73.188 27.228C73.608 27.132 73.98 27.084 74.28 27.036C74.784 26.964 75.156 26.904 75.252 26.748C75.288 26.7 75.312 26.616 75.276 26.4C75.264 26.316 75.312 26.244 75.384 26.232C75.468 26.22 75.54 26.268 75.552 26.352C75.6 26.604 75.576 26.784 75.48 26.928C75.3 27.18 74.928 27.24 74.304 27.336C74.016 27.384 73.644 27.432 73.236 27.528C72.936 27.588 72.708 27.624 72.528 27.624C72.264 27.624 72.12 27.552 72.06 27.42C71.976 27.228 72.132 26.964 72.372 26.724C72.156 26.82 71.748 26.94 70.5 26.748C68.004 26.364 67.164 24.66 64.608 24.276C62.016 23.88 59.736 23.904 55.128 24.708C52.452 25.176 50.172 26.796 47.208 26.628C44.724 26.484 43.008 23.844 37.344 25.896C34.548 26.904 34.764 29.712 34.056 30.108C33.552 30.396 32.052 30.636 32.052 31.86C32.052 33.084 33.552 33.312 34.056 33.612C34.752 34.02 34.548 36.816 37.344 37.824C43.008 39.876 44.712 37.236 47.208 37.092C50.172 36.924 52.452 38.544 55.128 39.012C59.736 39.816 62.016 39.84 64.608 39.444C67.164 39.048 68.016 37.356 70.5 36.972C71.748 36.78 72.168 36.9 72.372 36.996C72.132 36.744 71.976 36.492 72.06 36.3C72.12 36.156 72.276 36.096 72.528 36.096C72.708 36.096 72.948 36.132 73.236 36.192C73.656 36.288 74.016 36.336 74.304 36.384C74.928 36.48 75.3 36.54 75.48 36.792C75.576 36.936 75.6 37.116 75.552 37.368C75.54 37.452 75.456 37.5 75.384 37.488C75.3 37.476 75.252 37.392 75.276 37.32C75.324 37.104 75.276 37.02 75.252 36.972C75.144 36.816 74.784 36.768 74.28 36.684C73.98 36.636 73.608 36.588 73.188 36.492C72.864 36.42 72.66 36.396 72.528 36.396C72.372 36.396 72.336 36.432 72.336 36.432C72.324 36.516 72.612 36.9 73.224 37.356C73.284 37.404 74.664 38.376 75.48 38.28C76.02 38.22 76.5 38.016 76.992 37.752C77.256 37.608 77.532 37.452 77.796 37.308C78.108 37.14 78.456 37.032 78.768 36.852C79.824 36.252 80.616 36.516 81.516 36.3C81.816 36.228 82.104 36.12 82.344 35.952C82.788 35.652 83.112 35.16 83.628 34.908C84.168 34.596 84.84 34.632 85.464 34.596C87.108 34.512 87.96 33.24 87.96 31.896C87.96 30.552 87.108 29.28 85.464 29.196V29.124Z"  fill="currentColor"/>
<path d="M74.7961 46.176C73.6681 46.296 73.1041 47.052 72.7441 48.24C72.0601 50.436 70.7041 51 71.6881 52.236C72.6721 53.472 74.8561 54.972 75.9841 53.916C77.1001 52.86 76.2481 49.884 75.9721 48.576C75.6961 47.268 75.5281 46.104 74.8201 46.188L74.7961 46.176Z"  fill="currentColor"/>
<path d="M84.9239 50.0041C82.5959 49.7401 83.7239 48.7081 82.7039 47.7841C81.6839 46.8601 77.9879 45.7201 76.6799 46.0441C76.4279 46.1041 76.1999 46.1761 75.9719 46.2601C76.2479 46.7401 76.3799 47.4121 76.5239 48.0721C76.5479 48.2041 76.5839 48.3361 76.6079 48.4681C76.6439 48.6121 76.6799 48.7681 76.7159 48.9481C77.1119 50.6521 77.6999 53.2201 76.4399 54.4081C76.0679 54.7561 75.5999 54.9361 75.0599 54.9361C73.9919 54.9361 72.8639 54.2401 72.0359 53.5081C71.9759 53.6761 71.9159 53.8561 71.8559 54.0361C70.2239 58.4641 67.9799 59.9881 65.6759 60.6601C61.5719 61.8721 56.9759 61.4881 52.1879 60.7081C48.6119 60.1321 46.2719 60.4561 43.6559 62.3161C43.5479 62.4001 43.4399 62.4721 43.3199 62.5681C38.5559 63.7321 36.1079 62.7841 36.6599 60.6481C37.2119 58.5121 41.1839 57.5881 41.3519 58.6441C41.6279 60.4561 42.0599 59.7241 42.1439 59.4121C42.2279 59.1001 42.6599 57.8401 41.5799 56.9641C40.1279 55.7881 38.2199 55.7041 35.6399 57.1201C33.0599 58.5481 27.6359 63.3001 38.8799 65.9881C39.2159 66.0721 39.5399 66.1441 39.8639 66.2161C38.7119 68.6161 39.7559 71.7961 39.3599 74.8201C38.8919 78.3361 37.2839 83.3041 36.0359 83.8201C34.7879 84.3361 36.4679 88.2001 36.4799 91.6321C36.4799 95.0641 36.6719 94.6921 39.0479 94.9081C42.2039 95.1961 42.2279 94.3441 41.7359 92.9881C41.2319 91.6321 40.0199 91.8961 39.4559 92.0281C38.8919 92.1601 38.7479 86.4601 39.4559 85.3081C40.1519 84.1561 44.5919 79.9921 45.0479 79.0681C45.7079 77.7481 45.3959 78.2881 46.4039 76.3081C47.1719 74.7961 48.4559 73.7641 52.1639 75.1441C55.1879 76.0921 59.5679 78.5401 63.4079 78.7801C67.2479 79.0201 70.5119 78.5761 70.5119 78.5761C70.9919 81.5641 71.9639 88.1881 71.5919 90.2761C71.1119 93.0001 72.9119 92.5081 73.6679 94.0081C74.4359 95.5081 73.9559 96.1801 77.0039 95.9881C80.0519 95.7961 79.6319 95.2441 79.5959 94.3561C79.5359 93.0961 77.8799 91.5361 76.2359 92.4721C75.5759 92.8561 74.2079 90.9601 74.8919 86.0641C75.2159 83.6881 75.8759 78.9241 75.9719 75.6361C78.3239 73.5601 80.2919 70.1401 79.0679 64.7041C78.5279 62.3041 78.6359 61.2841 79.5119 59.1961C79.8599 58.3681 79.9079 56.9401 82.1879 56.6281C84.4799 56.3161 87.5999 57.5761 87.9119 53.2081C88.2239 48.8401 87.2519 50.2561 84.9359 49.9921L84.9239 50.0041Z"  fill="currentColor"/>
</svg>
