<svg width="120" height="120" viewBox="0 0 120 120" fill="none" xmlns="http://www.w3.org/2000/svg">
<rect x="0.5" y="0.5" width="119" height="119" rx="7.5" fill="currentBackgroundColor"/>
<rect x="0.5" y="0.5" width="119" height="119" rx="7.5" stroke="currentColor"/>
<path d="M74.7961 46.1759C73.6681 46.2959 73.1041 47.0519 72.7441 48.2279C72.0601 50.4239 70.7041 50.9879 71.6881 52.2239C72.6721 53.4479 74.8561 54.9599 75.9841 53.9039C77.1001 52.8479 76.2481 49.8719 75.9721 48.5639C75.6961 47.2559 75.5281 46.0919 74.8201 46.1759H74.7961Z"  fill="currentColor"/>
<path d="M84.9119 50.004C82.5959 49.74 83.7119 48.708 82.6919 47.784C81.6719 46.86 77.9759 45.732 76.6679 46.044C76.4159 46.104 76.1879 46.176 75.9599 46.26C76.2359 46.74 76.3679 47.412 76.5119 48.072C76.5359 48.204 76.5719 48.336 76.5959 48.468C76.6319 48.612 76.6679 48.768 76.7039 48.948C77.0999 50.652 77.6879 53.22 76.4279 54.408C76.0559 54.756 75.5879 54.936 75.0479 54.936C73.9799 54.936 72.8519 54.24 72.0239 53.508C71.9639 53.676 71.9039 53.856 71.8439 54.036C70.2119 58.464 67.9679 59.988 65.6759 60.66C61.5719 61.86 56.9759 61.488 52.1999 60.708C48.6239 60.132 46.2959 60.468 43.6679 62.316C43.5599 62.4 43.4519 62.472 43.3319 62.556C38.5679 63.72 36.1199 62.772 36.6719 60.636C37.2239 58.5 41.1959 57.576 41.3639 58.632C41.6399 60.444 42.0719 59.712 42.1559 59.4C42.2399 59.088 42.6719 57.828 41.5919 56.952C40.1399 55.776 38.2319 55.692 35.6519 57.108C33.0839 58.536 27.6479 63.276 38.8919 65.964C39.2279 66.048 39.5519 66.12 39.8759 66.192C38.7239 68.592 39.7679 71.772 39.3719 74.784C38.9039 78.3 37.2959 83.268 36.0479 83.784C34.7999 84.3 36.4799 88.164 36.4919 91.584C36.4919 95.016 36.6839 94.644 39.0599 94.86C42.2039 95.148 42.2399 94.296 41.7479 92.94C41.2439 91.584 40.0319 91.848 39.4679 91.98C38.9039 92.112 38.7599 86.412 39.4679 85.26C39.5399 85.14 39.6479 84.984 39.7919 84.816C42.0479 82.056 42.9719 81.48 45.0599 79.02C46.4159 77.424 46.3919 77.16 47.1359 76.716C48.6479 75.828 50.3039 76.008 51.2159 76.128C56.0159 76.764 59.2079 78.012 62.0759 78.564C63.9959 78.936 66.8279 79.2 70.4999 78.528C70.9799 81.516 71.9519 88.128 71.5799 90.228C71.0999 92.952 72.8999 92.46 73.6559 93.96C74.4239 95.46 73.9439 96.132 76.9919 95.94C80.0399 95.748 79.6199 95.196 79.5839 94.308C79.5239 93.06 77.8679 91.488 76.2359 92.436C75.5759 92.82 74.2079 90.924 74.8919 86.04C75.2159 83.676 75.8759 78.912 75.9719 75.624C78.3239 73.548 80.2919 70.128 79.0679 64.704C78.5279 62.316 78.6359 61.284 79.5119 59.196C79.8599 58.368 79.9079 56.94 82.1879 56.628C84.4799 56.316 87.5999 57.576 87.9119 53.208C88.2239 48.84 87.2519 50.256 84.9359 50.004H84.9119Z"  fill="currentColor"/>
<path d="M34.056 33.5881C34.752 33.9961 34.548 36.7921 37.344 37.8001C38.58 38.2441 39.696 38.5441 42.252 38.5081C45.552 38.4721 45.984 37.8121 48.456 37.8241C50.784 37.8241 50.22 38.4121 54.828 39.1681C58.164 39.7201 60.528 39.7561 62.46 39.6361C63.528 39.5641 64.056 39.4921 64.596 39.4081C67.152 39.0121 67.992 37.3201 70.488 36.9361C71.736 36.7441 72.156 36.8641 72.36 36.9601C72.12 36.7081 71.964 36.4561 72.048 36.2641C72.108 36.1321 72.264 36.0601 72.516 36.0601C72.696 36.0601 72.936 36.0961 73.224 36.1561C73.632 36.2521 74.004 36.3001 74.292 36.3481C74.916 36.4441 75.288 36.5041 75.468 36.7561C75.564 36.9001 75.588 37.0801 75.54 37.3321C75.528 37.4161 75.444 37.4641 75.372 37.4521C75.3 37.4401 75.24 37.3561 75.264 37.2841C75.312 37.0681 75.264 36.9841 75.24 36.9361C75.132 36.7801 74.772 36.7321 74.268 36.6481C73.98 36.6001 73.608 36.5521 73.176 36.4561C72.852 36.3841 72.648 36.3601 72.516 36.3601C72.36 36.3601 72.324 36.3961 72.324 36.3961C72.312 36.4801 72.588 36.8641 73.212 37.3201C73.272 37.3681 74.64 38.3401 75.468 38.2441C76.008 38.1841 76.5 37.9681 76.98 37.7161C77.244 37.5721 77.52 37.4161 77.784 37.2721C78.096 37.1041 78.444 36.9961 78.756 36.8161C79.812 36.2161 80.604 36.4801 81.504 36.2641C81.804 36.1921 82.092 36.0841 82.332 35.9161C82.776 35.6161 83.1 35.1241 83.616 34.8721C84.156 34.5601 84.828 34.5961 85.452 34.5601C85.716 34.5481 86.34 34.4881 86.928 34.0321C87.912 33.2881 87.948 32.1001 87.948 31.8601C87.948 31.6201 87.912 30.4321 86.928 29.6881C86.34 29.2441 85.716 29.1721 85.452 29.1601C84.84 29.1241 84.156 29.1601 83.616 28.8481C83.1 28.5841 82.776 28.0921 82.332 27.8041C82.08 27.6361 81.792 27.5281 81.504 27.4561C80.604 27.2281 79.812 27.4921 78.756 26.9041C78.444 26.7241 78.096 26.6161 77.784 26.4481C77.52 26.3041 77.244 26.1481 76.98 26.0041C76.5 25.7521 76.008 25.5361 75.468 25.4761C74.64 25.3801 73.272 26.3521 73.212 26.4001C72.588 26.8561 72.3 27.2401 72.324 27.3241C72.324 27.3241 72.36 27.3601 72.516 27.3601C72.648 27.3601 72.852 27.3361 73.176 27.2641C73.596 27.1681 73.968 27.1201 74.268 27.0721C74.772 27.0001 75.144 26.9401 75.24 26.7841C75.276 26.7361 75.3 26.6521 75.264 26.4361C75.252 26.3521 75.3 26.2801 75.372 26.2681C75.444 26.2561 75.528 26.3041 75.54 26.3881C75.588 26.6401 75.564 26.8201 75.468 26.9641C75.288 27.2161 74.916 27.2761 74.292 27.3721C74.004 27.4201 73.632 27.4681 73.224 27.5641C72.924 27.6241 72.696 27.6601 72.516 27.6601C72.252 27.6601 72.108 27.5881 72.048 27.4561C71.964 27.2641 72.12 27.0001 72.36 26.7601C72.144 26.8561 71.736 26.9761 70.488 26.7841C67.992 26.4001 67.152 24.7081 64.596 24.3121C64.056 24.2281 63.528 24.1561 62.46 24.0841C60.54 23.9641 58.164 24.0001 54.828 24.5521C50.22 25.3081 50.784 25.8841 48.456 25.8961C45.972 25.9081 45.54 25.2601 42.252 25.2121C39.696 25.1761 38.58 25.4761 37.344 25.9201C34.548 26.9281 34.764 29.7361 34.056 30.1321C33.552 30.4201 32.052 30.6601 32.052 31.8721C32.052 33.0841 33.552 33.3361 34.056 33.6121V33.5881Z"  fill="currentColor"/>
</svg>
