<svg width="120" height="120" viewBox="0 0 120 120" fill="none" xmlns="http://www.w3.org/2000/svg">
<rect x="0.5" y="0.5" width="119" height="119" rx="7.5" fill="currentBackgroundColor"/>
<rect x="0.5" y="0.5" width="119" height="119" rx="7.5" stroke="currentColor"/>
<path d="M85.6199 29.688C84.9959 29.652 84.3239 29.568 83.7839 29.256C83.2679 28.992 83.0879 28.74 82.6439 28.452C82.3919 28.284 81.8039 28.044 81.5039 27.96C80.4479 27.636 80.6039 27.66 79.3799 27.288C78.7319 27.096 78.5999 26.844 77.8679 26.52C77.3639 26.292 76.3559 26.016 75.5639 26.016C74.5439 26.016 73.3559 26.892 73.2839 26.928C72.6599 27.384 72.3719 27.768 72.3839 27.852C72.3839 27.852 72.4199 27.888 72.5759 27.888C72.7079 27.888 72.9119 27.864 73.2359 27.804C73.6679 27.72 74.0399 27.66 74.3279 27.612C74.8439 27.54 75.2039 27.48 75.3119 27.324C75.3479 27.276 75.3719 27.192 75.3359 26.976C75.3239 26.892 75.3719 26.82 75.4559 26.808C75.5399 26.796 75.6119 26.844 75.6239 26.928C75.6719 27.18 75.6479 27.36 75.5519 27.504C75.3719 27.756 74.9999 27.816 74.3759 27.912C74.0759 27.96 73.7159 28.008 73.2959 28.104C72.9959 28.164 72.7559 28.2 72.5759 28.2C72.3119 28.2 72.1679 28.128 72.0959 27.996C72.0119 27.804 72.1679 27.552 72.4079 27.3C72.1919 27.396 71.6519 27.48 70.5239 26.904C68.5799 25.92 68.4599 25.176 65.7119 24.444C62.7959 23.664 59.6879 24.096 55.0559 24.9C52.3559 25.368 49.8839 25.584 46.9079 25.416C44.3999 25.272 42.4919 24.456 38.0759 25.872C35.2319 26.784 34.5599 30.264 33.8639 30.672C33.3599 30.96 31.8479 31.2 31.8479 32.412C31.8479 33.624 33.3599 33.864 33.8639 34.152C34.5719 34.56 35.2319 38.04 38.0759 38.952C42.4919 40.368 44.3999 39.552 46.9079 39.408C49.8959 39.24 52.3559 39.456 55.0559 39.924C59.6999 40.728 62.7959 41.172 65.7119 40.38C68.4599 39.636 68.5799 38.892 70.5239 37.92C71.6639 37.344 72.2039 37.428 72.4079 37.524C72.1679 37.272 72.0119 37.02 72.0959 36.828C72.1559 36.684 72.3119 36.624 72.5759 36.624C72.7559 36.624 72.9959 36.66 73.2959 36.72C73.7159 36.804 74.0759 36.864 74.3759 36.912C74.9999 37.008 75.3839 37.068 75.5519 37.32C75.6479 37.464 75.6719 37.644 75.6239 37.896C75.6119 37.98 75.5279 38.028 75.4559 38.016C75.3719 38.004 75.3239 37.92 75.3359 37.848C75.3839 37.632 75.3359 37.548 75.3119 37.5C75.2039 37.344 74.8319 37.296 74.3279 37.212C74.0279 37.164 73.6559 37.116 73.2359 37.02C72.9119 36.948 72.6959 36.936 72.5759 36.936C72.4199 36.936 72.3839 36.972 72.3839 36.972C72.3719 37.056 72.6599 37.44 73.2839 37.896C73.3559 37.944 74.5439 38.82 75.5639 38.808C76.3559 38.808 77.3639 38.52 77.8679 38.304C78.5879 37.98 78.7199 37.728 79.3799 37.536C80.6039 37.164 80.4479 37.188 81.5039 36.864C81.8039 36.768 82.3919 36.54 82.6439 36.372C83.0879 36.072 83.2679 35.82 83.7839 35.568C84.3239 35.256 84.9959 35.172 85.6199 35.136C87.2639 35.052 88.1279 33.78 88.1279 32.448C88.1279 31.116 87.2759 29.832 85.6199 29.76V29.688Z"  fill="currentColor"/>
<path d="M74.8919 46.2601C73.7519 46.3801 73.1879 47.1361 72.8279 48.3121C72.1319 50.4961 70.7759 51.0721 71.7599 52.2961C72.7439 53.5201 74.9519 55.0201 76.0799 53.9761C77.2079 52.9201 76.3439 49.9441 76.0679 48.6481C75.7919 47.3521 75.6239 46.1761 74.9039 46.2601H74.8919Z"  fill="currentColor"/>
<path d="M85.08 50.088C82.74 49.824 83.88 48.792 82.848 47.868C81.816 46.944 78.108 45.816 76.788 46.128C76.536 46.188 76.296 46.26 76.08 46.344C76.356 46.824 76.488 47.496 76.632 48.156C76.656 48.288 76.692 48.42 76.716 48.552C76.752 48.696 76.788 48.852 76.824 49.02C77.22 50.724 77.82 53.28 76.548 54.48C76.176 54.828 75.696 55.008 75.156 55.008C74.088 55.008 72.948 54.312 72.108 53.58C72.048 53.748 71.988 53.928 71.928 54.108C70.284 58.524 68.028 60.06 65.712 60.732C61.584 61.932 58.032 61.788 53.22 61.02C49.62 60.444 46.2 60.54 43.56 62.388C43.452 62.472 43.332 62.544 43.224 62.628C38.424 63.792 35.964 62.844 36.516 60.708C37.068 58.572 41.076 57.648 41.232 58.704C41.508 60.516 41.94 59.784 42.036 59.472C42.12 59.16 42.552 57.9 41.472 57.024C40.008 55.848 38.088 55.764 35.496 57.18C32.904 58.596 27.444 63.348 38.76 66.024C39.096 66.108 39.432 66.18 39.744 66.252C38.58 68.652 39.636 71.82 39.228 74.844C38.76 78.348 37.14 83.316 35.892 83.832C34.644 84.348 36.324 88.2 36.336 91.632C36.336 95.052 36.528 94.692 38.928 94.896C42.096 95.184 42.132 94.332 41.628 92.976C41.124 91.632 39.9 91.884 39.336 92.016C38.772 92.148 38.616 86.46 39.336 85.308C40.248 83.82 41.844 82.884 43.08 81.708C44.172 80.664 45.108 79.44 45.828 78.108C46.908 76.104 47.016 75.816 47.628 75.48C49.068 74.688 50.688 76.08 53.592 77.208C57.156 78.588 60.324 78.672 62.856 78.732C68.16 78.864 70.296 76.884 70.572 78.588C71.052 81.564 72.036 88.176 71.664 90.264C71.184 92.988 72.984 92.496 73.752 93.984C74.52 95.484 74.04 96.156 77.112 95.964C80.184 95.772 79.764 95.22 79.716 94.332C79.656 93.084 77.988 91.512 76.344 92.46C75.672 92.844 74.304 90.948 74.988 86.064C75.312 83.7 76.428 79.248 76.524 75.972C76.524 75.696 77.316 74.94 77.472 74.664C77.796 74.052 78.108 73.416 78.384 72.78C78.984 71.4 79.308 69.9 79.392 68.388C79.5 66.636 79.296 64.896 78.948 63.192C78.672 61.836 79.104 60.528 79.632 59.268C79.98 58.44 80.028 57.012 82.332 56.7C84.636 56.388 87.78 57.648 88.092 53.292C88.404 48.936 87.42 50.34 85.092 50.088H85.08Z"  fill="currentColor"/>
</svg>
