<svg width="120" height="120" viewBox="0 0 120 120" fill="none" xmlns="http://www.w3.org/2000/svg">
<rect x="0.5" y="0.5" width="119" height="119" rx="7.5" fill="currentBackgroundColor"/>
<rect x="0.5" y="0.5" width="119" height="119" rx="7.5" stroke="currentColor"/>
<path d="M88.14 32.3759C88.14 31.0439 87.276 29.7599 85.632 29.6879C85.008 29.6519 84.336 29.5679 83.796 29.2559C83.28 28.9919 83.1 28.7399 82.656 28.4519C82.596 28.4159 82.512 28.3679 82.416 28.3199C82.128 28.1759 81.744 28.0319 81.516 27.9599C80.46 27.6359 80.616 27.6599 79.392 27.2879C78.744 27.0959 78.612 26.8439 77.88 26.5199C77.376 26.2919 76.368 26.0159 75.576 26.0159C74.568 26.0159 73.392 26.8679 73.308 26.9279C72.684 27.3839 72.396 27.7679 72.408 27.8519C72.408 27.8519 72.444 27.8879 72.6 27.8879C72.732 27.8879 72.936 27.8639 73.26 27.8039C73.656 27.7199 73.992 27.6719 74.28 27.6239C74.304 27.6239 74.34 27.6239 74.364 27.6119C74.388 27.6119 74.4 27.6119 74.424 27.6119C74.904 27.5399 75.24 27.4799 75.348 27.3359C75.36 27.3119 75.384 27.2759 75.384 27.2279C75.384 27.1799 75.384 27.0959 75.36 26.9879C75.348 26.9039 75.396 26.8319 75.48 26.8199C75.564 26.8079 75.636 26.8559 75.648 26.9399C75.672 27.0599 75.684 27.1679 75.672 27.2639C75.672 27.3599 75.624 27.4439 75.576 27.5039C75.492 27.6359 75.348 27.7079 75.156 27.7679C74.964 27.8279 74.712 27.8639 74.4 27.9119C74.1 27.9599 73.74 28.0079 73.32 28.1039C73.02 28.1639 72.78 28.1999 72.6 28.1999C72.336 28.1999 72.192 28.1279 72.12 27.9959C72.096 27.9479 72.096 27.8999 72.096 27.8399C72.12 27.6839 72.24 27.5039 72.408 27.3239C72.408 27.3239 72.42 27.3119 72.432 27.2999C72.432 27.2999 72.3 27.3479 72.204 27.3599C71.964 27.3959 71.556 27.3599 70.944 27.0959C70.824 27.0479 70.692 26.9879 70.548 26.9159C70.392 26.8439 70.26 26.7599 70.128 26.6879C70.128 26.6879 70.104 26.6879 70.104 26.6759C69.168 26.1479 68.688 25.6799 67.872 25.2479C67.836 25.2239 67.8 25.2119 67.764 25.1879C67.692 25.1519 67.608 25.1039 67.524 25.0679C67.092 24.8639 66.696 24.7199 66.276 24.5999C66.108 24.5519 65.94 24.5039 65.76 24.4439C65.496 24.3719 65.232 24.3239 64.956 24.2759C64.872 24.2639 64.776 24.2279 64.692 24.2159C62.916 23.9159 61.008 24.0239 58.704 24.3359C57.72 24.4319 56.664 24.5279 55.536 24.5999C54.852 24.6479 53.124 24.6719 49.68 24.7319C46.752 24.7799 44.916 24.7919 42.348 25.0679C42.324 25.0679 42.312 25.0679 42.3 25.0679C41.424 25.1039 40.428 25.2599 39.24 25.5599C38.784 25.6679 38.424 25.7759 38.124 25.8719C35.28 26.7839 34.608 30.2639 33.912 30.6719C33.396 30.9599 31.908 31.1999 31.908 32.4119C31.908 33.6239 33.42 33.8639 33.924 34.1519C34.62 34.5479 35.268 37.9079 37.992 38.8919C38.04 38.9039 38.088 38.9279 38.136 38.9519C38.436 39.0479 38.796 39.1559 39.252 39.2639C40.44 39.5759 41.436 39.7199 42.312 39.7559C42.324 39.7559 42.348 39.7559 42.36 39.7559C44.928 40.0319 46.776 40.0439 49.692 40.0919C53.136 40.1519 54.864 40.1759 55.548 40.2239C56.676 40.2959 57.72 40.3919 58.716 40.4879C61.02 40.7999 62.928 40.9079 64.704 40.6079C64.8 40.5959 64.884 40.5719 64.968 40.5479C65.232 40.4999 65.508 40.4399 65.772 40.3799C65.952 40.3319 66.132 40.2839 66.288 40.2239C66.708 40.0919 67.104 39.9599 67.536 39.7559C67.62 39.7199 67.704 39.6719 67.776 39.6359C67.812 39.6119 67.848 39.5999 67.884 39.5759C68.7 39.1439 69.18 38.6759 70.116 38.1479C70.116 38.1479 70.128 38.1479 70.14 38.1359C70.272 38.0639 70.416 37.9799 70.572 37.9079C71.712 37.3319 72.252 37.4159 72.456 37.5119C72.276 37.3199 72.144 37.1279 72.12 36.9719C72.12 36.9239 72.12 36.8759 72.144 36.8279C72.204 36.6959 72.348 36.6239 72.6 36.6239C72.6 36.6239 72.6 36.6239 72.612 36.6239C72.612 36.6239 72.612 36.6239 72.624 36.6239C72.804 36.6239 73.032 36.6599 73.32 36.7199C73.74 36.8039 74.1 36.8639 74.4 36.9119C74.712 36.9599 74.964 36.9959 75.156 37.0559C75.348 37.1159 75.492 37.1879 75.576 37.3199C75.624 37.3919 75.66 37.4759 75.672 37.5599C75.672 37.6559 75.672 37.7639 75.648 37.8839C75.636 37.9679 75.552 38.0159 75.48 38.0039C75.396 37.9919 75.348 37.9079 75.36 37.8359C75.384 37.7279 75.384 37.6559 75.384 37.5959C75.384 37.5719 75.372 37.5599 75.36 37.5479C75.36 37.5359 75.36 37.4999 75.336 37.4999C75.228 37.3559 74.868 37.2959 74.364 37.2239C74.064 37.1759 73.692 37.1279 73.272 37.0319C72.948 36.9599 72.732 36.9479 72.612 36.9479C72.456 36.9479 72.42 36.9839 72.42 36.9839C72.408 37.0679 72.696 37.4519 73.32 37.9079C73.404 37.9679 74.592 38.8199 75.588 38.8199C76.38 38.8199 77.364 38.5439 77.868 38.3279C77.868 38.3279 77.88 38.3279 77.892 38.3279C77.892 38.3279 77.904 38.3279 77.916 38.3159C78.612 38.0039 78.756 37.7519 79.392 37.5599C80.616 37.1879 80.46 37.2119 81.516 36.8879C81.816 36.8039 82.404 36.5639 82.656 36.3959C82.884 36.2519 83.04 36.1079 83.196 35.9759C83.364 35.8439 83.532 35.7119 83.796 35.5799C84.204 35.3519 84.684 35.2439 85.164 35.1839C85.32 35.1599 85.476 35.1479 85.632 35.1479C87.276 35.0639 88.14 33.7919 88.14 32.4599V32.3759Z"  fill="currentColor"/>
<path d="M74.8919 46.2601C73.7519 46.3801 73.1879 47.1361 72.8279 48.3121C72.1319 50.4961 70.7759 51.0721 71.7599 52.2961C72.7439 53.5201 74.9519 55.0201 76.0799 53.9761C77.2079 52.9201 76.3439 49.9441 76.0679 48.6481C75.7919 47.3521 75.6239 46.1761 74.9039 46.2601H74.8919Z"  fill="currentColor"/>
<path d="M85.08 50.088C82.74 49.824 83.88 48.792 82.848 47.868C81.816 46.944 78.108 45.816 76.788 46.128C76.536 46.188 76.296 46.26 76.08 46.344C76.356 46.824 76.488 47.496 76.632 48.156C76.656 48.288 76.692 48.42 76.716 48.552C76.752 48.696 76.788 48.852 76.824 49.02C77.22 50.724 77.82 53.28 76.548 54.48C76.176 54.828 75.696 55.008 75.156 55.008C74.088 55.008 72.948 54.312 72.108 53.58C72.048 53.748 71.988 53.928 71.928 54.108C70.284 58.524 68.028 60.06 65.712 60.732C61.584 61.932 58.032 61.788 53.22 61.02C49.62 60.444 46.2 60.54 43.56 62.388C43.452 62.472 43.332 62.544 43.224 62.628C38.424 63.792 35.964 62.844 36.516 60.708C37.068 58.572 41.076 57.648 41.232 58.704C41.508 60.516 41.94 59.784 42.036 59.472C42.12 59.16 42.552 57.9 41.472 57.024C40.008 55.848 38.088 55.764 35.496 57.18C32.904 58.596 27.444 63.348 38.76 66.024C39.096 66.108 39.432 66.18 39.744 66.252C38.58 68.652 39.636 71.82 39.228 74.844C38.76 78.348 37.14 83.316 35.892 83.832C34.644 84.348 36.324 88.2 36.336 91.632C36.336 95.052 36.528 94.692 38.928 94.896C42.096 95.184 42.132 94.332 41.628 92.976C41.124 91.632 39.9 91.884 39.336 92.016C38.268 92.256 37.764 88.08 39.336 85.308C40.152 83.856 40.62 84.276 44.232 80.832C45.924 79.224 46.14 78.828 47.028 78.504C48.684 77.892 50.184 78.3 52.272 78.852C52.272 78.852 55.764 79.776 60.48 80.328C62.736 80.592 66.06 80.724 69.888 79.884C70.164 79.824 70.44 79.932 70.488 80.208C71.016 83.28 71.604 86.364 71.748 89.484C71.88 92.352 72.636 91.788 73.764 93.996C74.532 95.496 74.052 96.168 77.124 95.976C80.196 95.784 79.776 95.232 79.728 94.344C79.668 93.096 78 91.524 76.356 92.472C75.684 92.856 74.316 90.96 75 86.076C76.26 81.468 76.704 79.776 76.8 76.5C79.416 73.26 80.148 68.772 79.2 64.764C79.02 64.02 78.768 63.096 78.9 61.812C78.984 61.02 79.224 60.264 79.656 59.256C80.004 58.428 80.052 57 82.356 56.688C84.66 56.376 87.804 57.636 88.116 53.28C88.2 52.128 88.5 50.892 87.744 50.22C86.844 49.428 85.272 50.028 85.128 50.088H85.08Z"  fill="currentColor"/>
</svg>
