<svg width="120" height="120" viewBox="0 0 120 120" fill="none" xmlns="http://www.w3.org/2000/svg">
<rect x="0.5" y="0.5" width="119" height="119" rx="7.5" fill="currentBackgroundColor"/>
<rect x="0.5" y="0.5" width="119" height="119" rx="7.5" stroke="currentColor"/>
<path d="M84.984 30.9599C84.384 30.9239 83.772 30.5639 83.4 30.3719C81.708 29.4359 79.632 28.4039 77.796 27.7679C77.172 27.5639 75.96 27.3599 75.192 27.3719C73.776 27.4079 73.044 28.2239 72.972 28.2599C72.36 28.7039 72.084 29.0759 72.096 29.1599C72.096 29.1599 72.132 29.1959 72.288 29.1959C72.408 29.1959 72.612 29.1719 72.936 29.1119C73.356 29.0279 73.716 28.9679 74.004 28.9319C74.496 28.8599 74.856 28.7999 74.964 28.6559C75 28.6079 75.024 28.5359 74.988 28.3199C74.976 28.2479 75.024 28.1639 75.096 28.1519C75.168 28.1399 75.252 28.1879 75.264 28.2599C75.312 28.4999 75.288 28.6799 75.192 28.8119C75.024 29.0519 74.652 29.1119 74.04 29.2079C73.752 29.2559 73.392 29.3039 72.996 29.3879C72.708 29.4479 72.48 29.4839 72.3 29.4839C72.048 29.4839 71.892 29.4119 71.832 29.2799C71.748 29.0999 71.904 28.8479 72.132 28.5959C71.928 28.6919 70.908 28.5359 70.512 28.0679C69.84 27.2879 68.628 25.9679 65.952 25.2479C63.108 24.4799 56.988 23.5799 49.536 24.1679C46.8 24.3839 43.2 25.0079 38.664 27.1919C36.048 28.4519 35.244 31.4639 34.56 31.8599C34.068 32.1359 32.592 32.3759 32.592 33.5519C32.592 34.7279 34.068 34.9679 34.56 35.2439C35.244 35.6399 36.048 38.6519 38.664 39.9119C43.2 42.0959 46.8 42.7199 49.536 42.9359C56.988 43.5239 63.108 42.6239 65.952 41.8559C68.64 41.1359 69.852 39.8159 70.512 39.0359C70.908 38.5679 71.928 38.4239 72.132 38.5079C71.904 38.2679 71.748 38.0159 71.832 37.8239C71.892 37.6919 72.036 37.6199 72.3 37.6199C72.48 37.6199 72.708 37.6559 72.996 37.7159C73.404 37.7999 73.764 37.8599 74.04 37.8959C74.652 37.9919 75.024 38.0399 75.192 38.2919C75.288 38.4359 75.312 38.6039 75.264 38.8439C75.252 38.9159 75.168 38.9639 75.096 38.9519C75.024 38.9399 74.964 38.8559 74.988 38.7839C75.036 38.5799 74.988 38.4959 74.964 38.4479C74.856 38.3039 74.496 38.2439 74.004 38.1719C73.716 38.1239 73.356 38.0759 72.936 37.9919C72.612 37.9199 72.42 37.9079 72.288 37.9079C72.132 37.9079 72.096 37.9439 72.096 37.9439C72.084 38.0279 72.36 38.3999 72.972 38.8439C73.032 38.8919 73.776 39.7079 75.192 39.7319C75.972 39.7439 77.172 39.5399 77.796 39.3359C79.632 38.7119 81.708 37.6799 83.4 36.7319C83.772 36.5279 84.384 36.1799 84.984 36.1439C86.592 36.0719 87.432 34.8239 87.432 33.5279C87.432 32.2319 86.592 30.9839 84.984 30.9119V30.9599Z"  fill="currentColor"/>
<path d="M74.5079 47.568C73.4039 47.688 72.8519 48.42 72.4919 49.572C71.8199 51.708 70.4879 52.26 71.4479 53.448C72.4079 54.648 74.5559 56.1 75.6599 55.08C76.7639 54.048 75.9119 51.156 75.6479 49.884C75.3719 48.612 75.2159 47.484 74.5199 47.556L74.5079 47.568Z"  fill="currentColor"/>
<path d="M84.4439 51.288C82.1639 51.036 83.2679 50.028 82.2599 49.128C81.2519 48.228 77.6399 47.124 76.3559 47.436C76.1039 47.496 75.8879 47.568 75.6599 47.64C75.9239 48.108 76.0679 48.756 76.1999 49.404C76.2239 49.524 76.2599 49.656 76.2839 49.788C76.3199 49.932 76.3559 50.076 76.3919 50.244C76.7759 51.9 77.3639 54.396 76.1159 55.56C75.7559 55.896 75.2879 56.076 74.7599 56.076C73.7159 56.076 72.5999 55.404 71.7959 54.684C71.7359 54.852 71.6759 55.02 71.6159 55.188C70.0079 59.484 67.2719 60.204 65.0279 60.864C60.9959 62.04 57.3959 61.572 52.0319 61.284C48.4919 61.092 46.5479 61.44 43.9799 63.24C43.8719 63.312 43.7639 63.396 43.6559 63.48C38.9879 64.608 36.5879 63.684 37.1279 61.608C37.6679 59.532 41.5679 58.632 41.7239 59.664C41.9999 61.428 42.4199 60.72 42.5039 60.408C42.5879 60.096 43.0079 58.872 41.9519 58.032C40.5239 56.892 38.6519 56.808 36.1319 58.188C33.6119 59.568 28.2839 64.188 39.3119 66.804C39.6479 66.876 39.9599 66.96 40.2719 67.02C39.1439 69.348 39.2879 72.792 38.8919 75.732C38.5559 78.228 37.4399 81.576 36.8639 83.184C36.6359 83.82 36.5519 84.48 36.6119 85.152C36.7319 86.616 36.9479 89.388 36.9599 91.716C36.9599 95.052 37.1519 94.692 39.4799 94.896C42.5759 95.172 42.5999 94.344 42.1079 93.024C41.9639 92.628 41.7479 92.364 41.4959 92.208C40.8599 91.8 40.2719 92.328 39.8639 92.088C39.0959 91.632 39.2999 88.608 41.0999 86.448C42.0839 85.272 42.5279 85.656 44.4839 84C46.4039 82.368 46.4399 81.624 47.6039 81.168C48.9959 80.628 50.1479 81.204 52.0679 81.78C52.0679 81.78 55.6439 82.86 61.1639 83.004C62.9639 83.052 65.5439 82.908 68.7239 81.972C70.1639 84.372 70.5839 86.376 70.6919 87.816C70.8239 89.604 70.4879 91.044 71.5319 92.16C72.1319 92.808 72.8639 92.916 73.4159 93.996C74.1719 95.448 73.6919 96.108 76.6799 95.928C79.6679 95.748 79.2599 95.208 79.2239 94.344C79.1639 93.12 77.5439 91.596 75.9359 92.52C75.2879 92.892 73.9439 91.056 74.6159 86.292C74.9399 83.988 75.6239 81.792 75.7199 78.6C77.5319 77.076 78.3239 75.24 78.7319 74.268C79.9559 71.34 79.6919 67.86 79.6079 66.636C79.5959 66.468 79.5479 65.904 79.5479 65.124C79.5479 64.44 79.5479 63.636 79.7279 62.676C79.8599 61.92 79.9679 61.32 80.3159 60.636C80.5559 60.168 81.0599 59.34 82.1279 58.596C82.4399 58.632 84.8519 58.836 86.3279 57.144C87.1079 56.244 87.3479 55.224 87.4079 54.372C87.4919 53.16 87.7559 52.02 87.0359 51.384C86.1599 50.616 84.6239 51.192 84.4799 51.252L84.4439 51.288Z"  fill="currentColor"/>
</svg>
