<svg width="160" height="23" viewBox="0 0 160 23" fill="none" xmlns="http://www.w3.org/2000/svg">
<g clip-path="url(#clip0_2070_4654)">
<path d="M93.6696 5.88092C93.6696 6.75895 92.6448 7.47132 91.3817 7.47132C90.1185 7.47132 89.0938 6.75895 89.0938 5.88092C89.0938 5.00289 90.1185 4.29053 91.3817 4.29053C92.6448 4.29053 93.6696 5.00289 93.6696 5.88092Z" fill="#68A5FE"/>
<path d="M112.088 1.2425C111.061 -0.132528 109.121 -0.408638 107.756 0.626776L99.6267 6.78956L99.265 7.06567C98.6458 8.70577 97.1552 11.442 94.259 10.8622C93.4617 10.702 92.5602 10.2962 91.5409 9.54514C90.3381 10.4315 89.2996 10.8401 88.4064 10.9257C84.8224 11.2681 83.5675 6.38644 83.4634 5.94466L83.4524 5.93362L83.1346 5.61333C81.9262 4.39568 79.9671 4.39568 78.7588 5.61333C77.5505 6.83098 77.5505 8.80517 78.7588 10.0228L82.4277 13.7199L82.7017 13.996L88.4091 19.7474C89.0092 20.3521 89.801 20.6614 90.5984 20.6614C91.2505 20.6614 91.9026 20.4543 92.4561 20.0346L111.477 5.61057C112.842 4.57516 113.116 2.62029 112.088 1.24526" fill="#68A5FE"/>
<path d="M127.139 17.3121V20.6586H118.204V6.10756H121.755V17.3121H127.139Z" fill="#68A5FE"/>
<path d="M128.81 7.16783C128.81 6.1904 129.594 5.40073 130.564 5.40073C131.534 5.40073 132.318 6.19316 132.318 7.16783C132.318 8.1425 131.531 8.95703 130.564 8.95703C129.597 8.95703 128.81 8.14526 128.81 7.16783ZM128.89 10.1195H132.233V20.6586H128.89V10.1195Z" fill="#68A5FE"/>
<path d="M138.628 10.1194H140.669V12.9026H138.628V20.6586H135.266V12.9026H133.989V10.1194H135.266C135.266 8.16458 135.926 5.58571 139.228 5.58571C139.866 5.58571 140.28 5.66854 140.672 5.73205V8.4545C140.527 8.43241 140.302 8.41308 140.055 8.41308C138.962 8.41308 138.631 9.015 138.631 10.1167" fill="#68A5FE"/>
<path d="M152.41 16.4175H144.858C145.209 17.6434 146.198 18.2067 147.478 18.2067C148.552 18.2067 149.292 17.6876 149.623 17.2928L151.977 18.7065C151.13 20.0152 149.522 20.9291 147.481 20.9291C143.952 20.9291 141.601 18.6844 141.601 15.3987C141.601 12.1129 144.015 9.86816 147.007 9.86816C149.999 9.86816 152.824 11.9887 152.413 16.4175M149.377 14.3798C149.13 13.1539 148.262 12.5934 147.108 12.5934C146.056 12.5934 145.168 13.2174 144.858 14.3798H149.377Z" fill="#68A5FE"/>
<path d="M157.936 12.9055V16.2326C157.936 17.3343 158.328 17.8948 159.361 17.8948C159.63 17.8948 159.835 17.8534 160 17.8341V20.6614C159.649 20.7857 159.216 20.8492 158.556 20.8492C155.336 20.8492 154.593 18.6458 154.593 16.5861V12.9055H153.292V10.1223H154.593V7.91895H157.934V10.1223H159.997V12.9055H157.934H157.936Z" fill="#68A5FE"/>
<path d="M0 11.0914H3.46337C5.57866 11.0914 6.7048 12.3863 6.71028 14.1727C6.7048 15.9509 5.56496 17.2403 3.43871 17.2403H1.65496V20.3852H0V11.0941V11.0914ZM3.20855 15.8653C4.45525 15.8598 5.01695 15.1529 5.01695 14.1727C5.01695 13.1926 4.45799 12.4912 3.20855 12.4912H1.65496V15.8653H3.20855Z" fill="#757575"/>
<path d="M7.57613 16.9311C7.57613 14.7636 8.86941 13.3251 10.8861 13.3251C12.9027 13.3251 14.2042 14.7636 14.196 16.9311C14.2015 19.082 12.9109 20.5233 10.8861 20.5233C8.86119 20.5233 7.57613 19.0792 7.57613 16.9311ZM10.8998 19.2145C12.0067 19.2145 12.5629 18.1929 12.5547 16.9173C12.5602 15.6417 12.0067 14.6145 10.8998 14.62C9.77361 14.6145 9.21739 15.6417 9.21739 16.9173C9.21739 18.1929 9.77087 19.2145 10.8998 19.2145Z" fill="#757575"/>
<path d="M14.744 13.4135H16.399L17.621 18.3144H17.684L18.9198 13.4135H20.5638L21.8132 18.2896H21.8762L23.0873 13.4135H24.7423L22.7804 20.3825H21.0871L19.7883 15.661H19.6979L18.3992 20.3825H16.7058L14.744 13.4135Z" fill="#757575"/>
<path d="M25.2848 16.9421C25.2848 14.7857 26.5835 13.3223 28.5564 13.3223C30.2497 13.3223 31.7156 14.3936 31.7156 16.84V17.3535H26.8877C26.9123 18.5408 27.6083 19.2477 28.6577 19.2394C29.3701 19.2449 29.8496 18.9384 30.0579 18.5215H31.6498C31.3566 19.7281 30.2497 20.5233 28.644 20.5233C26.5616 20.5233 25.282 19.1234 25.282 16.9421H25.2848ZM30.162 16.2381C30.1565 15.2882 29.5181 14.5952 28.5838 14.5952C27.6494 14.5952 26.9535 15.3517 26.8959 16.2381H30.162Z" fill="#757575"/>
<path d="M32.9736 13.4132H34.5519V14.5674H34.6286C34.8779 13.7639 35.5383 13.3111 36.3356 13.3111C36.5137 13.3111 36.7685 13.3304 36.922 13.3497V14.8628C36.7768 14.8104 36.437 14.7662 36.1712 14.7607C35.267 14.7662 34.6039 15.3957 34.6039 16.2737V20.3795H32.9736V13.4105V13.4132Z" fill="#757575"/>
<path d="M37.3737 16.9421C37.3737 14.7857 38.6725 13.3223 40.6453 13.3223C42.3386 13.3223 43.8045 14.3936 43.8045 16.84V17.3535H38.9766C39.0013 18.5408 39.6972 19.2477 40.7467 19.2394C41.4591 19.2449 41.9386 18.9384 42.1468 18.5215H43.7388C43.4456 19.7281 42.3386 20.5233 40.733 20.5233C38.6506 20.5233 37.371 19.1234 37.371 16.9421H37.3737ZM42.2509 16.2381C42.2454 15.2882 41.607 14.5952 40.6727 14.5952C39.7383 14.5952 39.0424 15.3517 38.9848 16.2381H42.2509Z" fill="#757575"/>
<path d="M44.783 16.9062C44.783 14.5842 46.0434 13.3251 47.6491 13.3251C48.8656 13.3251 49.3753 14.0623 49.6219 14.5565H49.6849V11.0914H51.3015V20.3825H49.7095V19.278H49.6191C49.3588 19.7916 48.83 20.504 47.6326 20.5095C46.0078 20.504 44.7803 19.1952 44.7803 16.9035L44.783 16.9062ZM48.082 19.1648C49.1314 19.1648 49.726 18.2537 49.726 16.8924C49.726 15.5312 49.1396 14.667 48.082 14.6587C46.9997 14.6642 46.438 15.5947 46.438 16.8924C46.438 18.1902 47.0106 19.1648 48.082 19.1648Z" fill="#757575"/>
<path d="M56.1154 11.0914H57.7457V14.5565H57.8087C58.058 14.0623 58.5594 13.3251 59.7815 13.3251C61.3789 13.3251 62.6393 14.5842 62.6475 16.9062C62.6421 19.198 61.4173 20.5067 59.7952 20.5122C58.5978 20.5067 58.0635 19.7944 57.8087 19.2808H57.7073V20.3852H56.1154V11.0941V11.0914ZM59.3376 19.1648C60.4199 19.1648 60.9871 18.2095 60.9926 16.8924C60.9871 15.5975 60.4336 14.667 59.3376 14.6587C58.2882 14.6642 57.7073 15.5367 57.7073 16.8924C57.7073 18.2481 58.2991 19.1648 59.3376 19.1648Z" fill="#757575"/>
<path d="M63.8225 22.9615V21.6528C64.0198 21.6721 64.2938 21.6721 64.5103 21.6776C64.9048 21.6721 65.2364 21.6445 65.5158 20.8962L65.6556 20.5235L63.1348 13.4136H64.8528L66.4584 18.6763H66.5351L68.1408 13.4136H69.8587L67.0831 21.2275C66.6886 22.3375 65.9625 22.9919 64.6637 22.9974C64.3376 22.9919 64.0335 22.9836 63.8225 22.9588V22.9615Z" fill="#757575"/>
</g>
<defs>
<clipPath id="clip0_2070_4654">
<rect width="160" height="23" fill="white"/>
</clipPath>
</defs>
</svg>
