<svg width="100" height="14" viewBox="0 0 100 14" fill="none" xmlns="http://www.w3.org/2000/svg">
<g opacity="0.3" clip-path="url(#clip0_2070_5210)">
<path d="M58.5435 3.57988C58.5435 4.11434 57.903 4.54795 57.1135 4.54795C56.3241 4.54795 55.6836 4.11434 55.6836 3.57988C55.6836 3.04543 56.3241 2.61182 57.1135 2.61182C57.903 2.61182 58.5435 3.04543 58.5435 3.57988Z" fill="#68A5FE"/>
<path d="M70.0552 0.756334C69.413 -0.0806412 68.2005 -0.248708 67.3477 0.381544L62.2667 4.1328L62.0406 4.30087C61.6536 5.29919 60.722 6.96474 58.9119 6.6118C58.4135 6.51432 57.8501 6.26726 57.2131 5.81012C56.4613 6.34961 55.8123 6.59835 55.254 6.65045C53.014 6.85886 52.2297 3.88743 52.1646 3.61852L52.1578 3.6118L51.9591 3.41684C51.2039 2.67566 49.9795 2.67566 49.2242 3.41684C48.469 4.15801 48.469 5.3597 49.2242 6.10087L51.5173 8.35129L51.6885 8.51936L55.2557 12.0202C55.6307 12.3883 56.1256 12.5765 56.624 12.5765C57.0316 12.5765 57.4391 12.4505 57.7851 12.195L69.6733 3.41516C70.5261 2.7849 70.6973 1.59499 70.0552 0.758014" fill="#68A5FE"/>
<path d="M79.4619 10.5377V12.5747H73.8774V3.71753H76.0968V10.5377H79.4619Z" fill="#68A5FE"/>
<path d="M80.5066 4.36274C80.5066 3.76778 80.9964 3.28711 81.6026 3.28711C82.2088 3.28711 82.6986 3.76946 82.6986 4.36274C82.6986 4.95602 82.2071 5.45181 81.6026 5.45181C80.9981 5.45181 80.5066 4.9577 80.5066 4.36274ZM80.5563 6.15938H82.6455V12.5745H80.5563V6.15938Z" fill="#68A5FE"/>
<path d="M86.6424 6.15957H87.9183V7.85368H86.6424V12.5747H84.5412V7.85368H83.7432V6.15957H84.5412C84.5412 4.96965 84.9539 3.3999 87.0175 3.3999C87.4165 3.3999 87.6751 3.45032 87.92 3.48898V5.14612C87.8292 5.13268 87.6888 5.12091 87.5346 5.12091C86.8514 5.12091 86.6441 5.4873 86.6441 6.15789" fill="#68A5FE"/>
<path d="M95.2562 9.99315H90.5365C90.7557 10.7394 91.374 11.0822 92.1737 11.0822C92.845 11.0822 93.3074 10.7663 93.5146 10.5259L94.9856 11.3864C94.4565 12.1831 93.4512 12.7394 92.1754 12.7394C89.9697 12.7394 88.5004 11.373 88.5004 9.37298C88.5004 7.37298 90.0091 6.00659 91.8791 6.00659C93.7492 6.00659 95.5148 7.29735 95.2579 9.99315M93.3605 8.75281C93.2063 8.00659 92.6635 7.66542 91.9425 7.66542C91.2849 7.66542 90.73 8.04525 90.5365 8.75281H93.3605Z" fill="#68A5FE"/>
<path d="M98.7102 7.85561V9.88082C98.7102 10.5514 98.9551 10.8926 99.6007 10.8926C99.7685 10.8926 99.897 10.8674 99.9997 10.8556V12.5766C99.7805 12.6522 99.5099 12.6909 99.0972 12.6909C97.085 12.6909 96.6209 11.3497 96.6209 10.0959V7.85561H95.8075V6.16149H96.6209V4.82031H98.7085V6.16149H99.998V7.85561H98.7085H98.7102Z" fill="#68A5FE"/>
<path d="M0 6.75146H2.16461C3.48666 6.75146 4.1905 7.5397 4.19392 8.6271C4.1905 9.70945 3.4781 10.4943 2.14919 10.4943H1.03435V12.4086H0V6.75315V6.75146ZM2.00534 9.65735C2.78453 9.65399 3.1356 9.22373 3.1356 8.6271C3.1356 8.03046 2.78625 7.60357 2.00534 7.60357H1.03435V9.65735H2.00534Z" fill="#757575"/>
<path d="M4.73511 10.3058C4.73511 8.98647 5.54341 8.11084 6.80381 8.11084C8.06422 8.11084 8.87766 8.98647 8.87252 10.3058C8.87594 11.615 8.06935 12.4924 6.80381 12.4924C5.53827 12.4924 4.73511 11.6134 4.73511 10.3058ZM6.81238 11.6957C7.50423 11.6957 7.85187 11.0739 7.84673 10.2974C7.85015 9.52092 7.50423 8.89571 6.81238 8.89908C6.10854 8.89571 5.7609 9.52092 5.7609 10.2974C5.7609 11.0739 6.10682 11.6957 6.81238 11.6957Z" fill="#757575"/>
<path d="M9.21497 8.16479H10.2493L11.0131 11.148H11.0525L11.8248 8.16479H12.8523L13.6332 11.1329H13.6726L14.4295 8.16479H15.4639L14.2377 12.4068H13.1794L12.3677 9.53286H12.3112L11.4994 12.4068H10.4411L9.21497 8.16479Z" fill="#757575"/>
<path d="M15.8031 10.313C15.8031 9.00038 16.6148 8.10962 17.8478 8.10962C18.9062 8.10962 19.8224 8.76172 19.8224 10.2508V10.5634H16.8049C16.8203 11.2861 17.2553 11.7163 17.9112 11.7113C18.3564 11.7147 18.6561 11.5281 18.7863 11.2743H19.7813C19.598 12.0088 18.9062 12.4928 17.9026 12.4928C16.6011 12.4928 15.8014 11.6407 15.8014 10.313H15.8031ZM18.8514 9.88441C18.8479 9.30626 18.4489 8.88441 17.865 8.88441C17.281 8.88441 16.846 9.34491 16.8101 9.88441H18.8514Z" fill="#757575"/>
<path d="M20.6085 8.16472H21.5949V8.86724H21.6429C21.7987 8.37817 22.2114 8.10254 22.7098 8.10254C22.8211 8.10254 22.9803 8.1143 23.0762 8.12607V9.04708C22.9855 9.01514 22.7731 8.98825 22.607 8.98489C22.0419 8.98825 21.6275 9.37145 21.6275 9.9059V12.4051H20.6085V8.16304V8.16472Z" fill="#757575"/>
<path d="M23.3586 10.313C23.3586 9.00038 24.1704 8.10962 25.4034 8.10962C26.4617 8.10962 27.3779 8.76172 27.3779 10.2508V10.5634H24.3605C24.3759 11.2861 24.8109 11.7163 25.4667 11.7113C25.912 11.7147 26.2117 11.5281 26.3418 11.2743H27.3368C27.1536 12.0088 26.4617 12.4928 25.4582 12.4928C24.1567 12.4928 23.3569 11.6407 23.3569 10.313H23.3586ZM26.4069 9.88441C26.4035 9.30626 26.0045 8.88441 25.4205 8.88441C24.8365 8.88441 24.4016 9.34491 24.3656 9.88441H26.4069Z" fill="#757575"/>
<path d="M27.9894 10.291C27.9894 8.87752 28.7771 8.11113 29.7807 8.11113C30.541 8.11113 30.8595 8.55987 31.0137 8.86071H31.0531V6.75146H32.0634V12.4069H31.0685V11.7347H31.012C30.8493 12.0473 30.5188 12.4809 29.7704 12.4842C28.7549 12.4809 27.9877 11.6842 27.9877 10.2893L27.9894 10.291ZM30.0512 11.6658C30.7071 11.6658 31.0787 11.1111 31.0787 10.2826C31.0787 9.45399 30.7123 8.92794 30.0512 8.92289C29.3748 8.92625 29.0237 9.49264 29.0237 10.2826C29.0237 11.0725 29.3817 11.6658 30.0512 11.6658Z" fill="#757575"/>
<path d="M35.0721 6.75146H36.0911V8.86071H36.1305C36.2863 8.55987 36.5997 8.11113 37.3635 8.11113C38.3619 8.11113 39.1496 8.87752 39.1548 10.291C39.1513 11.6859 38.3858 12.4826 37.372 12.4859C36.6237 12.4826 36.2897 12.0489 36.1305 11.7363H36.0671V12.4086H35.0721V6.75315V6.75146ZM37.086 11.6658C37.7625 11.6658 38.117 11.0842 38.1204 10.2826C38.117 9.49432 37.7711 8.92794 37.086 8.92289C36.4302 8.92625 36.0671 9.45735 36.0671 10.2826C36.0671 11.1078 36.437 11.6658 37.086 11.6658Z" fill="#757575"/>
<path d="M39.8891 13.9768V13.1802C40.0124 13.1919 40.1836 13.1919 40.3189 13.1953C40.5655 13.1919 40.7727 13.1751 40.9474 12.7197L41.0347 12.4928L39.4592 8.16504H40.533L41.5365 11.3684H41.5844L42.588 8.16504H43.6617L41.9269 12.9213C41.6803 13.597 41.2265 13.9953 40.4148 13.9987C40.211 13.9953 40.0209 13.9902 39.8891 13.9751V13.9768Z" fill="#757575"/>
</g>
<defs>
<clipPath id="clip0_2070_5210">
<rect width="100" height="14" fill="white"/>
</clipPath>
</defs>
</svg>
