<svg width="24" height="24" viewBox="0 0 24 24" fill="none" xmlns="http://www.w3.org/2000/svg">
<path d="M11.904 22.4056C12.6384 22.4056 13.2337 21.8102 13.2337 21.0758C13.2337 20.3414 12.6384 19.7461 11.904 19.7461C11.1696 19.7461 10.5742 20.3414 10.5742 21.0758C10.5742 21.8102 11.1696 22.4056 11.904 22.4056Z" fill="url(#paint0_radial_5_526)"/>
<path d="M13.5389 16.6289H10.3281C9.81036 16.6289 9.39062 17.0486 9.39062 17.5664V20.7307C9.39062 21.2484 9.81036 21.6682 10.3281 21.6682H13.5389C14.0566 21.6682 14.4764 21.2484 14.4764 20.7307V17.5664C14.4764 17.0486 14.0566 16.6289 13.5389 16.6289Z" fill="url(#paint1_linear_5_526)"/>
<path d="M13.5389 16.6289H10.3281C9.81036 16.6289 9.39062 17.0486 9.39062 17.5664V20.7307C9.39062 21.2484 9.81036 21.6682 10.3281 21.6682H13.5389C14.0566 21.6682 14.4764 21.2484 14.4764 20.7307V17.5664C14.4764 17.0486 14.0566 16.6289 13.5389 16.6289Z" fill="url(#paint2_linear_5_526)"/>
<path d="M13.5389 16.6289H10.3281C9.81036 16.6289 9.39062 17.0486 9.39062 17.5664V20.7307C9.39062 21.2484 9.81036 21.6682 10.3281 21.6682H13.5389C14.0566 21.6682 14.4764 21.2484 14.4764 20.7307V17.5664C14.4764 17.0486 14.0566 16.6289 13.5389 16.6289Z" fill="url(#paint3_radial_5_526)"/>
<path d="M13.5389 16.6289H10.3281C9.81036 16.6289 9.39062 17.0486 9.39062 17.5664V20.7307C9.39062 21.2484 9.81036 21.6682 10.3281 21.6682H13.5389C14.0566 21.6682 14.4764 21.2484 14.4764 20.7307V17.5664C14.4764 17.0486 14.0566 16.6289 13.5389 16.6289Z" fill="url(#paint4_linear_5_526)"/>
<g filter="url(#filter0_i_5_526)">
<path d="M11.8274 17.2263H11.8679C12.2849 17.2241 13.2434 17.2083 13.6281 17.1386C14.0406 17.0636 14.0939 16.8573 14.1674 16.5348C14.6189 14.5443 15.3764 13.7793 15.8834 13.2678C15.9619 13.1893 16.0334 13.1153 16.0979 13.0458C16.3176 12.8043 16.5081 12.5913 16.6529 12.4271C17.5193 11.5071 18.0982 10.354 18.3182 9.10953C18.5383 7.86505 18.39 6.58339 17.8915 5.42205C17.3931 4.26071 16.5662 3.27028 15.5126 2.57248C14.4589 1.87468 13.2243 1.4999 11.9606 1.49421C10.6968 1.48851 9.45888 1.85214 8.39896 2.54041C7.33904 3.22869 6.50328 4.21162 5.99439 5.36842C5.4855 6.52522 5.32565 7.80548 5.53448 9.0519C5.74331 10.2983 6.31172 11.4566 7.16987 12.3843C7.31987 12.5538 7.52387 12.7826 7.76387 13.0458C7.83317 13.1219 7.90471 13.1959 7.97837 13.2678C8.48462 13.7793 9.24287 14.5451 9.69437 16.5348C9.76787 16.8573 9.82112 17.0636 10.2336 17.1386C10.6169 17.2083 11.3931 17.2241 11.7861 17.2256L11.8274 17.2263Z" fill="url(#paint5_radial_5_526)"/>
<path d="M11.8274 17.2263H11.8679C12.2849 17.2241 13.2434 17.2083 13.6281 17.1386C14.0406 17.0636 14.0939 16.8573 14.1674 16.5348C14.6189 14.5443 15.3764 13.7793 15.8834 13.2678C15.9619 13.1893 16.0334 13.1153 16.0979 13.0458C16.3176 12.8043 16.5081 12.5913 16.6529 12.4271C17.5193 11.5071 18.0982 10.354 18.3182 9.10953C18.5383 7.86505 18.39 6.58339 17.8915 5.42205C17.3931 4.26071 16.5662 3.27028 15.5126 2.57248C14.4589 1.87468 13.2243 1.4999 11.9606 1.49421C10.6968 1.48851 9.45888 1.85214 8.39896 2.54041C7.33904 3.22869 6.50328 4.21162 5.99439 5.36842C5.4855 6.52522 5.32565 7.80548 5.53448 9.0519C5.74331 10.2983 6.31172 11.4566 7.16987 12.3843C7.31987 12.5538 7.52387 12.7826 7.76387 13.0458C7.83317 13.1219 7.90471 13.1959 7.97837 13.2678C8.48462 13.7793 9.24287 14.5451 9.69437 16.5348C9.76787 16.8573 9.82112 17.0636 10.2336 17.1386C10.6169 17.2083 11.3931 17.2241 11.7861 17.2256L11.8274 17.2263Z" fill="url(#paint6_radial_5_526)"/>
</g>
<path d="M13.0976 7.71075C14.4761 7.71075 15.5936 6.59325 15.5936 5.21475C15.5936 3.83625 14.4761 2.71875 13.0976 2.71875C11.7191 2.71875 10.6016 3.83625 10.6016 5.21475C10.6016 6.59325 11.7191 7.71075 13.0976 7.71075Z" fill="url(#paint7_linear_5_526)"/>
<g filter="url(#filter1_i_5_526)">
<path d="M11.6103 17.2242C11.5841 15.5952 11.4543 14.5227 11.2563 13.7757C11.0291 12.9155 10.7103 12.4857 10.3728 12.146L10.3691 12.1415L10.3646 12.1377C10.0391 11.8299 9.81356 11.4315 9.71703 10.9941C9.62049 10.5567 9.65744 10.1004 9.82308 9.68421C9.98873 9.26802 10.2755 8.91112 10.6462 8.65967C11.0169 8.40823 11.4545 8.27381 11.9024 8.27381C12.3504 8.27381 12.788 8.40823 13.1587 8.65967C13.5294 8.91112 13.8161 9.26802 13.9818 9.68421C14.1474 10.1004 14.1844 10.5567 14.0878 10.9941C13.9913 11.4315 13.7657 11.8299 13.4403 12.1377L13.4358 12.1415L13.4313 12.146C13.1006 12.4805 12.7773 12.881 12.5471 13.7345C12.3476 14.4732 12.2171 15.5495 12.1908 17.2227C12.4173 17.219 12.6881 17.2122 12.9416 17.2002C12.9686 15.5742 13.0961 14.5782 13.2716 13.9302C13.4606 13.2275 13.7043 12.9365 13.9601 12.6777C14.3932 12.2662 14.6931 11.7342 14.8209 11.1506C14.9487 10.5669 14.8986 9.95834 14.677 9.40345C14.4555 8.84855 14.0727 8.37282 13.578 8.03769C13.0833 7.70257 12.4996 7.52344 11.9021 7.52344C11.3046 7.52344 10.7208 7.70257 10.2261 8.03769C9.73148 8.37282 9.34865 8.84855 9.12709 9.40345C8.90553 9.95834 8.85542 10.5669 8.98322 11.1506C9.11103 11.7342 9.41088 12.2662 9.84406 12.6777C10.0938 12.9305 10.3406 13.2462 10.5318 13.9677C10.7058 14.627 10.8318 15.6207 10.8596 17.2002C11.1198 17.2152 11.3936 17.2212 11.6096 17.2242" fill="#FFAD55"/>
</g>
<g filter="url(#filter2_f_5_526)">
<path d="M12.6629 17.0532C12.6629 13.475 13.2111 12.9035 13.7991 12.3102C14.1791 11.9509 14.4425 11.4857 14.5552 10.975C14.6679 10.4643 14.6248 9.93152 14.4314 9.44559C14.238 8.95966 13.9033 8.54294 13.4704 8.24936C13.0376 7.95577 12.5266 7.79883 12.0036 7.79883C11.4806 7.79883 10.9697 7.95577 10.5368 8.24936C10.104 8.54294 9.76923 8.95966 9.57584 9.44559C9.38244 9.93152 9.33932 10.4643 9.45204 10.975C9.56477 11.4857 9.82815 11.9509 10.2081 12.3102C10.7961 12.9035 11.3414 13.931 11.3414 17.0532" stroke="url(#paint8_linear_5_526)" stroke-width="0.1875"/>
</g>
<g filter="url(#filter3_f_5_526)">
<path d="M13.9745 18.1132L9.72063 18.7797C9.5017 18.814 9.35203 19.0193 9.38633 19.2382C9.42063 19.4571 9.62592 19.6068 9.84486 19.5725L14.0987 18.906C14.3176 18.8717 14.4673 18.6664 14.433 18.4475C14.3987 18.2285 14.1934 18.0789 13.9745 18.1132Z" fill="#7E6693"/>
</g>
<g filter="url(#filter4_f_5_526)">
<path d="M13.9745 19.8915L9.72063 20.558C9.5017 20.5923 9.35203 20.7976 9.38633 21.0165C9.42063 21.2355 9.62592 21.3851 9.84486 21.3508L14.0987 20.6843C14.3176 20.65 14.4673 20.4447 14.433 20.2258C14.3987 20.0069 14.1934 19.8572 13.9745 19.8915Z" fill="#7E6693"/>
</g>
<path d="M14.5224 19.6949L9.17414 20.5328C8.94866 20.5682 8.79451 20.7796 8.82984 21.0051C8.86517 21.2306 9.0766 21.3847 9.30208 21.3494L14.6503 20.5114C14.8758 20.4761 15.03 20.2646 14.9946 20.0392C14.9593 19.8137 14.7479 19.6595 14.5224 19.6949Z" fill="url(#paint9_linear_5_526)"/>
<path d="M14.5224 19.6949L9.17414 20.5328C8.94866 20.5682 8.79451 20.7796 8.82984 21.0051C8.86517 21.2306 9.0766 21.3847 9.30208 21.3494L14.6503 20.5114C14.8758 20.4761 15.03 20.2646 14.9946 20.0392C14.9593 19.8137 14.7479 19.6595 14.5224 19.6949Z" fill="url(#paint10_linear_5_526)"/>
<path d="M14.5224 19.6949L9.17414 20.5328C8.94866 20.5682 8.79451 20.7796 8.82984 21.0051C8.86517 21.2306 9.0766 21.3847 9.30208 21.3494L14.6503 20.5114C14.8758 20.4761 15.03 20.2646 14.9946 20.0392C14.9593 19.8137 14.7479 19.6595 14.5224 19.6949Z" fill="url(#paint11_linear_5_526)"/>
<path d="M14.5224 19.6949L9.17414 20.5328C8.94866 20.5682 8.79451 20.7796 8.82984 21.0051C8.86517 21.2306 9.0766 21.3847 9.30208 21.3494L14.6503 20.5114C14.8758 20.4761 15.03 20.2646 14.9946 20.0392C14.9593 19.8137 14.7479 19.6595 14.5224 19.6949Z" fill="url(#paint12_radial_5_526)"/>
<path d="M14.5221 17.9125L9.17389 18.7505C8.94841 18.7858 8.79427 18.9972 8.82959 19.2227C8.86492 19.4482 9.07635 19.6024 9.30183 19.567L14.6501 18.729C14.8756 18.6937 15.0297 18.4823 14.9944 18.2568C14.959 18.0313 14.7476 17.8772 14.5221 17.9125Z" fill="url(#paint13_linear_5_526)"/>
<path d="M14.5221 17.9125L9.17389 18.7505C8.94841 18.7858 8.79427 18.9972 8.82959 19.2227C8.86492 19.4482 9.07635 19.6024 9.30183 19.567L14.6501 18.729C14.8756 18.6937 15.0297 18.4823 14.9944 18.2568C14.959 18.0313 14.7476 17.8772 14.5221 17.9125Z" fill="url(#paint14_linear_5_526)"/>
<path d="M14.5221 17.9125L9.17389 18.7505C8.94841 18.7858 8.79427 18.9972 8.82959 19.2227C8.86492 19.4482 9.07635 19.6024 9.30183 19.567L14.6501 18.729C14.8756 18.6937 15.0297 18.4823 14.9944 18.2568C14.959 18.0313 14.7476 17.8772 14.5221 17.9125Z" fill="url(#paint15_linear_5_526)"/>
<path d="M14.5221 17.9125L9.17389 18.7505C8.94841 18.7858 8.79427 18.9972 8.82959 19.2227C8.86492 19.4482 9.07635 19.6024 9.30183 19.567L14.6501 18.729C14.8756 18.6937 15.0297 18.4823 14.9944 18.2568C14.959 18.0313 14.7476 17.8772 14.5221 17.9125Z" fill="url(#paint16_radial_5_526)"/>
<defs>
<filter id="filter0_i_5_526" x="5.44531" y="1.49414" width="13.1594" height="15.8447" filterUnits="userSpaceOnUse" color-interpolation-filters="sRGB">
<feFlood flood-opacity="0" result="BackgroundImageFix"/>
<feBlend mode="normal" in="SourceGraphic" in2="BackgroundImageFix" result="shape"/>
<feColorMatrix in="SourceAlpha" type="matrix" values="0 0 0 0 0 0 0 0 0 0 0 0 0 0 0 0 0 0 127 0" result="hardAlpha"/>
<feOffset dx="0.1875" dy="0.1125"/>
<feGaussianBlur stdDeviation="0.375"/>
<feComposite in2="hardAlpha" operator="arithmetic" k2="-1" k3="1"/>
<feColorMatrix type="matrix" values="0 0 0 0 0.992157 0 0 0 0 0.666667 0 0 0 0 0.309804 0 0 0 1 0"/>
<feBlend mode="normal" in2="shape" result="effect1_innerShadow_5_526"/>
</filter>
<filter id="filter1_i_5_526" x="8.91406" y="7.52344" width="6.16357" height="9.70078" filterUnits="userSpaceOnUse" color-interpolation-filters="sRGB">
<feFlood flood-opacity="0" result="BackgroundImageFix"/>
<feBlend mode="normal" in="SourceGraphic" in2="BackgroundImageFix" result="shape"/>
<feColorMatrix in="SourceAlpha" type="matrix" values="0 0 0 0 0 0 0 0 0 0 0 0 0 0 0 0 0 0 127 0" result="hardAlpha"/>
<feOffset dx="0.1875"/>
<feGaussianBlur stdDeviation="0.1875"/>
<feComposite in2="hardAlpha" operator="arithmetic" k2="-1" k3="1"/>
<feColorMatrix type="matrix" values="0 0 0 0 1 0 0 0 0 0.572549 0 0 0 0 0.254902 0 0 0 1 0"/>
<feBlend mode="normal" in2="shape" result="effect1_innerShadow_5_526"/>
</filter>
<filter id="filter2_f_5_526" x="9.10938" y="7.51758" width="5.78857" height="9.72316" filterUnits="userSpaceOnUse" color-interpolation-filters="sRGB">
<feFlood flood-opacity="0" result="BackgroundImageFix"/>
<feBlend mode="normal" in="SourceGraphic" in2="BackgroundImageFix" result="shape"/>
<feGaussianBlur stdDeviation="0.09375" result="effect1_foregroundBlur_5_526"/>
</filter>
<filter id="filter3_f_5_526" x="9.19385" y="17.9208" width="5.43164" height="1.84413" filterUnits="userSpaceOnUse" color-interpolation-filters="sRGB">
<feFlood flood-opacity="0" result="BackgroundImageFix"/>
<feBlend mode="normal" in="SourceGraphic" in2="BackgroundImageFix" result="shape"/>
<feGaussianBlur stdDeviation="0.09375" result="effect1_foregroundBlur_5_526"/>
</filter>
<filter id="filter4_f_5_526" x="9.19385" y="19.6991" width="5.43164" height="1.84413" filterUnits="userSpaceOnUse" color-interpolation-filters="sRGB">
<feFlood flood-opacity="0" result="BackgroundImageFix"/>
<feBlend mode="normal" in="SourceGraphic" in2="BackgroundImageFix" result="shape"/>
<feGaussianBlur stdDeviation="0.09375" result="effect1_foregroundBlur_5_526"/>
</filter>
<radialGradient id="paint0_radial_5_526" cx="0" cy="0" r="1" gradientUnits="userSpaceOnUse" gradientTransform="translate(12.2557 21.8318) rotate(96.6541) scale(0.707893 1.6396)">
<stop offset="0.268" stop-color="#AC90C6"/>
<stop offset="1" stop-color="#8E6AAA"/>
</radialGradient>
<linearGradient id="paint1_linear_5_526" x1="14.4764" y1="19.3514" x2="9.39062" y2="19.3514" gradientUnits="userSpaceOnUse">
<stop stop-color="#CDC2D1"/>
<stop offset="1" stop-color="#947C8D"/>
</linearGradient>
<linearGradient id="paint2_linear_5_526" x1="9.13937" y1="19.7347" x2="10.3814" y2="19.7347" gradientUnits="userSpaceOnUse">
<stop stop-color="#8A7B88"/>
<stop offset="1" stop-color="#8A7B88" stop-opacity="0"/>
</linearGradient>
<radialGradient id="paint3_radial_5_526" cx="0" cy="0" r="1" gradientUnits="userSpaceOnUse" gradientTransform="translate(12.9824 16.9799) rotate(88.6357) scale(0.618655 2.75432)">
<stop offset="0.229" stop-color="#EDE2EB"/>
<stop offset="1" stop-color="#C8BCCB" stop-opacity="0"/>
</radialGradient>
<linearGradient id="paint4_linear_5_526" x1="13.1001" y1="21.6682" x2="13.1001" y2="20.7187" gradientUnits="userSpaceOnUse">
<stop stop-color="#7E5F9E"/>
<stop offset="1" stop-color="#7E5F9E" stop-opacity="0"/>
</linearGradient>
<radialGradient id="paint5_radial_5_526" cx="0" cy="0" r="1" gradientUnits="userSpaceOnUse" gradientTransform="translate(14.6691 6.09414) rotate(138.066) scale(7.43527 6.13105)">
<stop offset="0.286" stop-color="#FFEC87"/>
<stop offset="1" stop-color="#FFCD4B"/>
</radialGradient>
<radialGradient id="paint6_radial_5_526" cx="0" cy="0" r="1" gradientUnits="userSpaceOnUse" gradientTransform="translate(15.3719 10.0781) rotate(-147.604) scale(10.9364 10.5193)">
<stop offset="0.622" stop-color="#FFB239" stop-opacity="0"/>
<stop offset="1" stop-color="#FFB239"/>
</radialGradient>
<linearGradient id="paint7_linear_5_526" x1="12.2246" y1="6.02025" x2="14.7911" y2="4.02075" gradientUnits="userSpaceOnUse">
<stop stop-color="white" stop-opacity="0"/>
<stop offset="0.594" stop-color="white"/>
</linearGradient>
<linearGradient id="paint8_linear_5_526" x1="14.7936" y1="8.24673" x2="11.7891" y2="15.404" gradientUnits="userSpaceOnUse">
<stop stop-color="#FFBF5C"/>
<stop offset="1" stop-color="#FFBF5C" stop-opacity="0"/>
</linearGradient>
<linearGradient id="paint9_linear_5_526" x1="11.7745" y1="20.1322" x2="11.9741" y2="21.0233" gradientUnits="userSpaceOnUse">
<stop stop-color="#B1969A"/>
<stop offset="1" stop-color="#DAD2E2"/>
</linearGradient>
<linearGradient id="paint10_linear_5_526" x1="12.6182" y1="20.8123" x2="12.5249" y2="20.2265" gradientUnits="userSpaceOnUse">
<stop stop-color="#8A68A9"/>
<stop offset="1" stop-color="#DEC2E3" stop-opacity="0"/>
</linearGradient>
<linearGradient id="paint11_linear_5_526" x1="8.76558" y1="21.0698" x2="10.8135" y2="20.6366" gradientUnits="userSpaceOnUse">
<stop stop-color="#958387"/>
<stop offset="1" stop-color="#958387" stop-opacity="0"/>
</linearGradient>
<radialGradient id="paint12_radial_5_526" cx="0" cy="0" r="1" gradientUnits="userSpaceOnUse" gradientTransform="translate(13.9186 20.0757) rotate(81.4165) scale(0.628136 3.71783)">
<stop offset="0.127" stop-color="#FCF0FC"/>
<stop offset="1" stop-color="#E5C9E3" stop-opacity="0"/>
</radialGradient>
<linearGradient id="paint13_linear_5_526" x1="11.7743" y1="18.3506" x2="11.9738" y2="19.241" gradientUnits="userSpaceOnUse">
<stop stop-color="#B1969A"/>
<stop offset="1" stop-color="#DAD2E2"/>
</linearGradient>
<linearGradient id="paint14_linear_5_526" x1="12.6179" y1="19.03" x2="12.5246" y2="18.4441" gradientUnits="userSpaceOnUse">
<stop stop-color="#8A68A9"/>
<stop offset="1" stop-color="#DEC2E3" stop-opacity="0"/>
</linearGradient>
<linearGradient id="paint15_linear_5_526" x1="8.76546" y1="19.2882" x2="10.8132" y2="18.8542" gradientUnits="userSpaceOnUse">
<stop stop-color="#958387"/>
<stop offset="1" stop-color="#958387" stop-opacity="0"/>
</linearGradient>
<radialGradient id="paint16_radial_5_526" cx="0" cy="0" r="1" gradientUnits="userSpaceOnUse" gradientTransform="translate(13.9183 18.2933) rotate(81.4165) scale(0.628134 3.71782)">
<stop offset="0.127" stop-color="#FCF0FC"/>
<stop offset="1" stop-color="#E5C9E3" stop-opacity="0"/>
</radialGradient>
</defs>
</svg>
