<svg width="61" height="60" viewBox="0 0 61 60" fill="none" xmlns="http://www.w3.org/2000/svg">
<mask id="mask0_3_9082" style="mask-type:alpha" maskUnits="userSpaceOnUse" x="0" y="0" width="61" height="60">
<rect x="0.5" width="60" height="60" fill="#D9D9D9"/>
</mask>
<g mask="url(#mask0_3_9082)">
<path d="M8.76937 51.25C7.50646 51.25 6.4375 50.8125 5.5625 49.9375C4.6875 49.0625 4.25 47.9935 4.25 46.7306V18.2694C4.25 17.0065 4.6875 15.9375 5.5625 15.0625C6.4375 14.1875 7.50646 13.75 8.76937 13.75H16.4038L21.0287 8.75H35.0194V12.5H22.6637L18.0769 17.5H8.76937C8.54479 17.5 8.36042 17.5721 8.21625 17.7163C8.07208 17.8604 8 18.0448 8 18.2694V46.7306C8 46.9552 8.07208 47.1396 8.21625 47.2837C8.36042 47.4279 8.54479 47.5 8.76937 47.5H47.2306C47.4552 47.5 47.6396 47.4279 47.7837 47.2837C47.9279 47.1396 48 46.9552 48 46.7306V25.4806H51.75V46.7306C51.75 47.9935 51.3125 49.0625 50.4375 49.9375C49.5625 50.8125 48.4935 51.25 47.2306 51.25H8.76937ZM48 17.5V12.5H43V8.75H48V3.75H51.75V8.75H56.75V12.5H51.75V17.5H48ZM28 42.7881C30.8687 42.7881 33.3006 41.7906 35.2956 39.7956C37.2906 37.8006 38.2881 35.3687 38.2881 32.5C38.2881 29.6313 37.2906 27.1994 35.2956 25.2044C33.3006 23.2094 30.8687 22.2119 28 22.2119C25.1313 22.2119 22.6994 23.2094 20.7044 25.2044C18.7094 27.1994 17.7119 29.6313 17.7119 32.5C17.7119 35.3687 18.7094 37.8006 20.7044 39.7956C22.6994 41.7906 25.1313 42.7881 28 42.7881ZM28 39.0387C26.1537 39.0387 24.6025 38.4104 23.3463 37.1537C22.0896 35.8975 21.4613 34.3463 21.4613 32.5C21.4613 30.6537 22.0896 29.1025 23.3463 27.8462C24.6025 26.5896 26.1537 25.9613 28 25.9613C29.8463 25.9613 31.3975 26.5896 32.6538 27.8462C33.9104 29.1025 34.5388 30.6537 34.5388 32.5C34.5388 34.3463 33.9104 35.8975 32.6538 37.1537C31.3975 38.4104 29.8463 39.0387 28 39.0387Z" fill="#959595"/>
</g>
</svg>
