<svg width="16" height="20" viewBox="0 0 16 20" fill="none" xmlns="http://www.w3.org/2000/svg">
<path d="M1.19336 0.75H14.8066C14.9622 0.750059 15.08 0.890801 15.0527 1.04395L14.5195 4.04395C14.4983 4.16311 14.3945 4.24989 14.2734 4.25H1.72656C1.60552 4.24989 1.50173 4.16311 1.48047 4.04395L0.947266 1.04395C0.92004 0.890801 1.03783 0.750059 1.19336 0.75Z" stroke="#0274FF" stroke-width="1.5"/>
<path d="M10 5V7M6 5V7" stroke="#0274FF" stroke-width="1.5"/>
<path d="M12 6C14.2091 6 16 7.79086 16 10V18C16 19.1046 15.1046 20 14 20H2C0.895431 20 0 19.1046 0 18V10C0 7.79086 1.79086 6 4 6H12ZM9.53027 13.4697C9.23738 13.1768 8.76262 13.1768 8.46973 13.4697L7.46973 14.4697C7.17683 14.7626 7.17683 15.2374 7.46973 15.5303C7.76262 15.8232 8.23738 15.8232 8.53027 15.5303L9.53027 14.5303C9.82317 14.2374 9.82317 13.7626 9.53027 13.4697ZM8 9.25C5.37665 9.25 3.25 11.3766 3.25 14C3.25 14.4142 3.58579 14.75 4 14.75C4.41421 14.75 4.75 14.4142 4.75 14C4.75 12.2051 6.20507 10.75 8 10.75C9.79493 10.75 11.25 12.2051 11.25 14C11.25 14.4142 11.5858 14.75 12 14.75C12.4142 14.75 12.75 14.4142 12.75 14C12.75 11.3766 10.6234 9.25 8 9.25Z" fill="#0274FF"/>
</svg>
