<svg width="32" height="32" viewBox="0 0 32 32" fill="none" xmlns="http://www.w3.org/2000/svg">
<rect x="0.5" y="0.5" width="31" height="31" rx="15.5" fill="white"/>
<rect x="0.5" y="0.5" width="31" height="31" rx="15.5" stroke="#EDEDED"/>
<path d="M25.9059 10.8809V21.4059C25.9059 23.8909 23.8909 25.9059 21.4059 25.9059H10.8809C8.39586 25.9059 6.38086 23.8909 6.38086 21.4059V10.8809C6.38086 8.39586 8.39586 6.38086 10.8809 6.38086H21.4059C23.8909 6.38086 25.9059 8.39586 25.9059 10.8809ZM17.2959 13.3959L19.9809 10.7109C18.9959 9.73086 17.6409 9.12586 16.1459 9.12586C14.6509 9.12586 13.2909 9.73086 12.3059 10.7109L14.9909 13.3959C15.2859 13.1009 15.6909 12.9209 16.1459 12.9209C16.6009 12.9209 17.0009 13.1009 17.2959 13.3959Z" fill="#FBD7D8"/>
<path d="M21.4059 6.38086H10.8809C8.39556 6.38086 6.38086 8.39561 6.38086 10.8809V21.4059C6.38086 23.8912 8.39556 25.9059 10.8809 25.9059H21.4059C23.8911 25.9059 25.9059 23.8912 25.9059 21.4059V10.8809C25.9059 8.39561 23.8911 6.38086 21.4059 6.38086Z" stroke="#454545" stroke-width="1.2" stroke-linecap="round" stroke-linejoin="round"/>
<path d="M19.9797 10.71L17.2947 13.395C16.9997 13.1 16.5947 12.92 16.1447 12.92C15.6947 12.92 15.2847 13.1 14.9897 13.395L12.3047 10.71C13.2897 9.73 14.6447 9.125 16.1447 9.125C17.6447 9.125 18.9947 9.73 19.9797 10.71Z" stroke="#454545" stroke-width="1.2" stroke-linecap="round" stroke-linejoin="round"/>
<path d="M16.1449 12.9218L15.4199 11.4668" stroke="#454545" stroke-width="2" stroke-linecap="round" stroke-linejoin="round"/>
</svg>
