<svg width="101" height="100" viewBox="0 0 101 100" fill="none" xmlns="http://www.w3.org/2000/svg">
<rect x="0.500122" width="100" height="100" rx="50" fill="#EDEDED"/>
<rect x="25.7917" y="25.2933" width="49.4117" height="49.4117" rx="8.38434" fill="#E5696E"/>
<path fill-rule="evenodd" clip-rule="evenodd" d="M37.285 42.0582C36.3802 41.5089 36.0921 40.3302 36.6413 39.4255C38.079 37.0575 40.111 35.1069 42.5358 33.7672C44.9605 32.4276 47.6935 31.7456 50.4634 31.789C53.2332 31.8324 55.9435 32.5997 58.3251 34.0146C60.7067 35.4295 62.6767 37.4428 64.0394 39.8547C64.2895 40.2972 64.3535 40.8209 64.2174 41.3106C64.0813 41.8003 63.7562 42.2159 63.3137 42.4659L57.7094 45.6325C56.7879 46.1531 55.6188 45.8282 55.0982 44.9067C54.6168 44.0548 53.9209 43.3436 53.0796 42.8438C52.2383 42.3439 51.2809 42.0729 50.3025 42.0576C49.3241 42.0423 48.3587 42.2832 47.5022 42.7564C46.6456 43.2296 45.9278 43.9187 45.42 44.7551C45.1562 45.1896 44.7307 45.5015 44.2369 45.6222C43.7432 45.7429 43.2218 45.6625 42.7873 45.3987L37.285 42.0582ZM38.2795 40.42C38.6133 39.8702 38.9836 39.346 39.387 38.8505C40.5114 37.4695 41.8934 36.3116 43.4625 35.4447C45.5946 34.2667 47.9978 33.6671 50.4333 33.7052C52.8689 33.7434 55.2521 34.418 57.3463 35.6622C58.8874 36.5778 60.2326 37.7784 61.3131 39.1939C61.6999 39.7006 62.0528 40.2348 62.3686 40.7934C62.3694 40.7947 62.3702 40.7961 62.3709 40.7974L56.7667 43.964C56.7664 43.9636 56.7662 43.9632 56.766 43.9628C56.1202 42.8203 55.1868 41.8665 54.0585 41.1962C52.9298 40.5256 51.6453 40.162 50.3325 40.1414C49.0198 40.1208 47.7245 40.4441 46.5754 41.0789C45.4262 41.7138 44.4632 42.6383 43.7818 43.7606L38.2795 40.42Z" fill="white" stroke="white" stroke-width="0.823529" stroke-linejoin="round"/>
<path fill-rule="evenodd" clip-rule="evenodd" d="M54.0319 35.668C54.5267 35.8795 54.7496 36.4369 54.5297 36.9128L52.2886 41.7629L50.4968 40.9969L52.7378 36.1468C52.9577 35.6708 53.5371 35.4565 54.0319 35.668Z" fill="white" stroke="white" stroke-width="0.823529"/>
</svg>
