<svg width="17" height="17" viewBox="0 0 17 17" fill="none" xmlns="http://www.w3.org/2000/svg">
<circle cx="8.5" cy="8.5" r="8.2" stroke="#424242" stroke-width="0.6"/>
<path d="M7.7517 10.4532V10.4015C7.75737 9.85373 7.81406 9.41778 7.92177 9.09369C8.02948 8.7696 8.18254 8.50717 8.38095 8.30641C8.57937 8.10564 8.81746 7.92065 9.09524 7.75143C9.26247 7.64818 9.4127 7.52629 9.54592 7.38576C9.67914 7.24235 9.78401 7.07744 9.86054 6.89101C9.93991 6.70459 9.97959 6.49809 9.97959 6.27151C9.97959 5.99044 9.9144 5.74665 9.78401 5.54015C9.65363 5.33365 9.47931 5.17447 9.26105 5.06262C9.0428 4.95076 8.80045 4.89484 8.53401 4.89484C8.30159 4.89484 8.07766 4.94359 7.86224 5.04111C7.64683 5.13862 7.46684 5.29207 7.32228 5.50143C7.17772 5.7108 7.0941 5.9847 7.07143 6.32314H6C6.02268 5.83556 6.14739 5.41826 6.37415 5.07122C6.60374 4.72419 6.90561 4.45889 7.27976 4.27533C7.65675 4.09178 8.07483 4 8.53401 4C9.03288 4 9.46655 4.10038 9.83503 4.30115C10.2063 4.50191 10.4926 4.77725 10.6939 5.12715C10.898 5.47706 11 5.87572 11 6.32314C11 6.63862 10.9518 6.924 10.8554 7.17925C10.7619 7.43451 10.6259 7.66252 10.4473 7.86329C10.2715 8.06405 10.059 8.24187 9.80952 8.39675C9.56009 8.55449 9.36026 8.72084 9.21003 8.89579C9.05981 9.06788 8.95068 9.27294 8.88265 9.51099C8.81463 9.74904 8.77778 10.0459 8.77211 10.4015V10.4532H7.7517ZM8.29592 13C8.08617 13 7.90618 12.924 7.75595 12.772C7.60573 12.62 7.53061 12.4379 7.53061 12.2256C7.53061 12.0134 7.60573 11.8313 7.75595 11.6793C7.90618 11.5272 8.08617 11.4512 8.29592 11.4512C8.50567 11.4512 8.68566 11.5272 8.83588 11.6793C8.98611 11.8313 9.06122 12.0134 9.06122 12.2256C9.06122 12.3662 9.02579 12.4952 8.95493 12.6128C8.8869 12.7304 8.79478 12.825 8.67857 12.8967C8.56519 12.9656 8.43764 13 8.29592 13Z" fill="#424242"/>
</svg>
