<svg width="19" height="19" viewBox="0 0 19 19" fill="none" xmlns="http://www.w3.org/2000/svg">
<path d="M18.2071 16.79L14.8071 13.4C15.9041 12.0025 16.4993 10.2767 16.4971 8.5C16.4971 6.91775 16.0279 5.37103 15.1488 4.05544C14.2698 2.73985 13.0204 1.71447 11.5585 1.10897C10.0967 0.503466 8.4882 0.34504 6.93635 0.653721C5.3845 0.962403 3.95904 1.72433 2.84022 2.84315C1.7214 3.96197 0.959473 5.38743 0.650792 6.93928C0.34211 8.49113 0.500537 10.0997 1.10604 11.5615C1.71154 13.0233 2.73692 14.2727 4.05251 15.1518C5.3681 16.0308 6.91482 16.5 8.49707 16.5C10.2737 16.5022 11.9995 15.907 13.3971 14.81L16.7871 18.21C16.88 18.3037 16.9906 18.3781 17.1125 18.4289C17.2344 18.4797 17.3651 18.5058 17.4971 18.5058C17.6291 18.5058 17.7598 18.4797 17.8817 18.4289C18.0035 18.3781 18.1141 18.3037 18.2071 18.21C18.3008 18.117 18.3752 18.0064 18.426 17.8846C18.4767 17.7627 18.5029 17.632 18.5029 17.5C18.5029 17.368 18.4767 17.2373 18.426 17.1154C18.3752 16.9936 18.3008 16.883 18.2071 16.79ZM2.49707 8.5C2.49707 7.31332 2.84897 6.15328 3.50826 5.16658C4.16754 4.17989 5.10462 3.41085 6.20097 2.95673C7.29733 2.5026 8.50373 2.38378 9.66762 2.61529C10.8315 2.8468 11.9006 3.41825 12.7397 4.25736C13.5788 5.09648 14.1503 6.16558 14.3818 7.32946C14.6133 8.49335 14.4945 9.69975 14.0404 10.7961C13.5862 11.8925 12.8172 12.8295 11.8305 13.4888C10.8438 14.1481 9.68376 14.5 8.49707 14.5C6.90578 14.5 5.37965 13.8679 4.25443 12.7426C3.12922 11.6174 2.49707 10.0913 2.49707 8.5Z" fill="white"/>
</svg>
