<svg width="146" height="20" viewBox="0 0 146 20" fill="none" xmlns="http://www.w3.org/2000/svg">
<g clip-path="url(#clip0_5628_90131)">
<path fill-rule="evenodd" clip-rule="evenodd" d="M16.8433 0.432902C18.131 0.432902 19.2482 0.634921 20.195 1.03896C21.1607 1.42376 21.8897 1.96248 22.382 2.65512C22.8933 3.32853 23.1489 4.10775 23.1489 4.99279C23.1489 5.49303 23.0827 5.95479 22.9501 6.37807C22.401 8.32131 20.8198 9.55267 18.2067 10.0722C19.1156 10.3415 19.8352 10.7937 20.3654 11.4286C20.8956 12.0443 21.1607 12.8139 21.1607 13.7374C21.1607 14.1607 21.0849 14.6609 20.9334 15.2381C20.5169 16.7388 19.6742 17.8547 18.4055 18.5859C17.1558 19.2977 15.3758 19.6537 13.0657 19.6537H1.24976C0.852108 19.6537 0.549137 19.5863 0.340844 19.4517C0.113615 19.317 0 19.1342 0 18.9033C0 18.7879 0.0284042 18.6628 0.0852114 18.5281C0.160954 18.3165 0.284037 18.153 0.454458 18.0375C0.62488 17.9221 0.729026 17.8547 0.766898 17.8355C1.06987 17.6431 1.31603 17.4507 1.50539 17.2583C1.69475 17.0467 1.8557 16.71 1.98825 16.2482L5.45349 3.80953C5.52923 3.55941 5.5671 3.3189 5.5671 3.08803C5.5671 2.87638 5.52923 2.70322 5.45349 2.56854C5.39668 2.41462 5.31147 2.24146 5.19786 2.04906C5.02744 1.79894 4.94223 1.59692 4.94223 1.443C4.94223 1.38528 4.96116 1.27946 4.99903 1.12554C5.07478 0.875422 5.23573 0.702261 5.48189 0.606061C5.74699 0.490622 6.14464 0.432902 6.67484 0.432902H16.8433ZM15.5652 5.71429C15.6977 5.29101 15.764 4.89659 15.764 4.53102C15.764 3.53054 15.2054 3.0303 14.0882 3.0303H12.81L11.3046 8.42713H12.5544C13.3497 8.42713 13.9746 8.23473 14.429 7.84993C14.9024 7.44589 15.2811 6.73401 15.5652 5.71429ZM13.4917 14.1991C13.6243 13.7374 13.6905 13.3141 13.6905 12.9293C13.6905 11.8903 13.1035 11.3709 11.9295 11.3709H10.5093L8.89033 17.0563H10.3389C11.1531 17.0563 11.8064 16.8543 12.2988 16.4502C12.7911 16.0269 13.1887 15.2766 13.4917 14.1991ZM39.1461 16.2482C39.0704 16.4983 39.0325 16.7484 39.0325 16.9986C39.0325 17.2102 39.0609 17.393 39.1177 17.5469C39.1745 17.6816 39.2314 17.797 39.2882 17.8932C39.3639 17.9702 39.4112 18.0279 39.4302 18.0664C39.6195 18.2588 39.7142 18.4512 39.7142 18.6436C39.7142 18.6821 39.6953 18.7783 39.6574 18.9322C39.5817 19.2015 39.4112 19.3939 39.1461 19.5094C38.9 19.6056 38.5118 19.6537 37.9816 19.6537H31.2499C30.8523 19.6537 30.5399 19.5863 30.3126 19.4517C30.1043 19.317 30.0002 19.1342 30.0002 18.9033C30.0002 18.7879 30.0286 18.6628 30.0854 18.5281C30.1422 18.3742 30.2179 18.2588 30.3126 18.1818C30.4262 18.0856 30.5777 17.9798 30.7671 17.8644C31.0701 17.6912 31.3162 17.4988 31.5056 17.2872C31.6949 17.0755 31.8559 16.7292 31.9884 16.2482L32.7269 13.7662H28.296L27.5291 15.4113C27.2072 16.1231 27.0462 16.6811 27.0462 17.0851C27.0462 17.316 27.0841 17.5084 27.1598 17.6623C27.2356 17.797 27.3492 17.9413 27.5007 18.0952C27.6332 18.2492 27.7184 18.3838 27.7563 18.4993C27.8131 18.5955 27.8226 18.7302 27.7847 18.9033C27.709 19.1919 27.548 19.3939 27.3018 19.5094C27.0746 19.6056 26.7054 19.6537 26.1941 19.6537H21.962C21.5264 19.6537 21.1951 19.5767 20.9678 19.4228C20.7406 19.2496 20.627 19.0284 20.627 18.759C20.627 18.4512 20.7406 18.2107 20.9678 18.0375C21.1761 17.8451 21.498 17.6431 21.9336 17.4315C22.5016 17.1429 22.9561 16.8639 23.2969 16.5945C23.6378 16.3059 23.9313 15.9115 24.1774 15.4113L29.2333 4.76191C30.0097 3.10726 30.9186 1.91438 31.96 1.18326C33.0204 0.432902 34.4122 0.0577218 36.1354 0.0577218C38.0668 0.0577218 39.5627 0.461762 40.6231 1.26984C41.6835 2.05868 42.2137 3.16498 42.2137 4.58875C42.2137 5.18519 42.119 5.80087 41.9297 6.43579L39.1461 16.2482ZM33.579 10.8802L35.0844 5.80087C35.1602 5.56999 35.198 5.32949 35.198 5.07937C35.198 4.71381 35.0939 4.44445 34.8856 4.27129C34.6962 4.07889 34.4217 3.98268 34.0619 3.98268C33.6074 3.98268 33.2193 4.11737 32.8974 4.38672C32.5754 4.65609 32.2535 5.13709 31.9316 5.82973L29.6025 10.8802H33.579ZM63.3245 6.29149C63.0215 7.40741 62.4534 8.28283 61.6203 8.91775C60.7871 9.53343 59.7362 9.91823 58.4675 10.0722C59.3764 10.1491 60.0581 10.4185 60.5125 10.8802C60.967 11.342 61.1942 11.9481 61.1942 12.6984C61.1942 12.987 61.1469 13.343 61.0522 13.7662L60.7398 15.1804C60.7019 15.3728 60.6829 15.5075 60.6829 15.5844C60.6829 15.8345 60.7397 16.0269 60.8534 16.1616C60.967 16.2771 61.1279 16.3348 61.3362 16.3348C61.7339 16.3348 62.0179 16.3925 62.1883 16.5079C62.3777 16.6234 62.444 16.835 62.3872 17.1429C62.3114 17.5854 62.0842 18.0183 61.7055 18.4416C61.3268 18.8648 60.7871 19.2208 60.0865 19.5094C59.4048 19.7787 58.5716 19.9134 57.587 19.9134C56.3372 19.9134 55.3431 19.6344 54.6046 19.0765C53.8661 18.4993 53.4968 17.6816 53.4968 16.6234C53.4968 16.2193 53.5536 15.7864 53.6673 15.3247L54.1217 13.4776C54.1975 13.2275 54.2353 12.9678 54.2353 12.6984C54.2353 12.2559 54.0838 11.9384 53.7809 11.746C53.4968 11.5536 53.0329 11.4574 52.3891 11.4574H51.3098L50.0032 16.2482C49.9653 16.3636 49.9464 16.5079 49.9464 16.6811C49.9464 16.9505 50.0127 17.1813 50.1452 17.3737C50.2778 17.5661 50.4576 17.7682 50.6849 17.9798C50.8553 18.1145 50.9879 18.2492 51.0825 18.3838C51.1772 18.4993 51.2245 18.6243 51.2245 18.759C51.2245 19.0861 51.0731 19.317 50.7701 19.4517C50.4671 19.5863 50.0221 19.6537 49.4351 19.6537H42.3058C41.8135 19.6537 41.4442 19.5671 41.1981 19.3939C40.9519 19.2015 40.8667 18.9418 40.9424 18.6147C40.9803 18.4416 41.0561 18.3069 41.1697 18.2107C41.2644 18.0952 41.4158 17.9702 41.6241 17.8355C41.946 17.6431 42.2017 17.4411 42.391 17.2294C42.5804 17.0178 42.7319 16.6907 42.8455 16.2482L46.3107 3.80953C46.3865 3.55941 46.4243 3.3189 46.4243 3.08803C46.4243 2.87638 46.3865 2.70322 46.3107 2.56854C46.2539 2.41462 46.1687 2.24146 46.0551 2.04906C45.8847 1.79894 45.7995 1.59692 45.7995 1.443C45.7995 1.38528 45.8184 1.27946 45.8563 1.12554C45.932 0.875422 46.093 0.702261 46.3391 0.606061C46.6042 0.490622 47.0019 0.432902 47.5321 0.432902H57.0473C58.3539 0.432902 59.49 0.634921 60.4557 1.03896C61.4404 1.443 62.1883 2.00096 62.6996 2.71284C63.2298 3.40549 63.4949 4.19433 63.4949 5.07937C63.4949 5.48341 63.4381 5.88745 63.3245 6.29149ZM56.0532 6.00289C56.1478 5.56037 56.1952 5.22367 56.1952 4.99279C56.1952 3.97307 55.646 3.4632 54.5478 3.4632H53.3548L52.1051 8.57143H53.298C54.0365 8.57143 54.614 8.38865 55.0306 8.02309C55.4662 7.65753 55.807 6.98413 56.0532 6.00289ZM81.6956 0.432902C82.3962 0.432902 82.9359 0.586822 83.3146 0.894661C83.7123 1.2025 83.9111 1.62578 83.9111 2.1645C83.9111 2.43386 83.8732 2.6936 83.7975 2.94372L83.059 5.62771C82.9264 6.12795 82.7087 6.48389 82.4057 6.69553C82.1027 6.90717 81.7051 7.01299 81.2128 7.01299C80.7394 7.01299 80.3606 6.91679 80.0766 6.72439C79.7926 6.51275 79.5843 6.17605 79.4517 5.71429L78.9973 4.06927C78.9215 3.78066 78.8269 3.58826 78.7132 3.49207C78.5996 3.39586 78.3629 3.34777 78.0031 3.34777H75.1628L73.5722 9.06205H74.1119C74.377 9.06205 74.6042 9.02357 74.7935 8.94661C75.0018 8.86965 75.2196 8.72535 75.4468 8.51371L76.3273 7.76335C76.6492 7.47475 76.9333 7.27273 77.1794 7.15729C77.4445 7.02261 77.7191 6.95527 78.0031 6.95527C78.3629 6.95527 78.6564 7.06109 78.8837 7.27273C79.1298 7.48437 79.2529 7.78259 79.2529 8.16739C79.2529 8.32131 79.2245 8.50409 79.1677 8.71573L77.9179 13.1025C77.6339 14.0452 77.1226 14.5166 76.3841 14.5166C75.7782 14.5166 75.3048 14.1991 74.964 13.5642L74.4527 12.583C74.3201 12.3136 74.1971 12.1405 74.0835 12.0635C73.9698 11.9865 73.7994 11.9481 73.5722 11.9481H72.7485L71.5555 16.2482C71.5177 16.3636 71.4987 16.5176 71.4987 16.71C71.4987 16.9793 71.5555 17.2006 71.6692 17.3737C71.8017 17.5469 71.991 17.7297 72.2372 17.9221C72.4455 18.0952 72.5875 18.2395 72.6633 18.355C72.739 18.4512 72.7769 18.5762 72.7769 18.7302C72.7769 19.0765 72.6254 19.317 72.3224 19.4517C72.0195 19.5863 71.5745 19.6537 70.9875 19.6537H63.8582C63.3658 19.6537 62.9966 19.5671 62.7504 19.3939C62.5043 19.2015 62.419 18.9418 62.4948 18.6147C62.5327 18.4416 62.6084 18.3069 62.722 18.2107C62.8167 18.0952 62.9682 17.9702 63.1765 17.8355C63.4984 17.6431 63.754 17.4411 63.9434 17.2294C64.1327 17.0178 64.2842 16.6907 64.3978 16.2482L67.8915 3.80953C67.9672 3.55941 68.0051 3.32853 68.0051 3.11689C68.0051 2.886 67.9672 2.6936 67.8915 2.53968C67.8347 2.38576 67.74 2.22222 67.6074 2.04906C67.437 1.79894 67.3518 1.59692 67.3518 1.443C67.3518 1.38528 67.3707 1.27946 67.4086 1.12554C67.4843 0.875422 67.6548 0.702261 67.9199 0.606061C68.185 0.490622 68.5732 0.432902 69.0844 0.432902H81.6956ZM94.4231 0.432902C97.2634 0.432902 99.4032 0.990862 100.842 2.10678C102.281 3.20346 103.001 4.81963 103.001 6.95527C103.001 8.01347 102.812 9.23521 102.433 10.6205C101.808 12.8523 100.965 14.6224 99.905 15.9307C98.8446 17.2391 97.4433 18.1914 95.7012 18.7879C93.9781 19.3843 91.7626 19.6729 89.0548 19.6537L81.329 19.6248C80.9314 19.6248 80.6284 19.5575 80.4201 19.4228C80.1929 19.2881 80.0793 19.1053 80.0793 18.8745C80.0793 18.759 80.1077 18.634 80.1645 18.4993C80.2213 18.3261 80.3065 18.2011 80.4201 18.1241C80.5148 18.0471 80.6663 17.9413 80.8746 17.8066C81.1775 17.6335 81.4142 17.4411 81.5847 17.2294C81.774 17.0178 81.935 16.6811 82.0675 16.2193L85.5328 3.80953C85.6085 3.55941 85.6464 3.3189 85.6464 3.08803C85.6464 2.87638 85.6085 2.70322 85.5328 2.56854C85.4759 2.41462 85.3907 2.24146 85.2771 2.04906C85.1067 1.79894 85.0215 1.59692 85.0215 1.443C85.0215 1.38528 85.0404 1.27946 85.0783 1.12554C85.154 0.875422 85.315 0.702261 85.5612 0.606061C85.8263 0.490622 86.2239 0.432902 86.7541 0.432902H94.4231ZM95.1616 9.98557C95.6539 8.17701 95.9001 6.75325 95.9001 5.71429C95.9001 4.69457 95.6918 3.9923 95.2752 3.6075C94.8586 3.2227 94.2621 3.0303 93.4858 3.0303H92.8609L89.0264 17.0563H89.7081C90.5791 17.0563 91.3082 16.8735 91.8952 16.5079C92.5011 16.1231 93.0597 15.4305 93.571 14.43C94.0822 13.4103 94.6124 11.9288 95.1616 9.98557ZM116.591 0C118.977 0 120.842 0.577201 122.186 1.7316C123.531 2.86676 124.203 4.51179 124.203 6.66667C124.203 7.68639 124.052 8.78307 123.749 9.95671C123.181 12.1116 122.3 13.9394 121.107 15.4401C119.914 16.9408 118.494 18.076 116.847 18.8456C115.199 19.6152 113.41 20 111.478 20C109.111 20 107.256 19.4324 105.911 18.2973C104.567 17.1429 103.895 15.4882 103.895 13.3333C103.895 12.3521 104.056 11.2266 104.377 9.95671C104.927 7.82107 105.788 6.01251 106.962 4.53102C108.155 3.0303 109.566 1.90476 111.194 1.1544C112.842 0.384801 114.641 0 116.591 0ZM116.08 2.82828C115.512 2.82828 115 3.05916 114.546 3.52092C114.091 3.98269 113.637 4.74267 113.183 5.80087C112.747 6.83983 112.274 8.29245 111.762 10.1587C111.005 12.8523 110.626 14.709 110.626 15.7287C110.626 16.3252 110.73 16.7581 110.939 17.0274C111.147 17.2968 111.478 17.4315 111.933 17.4315C112.501 17.4315 113.012 17.2006 113.467 16.7388C113.921 16.2578 114.366 15.4978 114.802 14.4589C115.237 13.4199 115.72 11.9865 116.25 10.1587C116.989 7.50361 117.358 5.63733 117.358 4.55989C117.358 3.94421 117.254 3.50168 117.045 3.23232C116.837 2.96296 116.515 2.82828 116.08 2.82828ZM131.997 19.8268C130.728 19.8268 129.573 19.5479 128.532 18.9899C127.509 18.4127 126.695 17.5758 126.089 16.4791C125.483 15.3632 125.18 14.0356 125.18 12.4964C125.18 11.3228 125.379 10.0144 125.777 8.57143C126.648 5.49303 128.011 3.3189 129.867 2.04906C131.741 0.779222 133.739 0.1443 135.86 0.1443C137.791 0.1443 139.533 0.856181 141.086 2.27994L141.938 1.443C142.412 1.03896 142.819 0.759982 143.16 0.606061C143.5 0.452141 143.898 0.375181 144.353 0.375181C144.845 0.375181 145.243 0.500241 145.546 0.750361C145.849 0.981242 146 1.2987 146 1.70274C146 1.85666 145.972 2.03944 145.915 2.25108L144.892 5.88745C144.703 6.50313 144.476 6.93603 144.211 7.18615C143.964 7.43627 143.624 7.56133 143.188 7.56133C142.734 7.56133 142.326 7.44589 141.967 7.21501C141.626 6.98413 141.228 6.57047 140.774 5.97403C140.168 5.16595 139.628 4.59837 139.155 4.27129C138.7 3.92497 138.198 3.75181 137.649 3.75181C136.797 3.75181 135.983 4.19433 135.207 5.07937C134.449 5.94517 133.786 7.39779 133.218 9.43723C132.859 10.7648 132.679 11.9096 132.679 12.8716C132.679 13.8913 132.868 14.6705 133.247 15.2092C133.644 15.7287 134.194 15.9885 134.894 15.9885C135.5 15.9885 135.964 15.8442 136.286 15.5556C136.627 15.267 136.892 14.7667 137.081 14.0548L137.28 13.3333C137.375 12.9485 137.422 12.6888 137.422 12.5541C137.422 12.3232 137.365 12.1597 137.252 12.0635C137.157 11.9673 136.987 11.8615 136.74 11.746L135.746 11.3709C135.311 11.1977 135.093 10.8802 135.093 10.4185C135.093 10.2838 135.102 10.178 135.121 10.101C135.197 9.85089 135.33 9.66811 135.519 9.55267C135.727 9.43723 136.04 9.37951 136.456 9.37951L145.034 9.40837C145.659 9.40837 145.972 9.61039 145.972 10.0144C145.972 10.0914 145.953 10.2068 145.915 10.3608C145.839 10.6494 145.716 10.8802 145.546 11.0534C145.375 11.2266 145.129 11.3997 144.807 11.5729L144.069 12.0058C143.879 12.1212 143.737 12.2367 143.643 12.3521C143.548 12.4483 143.482 12.5734 143.444 12.7273L141.938 18.0664C141.749 18.7013 141.531 19.1246 141.285 19.3362C141.058 19.5479 140.774 19.6537 140.433 19.6537H139.24C138.785 19.6537 138.407 19.5575 138.104 19.3651C137.82 19.1727 137.583 18.7975 137.394 18.2395L137.11 17.4026C135.746 19.0188 134.042 19.8268 131.997 19.8268Z" fill="#CA1010"/>
</g>
<defs>
<clipPath id="clip0_5628_90131">
<rect width="146" height="20" fill="white"/>
</clipPath>
</defs>
</svg>
