<svg width="281" height="520" viewBox="0 0 281 520" fill="none" xmlns="http://www.w3.org/2000/svg">
<g clip-path="url(#clip0_702_47814)">
<path d="M0.529541 48C0.529541 21.4903 22.0199 0 48.5295 0H232.53C259.039 0 280.53 21.4903 280.53 48V520H0.529541V48Z" fill="white"/>
<path d="M12.5295 52C12.5295 29.9086 30.4382 12 52.5295 12H228.53C250.621 12 268.53 29.9086 268.53 52V560H12.5295V52Z" fill="#B5D0DF"/>
<path d="M67.7098 111.859V121.913H68.8648V111.859H67.7098ZM68.6008 115.72V116.688H70.4268V115.72H68.6008ZM61.4288 112.684V119.537H66.2028V112.684H65.0588V115.247H62.5728V112.684H61.4288ZM62.5728 116.149H65.0588V118.602H62.5728V116.149ZM70.976 119.724V120.681H80.084V119.724H70.976ZM71.724 112.805V113.74H79.27V112.805H71.724ZM71.757 117.007V117.942H79.248V117.007H71.757ZM73.198 113.663V117.106H74.353V113.663H73.198ZM76.652 113.663V117.106H77.796V113.663H76.652ZM80.8751 116.809V117.722H89.9611V116.809H80.8751ZM84.8351 115.126V117.128H85.9791V115.126H84.8351ZM81.8761 118.569V119.493H87.7171V121.968H88.8611V118.569H81.8761ZM81.9971 114.818V115.753H88.9381V114.818H81.9971ZM81.9971 112.266V115.313H83.1521V113.19H88.8501V112.266H81.9971Z" fill="#555B5F" fill-opacity="0.93"/>
<g clip-path="url(#clip1_702_47814)">
<path d="M127.111 65.445V79.335H129.121V65.445H127.111ZM128.671 70.62V72.27H131.131V70.62H128.671ZM118.651 66.54V76.125H125.401V66.54H123.421V69.915H120.631V66.54H118.651ZM120.631 71.46H123.421V74.52H120.631V71.46ZM131.745 76.095V77.73H144.315V76.095H131.745ZM132.705 66.645V68.235H143.28V66.645H132.705ZM132.765 72.39V73.995H143.235V72.39H132.765ZM134.595 68.115V72.54H136.59V68.115H134.595ZM139.41 68.115V72.54H141.39V68.115H139.41ZM145.244 72.18V73.74H157.799V72.18H145.244ZM150.509 69.915V72.66H152.504V69.915H150.509ZM146.624 74.685V76.26H154.334V79.38H156.314V74.685H146.624ZM146.759 69.375V70.965H156.434V69.375H146.759ZM146.759 66V70.23H148.754V67.575H156.314V66H146.759Z" fill="#202020"/>
<path d="M35.5298 81L27.5298 73L35.5298 65" stroke="#202020" stroke-width="1.5"/>
<line x1="237.53" y1="66.5" x2="255.53" y2="66.5" stroke="#202020"/>
<line x1="237.53" y1="72.5" x2="255.53" y2="72.5" stroke="#202020"/>
<line x1="237.53" y1="78.5" x2="255.53" y2="78.5" stroke="#202020"/>
<circle cx="216.53" cy="72" r="6.5" stroke="#202020"/>
<path d="M221.03 76.5L225.03 80.5" stroke="#202020"/>
</g>
<path d="M39.6555 30.6182C37.7322 30.6182 36.3357 31.9639 36.3357 33.8047V33.8174C36.3357 35.5693 37.5925 36.8643 39.3381 36.8643C40.5823 36.8643 41.4138 36.2104 41.7439 35.4741H41.8708C41.8708 35.5439 41.8645 35.6138 41.8645 35.6836C41.7947 37.5117 41.1472 39.0161 39.6047 39.0161C38.7478 39.0161 38.1511 38.5718 37.8909 37.8735L37.8718 37.8101H36.4563L36.4753 37.8862C36.7737 39.27 37.9797 40.2222 39.6047 40.2222C41.8708 40.2222 43.2229 38.394 43.2229 35.29V35.2773C43.2229 31.9131 41.49 30.6182 39.6555 30.6182ZM39.6492 35.7153C38.5447 35.7153 37.7385 34.9028 37.7385 33.7793V33.7666C37.7385 32.6685 38.5955 31.8115 39.6682 31.8115C40.7473 31.8115 41.5916 32.6875 41.5916 33.8047V33.811C41.5916 34.9155 40.7473 35.7153 39.6492 35.7153ZM45.8076 33.9443C46.3345 33.9443 46.7344 33.5317 46.7344 33.0176C46.7344 32.4971 46.3345 32.0908 45.8076 32.0908C45.2808 32.0908 44.8745 32.4971 44.8745 33.0176C44.8745 33.5317 45.2808 33.9443 45.8076 33.9443ZM45.8076 38.7432C46.3345 38.7432 46.7344 38.3306 46.7344 37.8164C46.7344 37.2959 46.3345 36.8896 45.8076 36.8896C45.2808 36.8896 44.8745 37.2959 44.8745 37.8164C44.8745 38.3306 45.2808 38.7432 45.8076 38.7432ZM52.8103 40H54.1814V38.1782H55.4446V36.9722H54.1814V30.8403H52.1565C50.8933 32.7383 49.5476 34.9028 48.3415 36.9722V38.1782H52.8103V40ZM49.7063 36.9976V36.9087C50.6457 35.3027 51.7629 33.519 52.7468 32.04H52.8293V36.9976H49.7063ZM59.0385 40H60.4604V30.8403H59.0385L56.6264 32.5542V33.9507L58.9306 32.3066H59.0385V40Z" fill="#202020"/>
<path fill-rule="evenodd" clip-rule="evenodd" d="M205.25 32.5121C205.23 32.6124 205.23 32.7332 205.23 32.9748V39.0263C205.23 39.2679 205.23 39.3887 205.25 39.4891C205.331 39.8795 205.636 40.1846 206.027 40.2655C206.127 40.2863 206.248 40.2863 206.49 40.2863C206.731 40.2863 206.852 40.2863 206.952 40.2655C207.343 40.1846 207.648 39.8795 207.729 39.4891C207.75 39.3887 207.75 39.2679 207.75 39.0263V32.9748C207.75 32.7332 207.75 32.6124 207.729 32.5121C207.648 32.1216 207.343 31.8165 206.952 31.7356C206.852 31.7148 206.731 31.7148 206.49 31.7148C206.248 31.7148 206.127 31.7148 206.027 31.7356C205.636 31.8165 205.331 32.1216 205.25 32.5121ZM201.45 34.6891C201.45 34.4475 201.45 34.3267 201.47 34.2263C201.551 33.8359 201.856 33.5308 202.247 33.4499C202.347 33.4291 202.468 33.4291 202.71 33.4291C202.951 33.4291 203.072 33.4291 203.172 33.4499C203.563 33.5308 203.868 33.8359 203.949 34.2263C203.97 34.3267 203.97 34.4475 203.97 34.6891V39.0263C203.97 39.2679 203.97 39.3887 203.949 39.4891C203.868 39.8795 203.563 40.1846 203.172 40.2655C203.072 40.2863 202.951 40.2863 202.71 40.2863C202.468 40.2863 202.347 40.2863 202.247 40.2655C201.856 40.1846 201.551 39.8795 201.47 39.4891C201.45 39.3887 201.45 39.2679 201.45 39.0263V34.6891ZM197.69 35.9406C197.67 36.041 197.67 36.1618 197.67 36.4034V39.0263C197.67 39.2679 197.67 39.3887 197.69 39.4891C197.771 39.8795 198.076 40.1846 198.467 40.2655C198.567 40.2863 198.688 40.2863 198.93 40.2863C199.171 40.2863 199.292 40.2863 199.392 40.2655C199.783 40.1846 200.088 39.8795 200.169 39.4891C200.19 39.3887 200.19 39.2679 200.19 39.0263V36.4034C200.19 36.1618 200.19 36.041 200.169 35.9406C200.088 35.5502 199.783 35.2451 199.392 35.1642C199.292 35.1434 199.171 35.1434 198.93 35.1434C198.688 35.1434 198.567 35.1434 198.467 35.1642C198.076 35.2451 197.771 35.5502 197.69 35.9406ZM193.91 37.2263C193.89 37.3267 193.89 37.4475 193.89 37.6891V39.0263C193.89 39.2679 193.89 39.3887 193.91 39.4891C193.991 39.8795 194.296 40.1846 194.687 40.2655C194.787 40.2863 194.908 40.2863 195.15 40.2863C195.391 40.2863 195.512 40.2863 195.612 40.2655C196.003 40.1846 196.308 39.8795 196.389 39.4891C196.41 39.3887 196.41 39.2679 196.41 39.0263V37.6891C196.41 37.4475 196.41 37.3267 196.389 37.2263C196.308 36.8359 196.003 36.5308 195.612 36.4499C195.512 36.4291 195.391 36.4291 195.15 36.4291C194.908 36.4291 194.787 36.4291 194.687 36.4499C194.296 36.5308 193.991 36.8359 193.91 37.2263Z" fill="#202020"/>
<path fill-rule="evenodd" clip-rule="evenodd" d="M223.395 35.1394C223.49 35.2307 223.637 35.2311 223.73 35.1369L224.623 34.2249C224.72 34.1263 224.72 33.9639 224.621 33.8683C223.101 32.4004 221.051 31.5 218.793 31.5C216.536 31.5 214.485 32.4004 212.965 33.8683C212.866 33.9639 212.866 34.1263 212.963 34.2249L213.856 35.1369C213.949 35.2311 214.096 35.2307 214.192 35.1394C215.397 33.987 217.015 33.2803 218.793 33.2803C220.571 33.2803 222.19 33.987 223.395 35.1394ZM221.339 37.2398C221.436 37.3281 221.581 37.329 221.673 37.2351L222.566 36.3244C222.663 36.2254 222.663 36.0604 222.562 35.9657C221.57 35.0352 220.247 34.467 218.793 34.467C217.34 34.467 216.016 35.0352 215.024 35.9657C214.923 36.0604 214.924 36.2254 215.021 36.3244L215.913 37.2351C216.005 37.329 216.15 37.3281 216.247 37.2398C216.924 36.6231 217.816 36.2472 218.793 36.2472C219.77 36.2472 220.662 36.6231 221.339 37.2398ZM220.502 38.0667C220.608 38.1567 220.607 38.3242 220.51 38.4237L218.966 39.9991C218.871 40.0955 218.717 40.0955 218.623 39.9991L217.079 38.4237C216.982 38.3242 216.98 38.1567 217.086 38.0667C217.549 37.6719 218.144 37.4341 218.794 37.4341C219.444 37.4341 220.04 37.6719 220.502 38.0667Z" fill="#202020"/>
<g opacity="0.4">
<mask id="path-15-inside-1_702_47814" fill="white">
<path fill-rule="evenodd" clip-rule="evenodd" d="M234.165 31.8555H241.686C242.585 31.8555 243.201 31.8562 243.678 31.8941C244.145 31.9311 244.393 31.9989 244.572 32.0868C245.017 32.306 245.378 32.6664 245.597 33.1118C245.685 33.2904 245.753 33.539 245.79 34.0055C245.828 34.4832 245.828 35.0992 245.828 35.9983C245.828 36.8975 245.828 37.5135 245.79 37.9911C245.753 38.4577 245.685 38.7063 245.597 38.8849C245.378 39.3303 245.017 39.6906 244.572 39.9099C244.393 39.9978 244.145 40.0655 243.678 40.1025C243.201 40.1404 242.585 40.1412 241.686 40.1412H234.165C233.265 40.1412 232.649 40.1404 232.172 40.1025C231.705 40.0655 231.457 39.9978 231.278 39.9099C230.833 39.6906 230.472 39.3303 230.253 38.8849C230.165 38.7063 230.097 38.4577 230.06 37.9911C230.022 37.5135 230.022 36.8975 230.022 35.9983C230.022 35.0992 230.022 34.4832 230.06 34.0055C230.097 33.539 230.165 33.2904 230.253 33.1118C230.472 32.6664 230.833 32.306 231.278 32.0868C231.457 31.9989 231.705 31.9311 232.172 31.8941C232.649 31.8562 233.265 31.8555 234.165 31.8555ZM229.022 35.9983C229.022 34.232 229.022 33.3489 229.356 32.6701C229.673 32.0268 230.193 31.5063 230.836 31.1896C231.515 30.8555 232.398 30.8555 234.165 30.8555H241.686C243.452 30.8555 244.335 30.8555 245.014 31.1896C245.657 31.5063 246.178 32.0268 246.494 32.6701C246.828 33.3489 246.828 34.232 246.828 35.9983C246.828 37.7646 246.828 38.6477 246.494 39.3265C246.178 39.9698 245.657 40.4904 245.014 40.8071C244.335 41.1412 243.452 41.1412 241.686 41.1412H234.165C232.398 41.1412 231.515 41.1412 230.836 40.8071C230.193 40.4904 229.673 39.9698 229.356 39.3265C229.022 38.6477 229.022 37.7646 229.022 35.9983ZM248.683 35.9983C248.683 35.1995 248.21 34.5284 247.57 34.338V37.6586C248.21 37.4683 248.683 36.7971 248.683 35.9983Z"/>
</mask>
<path d="M243.678 31.8941L243.757 30.8972L243.757 30.8972L243.678 31.8941ZM244.572 32.0868L245.014 31.1896L244.572 32.0868ZM245.597 33.1118L246.494 32.6701L246.494 32.6701L245.597 33.1118ZM245.79 34.0055L244.793 34.0846L244.793 34.0846L245.79 34.0055ZM245.79 37.9911L244.793 37.9121L244.793 37.9121L245.79 37.9911ZM245.597 38.8849L246.494 39.3265L246.494 39.3265L245.597 38.8849ZM244.572 39.9099L244.13 39.0127L244.13 39.0127L244.572 39.9099ZM243.678 40.1025L243.757 41.0994L243.757 41.0994L243.678 40.1025ZM232.172 40.1025L232.093 41.0994L232.093 41.0994L232.172 40.1025ZM231.278 39.9099L231.72 39.0127L231.72 39.0127L231.278 39.9099ZM230.253 38.8849L229.356 39.3265L230.253 38.8849ZM230.06 37.9911L231.057 37.9121L230.06 37.9911ZM230.06 34.0055L231.057 34.0846L231.057 34.0846L230.06 34.0055ZM230.253 33.1118L231.15 33.5534L231.15 33.5534L230.253 33.1118ZM231.278 32.0868L231.72 32.984L231.72 32.984L231.278 32.0868ZM232.172 31.8941L232.251 32.891L232.251 32.891L232.172 31.8941ZM229.356 32.6701L230.253 33.1118L230.253 33.1118L229.356 32.6701ZM230.836 31.1896L231.278 32.0868L231.278 32.0868L230.836 31.1896ZM245.014 31.1896L244.572 32.0868L244.572 32.0868L245.014 31.1896ZM246.494 32.6701L245.597 33.1118L245.597 33.1118L246.494 32.6701ZM246.494 39.3265L245.597 38.8849L245.597 38.8849L246.494 39.3265ZM245.014 40.8071L244.572 39.9099L244.572 39.9099L245.014 40.8071ZM230.836 40.8071L230.395 41.7042L230.395 41.7042L230.836 40.8071ZM229.356 39.3265L230.253 38.8849L230.253 38.8849L229.356 39.3265ZM247.57 34.338L247.855 33.3795L246.57 32.9974V34.338H247.57ZM247.57 37.6586H246.57V38.9992L247.855 38.6171L247.57 37.6586ZM241.686 30.8555H234.165V32.8555H241.686V30.8555ZM243.757 30.8972C243.231 30.8555 242.568 30.8555 241.686 30.8555V32.8555C242.601 32.8555 243.17 32.8569 243.599 32.891L243.757 30.8972ZM245.014 31.1896C244.674 31.0224 244.283 30.939 243.757 30.8972L243.599 32.891C244.006 32.9233 244.113 32.9753 244.13 32.984L245.014 31.1896ZM246.494 32.6701C246.178 32.0268 245.657 31.5063 245.014 31.1896L244.13 32.984C244.378 33.1058 244.578 33.306 244.7 33.5534L246.494 32.6701ZM246.787 33.9264C246.745 33.4004 246.661 33.0098 246.494 32.6701L244.7 33.5534C244.709 33.571 244.761 33.6775 244.793 34.0846L246.787 33.9264ZM246.828 35.9983C246.828 35.1156 246.828 34.4529 246.787 33.9264L244.793 34.0846C244.827 34.5135 244.828 35.0828 244.828 35.9983H246.828ZM246.787 38.0702C246.828 37.5437 246.828 36.8811 246.828 35.9983H244.828C244.828 36.9139 244.827 37.4832 244.793 37.9121L246.787 38.0702ZM246.494 39.3265C246.661 38.9869 246.745 38.5962 246.787 38.0702L244.793 37.9121C244.761 38.3191 244.709 38.4256 244.7 38.4432L246.494 39.3265ZM245.014 40.8071C245.657 40.4904 246.178 39.9698 246.494 39.3265L244.7 38.4432C244.578 38.6907 244.378 38.8909 244.13 39.0127L245.014 40.8071ZM243.757 41.0994C244.283 41.0577 244.674 40.9742 245.014 40.8071L244.13 39.0127C244.113 39.0213 244.006 39.0734 243.599 39.1057L243.757 41.0994ZM241.686 41.1412C242.568 41.1412 243.231 41.1412 243.757 41.0994L243.599 39.1057C243.17 39.1397 242.601 39.1412 241.686 39.1412V41.1412ZM234.165 41.1412H241.686V39.1412H234.165V41.1412ZM232.093 41.0994C232.619 41.1412 233.282 41.1412 234.165 41.1412V39.1412C233.249 39.1412 232.68 39.1397 232.251 39.1057L232.093 41.0994ZM230.836 40.8071C231.176 40.9742 231.567 41.0577 232.093 41.0994L232.251 39.1057C231.844 39.0734 231.737 39.0213 231.72 39.0127L230.836 40.8071ZM229.356 39.3265C229.673 39.9698 230.193 40.4904 230.836 40.8071L231.72 39.0127C231.472 38.8909 231.272 38.6907 231.15 38.4432L229.356 39.3265ZM229.063 38.0702C229.105 38.5962 229.189 38.9869 229.356 39.3265L231.15 38.4432C231.142 38.4256 231.09 38.3191 231.057 37.9121L229.063 38.0702ZM229.022 35.9983C229.022 36.8811 229.022 37.5437 229.063 38.0702L231.057 37.9121C231.023 37.4832 231.022 36.9139 231.022 35.9983H229.022ZM229.063 33.9264C229.022 34.4529 229.022 35.1156 229.022 35.9983H231.022C231.022 35.0828 231.023 34.5135 231.057 34.0846L229.063 33.9264ZM229.356 32.6701C229.189 33.0098 229.105 33.4004 229.063 33.9264L231.057 34.0846C231.09 33.6775 231.142 33.571 231.15 33.5534L229.356 32.6701ZM230.836 31.1896C230.193 31.5063 229.673 32.0268 229.356 32.6701L231.15 33.5534C231.272 33.306 231.472 33.1058 231.72 32.984L230.836 31.1896ZM232.093 30.8972C231.567 30.939 231.176 31.0224 230.836 31.1896L231.72 32.984C231.737 32.9753 231.844 32.9233 232.251 32.891L232.093 30.8972ZM234.165 30.8555C233.282 30.8555 232.619 30.8555 232.093 30.8972L232.251 32.891C232.68 32.8569 233.249 32.8555 234.165 32.8555V30.8555ZM228.459 32.2285C228.212 32.7286 228.113 33.261 228.067 33.8473C228.021 34.4225 228.022 35.1312 228.022 35.9983H230.022C230.022 35.0992 230.022 34.4832 230.06 34.0055C230.097 33.539 230.165 33.2904 230.253 33.1118L228.459 32.2285ZM230.395 30.2924C229.553 30.7065 228.873 31.3872 228.459 32.2285L230.253 33.1118C230.472 32.6664 230.833 32.306 231.278 32.0868L230.395 30.2924ZM234.165 29.8555C233.297 29.8555 232.589 29.8547 232.014 29.9004C231.427 29.9469 230.895 30.0462 230.395 30.2924L231.278 32.0868C231.457 31.9989 231.705 31.9311 232.172 31.8941C232.649 31.8562 233.265 31.8555 234.165 31.8555V29.8555ZM241.686 29.8555H234.165V31.8555H241.686V29.8555ZM245.455 30.2924C244.955 30.0462 244.423 29.9469 243.837 29.9004C243.261 29.8547 242.553 29.8555 241.686 29.8555V31.8555C242.585 31.8555 243.201 31.8562 243.678 31.8941C244.145 31.9311 244.393 31.9989 244.572 32.0868L245.455 30.2924ZM247.391 32.2285C246.977 31.3872 246.297 30.7065 245.455 30.2924L244.572 32.0868C245.017 32.306 245.378 32.6664 245.597 33.1118L247.391 32.2285ZM247.828 35.9983C247.828 35.1312 247.829 34.4225 247.784 33.8473C247.737 33.261 247.638 32.7286 247.391 32.2285L245.597 33.1118C245.685 33.2904 245.753 33.539 245.79 34.0055C245.828 34.4832 245.828 35.0992 245.828 35.9983H247.828ZM247.391 39.7682C247.638 39.268 247.737 38.7356 247.784 38.1493C247.829 37.5742 247.828 36.8655 247.828 35.9983H245.828C245.828 36.8975 245.828 37.5135 245.79 37.9911C245.753 38.4577 245.685 38.7063 245.597 38.8849L247.391 39.7682ZM245.455 41.7042C246.297 41.2901 246.977 40.6094 247.391 39.7682L245.597 38.8849C245.378 39.3303 245.017 39.6906 244.572 39.9099L245.455 41.7042ZM241.686 42.1412C242.553 42.1412 243.261 42.1419 243.837 42.0963C244.423 42.0498 244.955 41.9504 245.455 41.7042L244.572 39.9099C244.393 39.9978 244.145 40.0655 243.678 40.1025C243.201 40.1404 242.585 40.1412 241.686 40.1412V42.1412ZM234.165 42.1412H241.686V40.1412H234.165V42.1412ZM230.395 41.7042C230.895 41.9504 231.427 42.0498 232.014 42.0963C232.589 42.1419 233.297 42.1412 234.165 42.1412V40.1412C233.265 40.1412 232.649 40.1404 232.172 40.1025C231.705 40.0655 231.457 39.9978 231.278 39.9099L230.395 41.7042ZM228.459 39.7682C228.873 40.6094 229.553 41.2901 230.395 41.7042L231.278 39.9099C230.833 39.6906 230.472 39.3303 230.253 38.8849L228.459 39.7682ZM228.022 35.9983C228.022 36.8655 228.021 37.5742 228.067 38.1493C228.113 38.7356 228.212 39.268 228.459 39.7682L230.253 38.8849C230.165 38.7063 230.097 38.4577 230.06 37.9911C230.022 37.5135 230.022 36.8975 230.022 35.9983H228.022ZM247.285 35.2966C247.434 35.3407 247.683 35.5674 247.683 35.9983H249.683C249.683 34.8316 248.987 33.716 247.855 33.3795L247.285 35.2966ZM248.57 37.6586V34.338H246.57V37.6586H248.57ZM247.683 35.9983C247.683 36.4292 247.434 36.656 247.285 36.7001L247.855 38.6171C248.987 38.2806 249.683 37.165 249.683 35.9983H247.683Z" fill="#202020" mask="url(#path-15-inside-1_702_47814)"/>
</g>
<rect x="230.506" y="32.5703" width="14.8389" height="6.85714" rx="1.5" fill="#202020"/>
<rect x="20.5295" y="108" width="32" height="32" rx="12" fill="white"/>
<path d="M44.6545 121.221C44.2105 121.985 42.7583 122.634 40.7301 123.01C39.3461 123.263 37.939 123.386 36.5295 123.374C35.1201 123.386 33.713 123.263 32.329 123.01C30.3008 122.634 28.8486 121.951 28.4045 121.188C28.5992 120.806 28.9077 120.521 29.2918 120.304C29.6759 120.087 30.1185 119.982 30.5648 120.002C30.7283 119.985 30.8934 119.985 31.0569 120.002C31.1972 119.545 31.4966 119.146 31.9064 118.871C32.3161 118.596 32.812 118.461 33.3131 118.487C33.6381 118.483 33.9607 118.541 34.2613 118.658C34.4245 118.21 34.7307 117.822 35.1372 117.547C35.5438 117.273 36.0305 117.125 36.5295 117.125C37.0286 117.125 37.5153 117.273 37.9218 117.547C38.3284 117.822 38.6346 118.21 38.7978 118.658C39.0984 118.541 39.421 118.483 39.7459 118.487C40.2471 118.461 40.743 118.596 41.1527 118.871C41.5625 119.146 41.8619 119.545 42.0022 120.002C42.1657 119.985 42.3308 119.985 42.4943 120.002C42.9406 119.982 43.3832 120.087 43.7673 120.304C44.1513 120.521 44.4599 120.84 44.6545 121.221Z" fill="white"/>
<path fill-rule="evenodd" clip-rule="evenodd" d="M30.5648 120.002C30.1185 119.982 29.6759 120.087 29.2918 120.304C28.9077 120.521 28.5992 120.806 28.4045 121.188C28.8486 121.951 30.1263 122.999 32.1545 123.375C33.5385 123.629 35.1201 124.011 36.5295 124C37.939 124.011 39.5206 123.629 40.9045 123.375C42.9328 122.999 44.2105 121.985 44.6545 121.221C44.4599 120.84 44.1513 120.521 43.7673 120.304C43.3832 120.087 42.9406 119.982 42.4943 120.002C42.3308 119.985 42.1657 119.985 42.0022 120.002C41.8619 119.545 41.5625 119.146 41.1527 118.871C40.743 118.596 40.2471 118.461 39.7459 118.487C39.4306 118.483 39.1175 118.537 38.8246 118.648C38.8156 118.651 38.8067 118.655 38.7978 118.658C38.795 118.651 38.7922 118.643 38.7893 118.635C38.6241 118.197 38.3214 117.818 37.9218 117.547C37.5153 117.273 37.0286 117.125 36.5295 117.125C36.0305 117.125 35.5438 117.273 35.1372 117.547C34.7377 117.818 34.435 118.197 34.2698 118.635C34.2669 118.643 34.2641 118.65 34.2613 118.658C34.2524 118.655 34.2435 118.651 34.2345 118.648C33.9416 118.537 33.6285 118.483 33.3131 118.487C32.812 118.461 32.3161 118.596 31.9064 118.871C31.4966 119.146 31.1972 119.545 31.0569 120.002C30.8934 119.985 30.7283 119.985 30.5648 120.002ZM43.7854 121.174C43.6104 121.314 43.359 121.469 43.0126 121.626C42.4042 121.901 41.5896 122.145 40.6104 122.326C39.2677 122.572 37.9025 122.691 36.5348 122.68L36.5295 122.68L36.5243 122.68C35.1566 122.691 33.7913 122.572 32.4487 122.326C31.4734 122.145 30.6604 121.895 30.0528 121.612C29.7098 121.452 29.4584 121.294 29.2819 121.151C29.3759 121.065 29.4873 120.986 29.6182 120.912C29.8913 120.758 30.2104 120.682 30.5352 120.696L30.585 120.698L30.6347 120.693C30.7517 120.681 30.8699 120.681 30.987 120.693L31.5369 120.752L31.7028 120.211C31.7937 119.914 31.9916 119.644 32.2772 119.452C32.5636 119.26 32.9166 119.162 33.278 119.181L33.3002 119.182L33.3224 119.182C33.5629 119.178 33.8006 119.221 34.0205 119.307L34.6569 119.556L34.8954 118.901C35.0061 118.598 35.2173 118.325 35.5098 118.127C35.8029 117.929 36.1594 117.819 36.5295 117.819C36.8997 117.819 37.2562 117.929 37.5493 118.127C37.8418 118.325 38.053 118.598 38.1636 118.901L38.4022 119.556L39.0386 119.307C39.2585 119.221 39.4962 119.178 39.7367 119.182L39.7589 119.182L39.7811 119.181C40.1425 119.162 40.4955 119.26 40.7818 119.452C41.0674 119.644 41.2653 119.914 41.3563 120.211L41.5222 120.752L42.0721 120.693C42.1891 120.681 42.3074 120.681 42.4244 120.693L42.474 120.698L42.5239 120.696C42.8487 120.682 43.1678 120.758 43.4409 120.912C43.5704 120.985 43.6859 121.074 43.7854 121.174Z" fill="#CA1010"/>
<path d="M29.1898 121.201C29.1904 121.057 28.7299 121.114 28.7299 121.114C28.7299 121.114 28.1917 121.384 28.1722 121.527L27.157 127.629C27.1554 127.641 27.1545 127.653 27.1545 127.665C27.1545 128.19 27.4831 128.647 27.9759 129.024C28.4714 129.403 29.1709 129.731 30.0101 130.002C31.6913 130.545 33.9961 130.875 36.5295 130.875C39.063 130.875 41.3678 130.545 43.049 130.002C43.8881 129.731 44.5877 129.403 45.0832 129.024C45.576 128.647 45.9045 128.19 45.9045 127.665C45.9045 127.653 45.9037 127.641 45.9021 127.629L44.7933 121.527C44.7737 121.384 44.3303 120.875 44.3303 120.875C44.3303 120.875 44.1142 121.057 44.1148 121.201C44.1154 121.324 44.3943 121.282 44.3303 121.389C44.1328 121.704 43.7198 122.026 43.0802 122.32C42.4461 122.612 41.6185 122.863 40.6347 123.051C37.9215 123.539 35.1375 123.539 32.4243 123.051C31.4399 122.863 30.6009 122.612 29.961 122.32C29.3118 122.024 28.9065 121.703 28.7338 121.398L28.7299 121.391C28.6651 121.284 29.1892 121.325 29.1898 121.201Z" fill="#CA1010"/>
<path d="M37.9521 123.375C38.2997 123.375 38.6014 123.441 38.857 123.572C39.1177 123.697 39.3146 123.872 39.4475 124.098C39.5855 124.317 39.6545 124.57 39.6545 124.858C39.6545 125.02 39.6366 125.171 39.6009 125.308C39.4526 125.94 39.0257 126.34 38.3202 126.509C38.5656 126.597 38.7599 126.744 38.903 126.95C39.0462 127.151 39.1177 127.401 39.1177 127.701C39.1177 127.839 39.0973 128.002 39.0564 128.189C38.9439 128.677 38.7164 129.04 38.3739 129.278C38.0364 129.509 37.5559 129.625 36.9321 129.625H33.742C33.6346 129.625 33.5528 129.603 33.4966 129.559C33.4352 129.516 33.4045 129.456 33.4045 129.381C33.4045 129.343 33.4122 129.303 33.4275 129.259C33.448 129.19 33.4812 129.137 33.5272 129.099C33.5733 129.062 33.6014 129.04 33.6116 129.034C33.6934 128.971 33.7599 128.909 33.811 128.846C33.8621 128.777 33.9056 128.668 33.9414 128.518L34.8769 124.473C34.8974 124.392 34.9076 124.313 34.9076 124.238C34.9076 124.17 34.8974 124.113 34.8769 124.069C34.8616 124.019 34.8386 123.963 34.8079 123.901C34.7619 123.819 34.7389 123.754 34.7389 123.703C34.7389 123.685 34.744 123.65 34.7542 123.6C34.7747 123.519 34.8181 123.463 34.8846 123.431C34.9562 123.394 35.0635 123.375 35.2067 123.375H37.9521ZM37.607 125.092C37.6428 124.955 37.6607 124.826 37.6607 124.708C37.6607 124.382 37.5099 124.22 37.2082 124.22H36.8631L36.4567 125.974H36.7941C37.0088 125.974 37.1775 125.912 37.3002 125.787C37.4281 125.655 37.5303 125.424 37.607 125.092ZM37.0472 127.851C37.083 127.701 37.1009 127.564 37.1009 127.438C37.1009 127.101 36.9424 126.932 36.6254 126.932H36.242L35.8048 128.78H36.196C36.4158 128.78 36.5922 128.715 36.7251 128.583C36.858 128.446 36.9654 128.202 37.0472 127.851Z" fill="white"/>
</g>
<path d="M48.5295 1H232.53C258.487 1 279.53 22.0426 279.53 48V519H1.52954V48C1.52954 22.0426 22.5722 1 48.5295 1Z" stroke="#DEDEDE" stroke-width="2"/>
<defs>
<clipPath id="clip0_702_47814">
<path d="M0.529541 48C0.529541 21.4903 22.0199 0 48.5295 0H232.53C259.039 0 280.53 21.4903 280.53 48V520H0.529541V48Z" fill="white"/>
</clipPath>
<clipPath id="clip1_702_47814">
<rect width="238" height="24" fill="white" transform="translate(19.5295 61)"/>
</clipPath>
</defs>
</svg>
