<svg width="276" height="551" viewBox="0 0 276 551" fill="none" xmlns="http://www.w3.org/2000/svg">
<path d="M12 43C12 20.9086 29.9086 3 52 3H228C250.091 3 268 20.9086 268 43V551H12V43Z" fill="#B5D0DF"/>
<path d="M67.1803 102.859V112.913H68.3353V102.859H67.1803ZM68.0713 106.72V107.688H69.8973V106.72H68.0713ZM60.8993 103.684V110.537H65.6733V103.684H64.5293V106.247H62.0433V103.684H60.8993ZM62.0433 107.149H64.5293V109.602H62.0433V107.149ZM70.4464 110.724V111.681H79.5544V110.724H70.4464ZM71.1944 103.805V104.74H78.7404V103.805H71.1944ZM71.2274 108.007V108.942H78.7184V108.007H71.2274ZM72.6684 104.663V108.106H73.8234V104.663H72.6684ZM76.1224 104.663V108.106H77.2664V104.663H76.1224ZM80.3456 107.809V108.722H89.4316V107.809H80.3456ZM84.3056 106.126V108.128H85.4496V106.126H84.3056ZM81.3466 109.569V110.493H87.1876V112.968H88.3316V109.569H81.3466ZM81.4676 105.818V106.753H88.4086V105.818H81.4676ZM81.4676 103.266V106.313H82.6226V104.19H88.3206V103.266H81.4676Z" fill="#555B5F" fill-opacity="0.93"/>
<path d="M126.582 56.445V70.335H128.592V56.445H126.582ZM128.142 61.62V63.27H130.602V61.62H128.142ZM118.122 57.54V67.125H124.872V57.54H122.892V60.915H120.102V57.54H118.122ZM120.102 62.46H122.892V65.52H120.102V62.46ZM131.216 67.095V68.73H143.786V67.095H131.216ZM132.176 57.645V59.235H142.751V57.645H132.176ZM132.236 63.39V64.995H142.706V63.39H132.236ZM134.066 59.115V63.54H136.061V59.115H134.066ZM138.881 59.115V63.54H140.861V59.115H138.881ZM144.714 63.18V64.74H157.269V63.18H144.714ZM149.979 60.915V63.66H151.974V60.915H149.979ZM146.094 65.685V67.26H153.804V70.38H155.784V65.685H146.094ZM146.229 60.375V61.965H155.904V60.375H146.229ZM146.229 57V61.23H148.224V58.575H155.784V57H146.229Z" fill="#202020"/>
<path d="M35.0002 72L27.0002 64L35.0002 56" stroke="#202020" stroke-width="1.5"/>
<line x1="237" y1="57.5" x2="255" y2="57.5" stroke="#202020"/>
<line x1="237" y1="63.5" x2="255" y2="63.5" stroke="#202020"/>
<line x1="237" y1="69.5" x2="255" y2="69.5" stroke="#202020"/>
<circle cx="216" cy="63" r="6.5" stroke="#202020"/>
<path d="M220.5 67.5L224.5 71.5" stroke="#202020"/>
<path d="M39.126 21.6182C37.2026 21.6182 35.8062 22.9639 35.8062 24.8047V24.8174C35.8062 26.5693 37.063 27.8643 38.8086 27.8643C40.0527 27.8643 40.8843 27.2104 41.2144 26.4741H41.3413C41.3413 26.5439 41.335 26.6138 41.335 26.6836C41.2651 28.5117 40.6177 30.0161 39.0752 30.0161C38.2183 30.0161 37.6216 29.5718 37.3613 28.8735L37.3423 28.8101H35.9268L35.9458 28.8862C36.2441 30.27 37.4502 31.2222 39.0752 31.2222C41.3413 31.2222 42.6934 29.394 42.6934 26.29V26.2773C42.6934 22.9131 40.9604 21.6182 39.126 21.6182ZM39.1196 26.7153C38.0151 26.7153 37.209 25.9028 37.209 24.7793V24.7666C37.209 23.6685 38.0659 22.8115 39.1387 22.8115C40.2178 22.8115 41.062 23.6875 41.062 24.8047V24.811C41.062 25.9155 40.2178 26.7153 39.1196 26.7153ZM45.2781 24.9443C45.8049 24.9443 46.2048 24.5317 46.2048 24.0176C46.2048 23.4971 45.8049 23.0908 45.2781 23.0908C44.7512 23.0908 44.345 23.4971 44.345 24.0176C44.345 24.5317 44.7512 24.9443 45.2781 24.9443ZM45.2781 29.7432C45.8049 29.7432 46.2048 29.3306 46.2048 28.8164C46.2048 28.2959 45.8049 27.8896 45.2781 27.8896C44.7512 27.8896 44.345 28.2959 44.345 28.8164C44.345 29.3306 44.7512 29.7432 45.2781 29.7432ZM52.2807 31H53.6518V29.1782H54.915V27.9722H53.6518V21.8403H51.6269C50.3638 23.7383 49.018 25.9028 47.812 27.9722V29.1782H52.2807V31ZM49.1767 27.9976V27.9087C50.1162 26.3027 51.2334 24.519 52.2173 23.04H52.2998V27.9976H49.1767ZM58.509 31H59.9309V21.8403H58.509L56.0969 23.5542V24.9507L58.4011 23.3066H58.509V31Z" fill="#202020"/>
<path fill-rule="evenodd" clip-rule="evenodd" d="M204.721 23.5121C204.7 23.6124 204.7 23.7332 204.7 23.9748V30.0263C204.7 30.2679 204.7 30.3887 204.721 30.4891C204.802 30.8795 205.107 31.1846 205.497 31.2655C205.598 31.2863 205.718 31.2863 205.96 31.2863C206.202 31.2863 206.323 31.2863 206.423 31.2655C206.813 31.1846 207.118 30.8795 207.199 30.4891C207.22 30.3887 207.22 30.2679 207.22 30.0263V23.9748C207.22 23.7332 207.22 23.6124 207.199 23.5121C207.118 23.1216 206.813 22.8165 206.423 22.7356C206.323 22.7148 206.202 22.7148 205.96 22.7148C205.718 22.7148 205.598 22.7148 205.497 22.7356C205.107 22.8165 204.802 23.1216 204.721 23.5121ZM200.92 25.6891C200.92 25.4475 200.92 25.3267 200.941 25.2263C201.022 24.8359 201.327 24.5308 201.717 24.4499C201.818 24.4291 201.938 24.4291 202.18 24.4291C202.422 24.4291 202.543 24.4291 202.643 24.4499C203.033 24.5308 203.338 24.8359 203.419 25.2263C203.44 25.3267 203.44 25.4475 203.44 25.6891V30.0263C203.44 30.2679 203.44 30.3887 203.419 30.4891C203.338 30.8795 203.033 31.1846 202.643 31.2655C202.543 31.2863 202.422 31.2863 202.18 31.2863C201.938 31.2863 201.818 31.2863 201.717 31.2655C201.327 31.1846 201.022 30.8795 200.941 30.4891C200.92 30.3887 200.92 30.2679 200.92 30.0263V25.6891ZM197.161 26.9406C197.14 27.041 197.14 27.1618 197.14 27.4034V30.0263C197.14 30.2679 197.14 30.3887 197.161 30.4891C197.242 30.8795 197.547 31.1846 197.937 31.2655C198.038 31.2863 198.158 31.2863 198.4 31.2863C198.642 31.2863 198.763 31.2863 198.863 31.2655C199.253 31.1846 199.558 30.8795 199.639 30.4891C199.66 30.3887 199.66 30.2679 199.66 30.0263V27.4034C199.66 27.1618 199.66 27.041 199.639 26.9406C199.558 26.5502 199.253 26.2451 198.863 26.1642C198.763 26.1434 198.642 26.1434 198.4 26.1434C198.158 26.1434 198.038 26.1434 197.937 26.1642C197.547 26.2451 197.242 26.5502 197.161 26.9406ZM193.381 28.2263C193.36 28.3267 193.36 28.4475 193.36 28.6891V30.0263C193.36 30.2679 193.36 30.3887 193.381 30.4891C193.462 30.8795 193.767 31.1846 194.157 31.2655C194.258 31.2863 194.378 31.2863 194.62 31.2863C194.862 31.2863 194.983 31.2863 195.083 31.2655C195.473 31.1846 195.778 30.8795 195.859 30.4891C195.88 30.3887 195.88 30.2679 195.88 30.0263V28.6891C195.88 28.4475 195.88 28.3267 195.859 28.2263C195.778 27.8359 195.473 27.5308 195.083 27.4499C194.983 27.4291 194.862 27.4291 194.62 27.4291C194.378 27.4291 194.258 27.4291 194.157 27.4499C193.767 27.5308 193.462 27.8359 193.381 28.2263Z" fill="#202020"/>
<path fill-rule="evenodd" clip-rule="evenodd" d="M222.865 26.1394C222.96 26.2307 223.107 26.2311 223.2 26.1369L224.094 25.2249C224.19 25.1263 224.191 24.9639 224.091 24.8683C222.572 23.4004 220.521 22.5 218.264 22.5C216.006 22.5 213.955 23.4004 212.436 24.8683C212.336 24.9639 212.337 25.1263 212.433 25.2249L213.327 26.1369C213.42 26.2311 213.567 26.2307 213.662 26.1394C214.867 24.987 216.486 24.2803 218.264 24.2803C220.041 24.2803 221.66 24.987 222.865 26.1394ZM220.81 28.2398C220.907 28.3281 221.052 28.329 221.144 28.2351L222.036 27.3244C222.133 27.2254 222.133 27.0604 222.033 26.9657C221.041 26.0352 219.717 25.467 218.264 25.467C216.81 25.467 215.487 26.0352 214.495 26.9657C214.394 27.0604 214.394 27.2254 214.491 27.3244L215.384 28.2351C215.476 28.329 215.621 28.3281 215.718 28.2398C216.395 27.6231 217.287 27.2472 218.264 27.2472C219.241 27.2472 220.133 27.6231 220.81 28.2398ZM219.973 29.0667C220.078 29.1567 220.077 29.3242 219.98 29.4237L218.436 30.9991C218.342 31.0955 218.188 31.0955 218.093 30.9991L216.549 29.4237C216.452 29.3242 216.451 29.1567 216.557 29.0667C217.019 28.6719 217.615 28.4341 218.265 28.4341C218.915 28.4341 219.51 28.6719 219.973 29.0667Z" fill="#202020"/>
<g opacity="0.4">
<mask id="path-13-inside-1_702_47762" fill="white">
<path fill-rule="evenodd" clip-rule="evenodd" d="M233.635 22.8555H241.156C242.055 22.8555 242.671 22.8562 243.149 22.8941C243.615 22.9311 243.864 22.9989 244.043 23.0868C244.488 23.306 244.848 23.6664 245.068 24.1118C245.155 24.2904 245.223 24.539 245.26 25.0055C245.298 25.4832 245.299 26.0992 245.299 26.9983C245.299 27.8975 245.298 28.5135 245.26 28.9911C245.223 29.4577 245.155 29.7063 245.068 29.8849C244.848 30.3303 244.488 30.6906 244.043 30.9099C243.864 30.9978 243.615 31.0655 243.149 31.1025C242.671 31.1404 242.055 31.1412 241.156 31.1412H233.635C232.736 31.1412 232.12 31.1404 231.642 31.1025C231.176 31.0655 230.927 30.9978 230.748 30.9099C230.303 30.6906 229.943 30.3303 229.724 29.8849C229.636 29.7063 229.568 29.4577 229.531 28.9911C229.493 28.5135 229.492 27.8975 229.492 26.9983C229.492 26.0992 229.493 25.4832 229.531 25.0055C229.568 24.539 229.636 24.2904 229.724 24.1118C229.943 23.6664 230.303 23.306 230.748 23.0868C230.927 22.9989 231.176 22.9311 231.642 22.8941C232.12 22.8562 232.736 22.8555 233.635 22.8555ZM228.492 26.9983C228.492 25.232 228.492 24.3489 228.826 23.6701C229.143 23.0268 229.664 22.5063 230.307 22.1896C230.986 21.8555 231.869 21.8555 233.635 21.8555H241.156C242.922 21.8555 243.805 21.8555 244.484 22.1896C245.128 22.5063 245.648 23.0268 245.965 23.6701C246.299 24.3489 246.299 25.232 246.299 26.9983C246.299 28.7646 246.299 29.6477 245.965 30.3265C245.648 30.9698 245.128 31.4904 244.484 31.8071C243.805 32.1412 242.922 32.1412 241.156 32.1412H233.635C231.869 32.1412 230.986 32.1412 230.307 31.8071C229.664 31.4904 229.143 30.9698 228.826 30.3265C228.492 29.6477 228.492 28.7646 228.492 26.9983ZM248.154 26.9983C248.154 26.1995 247.681 25.5284 247.041 25.338V28.6586C247.681 28.4683 248.154 27.7971 248.154 26.9983Z"/>
</mask>
<path d="M243.149 22.8941L243.228 21.8972L243.228 21.8972L243.149 22.8941ZM244.043 23.0868L244.484 22.1896L244.043 23.0868ZM245.068 24.1118L245.965 23.6701L245.965 23.6701L245.068 24.1118ZM245.26 25.0055L244.263 25.0846L244.263 25.0846L245.26 25.0055ZM245.26 28.9911L244.263 28.9121L244.263 28.9121L245.26 28.9911ZM245.068 29.8849L245.965 30.3265L245.965 30.3265L245.068 29.8849ZM244.043 30.9099L243.601 30.0127L243.601 30.0127L244.043 30.9099ZM243.149 31.1025L243.228 32.0994L243.228 32.0994L243.149 31.1025ZM231.642 31.1025L231.563 32.0994L231.563 32.0994L231.642 31.1025ZM230.748 30.9099L231.19 30.0127L231.19 30.0127L230.748 30.9099ZM229.724 29.8849L228.826 30.3265L229.724 29.8849ZM229.531 28.9911L230.528 28.9121L229.531 28.9911ZM229.531 25.0055L230.528 25.0846L230.528 25.0846L229.531 25.0055ZM229.724 24.1118L230.621 24.5534L230.621 24.5534L229.724 24.1118ZM230.748 23.0868L231.19 23.984L231.19 23.984L230.748 23.0868ZM231.642 22.8941L231.721 23.891L231.721 23.891L231.642 22.8941ZM228.826 23.6701L229.724 24.1118L229.724 24.1118L228.826 23.6701ZM230.307 22.1896L230.748 23.0868L230.748 23.0868L230.307 22.1896ZM244.484 22.1896L244.043 23.0868L244.043 23.0868L244.484 22.1896ZM245.965 23.6701L245.068 24.1118L245.068 24.1118L245.965 23.6701ZM245.965 30.3265L245.068 29.8849L245.068 29.8849L245.965 30.3265ZM244.484 31.8071L244.043 30.9099L244.043 30.9099L244.484 31.8071ZM230.307 31.8071L229.865 32.7042L229.865 32.7042L230.307 31.8071ZM228.826 30.3265L229.724 29.8849L229.724 29.8849L228.826 30.3265ZM247.041 25.338L247.326 24.3795L246.041 23.9974V25.338H247.041ZM247.041 28.6586H246.041V29.9992L247.326 29.6171L247.041 28.6586ZM241.156 21.8555H233.635V23.8555H241.156V21.8555ZM243.228 21.8972C242.701 21.8555 242.039 21.8555 241.156 21.8555V23.8555C242.072 23.8555 242.641 23.8569 243.07 23.891L243.228 21.8972ZM244.484 22.1896C244.145 22.0224 243.754 21.939 243.228 21.8972L243.07 23.891C243.477 23.9233 243.583 23.9753 243.601 23.984L244.484 22.1896ZM245.965 23.6701C245.648 23.0268 245.128 22.5063 244.484 22.1896L243.601 23.984C243.848 24.1058 244.049 24.306 244.17 24.5534L245.965 23.6701ZM246.257 24.9264C246.215 24.4004 246.132 24.0098 245.965 23.6701L244.17 24.5534C244.179 24.571 244.231 24.6775 244.263 25.0846L246.257 24.9264ZM246.299 26.9983C246.299 26.1156 246.299 25.4529 246.257 24.9264L244.263 25.0846C244.297 25.5135 244.299 26.0828 244.299 26.9983H246.299ZM246.257 29.0702C246.299 28.5437 246.299 27.8811 246.299 26.9983H244.299C244.299 27.9139 244.297 28.4832 244.263 28.9121L246.257 29.0702ZM245.965 30.3265C246.132 29.9869 246.215 29.5962 246.257 29.0702L244.263 28.9121C244.231 29.3191 244.179 29.4256 244.17 29.4432L245.965 30.3265ZM244.484 31.8071C245.128 31.4904 245.648 30.9698 245.965 30.3265L244.17 29.4432C244.049 29.6907 243.848 29.8909 243.601 30.0127L244.484 31.8071ZM243.228 32.0994C243.754 32.0577 244.145 31.9742 244.484 31.8071L243.601 30.0127C243.583 30.0213 243.477 30.0734 243.07 30.1057L243.228 32.0994ZM241.156 32.1412C242.039 32.1412 242.701 32.1412 243.228 32.0994L243.07 30.1057C242.641 30.1397 242.072 30.1412 241.156 30.1412V32.1412ZM233.635 32.1412H241.156V30.1412H233.635V32.1412ZM231.563 32.0994C232.09 32.1412 232.752 32.1412 233.635 32.1412V30.1412C232.719 30.1412 232.15 30.1397 231.721 30.1057L231.563 32.0994ZM230.307 31.8071C230.646 31.9742 231.037 32.0577 231.563 32.0994L231.721 30.1057C231.314 30.0734 231.208 30.0213 231.19 30.0127L230.307 31.8071ZM228.826 30.3265C229.143 30.9698 229.664 31.4904 230.307 31.8071L231.19 30.0127C230.943 29.8909 230.742 29.6907 230.621 29.4432L228.826 30.3265ZM228.534 29.0702C228.576 29.5962 228.659 29.9869 228.826 30.3265L230.621 29.4432C230.612 29.4256 230.56 29.3191 230.528 28.9121L228.534 29.0702ZM228.492 26.9983C228.492 27.8811 228.492 28.5437 228.534 29.0702L230.528 28.9121C230.494 28.4832 230.492 27.9139 230.492 26.9983H228.492ZM228.534 24.9264C228.492 25.4529 228.492 26.1156 228.492 26.9983H230.492C230.492 26.0828 230.494 25.5135 230.528 25.0846L228.534 24.9264ZM228.826 23.6701C228.659 24.0098 228.576 24.4004 228.534 24.9264L230.528 25.0846C230.56 24.6775 230.612 24.571 230.621 24.5534L228.826 23.6701ZM230.307 22.1896C229.664 22.5063 229.143 23.0268 228.826 23.6701L230.621 24.5534C230.742 24.306 230.943 24.1058 231.19 23.984L230.307 22.1896ZM231.563 21.8972C231.037 21.939 230.646 22.0224 230.307 22.1896L231.19 23.984C231.208 23.9753 231.314 23.9233 231.721 23.891L231.563 21.8972ZM233.635 21.8555C232.752 21.8555 232.09 21.8555 231.563 21.8972L231.721 23.891C232.15 23.8569 232.72 23.8555 233.635 23.8555V21.8555ZM227.929 23.2285C227.683 23.7286 227.584 24.261 227.537 24.8473C227.491 25.4225 227.492 26.1312 227.492 26.9983H229.492C229.492 26.0992 229.493 25.4832 229.531 25.0055C229.568 24.539 229.636 24.2904 229.724 24.1118L227.929 23.2285ZM229.865 21.2924C229.024 21.7065 228.343 22.3872 227.929 23.2285L229.724 24.1118C229.943 23.6664 230.303 23.306 230.748 23.0868L229.865 21.2924ZM233.635 20.8555C232.768 20.8555 232.059 20.8547 231.484 20.9004C230.898 20.9469 230.365 21.0462 229.865 21.2924L230.748 23.0868C230.927 22.9989 231.176 22.9311 231.642 22.8941C232.12 22.8562 232.736 22.8555 233.635 22.8555V20.8555ZM241.156 20.8555H233.635V22.8555H241.156V20.8555ZM244.926 21.2924C244.426 21.0462 243.893 20.9469 243.307 20.9004C242.732 20.8547 242.023 20.8555 241.156 20.8555V22.8555C242.055 22.8555 242.671 22.8562 243.149 22.8941C243.615 22.9311 243.864 22.9989 244.043 23.0868L244.926 21.2924ZM246.862 23.2285C246.448 22.3872 245.767 21.7065 244.926 21.2924L244.043 23.0868C244.488 23.306 244.848 23.6664 245.068 24.1118L246.862 23.2285ZM247.299 26.9983C247.299 26.1312 247.3 25.4225 247.254 24.8473C247.207 24.261 247.108 23.7286 246.862 23.2285L245.068 24.1118C245.155 24.2904 245.223 24.539 245.26 25.0055C245.298 25.4832 245.299 26.0992 245.299 26.9983H247.299ZM246.862 30.7682C247.108 30.268 247.207 29.7356 247.254 29.1493C247.3 28.5742 247.299 27.8655 247.299 26.9983H245.299C245.299 27.8975 245.298 28.5135 245.26 28.9911C245.223 29.4577 245.155 29.7063 245.068 29.8849L246.862 30.7682ZM244.926 32.7042C245.767 32.2901 246.448 31.6094 246.862 30.7682L245.068 29.8849C244.848 30.3303 244.488 30.6906 244.043 30.9099L244.926 32.7042ZM241.156 33.1412C242.023 33.1412 242.732 33.1419 243.307 33.0963C243.893 33.0498 244.426 32.9504 244.926 32.7042L244.043 30.9099C243.864 30.9978 243.615 31.0655 243.149 31.1025C242.671 31.1404 242.055 31.1412 241.156 31.1412V33.1412ZM233.635 33.1412H241.156V31.1412H233.635V33.1412ZM229.865 32.7042C230.365 32.9504 230.898 33.0498 231.484 33.0963C232.059 33.1419 232.768 33.1412 233.635 33.1412V31.1412C232.736 31.1412 232.12 31.1404 231.642 31.1025C231.176 31.0655 230.927 30.9978 230.748 30.9099L229.865 32.7042ZM227.929 30.7682C228.343 31.6094 229.024 32.2901 229.865 32.7042L230.748 30.9099C230.303 30.6906 229.943 30.3303 229.724 29.8849L227.929 30.7682ZM227.492 26.9983C227.492 27.8655 227.491 28.5742 227.537 29.1493C227.584 29.7356 227.683 30.268 227.929 30.7682L229.724 29.8849C229.636 29.7063 229.568 29.4577 229.531 28.9911C229.493 28.5135 229.492 27.8975 229.492 26.9983H227.492ZM246.756 26.2966C246.904 26.3407 247.154 26.5674 247.154 26.9983H249.154C249.154 25.8316 248.457 24.716 247.326 24.3795L246.756 26.2966ZM248.041 28.6586V25.338H246.041V28.6586H248.041ZM247.154 26.9983C247.154 27.4292 246.904 27.656 246.756 27.7001L247.326 29.6171C248.457 29.2806 249.154 28.165 249.154 26.9983H247.154Z" fill="#202020" mask="url(#path-13-inside-1_702_47762)"/>
</g>
<rect x="229.976" y="23.5703" width="14.8389" height="6.85714" rx="1.5" fill="#202020"/>
<rect x="20" y="99" width="32" height="32" rx="12" fill="white"/>
<path d="M44.125 112.221C43.6809 112.985 42.2288 113.634 40.2005 114.01C38.8166 114.263 37.4095 114.386 36 114.374C34.5905 114.386 33.1834 114.263 31.7995 114.01C29.7712 113.634 28.3191 112.951 27.875 112.188C28.0697 111.806 28.3782 111.521 28.7623 111.304C29.1463 111.087 29.589 110.982 30.0353 111.002C30.1988 110.985 30.3638 110.985 30.5273 111.002C30.6676 110.545 30.9671 110.146 31.3768 109.871C31.7866 109.596 32.2825 109.461 32.7836 109.487C33.1086 109.483 33.4311 109.541 33.7317 109.658C33.895 109.21 34.2011 108.822 34.6077 108.547C35.0142 108.273 35.5009 108.125 36 108.125C36.4991 108.125 36.9858 108.273 37.3923 108.547C37.7988 108.822 38.105 109.21 38.2683 109.658C38.5689 109.541 38.8914 109.483 39.2164 109.487C39.7175 109.461 40.2134 109.596 40.6232 109.871C41.0329 110.146 41.3324 110.545 41.4727 111.002C41.6362 110.985 41.8012 110.985 41.9647 111.002C42.411 110.982 42.8537 111.087 43.2377 111.304C43.6218 111.521 43.9303 111.84 44.125 112.221Z" fill="white"/>
<path fill-rule="evenodd" clip-rule="evenodd" d="M30.0353 111.002C29.589 110.982 29.1463 111.087 28.7623 111.304C28.3782 111.521 28.0697 111.806 27.875 112.188C28.3191 112.951 29.5968 113.999 31.625 114.375C33.0089 114.629 34.5905 115.011 36 115C37.4095 115.011 38.9911 114.629 40.375 114.375C42.4033 113.999 43.6809 112.985 44.125 112.221C43.9303 111.84 43.6218 111.521 43.2377 111.304C42.8537 111.087 42.411 110.982 41.9647 111.002C41.8012 110.985 41.6362 110.985 41.4727 111.002C41.3324 110.545 41.0329 110.146 40.6232 109.871C40.2134 109.596 39.7175 109.461 39.2164 109.487C38.901 109.483 38.588 109.537 38.295 109.648C38.2861 109.651 38.2772 109.655 38.2683 109.658C38.2655 109.651 38.2626 109.643 38.2598 109.635C38.0945 109.197 37.7919 108.818 37.3923 108.547C36.9858 108.273 36.4991 108.125 36 108.125C35.5009 108.125 35.0142 108.273 34.6077 108.547C34.2081 108.818 33.9055 109.197 33.7403 109.635C33.7374 109.643 33.7345 109.65 33.7317 109.658C33.7228 109.655 33.7139 109.651 33.705 109.648C33.412 109.537 33.099 109.483 32.7836 109.487C32.2825 109.461 31.7866 109.596 31.3768 109.871C30.9671 110.146 30.6676 110.545 30.5273 111.002C30.3638 110.985 30.1988 110.985 30.0353 111.002ZM43.2559 112.174C43.0808 112.314 42.8295 112.469 42.4831 112.626C41.8747 112.901 41.0601 113.145 40.0808 113.326C38.7382 113.572 37.3729 113.691 36.0053 113.68L36 113.68L35.9947 113.68C34.6271 113.691 33.2618 113.572 31.9192 113.326C30.9438 113.145 30.1308 112.895 29.5232 112.612C29.1802 112.452 28.9289 112.294 28.7524 112.151C28.8463 112.065 28.9578 111.986 29.0886 111.912C29.3617 111.758 29.6809 111.682 30.0056 111.696L30.0555 111.698L30.1051 111.693C30.2222 111.681 30.3404 111.681 30.4575 111.693L31.0073 111.752L31.1732 111.211C31.2642 110.914 31.4621 110.644 31.7477 110.452C32.0341 110.26 32.3871 110.162 32.7485 110.181L32.7706 110.182L32.7929 110.182C33.0334 110.178 33.271 110.221 33.491 110.307L34.1274 110.556L34.3659 109.901C34.4766 109.598 34.6878 109.325 34.9803 109.127C35.2733 108.929 35.6298 108.819 36 108.819C36.3702 108.819 36.7267 108.929 37.0197 109.127C37.3122 109.325 37.5234 109.598 37.6341 109.901L37.8726 110.556L38.509 110.307C38.729 110.221 38.9666 110.178 39.2071 110.182L39.2294 110.182L39.2515 110.181C39.6129 110.162 39.9659 110.26 40.2523 110.452C40.5379 110.644 40.7358 110.914 40.8268 111.211L40.9927 111.752L41.5426 111.693C41.6596 111.681 41.7778 111.681 41.8949 111.693L41.9445 111.698L41.9944 111.696C42.3191 111.682 42.6383 111.758 42.9114 111.912C43.0408 111.985 43.1563 112.074 43.2559 112.174Z" fill="#CA1010"/>
<path d="M28.6602 112.201C28.6609 112.057 28.2003 112.114 28.2003 112.114C28.2003 112.114 27.6622 112.384 27.6426 112.527L26.6274 118.629C26.6258 118.641 26.625 118.653 26.625 118.665C26.625 119.19 26.9536 119.647 27.4463 120.024C27.9419 120.403 28.6414 120.731 29.4806 121.002C31.1618 121.545 33.4665 121.875 36 121.875C38.5335 121.875 40.8382 121.545 42.5194 121.002C43.3586 120.731 44.0581 120.403 44.5537 120.024C45.0464 119.647 45.375 119.19 45.375 118.665C45.375 118.653 45.3742 118.641 45.3726 118.629L44.2637 112.527C44.2441 112.384 43.8007 111.875 43.8007 111.875C43.8007 111.875 43.5847 112.057 43.5853 112.201C43.5858 112.324 43.8648 112.282 43.8007 112.389C43.6033 112.704 43.1902 113.026 42.5507 113.32C41.9165 113.612 41.089 113.863 40.1052 114.051C37.392 114.539 34.608 114.539 31.8948 114.051C30.9104 113.863 30.0713 113.612 29.4314 113.32C28.7822 113.024 28.3769 112.703 28.2042 112.398L28.2003 112.391C28.1356 112.284 28.6597 112.325 28.6602 112.201Z" fill="#CA1010"/>
<path d="M37.4225 114.375C37.7702 114.375 38.0718 114.441 38.3275 114.572C38.5882 114.697 38.785 114.872 38.9179 115.098C39.056 115.317 39.125 115.57 39.125 115.858C39.125 116.02 39.1071 116.171 39.0713 116.308C38.9231 116.94 38.4962 117.34 37.7906 117.509C38.036 117.597 38.2303 117.744 38.3735 117.95C38.5166 118.151 38.5882 118.401 38.5882 118.701C38.5882 118.839 38.5677 119.002 38.5268 119.189C38.4144 119.677 38.1869 120.04 37.8443 120.278C37.5069 120.509 37.0263 120.625 36.4026 120.625H33.2124C33.1051 120.625 33.0233 120.603 32.967 120.559C32.9057 120.516 32.875 120.456 32.875 120.381C32.875 120.343 32.8827 120.303 32.898 120.259C32.9185 120.19 32.9517 120.137 32.9977 120.099C33.0437 120.062 33.0718 120.04 33.0821 120.034C33.1639 119.971 33.2303 119.909 33.2814 119.846C33.3326 119.777 33.376 119.668 33.4118 119.518L34.3474 115.473C34.3678 115.392 34.3781 115.313 34.3781 115.238C34.3781 115.17 34.3678 115.113 34.3474 115.069C34.3321 115.019 34.309 114.963 34.2784 114.901C34.2324 114.819 34.2094 114.754 34.2094 114.703C34.2094 114.685 34.2145 114.65 34.2247 114.6C34.2451 114.519 34.2886 114.463 34.3551 114.431C34.4266 114.394 34.534 114.375 34.6771 114.375H37.4225ZM37.0775 116.092C37.1132 115.955 37.1311 115.826 37.1311 115.708C37.1311 115.382 36.9803 115.22 36.6787 115.22H36.3336L35.9271 116.974H36.2646C36.4793 116.974 36.648 116.912 36.7707 116.787C36.8985 116.655 37.0008 116.424 37.0775 116.092ZM36.5176 118.851C36.5534 118.701 36.5713 118.564 36.5713 118.438C36.5713 118.101 36.4128 117.932 36.0959 117.932H35.7124L35.2753 119.78H35.6664C35.8862 119.78 36.0626 119.715 36.1956 119.583C36.3285 119.446 36.4358 119.202 36.5176 118.851Z" fill="white"/>
</svg>
