<svg width="238" height="40" viewBox="0 0 238 40" fill="none" xmlns="http://www.w3.org/2000/svg">
<mask id="path-1-inside-1_5423_116612" fill="white">
<path fill-rule="evenodd" clip-rule="evenodd" d="M0 0H238V4.05001C237.838 4.01722 237.671 4 237.5 4C236.119 4 235 5.11929 235 6.5C235 7.88071 236.119 9 237.5 9C237.671 9 237.838 8.98278 238 8.94999V13.05C237.838 13.0172 237.671 13 237.5 13C236.119 13 235 14.1193 235 15.5C235 16.8807 236.119 18 237.5 18C237.671 18 237.838 17.9828 238 17.95V22.05C237.838 22.0172 237.671 22 237.5 22C236.119 22 235 23.1193 235 24.5C235 25.8807 236.119 27 237.5 27C237.671 27 237.838 26.9828 238 26.95V31.05C237.838 31.0172 237.671 31 237.5 31C236.119 31 235 32.1193 235 33.5C235 34.8807 236.119 36 237.5 36C237.671 36 237.838 35.9828 238 35.95V40H0V35.95C0.161555 35.9828 0.328767 36 0.5 36C1.88071 36 3 34.8807 3 33.5C3 32.1193 1.88071 31 0.5 31C0.328767 31 0.161555 31.0172 0 31.05V26.95C0.161555 26.9828 0.328767 27 0.5 27C1.88071 27 3 25.8807 3 24.5C3 23.1193 1.88071 22 0.5 22C0.328767 22 0.161555 22.0172 0 22.05V17.95C0.161555 17.9828 0.328767 18 0.5 18C1.88071 18 3 16.8807 3 15.5C3 14.1193 1.88071 13 0.5 13C0.328767 13 0.161555 13.0172 0 13.05V8.94999C0.161555 8.98279 0.328767 9 0.5 9C1.88071 9 3 7.88071 3 6.5C3 5.11929 1.88071 4 0.5 4C0.328767 4 0.161555 4.01722 0 4.05001V0Z"/>
</mask>
<path fill-rule="evenodd" clip-rule="evenodd" d="M0 0H238V4.05001C237.838 4.01722 237.671 4 237.5 4C236.119 4 235 5.11929 235 6.5C235 7.88071 236.119 9 237.5 9C237.671 9 237.838 8.98278 238 8.94999V13.05C237.838 13.0172 237.671 13 237.5 13C236.119 13 235 14.1193 235 15.5C235 16.8807 236.119 18 237.5 18C237.671 18 237.838 17.9828 238 17.95V22.05C237.838 22.0172 237.671 22 237.5 22C236.119 22 235 23.1193 235 24.5C235 25.8807 236.119 27 237.5 27C237.671 27 237.838 26.9828 238 26.95V31.05C237.838 31.0172 237.671 31 237.5 31C236.119 31 235 32.1193 235 33.5C235 34.8807 236.119 36 237.5 36C237.671 36 237.838 35.9828 238 35.95V40H0V35.95C0.161555 35.9828 0.328767 36 0.5 36C1.88071 36 3 34.8807 3 33.5C3 32.1193 1.88071 31 0.5 31C0.328767 31 0.161555 31.0172 0 31.05V26.95C0.161555 26.9828 0.328767 27 0.5 27C1.88071 27 3 25.8807 3 24.5C3 23.1193 1.88071 22 0.5 22C0.328767 22 0.161555 22.0172 0 22.05V17.95C0.161555 17.9828 0.328767 18 0.5 18C1.88071 18 3 16.8807 3 15.5C3 14.1193 1.88071 13 0.5 13C0.328767 13 0.161555 13.0172 0 13.05V8.94999C0.161555 8.98279 0.328767 9 0.5 9C1.88071 9 3 7.88071 3 6.5C3 5.11929 1.88071 4 0.5 4C0.328767 4 0.161555 4.01722 0 4.05001V0Z" fill="white"/>
<path d="M238 0H239.5V-1.5H238V0ZM0 0V-1.5H-1.5V0H0ZM238 4.05001L237.702 5.52003L239.5 5.88507V4.05001H238ZM238 8.94999H239.5V7.11493L237.702 7.47997L238 8.94999ZM238 13.05L237.702 14.52L239.5 14.8851V13.05H238ZM238 17.95H239.5V16.1149L237.702 16.48L238 17.95ZM238 22.05L237.702 23.52L239.5 23.8851V22.05H238ZM238 26.95H239.5V25.1149L237.702 25.48L238 26.95ZM238 31.05L237.702 32.52L239.5 32.8851V31.05H238ZM238 35.95H239.5V34.1149L237.702 34.48L238 35.95ZM238 40V41.5H239.5V40H238ZM0 40H-1.5V41.5H0V40ZM0 35.95L0.298407 34.48L-1.5 34.1149V35.95H0ZM0 31.05H-1.5V32.8851L0.298391 32.52L0 31.05ZM0 26.95L0.298391 25.48L-1.5 25.1149V26.95H0ZM0 22.05H-1.5V23.8851L0.298391 23.52L0 22.05ZM0 17.95L0.298391 16.48L-1.5 16.1149V17.95H0ZM0 13.05H-1.5V14.8851L0.298399 14.52L0 13.05ZM0 8.94999L0.298399 7.47997L-1.5 7.11491V8.94999H0ZM0 4.05001H-1.5V5.88509L0.298399 5.52003L0 4.05001ZM238 -1.5H0V1.5H238V-1.5ZM239.5 4.05001V0H236.5V4.05001H239.5ZM237.5 5.5C237.57 5.5 237.638 5.50706 237.702 5.52003L238.298 2.57999C238.039 2.52737 237.772 2.5 237.5 2.5V5.5ZM236.5 6.5C236.5 5.94772 236.948 5.5 237.5 5.5V2.5C235.291 2.5 233.5 4.29086 233.5 6.5H236.5ZM237.5 7.5C236.948 7.5 236.5 7.05228 236.5 6.5H233.5C233.5 8.70914 235.291 10.5 237.5 10.5V7.5ZM237.702 7.47997C237.638 7.49294 237.57 7.5 237.5 7.5V10.5C237.772 10.5 238.039 10.4726 238.298 10.42L237.702 7.47997ZM239.5 13.05V8.94999H236.5V13.05H239.5ZM237.5 14.5C237.57 14.5 237.638 14.5071 237.702 14.52L238.298 11.58C238.039 11.5274 237.772 11.5 237.5 11.5V14.5ZM236.5 15.5C236.5 14.9477 236.948 14.5 237.5 14.5V11.5C235.291 11.5 233.5 13.2909 233.5 15.5H236.5ZM237.5 16.5C236.948 16.5 236.5 16.0523 236.5 15.5H233.5C233.5 17.7091 235.291 19.5 237.5 19.5V16.5ZM237.702 16.48C237.638 16.4929 237.57 16.5 237.5 16.5V19.5C237.772 19.5 238.039 19.4726 238.298 19.42L237.702 16.48ZM239.5 22.05V17.95H236.5V22.05H239.5ZM237.5 23.5C237.57 23.5 237.638 23.5071 237.702 23.52L238.298 20.58C238.039 20.5274 237.772 20.5 237.5 20.5V23.5ZM236.5 24.5C236.5 23.9477 236.948 23.5 237.5 23.5V20.5C235.291 20.5 233.5 22.2909 233.5 24.5H236.5ZM237.5 25.5C236.948 25.5 236.5 25.0523 236.5 24.5H233.5C233.5 26.7091 235.291 28.5 237.5 28.5V25.5ZM237.702 25.48C237.638 25.4929 237.57 25.5 237.5 25.5V28.5C237.772 28.5 238.039 28.4726 238.298 28.42L237.702 25.48ZM239.5 31.05V26.95H236.5V31.05H239.5ZM237.5 32.5C237.57 32.5 237.638 32.5071 237.702 32.52L238.298 29.58C238.039 29.5274 237.772 29.5 237.5 29.5V32.5ZM236.5 33.5C236.5 32.9477 236.948 32.5 237.5 32.5V29.5C235.291 29.5 233.5 31.2909 233.5 33.5H236.5ZM237.5 34.5C236.948 34.5 236.5 34.0523 236.5 33.5H233.5C233.5 35.7091 235.291 37.5 237.5 37.5V34.5ZM237.702 34.48C237.638 34.4929 237.57 34.5 237.5 34.5V37.5C237.772 37.5 238.039 37.4726 238.298 37.42L237.702 34.48ZM239.5 40V35.95H236.5V40H239.5ZM0 41.5H238V38.5H0V41.5ZM-1.5 35.95V40H1.5V35.95H-1.5ZM0.5 34.5C0.429552 34.5 0.362299 34.4929 0.298407 34.48L-0.298407 37.42C-0.0391891 37.4726 0.227982 37.5 0.5 37.5V34.5ZM1.5 33.5C1.5 34.0523 1.05228 34.5 0.5 34.5V37.5C2.70914 37.5 4.5 35.7091 4.5 33.5H1.5ZM0.5 32.5C1.05228 32.5 1.5 32.9477 1.5 33.5H4.5C4.5 31.2909 2.70914 29.5 0.5 29.5V32.5ZM0.298391 32.52C0.362293 32.5071 0.429552 32.5 0.5 32.5V29.5C0.227982 29.5 -0.0391834 29.5274 -0.298391 29.58L0.298391 32.52ZM-1.5 26.95V31.05H1.5V26.95H-1.5ZM0.5 25.5C0.429552 25.5 0.362293 25.4929 0.298391 25.48L-0.298391 28.42C-0.0391834 28.4726 0.227982 28.5 0.5 28.5V25.5ZM1.5 24.5C1.5 25.0523 1.05229 25.5 0.5 25.5V28.5C2.70914 28.5 4.5 26.7091 4.5 24.5H1.5ZM0.5 23.5C1.05229 23.5 1.5 23.9477 1.5 24.5H4.5C4.5 22.2909 2.70914 20.5 0.5 20.5V23.5ZM0.298391 23.52C0.362293 23.5071 0.429552 23.5 0.5 23.5V20.5C0.227982 20.5 -0.0391834 20.5274 -0.298391 20.58L0.298391 23.52ZM-1.5 17.95V22.05H1.5V17.95H-1.5ZM0.5 16.5C0.429552 16.5 0.362293 16.4929 0.298391 16.48L-0.298391 19.42C-0.0391834 19.4726 0.227982 19.5 0.5 19.5V16.5ZM1.5 15.5C1.5 16.0523 1.05229 16.5 0.5 16.5V19.5C2.70914 19.5 4.5 17.7091 4.5 15.5H1.5ZM0.5 14.5C1.05228 14.5 1.5 14.9477 1.5 15.5H4.5C4.5 13.2909 2.70914 11.5 0.5 11.5V14.5ZM0.298399 14.52C0.362291 14.5071 0.429547 14.5 0.5 14.5V11.5C0.227988 11.5 -0.0391807 11.5274 -0.298399 11.58L0.298399 14.52ZM-1.5 8.94999V13.05H1.5V8.94999H-1.5ZM0.5 7.5C0.429547 7.5 0.362291 7.49294 0.298399 7.47997L-0.298399 10.42C-0.0391807 10.4726 0.227988 10.5 0.5 10.5V7.5ZM1.5 6.5C1.5 7.05228 1.05228 7.5 0.5 7.5V10.5C2.70914 10.5 4.5 8.70914 4.5 6.5H1.5ZM0.5 5.5C1.05228 5.5 1.5 5.94772 1.5 6.5H4.5C4.5 4.29086 2.70914 2.5 0.5 2.5V5.5ZM0.298399 5.52003C0.362293 5.50706 0.429549 5.5 0.5 5.5V2.5C0.227985 2.5 -0.0391835 2.52737 -0.298399 2.57999L0.298399 5.52003ZM-1.5 0V4.05001H1.5V0H-1.5Z" fill="#CA1010" mask="url(#path-1-inside-1_5423_116612)"/>
<path d="M89.003 17.6796V19.3039H86.2626V17.6796H89.003ZM90.4726 14.2099V22.663H88.4836V14.2099H90.4726ZM85.6107 22.9779C86.6199 22.9779 87.4928 23.0866 88.2295 23.3039C88.9661 23.5212 89.5297 23.8361 89.9201 24.2486C90.3142 24.6575 90.5113 25.1473 90.5113 25.7182C90.5113 26.2891 90.3142 26.779 89.9201 27.1878C89.5297 27.5967 88.9661 27.9098 88.2295 28.1271C87.4928 28.3481 86.6199 28.4586 85.6107 28.4586C84.6015 28.4586 83.7304 28.3481 82.9975 28.1271C82.2645 27.9098 81.701 27.5967 81.3068 27.1878C80.9164 26.779 80.7231 26.2891 80.7267 25.7182C80.7231 25.1473 80.9183 24.6575 81.3124 24.2486C81.7065 23.8361 82.27 23.5212 83.003 23.3039C83.7359 23.0866 84.6052 22.9779 85.6107 22.9779ZM85.6107 24.4917C84.9772 24.4917 84.445 24.5378 84.014 24.6298C83.5831 24.7182 83.2571 24.8545 83.0361 25.0387C82.8188 25.2192 82.7102 25.4457 82.7102 25.7182C82.7102 25.9871 82.8188 26.2118 83.0361 26.3923C83.2571 26.5727 83.5831 26.709 84.014 26.8011C84.445 26.8895 84.9772 26.9337 85.6107 26.9337C86.2442 26.9337 86.7765 26.8895 87.2074 26.8011C87.642 26.709 87.9698 26.5727 88.1908 26.3923C88.4155 26.2118 88.5297 25.9871 88.5334 25.7182C88.5297 25.4457 88.4155 25.2192 88.1908 25.0387C87.9698 24.8545 87.642 24.7182 87.2074 24.6298C86.7765 24.5378 86.2442 24.4917 85.6107 24.4917ZM83.445 16.5746C83.445 17.4991 83.2958 18.3646 82.9975 19.1713C82.7028 19.9779 82.2534 20.6869 81.6494 21.2983C81.049 21.9098 80.3087 22.3665 79.4284 22.6685L78.3952 21.0884C79.154 20.8379 79.7893 20.477 80.3013 20.0055C80.817 19.5304 81.1982 18.9982 81.445 18.4088C81.6954 17.8195 81.8225 17.2081 81.8262 16.5746V15.6409H83.445V16.5746ZM83.8538 16.558C83.8538 17.1436 83.9717 17.709 84.2074 18.2541C84.4431 18.7956 84.8059 19.2836 85.2958 19.7182C85.7894 20.1529 86.3989 20.4899 87.1245 20.7293L86.1411 22.2983C85.2829 22.0184 84.561 21.5912 83.9754 21.0166C83.3897 20.4383 82.9514 19.768 82.6604 19.0055C82.3731 18.2394 82.2295 17.4236 82.2295 16.558V15.6409H83.8538V16.558ZM86.6881 15.0773V16.6796H78.9754V15.0773H86.6881ZM104.582 14.2099V28.442H102.565V14.2099H104.582ZM100.322 15.7072C100.319 17.232 100.112 18.6169 99.7036 19.8619C99.2947 21.1031 98.6041 22.2431 97.6318 23.2818C96.6631 24.3204 95.3592 25.2265 93.7202 26L92.6815 24.4144C94.0443 23.7661 95.1401 23.0387 95.9688 22.232C96.8012 21.4254 97.4052 20.5193 97.7809 19.5138C98.1566 18.5046 98.3463 17.3499 98.35 16.0497V15.7072H100.322ZM99.2671 15.7072V17.2707H93.4439V15.7072H99.2671ZM117.277 15.0497V16.6354H108.272V15.0497H117.277ZM119.758 21.0994V22.7072H106.785V21.0994H119.758ZM114.211 22.221V28.453H112.2V22.221H114.211ZM118.233 16.326V16.3923C118.229 17.07 118.218 17.663 118.2 18.1713C118.181 18.6759 118.13 19.2597 118.045 19.9227C117.964 20.582 117.839 21.2947 117.669 22.0608L115.691 21.8343C115.861 21.105 115.984 20.4236 116.062 19.7901C116.143 19.1565 116.192 18.5967 116.211 18.1105C116.233 17.6243 116.246 17.046 116.25 16.3757V16.326V15.0497H118.233V16.326ZM133.906 21.105V22.6906H120.934V21.105H133.906ZM128.409 18.7956V21.6298H126.409V18.7956H128.409ZM132.359 23.674V28.4807H130.392V25.2431H122.37V23.674H132.359ZM132.508 18.2376V19.8398H122.503V18.2376H132.508ZM132.37 14.7901V16.3591H124.497V19.116H122.503V14.7901H132.37ZM144.238 17.4365C144.235 18.6851 144.082 19.849 143.78 20.9282C143.478 22.0037 143.017 22.9521 142.399 23.7735C141.783 24.5948 141.019 25.2136 140.106 25.6298L138.901 23.9724C139.701 23.6335 140.378 23.1289 140.934 22.4586C141.491 21.7882 141.907 21.0221 142.183 20.1602C142.459 19.2983 142.599 18.3904 142.603 17.4365V15.3094H144.238V17.4365ZM144.625 17.4365C144.621 18.3389 144.752 19.2007 145.017 20.0221C145.283 20.8435 145.686 21.5783 146.227 22.2265C146.772 22.8711 147.435 23.3573 148.216 23.6851L147.039 25.2818C146.155 24.8803 145.41 24.2873 144.802 23.5028C144.194 22.7145 143.739 21.8048 143.437 20.7735C143.135 19.7385 142.986 18.6262 142.99 17.4365V15.3094H144.625V17.4365ZM150.99 14.2099V28.4751H148.973V14.2099H150.99ZM158.099 16.5912C158.095 17.5046 157.943 18.3573 157.641 19.1492C157.342 19.9411 156.893 20.6317 156.293 21.221C155.692 21.8103 154.954 22.2486 154.077 22.5359L153.022 21C153.784 20.7532 154.423 20.4015 154.939 19.9448C155.455 19.4843 155.838 18.9669 156.088 18.3923C156.339 17.814 156.466 17.2136 156.469 16.5912V15.6685H158.099V16.5912ZM158.48 16.6077C158.48 17.1897 158.598 17.7495 158.834 18.2873C159.07 18.825 159.434 19.3112 159.928 19.7459C160.425 20.1768 161.046 20.5138 161.79 20.7569L160.779 22.2928C159.917 22.0129 159.193 21.5893 158.607 21.0221C158.022 20.4549 157.584 19.7937 157.293 19.0387C157.002 18.2799 156.856 17.4696 156.856 16.6077V15.6685H158.48V16.6077ZM161.32 15.0497V16.6409H153.563V15.0497H161.32ZM164.519 14.2099V22.7956H162.519V14.2099H164.519ZM166.431 17.6685V19.326H163.956V17.6685H166.431ZM164.519 23.4033V28.442H162.519V24.9945H154.944V23.4033H164.519ZM178.601 14.2099V28.442H176.629V14.2099H178.601ZM180.7 19.7845V21.4254H178.159V19.7845H180.7ZM175.667 16.337V17.9337H167.308V16.337H175.667ZM171.524 18.7293C172.209 18.7293 172.826 18.8748 173.374 19.1657C173.927 19.4567 174.361 19.86 174.678 20.3757C174.995 20.8877 175.153 21.4696 175.153 22.1215C175.153 22.7735 174.995 23.3573 174.678 23.8729C174.361 24.3849 173.927 24.7864 173.374 25.0773C172.826 25.3683 172.209 25.5138 171.524 25.5138C170.831 25.5138 170.207 25.3683 169.651 25.0773C169.098 24.7864 168.665 24.3849 168.352 23.8729C168.039 23.3573 167.883 22.7735 167.883 22.1215C167.883 21.4733 168.039 20.8913 168.352 20.3757C168.665 19.8564 169.098 19.453 169.651 19.1657C170.207 18.8748 170.831 18.7293 171.524 18.7293ZM171.524 20.3481C171.188 20.3517 170.89 20.4254 170.629 20.5691C170.367 20.7127 170.163 20.919 170.015 21.1878C169.868 21.4567 169.794 21.768 169.794 22.1215C169.794 22.4825 169.866 22.7974 170.01 23.0663C170.157 23.3315 170.361 23.5341 170.623 23.674C170.888 23.8103 171.188 23.8785 171.524 23.8785C171.859 23.8785 172.155 23.8103 172.413 23.674C172.671 23.5341 172.873 23.3315 173.021 23.0663C173.168 22.7974 173.244 22.4825 173.247 22.1215C173.244 21.768 173.168 21.4567 173.021 21.1878C172.873 20.919 172.669 20.7127 172.408 20.5691C172.15 20.4254 171.855 20.3517 171.524 20.3481ZM172.518 14.4365V16.9448H170.529V14.4365H172.518ZM193.478 14.2099V28.442H191.462V14.2099H193.478ZM189.219 15.7072C189.215 17.232 189.009 18.6169 188.6 19.8619C188.191 21.1031 187.5 22.2431 186.528 23.2818C185.559 24.3204 184.255 25.2265 182.616 26L181.578 24.4144C182.941 23.7661 184.036 23.0387 184.865 22.232C185.697 21.4254 186.301 20.5193 186.677 19.5138C187.053 18.5046 187.243 17.3499 187.246 16.0497V15.7072H189.219ZM188.163 15.7072V17.2707H182.34V15.7072H188.163Z" fill="#CA1010"/>
<circle cx="48" cy="28" r="2" stroke="#CA1010" stroke-width="2"/>
<circle cx="61" cy="28" r="2" stroke="#CA1010" stroke-width="2"/>
<path fill-rule="evenodd" clip-rule="evenodd" d="M60 18H63.0388L66 21.7016V26H60V18ZM60 16H64L68 21V26V28H66L62.0001 28C62.0001 27.4477 61.5523 27 61.0001 27C60.4478 27 60.0001 27.4477 60.0001 28L60 28H58V26V18V16H60Z" fill="#CA1010"/>
<line x1="50" y1="17" x2="42" y2="17" stroke="#CA1010" stroke-width="2"/>
<path fill-rule="evenodd" clip-rule="evenodd" d="M44 14H58V26H44V25H42V26V28H44L47 28C47 27.4477 47.4477 27 48 27C48.5523 27 49 27.4477 49 28L58 28H60V26V14V12H58H44H42V14V15H44V14ZM42 24H44V22H42V24ZM44 19V21H42V19H44ZM42 18H44V16H42V18Z" fill="#CA1010"/>
<line x1="48" y1="20" x2="40" y2="20" stroke="#CA1010" stroke-width="2"/>
<line x1="48" y1="23" x2="40" y2="23" stroke="#CA1010" stroke-width="2"/>
</svg>
