<svg width="300" height="71" viewBox="0 0 300 71" fill="none" xmlns="http://www.w3.org/2000/svg">
<mask id="path-1-inside-1_5424_116630" fill="white">
<path fill-rule="evenodd" clip-rule="evenodd" d="M4.87793 5.79688H295.122V11.9703C294.639 11.7287 294.095 11.5928 293.52 11.5928C291.532 11.5928 289.92 13.2146 289.92 15.2152C289.92 17.2159 291.532 18.8377 293.52 18.8377C294.095 18.8377 294.639 18.7018 295.122 18.4601V25.0112C294.639 24.7695 294.095 24.6336 293.52 24.6336C291.532 24.6336 289.92 26.2554 289.92 28.2561C289.92 30.2567 291.532 31.8785 293.52 31.8785C294.095 31.8785 294.639 31.7426 295.122 31.501V38.052C294.639 37.8103 294.095 37.6744 293.52 37.6744C291.532 37.6744 289.92 39.2962 289.92 41.2969C289.92 43.2975 291.532 44.9193 293.52 44.9193C294.095 44.9193 294.639 44.7834 295.122 44.5418V51.0928C294.639 50.8511 294.095 50.7152 293.52 50.7152C291.532 50.7152 289.92 52.3371 289.92 54.3377C289.92 56.3383 291.532 57.9601 293.52 57.9601C294.095 57.9601 294.639 57.8242 295.122 57.5826V63.7561H4.87793V57.5826C5.36041 57.8242 5.90441 57.9601 6.47995 57.9601C8.46819 57.9601 10.08 56.3383 10.08 54.3377C10.08 52.3371 8.46819 50.7152 6.47995 50.7152C5.90441 50.7152 5.36041 50.8511 4.87793 51.0928V44.5418C5.36041 44.7834 5.90441 44.9193 6.47995 44.9193C8.46819 44.9193 10.08 43.2975 10.08 41.2969C10.08 39.2962 8.46819 37.6744 6.47995 37.6744C5.90441 37.6744 5.36041 37.8103 4.87793 38.052V31.501C5.36041 31.7426 5.90441 31.8785 6.47995 31.8785C8.46819 31.8785 10.08 30.2567 10.08 28.2561C10.08 26.2554 8.46819 24.6336 6.47995 24.6336C5.90441 24.6336 5.36041 24.7695 4.87793 25.0112V18.4601C5.36041 18.7018 5.90441 18.8377 6.47995 18.8377C8.46819 18.8377 10.08 17.2159 10.08 15.2152C10.08 13.2146 8.46819 11.5928 6.47995 11.5928C5.90441 11.5928 5.36041 11.7287 4.87793 11.9703V5.79688Z"/>
</mask>
<path fill-rule="evenodd" clip-rule="evenodd" d="M4.87793 5.79688H295.122V11.9703C294.639 11.7287 294.095 11.5928 293.52 11.5928C291.532 11.5928 289.92 13.2146 289.92 15.2152C289.92 17.2159 291.532 18.8377 293.52 18.8377C294.095 18.8377 294.639 18.7018 295.122 18.4601V25.0112C294.639 24.7695 294.095 24.6336 293.52 24.6336C291.532 24.6336 289.92 26.2554 289.92 28.2561C289.92 30.2567 291.532 31.8785 293.52 31.8785C294.095 31.8785 294.639 31.7426 295.122 31.501V38.052C294.639 37.8103 294.095 37.6744 293.52 37.6744C291.532 37.6744 289.92 39.2962 289.92 41.2969C289.92 43.2975 291.532 44.9193 293.52 44.9193C294.095 44.9193 294.639 44.7834 295.122 44.5418V51.0928C294.639 50.8511 294.095 50.7152 293.52 50.7152C291.532 50.7152 289.92 52.3371 289.92 54.3377C289.92 56.3383 291.532 57.9601 293.52 57.9601C294.095 57.9601 294.639 57.8242 295.122 57.5826V63.7561H4.87793V57.5826C5.36041 57.8242 5.90441 57.9601 6.47995 57.9601C8.46819 57.9601 10.08 56.3383 10.08 54.3377C10.08 52.3371 8.46819 50.7152 6.47995 50.7152C5.90441 50.7152 5.36041 50.8511 4.87793 51.0928V44.5418C5.36041 44.7834 5.90441 44.9193 6.47995 44.9193C8.46819 44.9193 10.08 43.2975 10.08 41.2969C10.08 39.2962 8.46819 37.6744 6.47995 37.6744C5.90441 37.6744 5.36041 37.8103 4.87793 38.052V31.501C5.36041 31.7426 5.90441 31.8785 6.47995 31.8785C8.46819 31.8785 10.08 30.2567 10.08 28.2561C10.08 26.2554 8.46819 24.6336 6.47995 24.6336C5.90441 24.6336 5.36041 24.7695 4.87793 25.0112V18.4601C5.36041 18.7018 5.90441 18.8377 6.47995 18.8377C8.46819 18.8377 10.08 17.2159 10.08 15.2152C10.08 13.2146 8.46819 11.5928 6.47995 11.5928C5.90441 11.5928 5.36041 11.7287 4.87793 11.9703V5.79688Z" fill="white"/>
<path d="M295.122 5.79688H296.622V4.29688H295.122V5.79688ZM4.87793 5.79688V4.29688H3.37793V5.79688H4.87793ZM295.122 11.9703L294.45 13.3115L296.622 14.3992V11.9703H295.122ZM295.122 18.4601H296.622V16.0313L294.45 17.119L295.122 18.4601ZM295.122 25.0112L294.45 26.3523L296.622 27.44V25.0112H295.122ZM295.122 31.501H296.622V29.0721L294.45 30.1598L295.122 31.501ZM295.122 38.052L294.45 39.3932L296.622 40.4808V38.052H295.122ZM295.122 44.5418H296.622V42.1129L294.45 43.2006L295.122 44.5418ZM295.122 51.0928L294.45 52.434L296.622 53.5217V51.0928H295.122ZM295.122 57.5826H296.622V55.1537L294.45 56.2414L295.122 57.5826ZM295.122 63.7561V65.2561H296.622V63.7561H295.122ZM4.87793 63.7561H3.37793V65.2561H4.87793V63.7561ZM4.87793 57.5826L5.54965 56.2414L3.37793 55.1537L3.37793 57.5826H4.87793ZM4.87793 51.0928H3.37793V53.5217L5.54965 52.434L4.87793 51.0928ZM4.87793 44.5418L5.54965 43.2006L3.37793 42.1129L3.37793 44.5418H4.87793ZM4.87793 38.052H3.37793V40.4808L5.54965 39.3932L4.87793 38.052ZM4.87793 31.501L5.54964 30.1598L3.37793 29.0721L3.37793 31.501H4.87793ZM4.87793 25.0112H3.37793V27.44L5.54964 26.3523L4.87793 25.0112ZM4.87793 18.4601L5.54964 17.119L3.37793 16.0313V18.4601H4.87793ZM4.87793 11.9703H3.37793V14.3992L5.54964 13.3115L4.87793 11.9703ZM295.122 4.29688H4.87793V7.29688H295.122V4.29688ZM296.622 11.9703V5.79688H293.622V11.9703H296.622ZM293.52 13.0928C293.857 13.0928 294.171 13.1718 294.45 13.3115L295.794 10.6291C295.108 10.2855 294.334 10.0928 293.52 10.0928V13.0928ZM291.42 15.2152C291.42 14.0343 292.369 13.0928 293.52 13.0928V10.0928C290.694 10.0928 288.42 12.395 288.42 15.2152H291.42ZM293.52 17.3377C292.369 17.3377 291.42 16.3962 291.42 15.2152H288.42C288.42 18.0355 290.694 20.3377 293.52 20.3377V17.3377ZM294.45 17.119C294.171 17.2586 293.857 17.3377 293.52 17.3377V20.3377C294.334 20.3377 295.108 20.1449 295.794 19.8013L294.45 17.119ZM296.622 25.0112V18.4601H293.622V25.0112H296.622ZM293.52 26.1336C293.857 26.1336 294.171 26.2127 294.45 26.3523L295.794 23.67C295.108 23.3264 294.334 23.1336 293.52 23.1336V26.1336ZM291.42 28.2561C291.42 27.0751 292.369 26.1336 293.52 26.1336V23.1336C290.694 23.1336 288.42 25.4358 288.42 28.2561H291.42ZM293.52 30.3785C292.369 30.3785 291.42 29.437 291.42 28.2561H288.42C288.42 31.0763 290.694 33.3785 293.52 33.3785V30.3785ZM294.45 30.1598C294.171 30.2995 293.857 30.3785 293.52 30.3785V33.3785C294.334 33.3785 295.108 33.1858 295.794 32.8422L294.45 30.1598ZM296.622 38.052V31.501H293.622V38.052H296.622ZM293.52 39.1744C293.857 39.1744 294.171 39.2535 294.45 39.3932L295.794 36.7108C295.108 36.3672 294.334 36.1744 293.52 36.1744V39.1744ZM291.42 41.2969C291.42 40.1159 292.369 39.1744 293.52 39.1744V36.1744C290.694 36.1744 288.42 38.4766 288.42 41.2969H291.42ZM293.52 43.4193C292.369 43.4193 291.42 42.4779 291.42 41.2969H288.42C288.42 44.1171 290.694 46.4193 293.52 46.4193V43.4193ZM294.45 43.2006C294.171 43.3403 293.857 43.4193 293.52 43.4193V46.4193C294.334 46.4193 295.108 46.2266 295.794 45.883L294.45 43.2006ZM296.622 51.0928V44.5418H293.622V51.0928H296.622ZM293.52 52.2152C293.857 52.2152 294.171 52.2943 294.45 52.434L295.794 49.7516C295.108 49.408 294.334 49.2152 293.52 49.2152V52.2152ZM291.42 54.3377C291.42 53.1567 292.369 52.2152 293.52 52.2152V49.2152C290.694 49.2152 288.42 51.5174 288.42 54.3377H291.42ZM293.52 56.4601C292.369 56.4601 291.42 55.5187 291.42 54.3377H288.42C288.42 57.158 290.694 59.4601 293.52 59.4601V56.4601ZM294.45 56.2414C294.171 56.3811 293.857 56.4601 293.52 56.4601V59.4601C294.334 59.4601 295.108 59.2674 295.794 58.9238L294.45 56.2414ZM296.622 63.7561V57.5826H293.622V63.7561H296.622ZM4.87793 65.2561H295.122V62.2561H4.87793V65.2561ZM3.37793 57.5826V63.7561H6.37793V57.5826H3.37793ZM6.47995 56.4601C6.14309 56.4601 5.82857 56.3811 5.54965 56.2414L4.20621 58.9238C4.89226 59.2674 5.66573 59.4601 6.47995 59.4601V56.4601ZM8.57998 54.3377C8.57998 55.5187 7.631 56.4601 6.47995 56.4601V59.4601C9.30538 59.4601 11.58 57.158 11.58 54.3377H8.57998ZM6.47995 52.2152C7.631 52.2152 8.57998 53.1567 8.57998 54.3377H11.58C11.58 51.5174 9.30538 49.2152 6.47995 49.2152V52.2152ZM5.54965 52.434C5.82857 52.2943 6.14309 52.2152 6.47995 52.2152V49.2152C5.66573 49.2152 4.89226 49.408 4.20621 49.7516L5.54965 52.434ZM3.37793 44.5418V51.0928H6.37793V44.5418H3.37793ZM6.47995 43.4193C6.14309 43.4193 5.82857 43.3403 5.54965 43.2006L4.20621 45.883C4.89226 46.2266 5.66573 46.4193 6.47995 46.4193V43.4193ZM8.57998 41.2969C8.57998 42.4779 7.631 43.4193 6.47995 43.4193V46.4193C9.30538 46.4193 11.58 44.1171 11.58 41.2969H8.57998ZM6.47995 39.1744C7.631 39.1744 8.57998 40.1159 8.57998 41.2969H11.58C11.58 38.4766 9.30538 36.1744 6.47995 36.1744V39.1744ZM5.54965 39.3932C5.82857 39.2535 6.14309 39.1744 6.47995 39.1744V36.1744C5.66573 36.1744 4.89226 36.3672 4.20621 36.7108L5.54965 39.3932ZM3.37793 31.501V38.052H6.37793V31.501H3.37793ZM6.47995 30.3785C6.1431 30.3785 5.82857 30.2995 5.54964 30.1598L4.20622 32.8422C4.89226 33.1857 5.66572 33.3785 6.47995 33.3785V30.3785ZM8.57998 28.2561C8.57998 29.437 7.631 30.3785 6.47995 30.3785V33.3785C9.30538 33.3785 11.58 31.0763 11.58 28.2561H8.57998ZM6.47995 26.1336C7.631 26.1336 8.57998 27.0751 8.57998 28.2561H11.58C11.58 25.4358 9.30538 23.1336 6.47995 23.1336V26.1336ZM5.54964 26.3523C5.82857 26.2127 6.1431 26.1336 6.47995 26.1336V23.1336C5.66572 23.1336 4.89226 23.3264 4.20622 23.67L5.54964 26.3523ZM3.37793 18.4601V25.0112H6.37793V18.4601H3.37793ZM6.47995 17.3377C6.14309 17.3377 5.82857 17.2587 5.54964 17.119L4.20622 19.8013C4.89226 20.1449 5.66572 20.3377 6.47995 20.3377V17.3377ZM8.57998 15.2152C8.57998 16.3962 7.631 17.3377 6.47995 17.3377V20.3377C9.30538 20.3377 11.58 18.0355 11.58 15.2152H8.57998ZM6.47995 13.0928C7.631 13.0928 8.57998 14.0343 8.57998 15.2152H11.58C11.58 12.395 9.30538 10.0928 6.47995 10.0928V13.0928ZM5.54964 13.3115C5.82857 13.1718 6.14309 13.0928 6.47995 13.0928V10.0928C5.66572 10.0928 4.89226 10.2855 4.20622 10.6291L5.54964 13.3115ZM3.37793 5.79688V11.9703H6.37793V5.79688H3.37793Z" fill="#CA1010" mask="url(#path-1-inside-1_5424_116630)"/>
<path d="M84.8297 43.404L88.7177 45.726L90.1757 43.494L86.0717 41.154C86.1797 40.83 86.2337 40.524 86.2697 40.2H89.1677V42.468H91.2197V46.104H94.2617V37.5H91.2197V39.876H89.5997V37.68H79.8077V40.2H83.1917C82.8857 41.658 81.5717 43.116 79.5917 43.224V45.888C81.7877 45.834 83.6237 44.808 84.8297 43.404ZM87.3857 46.32C83.4617 46.32 80.3657 47.184 80.3657 49.686C80.3657 52.188 83.4617 53.052 87.3857 53.052C91.3097 53.052 94.4057 52.188 94.4057 49.686C94.4057 47.184 91.3097 46.32 87.3857 46.32ZM87.3857 50.658C85.3157 50.658 83.6417 50.388 83.6417 49.686C83.6417 49.002 85.3157 48.714 87.3857 48.714C89.4557 48.714 91.1297 49.002 91.1297 49.686C91.1297 50.388 89.4557 50.658 87.3857 50.658ZM111.324 37.5H108.282V52.872H111.324V37.5ZM105.906 37.86H97.0502V40.632H102.792V42.018C102.792 46.464 100.776 49.236 97.0502 49.272V52.152C102.432 52.152 105.906 48.264 105.906 42.018V37.86ZM125.093 44.952H128.243V37.68H114.455V40.506H125.093V44.952ZM129.143 45.87H113.591V48.696H119.693V53.232H122.843V48.696H129.143V45.87ZM140.013 44.592V43.674H145.521V41.298H134.685V39.876H145.341V37.5H131.661V43.674H136.989V44.592H130.725V47.022H146.277V44.592H140.013ZM131.553 50.244H142.299V53.052H145.377V47.832H131.553V50.244ZM164.55 37.5V52.872H167.592V37.5H164.55ZM160.176 37.914L157.08 37.806C157.062 44.232 155.334 48.732 152.868 49.02V52.152C155.226 52.134 157.206 50.496 158.502 47.544L161.67 52.134L164.136 50.37L159.582 44.034C159.96 42.252 160.176 40.2 160.176 37.914ZM186.095 40.164H184.295V37.5H181.253V46.644H184.295V43.08H186.095V40.164ZM175.223 43.854L179.057 46.302L180.623 44.088L176.483 41.514C176.609 41.1 176.699 40.668 176.735 40.236H180.047V37.68H170.255V40.236H173.657C173.387 41.946 172.091 43.548 170.039 43.692V46.428C172.217 46.374 174.035 45.33 175.223 43.854ZM170.651 49.794H181.199V53.052H184.295V47.184H170.651V49.794ZM193.869 37.446H190.755V39.354H187.317V42.126H197.289V39.354H193.869V37.446ZM203.229 43.116H201.429V37.5H198.387V52.872H201.429V46.068H203.229V43.116ZM192.303 42.756C189.531 42.756 187.839 44.826 187.839 47.544C187.839 50.28 189.531 52.332 192.303 52.332C195.075 52.332 196.767 50.28 196.767 47.544C196.767 44.826 195.075 42.756 192.303 42.756ZM192.303 49.722C191.313 49.722 190.737 48.858 190.737 47.544C190.737 46.23 191.313 45.366 192.303 45.366C193.293 45.366 193.869 46.23 193.869 47.544C193.869 48.858 193.293 49.722 192.303 49.722ZM218.996 37.5H215.954V52.872H218.996V37.5ZM213.578 37.86H204.722V40.632H210.464V42.018C210.464 46.464 208.448 49.236 204.722 49.272V52.152C210.104 52.152 213.578 48.264 213.578 42.018V37.86Z" fill="#CA1010"/>
<path d="M72.4094 19.6657L64.1635 20.0801L64.0081 19.0753L72.4094 18.7852V19.6657ZM72.5751 15.9883V16.9413H64.3811V15.9883H72.5751ZM74.7402 22.1727V23.1257H62.8686V22.1727H74.7402ZM69.3949 22.8874V28.1809H68.245V22.8874H69.3949ZM73.207 17.1796V17.2521C73.207 17.8667 73.1984 18.4123 73.1811 18.8888C73.1639 19.3653 73.1155 19.9075 73.0361 20.5152C72.9602 21.1195 72.841 21.7721 72.6787 22.4731L71.5599 22.328C71.7257 21.672 71.8483 21.0504 71.9277 20.4634C72.0071 19.8764 72.0572 19.355 72.0779 18.8992C72.1021 18.4399 72.1159 17.8943 72.1193 17.2624V17.1796V15.9883H73.207V17.1796ZM86.4146 15.7707V16.7238H76.7909V15.7707H86.4146ZM86.3731 19.7072V20.6291H76.8324V19.7072H86.3731ZM79.9401 16.2162V20.1215H78.8006V16.2162H79.9401ZM84.4152 16.2162V20.1215H83.2654V16.2162H84.4152ZM87.5541 22.2244V23.1671H75.6825V22.2244H87.5541ZM82.188 20.3184V22.8046H81.0485V20.3184H82.188ZM86.2281 26.9482V27.9012H77.2157V26.9482H86.2281ZM78.3759 24.3066V27.259H77.2157V24.3066H78.3759ZM98.4929 18.8474V19.8004H94.7015V18.8474H98.4929ZM99.2906 15.1802V24.8142H98.1407V15.1802H99.2906ZM99.591 26.9482V27.9012H90.8686V26.9482H99.591ZM92.0288 23.8715V27.4144H90.8686V23.8715H92.0288ZM90.2989 16.0401V18.3605H93.9246V16.0401H95.0641V22.587H89.149V16.0401H90.2989ZM90.2989 21.6443H93.9246V19.2617H90.2989V21.6443ZM112.56 17.0967V18.0497H101.901V17.0967H112.56ZM113.234 25.7051V26.6581H101.31V25.7051H113.234ZM107.805 23.6022V26.0677H106.676V23.6022H107.805ZM107.236 18.9406C108.109 18.9372 108.867 19.0338 109.509 19.2307C110.155 19.424 110.652 19.7055 111.001 20.0749C111.35 20.4444 111.524 20.8847 111.524 21.3957C111.524 21.9137 111.35 22.3608 111.001 22.7372C110.652 23.1136 110.155 23.4002 109.509 23.597C108.867 23.7939 108.109 23.8923 107.236 23.8923C106.355 23.8923 105.592 23.7939 104.946 23.597C104.304 23.4002 103.81 23.1153 103.465 22.7424C103.123 22.366 102.954 21.9171 102.957 21.3957C102.954 20.8812 103.123 20.441 103.465 20.0749C103.81 19.7055 104.304 19.424 104.946 19.2307C105.592 19.0338 106.355 18.9372 107.236 18.9406ZM107.236 19.8522C106.593 19.8522 106.037 19.9126 105.568 20.0335C105.098 20.1544 104.737 20.3322 104.485 20.567C104.237 20.7983 104.114 21.0746 104.118 21.3957C104.114 21.7203 104.237 22 104.485 22.2348C104.737 22.4696 105.097 22.6492 105.563 22.7735C106.032 22.8943 106.59 22.9565 107.236 22.9599C107.878 22.9565 108.432 22.8943 108.898 22.7735C109.364 22.6492 109.724 22.4696 109.976 22.2348C110.228 22 110.354 21.7203 110.354 21.3957C110.354 21.0746 110.228 20.7983 109.976 20.567C109.724 20.3322 109.363 20.1544 108.893 20.0335C108.427 19.9126 107.874 19.8522 107.236 19.8522ZM107.805 15.3874V17.6872H106.676V15.3874H107.805ZM117.759 20.3805L118.889 16.3923H119.976L119.168 20.3805H117.759ZM122.64 22.2244V27H121.376V16.3923H122.64V20.2977H122.743C122.871 20.011 123.038 19.7693 123.246 19.5725C123.456 19.3722 123.714 19.2169 124.017 19.1064C124.321 18.9959 124.677 18.9406 125.084 18.9406C125.637 18.9406 126.115 19.0511 126.519 19.2721C126.923 19.4931 127.237 19.828 127.462 20.2769C127.686 20.7224 127.798 21.2783 127.798 21.9448V27H126.535V22.038C126.535 21.6236 126.462 21.2697 126.317 20.9762C126.172 20.6827 125.963 20.4582 125.69 20.3028C125.418 20.1474 125.091 20.0698 124.711 20.0698C124.311 20.0698 123.954 20.1544 123.639 20.3235C123.325 20.4927 123.08 20.7396 122.904 21.0642C122.728 21.3888 122.64 21.7756 122.64 22.2244ZM133.009 27.1657C132.253 27.1657 131.594 26.9965 131.031 26.6581C130.471 26.3198 130.041 25.8432 129.741 25.2286C129.441 24.6105 129.29 23.8957 129.29 23.0843C129.29 22.2762 129.441 21.558 129.741 20.9296C130.041 20.3011 130.463 19.8125 131.005 19.4637C131.55 19.115 132.177 18.9406 132.885 18.9406C133.489 18.9406 134.05 19.0735 134.568 19.3394C135.09 19.6053 135.513 20.0352 135.837 20.6291C136.162 21.2231 136.324 21.9862 136.324 22.9185V23.4468H130.161V22.3695H135.04C135.04 21.9275 134.952 21.5321 134.776 21.1834C134.599 20.8346 134.349 20.5601 134.025 20.3598C133.7 20.1595 133.324 20.0594 132.895 20.0594C132.429 20.0594 132.018 20.1751 131.663 20.4064C131.31 20.6378 131.038 20.9451 130.844 21.3284C130.651 21.7082 130.554 22.1174 130.554 22.5559V23.2811C130.554 23.8646 130.656 24.3653 130.86 24.7831C131.064 25.1975 131.35 25.5117 131.72 25.7258C132.089 25.9399 132.519 26.047 133.009 26.047C133.313 26.047 133.586 26.0073 133.828 25.9278C134.069 25.8484 134.275 25.7396 134.444 25.6015C134.617 25.4634 134.753 25.308 134.853 25.1354H136.2C136.076 25.5394 135.865 25.895 135.568 26.2023C135.271 26.5062 134.903 26.7427 134.465 26.9119C134.03 27.0811 133.545 27.1657 133.009 27.1657ZM139.068 16.3923V27H137.804V16.3923H139.068ZM142.185 16.3923V27H140.921V16.3923H142.185ZM147.29 27.1657C146.576 27.1657 145.944 26.9948 145.395 26.653C144.849 26.3111 144.424 25.8311 144.12 25.2131C143.817 24.5915 143.665 23.875 143.665 23.0635C143.665 22.2452 143.817 21.5252 144.12 20.9037C144.424 20.2787 144.849 19.7952 145.395 19.4534C145.944 19.1115 146.576 18.9406 147.29 18.9406C148.005 18.9406 148.635 19.1115 149.181 19.4534C149.73 19.7952 150.155 20.2787 150.455 20.9037C150.755 21.5252 150.906 22.2452 150.906 23.0635C150.906 23.875 150.755 24.5915 150.455 25.2131C150.155 25.8311 149.73 26.3111 149.181 26.653C148.635 26.9948 148.005 27.1657 147.29 27.1657ZM147.29 26.047C147.805 26.047 148.238 25.9123 148.59 25.643C148.946 25.3736 149.21 25.0128 149.383 24.5604C149.556 24.1081 149.642 23.6091 149.642 23.0635C149.642 22.5145 149.556 22.0138 149.383 21.5615C149.21 21.1057 148.946 20.7414 148.59 20.4686C148.238 20.1958 147.805 20.0594 147.29 20.0594C146.772 20.0594 146.336 20.1958 145.98 20.4686C145.624 20.7414 145.36 21.1057 145.187 21.5615C145.015 22.0138 144.928 22.5145 144.928 23.0635C144.928 23.6091 145.015 24.1081 145.187 24.5604C145.36 25.0128 145.624 25.3736 145.98 25.643C146.336 25.9123 146.772 26.047 147.29 26.047ZM152.564 27V16.3923H153.828V20.308H153.921C153.931 20.2907 153.942 20.2752 153.952 20.2614C153.963 20.2441 153.973 20.2251 153.983 20.2044C154.132 19.9731 154.284 19.7728 154.439 19.6036C154.598 19.4309 154.826 19.2773 155.123 19.1426C155.42 19.0079 155.786 18.9406 156.221 18.9406C156.884 18.9406 157.473 19.1081 157.987 19.443C158.502 19.778 158.902 20.2562 159.189 20.8778C159.475 21.4959 159.619 22.2175 159.619 23.0428C159.619 23.8715 159.475 24.5967 159.189 25.2182C158.902 25.8398 158.503 26.3198 157.992 26.6581C157.481 26.9965 156.898 27.1657 156.242 27.1657C155.796 27.1657 155.42 27.0932 155.112 26.9482C154.809 26.8032 154.575 26.6409 154.413 26.4613C154.251 26.2783 154.101 26.0711 153.963 25.8398C153.956 25.8294 153.949 25.8191 153.942 25.8087C153.935 25.7983 153.928 25.788 153.921 25.7776H153.786V27H152.564ZM153.797 23.0221C153.797 23.6195 153.885 24.1461 154.061 24.6019C154.237 25.0542 154.494 25.4064 154.833 25.6585C155.175 25.9106 155.582 26.0366 156.055 26.0366C156.545 26.0366 156.961 25.9054 157.303 25.643C157.645 25.3805 157.904 25.0214 158.08 24.5656C158.256 24.1098 158.344 23.5953 158.344 23.0221C158.344 22.4558 158.258 21.9499 158.085 21.5045C157.913 21.059 157.656 20.7086 157.314 20.453C156.972 20.1975 156.552 20.0698 156.055 20.0698C155.575 20.0698 155.164 20.1906 154.822 20.4323C154.484 20.674 154.228 21.0176 154.056 21.4631C153.883 21.9085 153.797 22.4282 153.797 23.0221ZM165.979 23.3122C165.938 23.3156 165.865 23.3208 165.762 23.3277C165.662 23.3346 165.537 23.3432 165.389 23.3536C165.113 23.3709 164.838 23.3898 164.565 23.4106C164.293 23.4278 164.063 23.4434 163.876 23.4572C163.279 23.4952 162.816 23.6247 162.488 23.8456C162.164 24.0632 162.001 24.3826 162.001 24.8039C162.001 25.0767 162.072 25.308 162.214 25.4979C162.355 25.6844 162.551 25.826 162.799 25.9227C163.048 26.0193 163.334 26.0677 163.659 26.0677C164.118 26.0677 164.514 25.9762 164.845 25.7932C165.18 25.6102 165.436 25.3702 165.612 25.0732C165.788 24.7762 165.876 24.4586 165.876 24.1202V21.634C165.876 21.2956 165.808 21.0073 165.674 20.769C165.539 20.5307 165.337 20.3494 165.068 20.2251C164.802 20.1008 164.47 20.0387 164.073 20.0387C163.749 20.0387 163.462 20.0853 163.213 20.1785C162.965 20.2718 162.763 20.3995 162.607 20.5618C162.452 20.7206 162.343 20.9054 162.281 21.116H160.976C161.028 20.6913 161.192 20.3149 161.468 19.9869C161.748 19.6554 162.117 19.3981 162.576 19.2151C163.036 19.0321 163.555 18.9406 164.135 18.9406C164.591 18.9406 165.04 19.0097 165.482 19.1478C165.924 19.2859 166.309 19.5639 166.637 19.9817C166.965 20.3995 167.129 20.9917 167.129 21.7583V27H165.876V25.9227H165.814C165.713 26.1264 165.563 26.3249 165.363 26.5183C165.166 26.7082 164.905 26.8671 164.581 26.9948C164.256 27.1226 163.88 27.1865 163.452 27.1865C162.944 27.1865 162.483 27.0898 162.069 26.8964C161.658 26.703 161.333 26.4216 161.095 26.0521C160.857 25.6827 160.738 25.2459 160.738 24.7417C160.738 23.9233 161.019 23.345 161.582 23.0066C162.145 22.6682 162.858 22.4662 163.721 22.4006C163.973 22.3833 164.261 22.366 164.586 22.3488C164.914 22.328 165.227 22.3108 165.524 22.297C165.631 22.2901 165.72 22.2849 165.793 22.2814C165.869 22.278 165.924 22.2762 165.959 22.2762L165.979 23.3122ZM168.988 27V19.0442H170.21V20.2562H170.293C170.39 19.9938 170.54 19.7607 170.744 19.557C170.948 19.3532 171.189 19.1961 171.469 19.0856C171.749 18.9751 172.044 18.9199 172.355 18.9199C172.462 18.9199 172.574 18.9216 172.691 18.9251C172.812 18.9285 172.918 18.9337 173.007 18.9406V20.2148C172.928 20.1975 172.816 20.1802 172.671 20.163C172.529 20.1423 172.389 20.1319 172.251 20.1319C171.871 20.1319 171.529 20.2113 171.226 20.3702C170.922 20.529 170.683 20.75 170.511 21.0331C170.338 21.3163 170.252 21.634 170.252 21.9862V27H168.988ZM178.144 19.0442V20.1008H173.834V19.0442H178.144ZM175.119 17.9669C175.119 17.5387 175.21 17.1692 175.393 16.8584C175.576 16.5477 175.837 16.3094 176.175 16.1436C176.514 15.9779 176.914 15.895 177.377 15.895C177.526 15.895 177.686 15.9037 177.859 15.9209C178.031 15.9382 178.185 15.9606 178.32 15.9883V17.107C178.095 17.0725 177.878 17.0552 177.667 17.0552C177.222 17.0552 176.895 17.1502 176.688 17.3401C176.484 17.53 176.383 17.8322 176.383 18.2465V27H175.119V17.9669ZM181.245 16.4026L180.116 20.3909H179.028L179.836 16.4026H181.245ZM196.535 15.1699V22.1519H195.385V15.1699H196.535ZM189.232 22.8149V24.3999H195.396V22.8149H196.535V28.0152H188.103V22.8149H189.232ZM189.232 27.0725H195.396V25.3218H189.232V27.0725ZM189.501 15.8018C190.154 15.7983 190.738 15.9227 191.252 16.1747C191.77 16.4233 192.176 16.7773 192.469 17.2365C192.763 17.6923 192.91 18.212 192.91 18.7956C192.91 19.3791 192.763 19.8988 192.469 20.3546C192.176 20.807 191.77 21.1592 191.252 21.4113C190.738 21.6599 190.154 21.7825 189.501 21.779C188.849 21.7825 188.262 21.6599 187.74 21.4113C187.222 21.1592 186.817 20.8052 186.523 20.3494C186.23 19.8936 186.083 19.3757 186.083 18.7956C186.083 18.212 186.23 17.6923 186.523 17.2365C186.817 16.7773 187.222 16.4233 187.74 16.1747C188.262 15.9227 188.849 15.7983 189.501 15.8018ZM189.501 16.7756C189.059 16.7721 188.664 16.8567 188.315 17.0294C187.967 17.1985 187.694 17.4385 187.497 17.7493C187.304 18.0566 187.209 18.4054 187.212 18.7956C187.209 19.1858 187.304 19.5363 187.497 19.847C187.694 20.1544 187.967 20.3943 188.315 20.567C188.664 20.7396 189.059 20.826 189.501 20.826C189.94 20.826 190.332 20.7396 190.677 20.567C191.026 20.3943 191.299 20.1544 191.496 19.847C191.692 19.5363 191.791 19.1858 191.791 18.7956C191.791 18.4054 191.692 18.0566 191.496 17.7493C191.299 17.4385 191.026 17.1985 190.677 17.0294C190.332 16.8567 189.94 16.7721 189.501 16.7756ZM200.078 21.6443C201.462 21.6443 202.531 21.6236 203.284 21.5822C204.037 21.5407 204.788 21.451 205.537 21.3128L205.651 22.2659C204.881 22.3936 204.109 22.4782 203.336 22.5197C202.566 22.5577 201.48 22.5767 200.078 22.5767H199.156V21.6443H200.078ZM204.77 15.9675V19.6243H200.295V22.1934H199.156V18.7334H203.631V16.8999H199.125V15.9675H204.77ZM209.391 15.1802V23.1775H208.241V15.1802H209.391ZM208.51 17.1174V18.0497H205.641V17.1174H208.51ZM208.51 19.8108V20.7535H205.641V19.8108H208.51ZM209.391 23.8819V28.212H208.241V24.8246H200.616V23.8819H209.391ZM221.49 15.1699V28.1913H220.35V15.1699H221.49ZM223.665 20.5359V21.4993H221.231V20.5359H223.665ZM219.086 17.2624V18.2155H211.338V17.2624H219.086ZM215.274 19.2928C215.882 19.2928 216.428 19.4206 216.911 19.6761C217.394 19.9316 217.772 20.2856 218.045 20.7379C218.321 21.1903 218.461 21.7065 218.465 22.2866C218.461 22.8667 218.321 23.3829 218.045 23.8353C217.772 24.2876 217.394 24.6398 216.911 24.8919C216.428 25.144 215.882 25.27 215.274 25.27C214.663 25.27 214.114 25.144 213.627 24.8919C213.144 24.6398 212.764 24.2876 212.488 23.8353C212.215 23.3795 212.08 22.8633 212.084 22.2866C212.08 21.7099 212.215 21.1954 212.488 20.7431C212.764 20.2873 213.144 19.9316 213.627 19.6761C214.114 19.4206 214.663 19.2928 215.274 19.2928ZM215.274 20.2562C214.874 20.2562 214.515 20.3425 214.197 20.5152C213.879 20.6878 213.629 20.9296 213.446 21.2403C213.266 21.5511 213.178 21.8999 213.182 22.2866C213.178 22.6733 213.266 23.0204 213.446 23.3277C213.629 23.635 213.879 23.875 214.197 24.0477C214.515 24.2169 214.874 24.2997 215.274 24.2963C215.671 24.2997 216.027 24.2169 216.341 24.0477C216.659 23.875 216.907 23.635 217.087 23.3277C217.27 23.0204 217.363 22.6733 217.367 22.2866C217.363 21.8999 217.27 21.5511 217.087 21.2403C216.907 20.9296 216.659 20.6878 216.341 20.5152C216.027 20.3425 215.671 20.2562 215.274 20.2562ZM215.834 15.3253V17.6975H214.684V15.3253H215.834ZM233.951 16.4855V17.4385H225.488V16.4855H233.951ZM236.096 25.384V26.3474H224.224V25.384H236.096ZM230.015 20.7327V25.8812H228.875V20.7327H230.015ZM234.666 17.7804V17.8943C234.663 18.6126 234.651 19.2341 234.63 19.759C234.613 20.2838 234.569 20.8881 234.5 21.5718C234.431 22.2555 234.324 22.9945 234.179 23.7887L233.019 23.654C233.167 22.9047 233.276 22.1968 233.345 21.5304C233.418 20.8605 233.463 20.2648 233.48 19.7434C233.501 19.2186 233.513 18.6022 233.516 17.8943V17.7804V16.4855H234.666V17.7804Z" fill="#CA1010"/>
</svg>
