<svg width="57" height="68" viewBox="0 0 57 68" fill="none" xmlns="http://www.w3.org/2000/svg">
<g filter="url(#filter0_d_5596_119618)">
<path d="M28.5 5C28.8597 5 29.1968 5.05799 29.5115 5.17394C29.8262 5.28805 30.1184 5.48315 30.3882 5.75924L48.1908 23.9807C48.7303 24.5329 49 25.189 49 25.9492C49 26.7075 48.7303 27.3627 48.1908 27.9149C47.6513 28.4671 47.0219 28.7431 46.3026 28.7431C45.5833 28.7431 44.954 28.4671 44.4145 27.9149L31.1974 14.3868L31.1974 54.3082C31.1974 55.0904 30.9384 55.7346 30.4205 56.2408C29.9044 56.7469 29.2643 57 28.5 57C27.7357 57 27.0947 56.7359 26.5768 56.2076C26.0607 55.6776 25.8026 55.0214 25.8026 54.2392L25.8026 14.3868L12.5855 27.9149C12.0461 28.4671 11.4167 28.7431 10.6974 28.7431C9.97807 28.7431 9.34868 28.4671 8.80921 27.9149C8.26974 27.3627 8 26.7075 8 25.9492C8 25.189 8.26974 24.5329 8.80921 23.9807L26.6118 5.75924C26.8816 5.48315 27.1738 5.28805 27.4885 5.17394C27.8032 5.05799 28.1404 5 28.5 5Z" fill="#CA1010"/>
</g>
<defs>
<filter id="filter0_d_5596_119618" x="0" y="0" width="57" height="68" filterUnits="userSpaceOnUse" color-interpolation-filters="sRGB">
<feFlood flood-opacity="0" result="BackgroundImageFix"/>
<feColorMatrix in="SourceAlpha" type="matrix" values="0 0 0 0 0 0 0 0 0 0 0 0 0 0 0 0 0 0 127 0" result="hardAlpha"/>
<feOffset dy="3"/>
<feGaussianBlur stdDeviation="4"/>
<feComposite in2="hardAlpha" operator="out"/>
<feColorMatrix type="matrix" values="0 0 0 0 0 0 0 0 0 0 0 0 0 0 0 0 0 0 0.18 0"/>
<feBlend mode="normal" in2="BackgroundImageFix" result="effect1_dropShadow_5596_119618"/>
<feBlend mode="normal" in="SourceGraphic" in2="effect1_dropShadow_5596_119618" result="shape"/>
</filter>
</defs>
</svg>
