<svg width="50" height="50" viewBox="0 0 50 50" fill="none" xmlns="http://www.w3.org/2000/svg">
<circle cx="25" cy="25" r="25" fill="white"/>
<path d="M15.4562 28.6221L24.7465 19.3041C24.8571 19.1935 24.977 19.1154 25.106 19.0697C25.235 19.0232 25.3733 19 25.5207 19C25.6682 19 25.8065 19.0232 25.9355 19.0697C26.0645 19.1154 26.1843 19.1935 26.2949 19.3041L35.6129 28.6221C35.871 28.8802 36 29.2028 36 29.5899C36 29.977 35.8618 30.3088 35.5853 30.5853C35.3088 30.8618 34.9862 31 34.6175 31C34.2488 31 33.9263 30.8618 33.6498 30.5853L25.5207 22.4562L17.3917 30.5853C17.1336 30.8433 16.8159 30.9724 16.4383 30.9724C16.0601 30.9724 15.7327 30.8341 15.4562 30.5576C15.1797 30.2811 15.0415 29.9585 15.0415 29.5899C15.0415 29.2212 15.1797 28.8986 15.4562 28.6221Z" fill="#CA1010"/>
</svg>
