<svg width="41" height="52" viewBox="0 0 41 52" fill="none" xmlns="http://www.w3.org/2000/svg">
<path d="M20.5 2.02253e-06C20.8597 2.05397e-06 21.1968 0.0579858 21.5115 0.173941C21.8262 0.288055 22.1184 0.483154 22.3882 0.759238L40.1908 18.9807C40.7303 19.5329 41 20.189 41 20.9492C41 21.7075 40.7303 22.3627 40.1908 22.9149C39.6513 23.4671 39.0219 23.7431 38.3026 23.7431C37.5833 23.7431 36.954 23.4671 36.4145 22.9149L23.1974 9.38684L23.1974 49.3082C23.1974 50.0904 22.9384 50.7346 22.4205 51.2408C21.9044 51.7469 21.2643 52 20.5 52C19.7357 52 19.0947 51.7359 18.5768 51.2076C18.0607 50.6776 17.8026 50.0214 17.8026 49.2392L17.8026 9.38684L4.58553 22.9149C4.04605 23.4671 3.41667 23.7431 2.69737 23.7431C1.97807 23.7431 1.34868 23.4671 0.80921 22.9149C0.269737 22.3627 -1.16644e-06 21.7075 -1.10015e-06 20.9492C-1.03369e-06 20.189 0.269737 19.5329 0.809211 18.9807L18.6118 0.759237C18.8816 0.483154 19.1738 0.288055 19.4885 0.173941C19.8032 0.0579857 20.1404 1.99109e-06 20.5 2.02253e-06Z" fill="#CA1010"/>
</svg>
