<svg width="26" height="23" viewBox="0 0 26 23" fill="none" xmlns="http://www.w3.org/2000/svg">
<path d="M13.7091 0H11.8182L12.7636 23H13.2364L13.7091 0Z" fill="#AF3D3D"/>
<path d="M13.7091 0H11.8182L12.7636 23H13.2364L13.7091 0Z" fill="#AF3D3D"/>
<path d="M12.7636 23V0H6.61818V14.7547H0L12.7636 23Z" fill="#AF3D3D"/>
<path d="M12.7636 23V0H6.61818V14.7547H0L12.7636 23Z" fill="#AF3D3D"/>
<path d="M13.2364 23V0H19.3818V14.7547H26L13.2364 23Z" fill="#AF3D3D"/>
<path d="M13.2364 23V0H19.3818V14.7547H26L13.2364 23Z" fill="#AF3D3D"/>
<mask id="path-2-outside-1_2035_357" maskUnits="userSpaceOnUse" x="5" y="3" width="16" height="12" fill="black">
<rect fill="white" x="5" y="3" width="16" height="12"/>
<path d="M9.34051 13.1193C8.73824 13.1193 8.20131 13.0085 7.72972 12.7869C7.26097 12.5653 6.88881 12.2599 6.61324 11.8707C6.33767 11.4815 6.1942 11.0355 6.18284 10.5327H7.97261C7.9925 10.8707 8.13455 11.1449 8.39875 11.3551C8.66295 11.5653 8.97687 11.6705 9.34051 11.6705C9.63028 11.6705 9.88597 11.6065 10.1076 11.4787C10.332 11.348 10.5067 11.1676 10.6317 10.9375C10.7595 10.7045 10.8235 10.4375 10.8235 10.1364C10.8235 9.82955 10.7581 9.55966 10.6274 9.3267C10.4996 9.09375 10.322 8.91193 10.0948 8.78125C9.8675 8.65057 9.60756 8.58381 9.31494 8.58097C9.05926 8.58097 8.81068 8.63352 8.5692 8.73864C8.33057 8.84375 8.14449 8.98722 8.01097 9.16903L6.37034 8.875L6.78369 4.27273H12.1189V5.78125H8.305L8.07915 7.96733H8.13028C8.28369 7.75142 8.51523 7.57244 8.82489 7.4304C9.13455 7.28835 9.48114 7.21733 9.86466 7.21733C10.3902 7.21733 10.859 7.34091 11.2709 7.58807C11.6828 7.83523 12.0081 8.17472 12.2468 8.60653C12.4854 9.03551 12.6033 9.52983 12.6005 10.0895C12.6033 10.6776 12.4669 11.2003 12.1914 11.6577C11.9186 12.1122 11.5365 12.4702 11.0451 12.7315C10.5564 12.9901 9.98824 13.1193 9.34051 13.1193ZM16.9333 11.7727V11.4276C16.9333 11.1655 16.9887 10.9247 17.0995 10.7053C17.2124 10.4837 17.3754 10.3068 17.5885 10.1747C17.8037 10.0405 18.0657 9.97337 18.3747 9.97337C18.6879 9.97337 18.951 10.0394 19.1641 10.1715C19.3793 10.3036 19.5412 10.4805 19.6499 10.7021C19.7607 10.9215 19.8161 11.1634 19.8161 11.4276V11.7727C19.8161 12.0348 19.7607 12.2766 19.6499 12.4982C19.5391 12.7177 19.3761 12.8935 19.1609 13.0256C18.9457 13.1598 18.6836 13.2269 18.3747 13.2269C18.0615 13.2269 17.7983 13.1598 17.5853 13.0256C17.3722 12.8935 17.2103 12.7177 17.0995 12.4982C16.9887 12.2766 16.9333 12.0348 16.9333 11.7727ZM17.8633 11.4276V11.7727C17.8633 11.924 17.8995 12.0668 17.972 12.201C18.0466 12.3352 18.1808 12.4023 18.3747 12.4023C18.5686 12.4023 18.7007 12.3363 18.771 12.2042C18.8434 12.0721 18.8797 11.9283 18.8797 11.7727V11.4276C18.8797 11.272 18.8456 11.1271 18.7774 10.9929C18.7092 10.8587 18.575 10.7915 18.3747 10.7915C18.1829 10.7915 18.0498 10.8587 17.9752 10.9929C17.9006 11.1271 17.8633 11.272 17.8633 11.4276ZM13.5743 8.02699V7.68182C13.5743 7.41761 13.6307 7.17578 13.7437 6.95632C13.8566 6.73473 14.0196 6.55788 14.2326 6.42578C14.4478 6.29368 14.7078 6.22763 15.0125 6.22763C15.3278 6.22763 15.592 6.29368 15.8051 6.42578C16.0182 6.55788 16.1801 6.73473 16.2909 6.95632C16.4017 7.17578 16.4571 7.41761 16.4571 7.68182V8.02699C16.4571 8.29119 16.4006 8.53303 16.2877 8.75249C16.1769 8.97195 16.0139 9.14773 15.7987 9.27983C15.5856 9.4098 15.3236 9.47479 15.0125 9.47479C14.7014 9.47479 14.4383 9.40874 14.2231 9.27663C14.01 9.1424 13.8481 8.96662 13.7373 8.74929C13.6286 8.52983 13.5743 8.28906 13.5743 8.02699ZM14.5107 7.68182V8.02699C14.5107 8.18253 14.5469 8.32635 14.6194 8.45845C14.6939 8.59055 14.825 8.65661 15.0125 8.65661C15.2085 8.65661 15.3417 8.59055 15.412 8.45845C15.4844 8.32635 15.5206 8.18253 15.5206 8.02699V7.68182C15.5206 7.52628 15.4865 7.38139 15.4184 7.24716C15.3502 7.11293 15.2149 7.04581 15.0125 7.04581C14.8228 7.04581 14.6918 7.11399 14.6194 7.25036C14.5469 7.38672 14.5107 7.53054 14.5107 7.68182ZM13.9961 13L18.4961 6.45455H19.3335L14.8335 13H13.9961Z"/>
</mask>
<path d="M9.34051 13.1193C8.73824 13.1193 8.20131 13.0085 7.72972 12.7869C7.26097 12.5653 6.88881 12.2599 6.61324 11.8707C6.33767 11.4815 6.1942 11.0355 6.18284 10.5327H7.97261C7.9925 10.8707 8.13455 11.1449 8.39875 11.3551C8.66295 11.5653 8.97687 11.6705 9.34051 11.6705C9.63028 11.6705 9.88597 11.6065 10.1076 11.4787C10.332 11.348 10.5067 11.1676 10.6317 10.9375C10.7595 10.7045 10.8235 10.4375 10.8235 10.1364C10.8235 9.82955 10.7581 9.55966 10.6274 9.3267C10.4996 9.09375 10.322 8.91193 10.0948 8.78125C9.8675 8.65057 9.60756 8.58381 9.31494 8.58097C9.05926 8.58097 8.81068 8.63352 8.5692 8.73864C8.33057 8.84375 8.14449 8.98722 8.01097 9.16903L6.37034 8.875L6.78369 4.27273H12.1189V5.78125H8.305L8.07915 7.96733H8.13028C8.28369 7.75142 8.51523 7.57244 8.82489 7.4304C9.13455 7.28835 9.48114 7.21733 9.86466 7.21733C10.3902 7.21733 10.859 7.34091 11.2709 7.58807C11.6828 7.83523 12.0081 8.17472 12.2468 8.60653C12.4854 9.03551 12.6033 9.52983 12.6005 10.0895C12.6033 10.6776 12.4669 11.2003 12.1914 11.6577C11.9186 12.1122 11.5365 12.4702 11.0451 12.7315C10.5564 12.9901 9.98824 13.1193 9.34051 13.1193ZM16.9333 11.7727V11.4276C16.9333 11.1655 16.9887 10.9247 17.0995 10.7053C17.2124 10.4837 17.3754 10.3068 17.5885 10.1747C17.8037 10.0405 18.0657 9.97337 18.3747 9.97337C18.6879 9.97337 18.951 10.0394 19.1641 10.1715C19.3793 10.3036 19.5412 10.4805 19.6499 10.7021C19.7607 10.9215 19.8161 11.1634 19.8161 11.4276V11.7727C19.8161 12.0348 19.7607 12.2766 19.6499 12.4982C19.5391 12.7177 19.3761 12.8935 19.1609 13.0256C18.9457 13.1598 18.6836 13.2269 18.3747 13.2269C18.0615 13.2269 17.7983 13.1598 17.5853 13.0256C17.3722 12.8935 17.2103 12.7177 17.0995 12.4982C16.9887 12.2766 16.9333 12.0348 16.9333 11.7727ZM17.8633 11.4276V11.7727C17.8633 11.924 17.8995 12.0668 17.972 12.201C18.0466 12.3352 18.1808 12.4023 18.3747 12.4023C18.5686 12.4023 18.7007 12.3363 18.771 12.2042C18.8434 12.0721 18.8797 11.9283 18.8797 11.7727V11.4276C18.8797 11.272 18.8456 11.1271 18.7774 10.9929C18.7092 10.8587 18.575 10.7915 18.3747 10.7915C18.1829 10.7915 18.0498 10.8587 17.9752 10.9929C17.9006 11.1271 17.8633 11.272 17.8633 11.4276ZM13.5743 8.02699V7.68182C13.5743 7.41761 13.6307 7.17578 13.7437 6.95632C13.8566 6.73473 14.0196 6.55788 14.2326 6.42578C14.4478 6.29368 14.7078 6.22763 15.0125 6.22763C15.3278 6.22763 15.592 6.29368 15.8051 6.42578C16.0182 6.55788 16.1801 6.73473 16.2909 6.95632C16.4017 7.17578 16.4571 7.41761 16.4571 7.68182V8.02699C16.4571 8.29119 16.4006 8.53303 16.2877 8.75249C16.1769 8.97195 16.0139 9.14773 15.7987 9.27983C15.5856 9.4098 15.3236 9.47479 15.0125 9.47479C14.7014 9.47479 14.4383 9.40874 14.2231 9.27663C14.01 9.1424 13.8481 8.96662 13.7373 8.74929C13.6286 8.52983 13.5743 8.28906 13.5743 8.02699ZM14.5107 7.68182V8.02699C14.5107 8.18253 14.5469 8.32635 14.6194 8.45845C14.6939 8.59055 14.825 8.65661 15.0125 8.65661C15.2085 8.65661 15.3417 8.59055 15.412 8.45845C15.4844 8.32635 15.5206 8.18253 15.5206 8.02699V7.68182C15.5206 7.52628 15.4865 7.38139 15.4184 7.24716C15.3502 7.11293 15.2149 7.04581 15.0125 7.04581C14.8228 7.04581 14.6918 7.11399 14.6194 7.25036C14.5469 7.38672 14.5107 7.53054 14.5107 7.68182ZM13.9961 13L18.4961 6.45455H19.3335L14.8335 13H13.9961Z" fill="white"/>
<path d="M7.72972 12.7869L7.30234 13.691L7.30444 13.692L7.72972 12.7869ZM6.61324 11.8707L7.42938 11.2929L7.42938 11.2929L6.61324 11.8707ZM6.18284 10.5327V9.53267C5.91371 9.53267 5.65593 9.64115 5.46779 9.8336C5.27965 10.026 5.17702 10.2862 5.1831 10.5553L6.18284 10.5327ZM7.97261 10.5327L8.97089 10.4739C8.9398 9.94539 8.50209 9.53267 7.97261 9.53267V10.5327ZM8.39875 11.3551L9.02139 10.5726L9.02139 10.5726L8.39875 11.3551ZM10.1076 11.4787L10.6073 12.3449L10.6107 12.3429L10.1076 11.4787ZM10.6317 10.9375L9.75503 10.4564L9.75298 10.4602L10.6317 10.9375ZM10.6274 9.3267L9.75074 9.80782L9.7553 9.81596L10.6274 9.3267ZM10.0948 8.78125L9.5963 9.64816L9.5963 9.64816L10.0948 8.78125ZM9.31494 8.58097L9.32465 7.58097H9.31494V8.58097ZM8.5692 8.73864L8.17008 7.82173L8.1661 7.82348L8.5692 8.73864ZM8.01097 9.16903L7.83456 10.1534C8.21007 10.2207 8.59116 10.0684 8.81697 9.76094L8.01097 9.16903ZM6.37034 8.875L5.37435 8.78555C5.32798 9.30178 5.68375 9.76788 6.19393 9.85932L6.37034 8.875ZM6.78369 4.27273V3.27273C6.26607 3.27273 5.83401 3.66773 5.7877 4.18327L6.78369 4.27273ZM12.1189 4.27273H13.1189C13.1189 3.72044 12.6712 3.27273 12.1189 3.27273V4.27273ZM12.1189 5.78125V6.78125C12.6712 6.78125 13.1189 6.33353 13.1189 5.78125H12.1189ZM8.305 5.78125V4.78125C7.7925 4.78125 7.36296 5.1687 7.31029 5.67848L8.305 5.78125ZM8.07915 7.96733L7.08444 7.86456C7.05535 8.14616 7.14698 8.4269 7.3366 8.63712C7.52621 8.84733 7.79605 8.96733 8.07915 8.96733V7.96733ZM8.13028 7.96733V8.96733C8.45412 8.96733 8.7579 8.81052 8.94546 8.54654L8.13028 7.96733ZM8.82489 7.4304L9.24183 8.33933L9.24183 8.33933L8.82489 7.4304ZM11.2709 7.58807L11.7854 6.73058L11.7854 6.73057L11.2709 7.58807ZM12.2468 8.60653L11.3715 9.09022L11.3729 9.09267L12.2468 8.60653ZM12.6005 10.0895L11.6004 10.0844L11.6005 10.0943L12.6005 10.0895ZM12.1914 11.6577L11.3348 11.1416L11.3339 11.1432L12.1914 11.6577ZM11.0451 12.7315L11.5127 13.6154L11.5146 13.6145L11.0451 12.7315ZM9.34051 12.1193C8.86241 12.1193 8.47429 12.0319 8.15499 11.8819L7.30444 13.692C7.92832 13.9851 8.61407 14.1193 9.34051 14.1193V12.1193ZM8.1571 11.8829C7.82988 11.7282 7.59702 11.5297 7.42938 11.2929L5.7971 12.4486C6.1806 12.9902 6.69205 13.4025 7.30234 13.691L8.1571 11.8829ZM7.42938 11.2929C7.27545 11.0755 7.18971 10.8252 7.18259 10.5101L5.1831 10.5553C5.1987 11.2459 5.39989 11.8876 5.7971 12.4486L7.42938 11.2929ZM6.18284 11.5327H7.97261V9.53267H6.18284V11.5327ZM6.97434 10.5914C7.01085 11.2122 7.28878 11.7499 7.77611 12.1376L9.02139 10.5726C8.98901 10.5468 8.98239 10.5326 8.98196 10.5318C8.98149 10.5309 8.9734 10.5166 8.97089 10.4739L6.97434 10.5914ZM7.77611 12.1376C8.23134 12.4998 8.76933 12.6705 9.34051 12.6705V10.6705C9.18442 10.6705 9.09457 10.6308 9.02139 10.5726L7.77611 12.1376ZM9.34051 12.6705C9.782 12.6705 10.2144 12.5715 10.6073 12.3449L9.60783 10.6125C9.5575 10.6415 9.47857 10.6705 9.34051 10.6705V12.6705ZM10.6107 12.3429C10.9948 12.1192 11.2988 11.8044 11.5104 11.4148L9.75298 10.4602C9.71461 10.5308 9.66918 10.5768 9.60437 10.6145L10.6107 12.3429ZM11.5084 11.4186C11.7274 11.0195 11.8235 10.583 11.8235 10.1364H9.82347C9.82347 10.292 9.79169 10.3896 9.75504 10.4564L11.5084 11.4186ZM11.8235 10.1364C11.8235 9.68398 11.7259 9.24082 11.4996 8.83745L9.7553 9.81596C9.79038 9.8785 9.82347 9.97511 9.82347 10.1364H11.8235ZM11.5041 8.84561C11.2893 8.45409 10.9819 8.1378 10.5932 7.91434L9.5963 9.64816C9.66223 9.68607 9.70995 9.73341 9.75078 9.8078L11.5041 8.84561ZM10.5932 7.91434C10.2005 7.6885 9.76855 7.58532 9.32465 7.58101L9.30524 9.58092C9.44656 9.58229 9.53453 9.61264 9.5963 9.64816L10.5932 7.91434ZM9.31494 7.58097C8.91776 7.58097 8.53361 7.6635 8.17008 7.82174L8.96832 9.65553C9.08776 9.60355 9.20076 9.58097 9.31494 9.58097V7.58097ZM8.1661 7.82348C7.79248 7.98805 7.45738 8.2334 7.20496 8.57713L8.81697 9.76094C8.83159 9.74103 8.86866 9.69945 8.97231 9.65379L8.1661 7.82348ZM8.18738 8.18472L6.54675 7.89068L6.19393 9.85932L7.83456 10.1534L8.18738 8.18472ZM7.36633 8.96445L7.77968 4.36218L5.7877 4.18327L5.37435 8.78555L7.36633 8.96445ZM6.78369 5.27273H12.1189V3.27273H6.78369V5.27273ZM11.1189 4.27273V5.78125H13.1189V4.27273H11.1189ZM12.1189 4.78125H8.305V6.78125H12.1189V4.78125ZM7.31029 5.67848L7.08444 7.86456L9.07385 8.0701L9.29971 5.88402L7.31029 5.67848ZM8.07915 8.96733H8.13028V6.96733H8.07915V8.96733ZM8.94546 8.54654C8.97223 8.50887 9.04688 8.42876 9.24183 8.33933L8.40794 6.52146C7.98358 6.71613 7.59516 6.99397 7.3151 7.38812L8.94546 8.54654ZM9.24183 8.33933C9.40513 8.26442 9.6069 8.21733 9.86466 8.21733V6.21733C9.35537 6.21733 8.86396 6.31228 8.40794 6.52146L9.24183 8.33933ZM9.86466 8.21733C10.2266 8.21733 10.5143 8.30031 10.7564 8.44556L11.7854 6.73057C11.2036 6.38151 10.5539 6.21733 9.86466 6.21733V8.21733ZM10.7564 8.44556C11.013 8.59954 11.2157 8.80825 11.3715 9.09022L13.122 8.12285C12.8006 7.54119 12.3526 7.07091 11.7854 6.73058L10.7564 8.44556ZM11.3729 9.09267C11.5168 9.35147 11.6026 9.67218 11.6005 10.0844L13.6004 10.0946C13.604 9.38748 13.4539 8.71955 13.1206 8.1204L11.3729 9.09267ZM11.6005 10.0943C11.6025 10.5181 11.5062 10.8571 11.3348 11.1416L13.0479 12.1737C13.4276 11.5435 13.6041 10.837 13.6004 10.0847L11.6005 10.0943ZM11.3339 11.1432C11.1594 11.434 10.915 11.6681 10.5755 11.8486L11.5146 13.6145C12.1581 13.2723 12.6779 12.7904 13.0489 12.1722L11.3339 11.1432ZM10.5774 11.8476C10.2557 12.0178 9.85325 12.1193 9.34051 12.1193V14.1193C10.1232 14.1193 10.8571 13.9623 11.5127 13.6154L10.5774 11.8476ZM17.0995 10.7053L16.2085 10.2512L16.2068 10.2546L17.0995 10.7053ZM17.5885 10.1747L18.1154 11.0246L18.1177 11.0232L17.5885 10.1747ZM19.1641 10.1715L18.6372 11.0214L18.6409 11.0238L19.1641 10.1715ZM19.6499 10.7021L18.752 11.1424L18.7572 11.1527L19.6499 10.7021ZM19.6499 12.4982L20.5426 12.9489L20.5443 12.9454L19.6499 12.4982ZM19.1609 13.0256L18.6377 12.1733L18.6317 12.1771L19.1609 13.0256ZM17.5853 13.0256L18.1183 12.1795L18.1122 12.1757L17.5853 13.0256ZM17.0995 12.4982L16.205 12.9454L16.2068 12.9489L17.0995 12.4982ZM17.972 12.201L17.0919 12.676L17.0978 12.6866L17.972 12.201ZM18.771 12.2042L17.8941 11.7233L17.8882 11.7343L18.771 12.2042ZM18.7774 10.9929L17.8858 11.4458L17.8858 11.4458L18.7774 10.9929ZM17.9752 10.9929L17.101 10.5073L17.101 10.5073L17.9752 10.9929ZM13.7437 6.95632L14.6328 7.41387L14.6346 7.41037L13.7437 6.95632ZM14.2326 6.42578L13.7095 5.57354L13.7057 5.57588L14.2326 6.42578ZM15.8051 6.42578L15.2781 7.27568L15.2781 7.27568L15.8051 6.42578ZM16.2909 6.95632L15.3964 7.40354L15.3982 7.407L16.2909 6.95632ZM16.2877 8.75249L15.3985 8.29493L15.395 8.30181L16.2877 8.75249ZM15.7987 9.27983L16.3195 10.1335L16.3218 10.1321L15.7987 9.27983ZM14.2231 9.27663L13.69 10.1228L13.6999 10.1289L14.2231 9.27663ZM13.7373 8.74929L12.841 9.19305L12.8464 9.20348L13.7373 8.74929ZM14.6194 8.45845L13.7425 8.93932L13.7485 8.95005L14.6194 8.45845ZM15.412 8.45845L14.5351 7.97758L14.5292 7.9886L15.412 8.45845ZM15.4184 7.24716L16.3099 6.79429L16.3099 6.79429L15.4184 7.24716ZM14.6194 7.25036L15.5025 7.71951L15.5025 7.71951L14.6194 7.25036ZM13.9961 13L13.1721 12.4335C12.9617 12.7395 12.9382 13.1369 13.1111 13.4655C13.284 13.7942 13.6248 14 13.9961 14V13ZM18.4961 6.45455V5.45455C18.1668 5.45455 17.8587 5.61666 17.6721 5.88802L18.4961 6.45455ZM19.3335 6.45455L20.1575 7.02107C20.3679 6.71506 20.3914 6.31766 20.2185 5.989C20.0456 5.66034 19.7049 5.45455 19.3335 5.45455V6.45455ZM14.8335 13V14C15.1628 14 15.471 13.8379 15.6575 13.5665L14.8335 13ZM17.9333 11.7727V11.4276H15.9333V11.7727H17.9333ZM17.9333 11.4276C17.9333 11.3114 17.9565 11.2265 17.9922 11.1559L16.2068 10.2546C16.0208 10.623 15.9333 11.0195 15.9333 11.4276H17.9333ZM17.9904 11.1593C18.0198 11.1018 18.0562 11.0613 18.1154 11.0246L17.0615 9.32481C16.6946 9.55234 16.405 9.86553 16.2085 10.2512L17.9904 11.1593ZM18.1177 11.0232C18.1427 11.0076 18.2119 10.9734 18.3747 10.9734V8.97337C17.9196 8.97337 17.4647 9.07334 17.0592 9.32625L18.1177 11.0232ZM18.3747 10.9734C18.5479 10.9734 18.6175 11.0092 18.6372 11.0214L19.691 9.32162C19.2846 9.06962 18.8279 8.97337 18.3747 8.97337V10.9734ZM18.6409 11.0238C18.6987 11.0592 18.7288 11.0949 18.752 11.1424L20.5478 10.2618C20.3537 9.86604 20.0599 9.54803 19.6873 9.31928L18.6409 11.0238ZM18.7572 11.1527C18.7923 11.2221 18.8161 11.3079 18.8161 11.4276H20.8161C20.8161 11.0188 20.7291 10.6209 20.5426 10.2514L18.7572 11.1527ZM18.8161 11.4276V11.7727H20.8161V11.4276H18.8161ZM18.8161 11.7727C18.8161 11.8888 18.7928 11.9763 18.7555 12.051L20.5443 12.9454C20.7286 12.577 20.8161 12.1808 20.8161 11.7727H18.8161ZM18.7572 12.0475C18.7323 12.0968 18.6994 12.1355 18.6378 12.1733L19.6841 13.8778C20.0528 13.6515 20.3459 13.3385 20.5426 12.9489L18.7572 12.0475ZM18.6317 12.1771C18.6067 12.1927 18.5375 12.2269 18.3747 12.2269V14.2269C18.8298 14.2269 19.2847 14.1269 19.6902 13.874L18.6317 12.1771ZM18.3747 12.2269C18.2042 12.2269 18.137 12.1912 18.1183 12.1795L17.0522 13.8717C17.4597 14.1284 17.9187 14.2269 18.3747 14.2269V12.2269ZM18.1122 12.1757C18.0522 12.1385 18.0184 12.0994 17.9922 12.0475L16.2068 12.9489C16.4022 13.3359 16.6922 13.6485 17.0583 13.8755L18.1122 12.1757ZM17.9939 12.051C17.9565 11.9763 17.9333 11.8888 17.9333 11.7727H15.9333C15.9333 12.1808 16.0208 12.577 16.205 12.9454L17.9939 12.051ZM16.8633 11.4276V11.7727H18.8633V11.4276H16.8633ZM16.8633 11.7727C16.8633 12.0912 16.9415 12.397 17.092 12.6759L18.852 11.7261C18.8534 11.7287 18.8569 11.7362 18.8598 11.7473C18.8626 11.7585 18.8633 11.7677 18.8633 11.7727H16.8633ZM17.0978 12.6866C17.397 13.2252 17.9292 13.4023 18.3747 13.4023V11.4023C18.3892 11.4023 18.4696 11.4045 18.5758 11.4576C18.6933 11.5163 18.788 11.6106 18.8461 11.7154L17.0978 12.6866ZM18.3747 13.4023C18.8105 13.4023 19.357 13.2315 19.6537 12.674L17.8882 11.7343C17.9493 11.6197 18.0497 11.5195 18.172 11.4584C18.2812 11.4037 18.3631 11.4023 18.3747 11.4023V13.4023ZM19.6478 12.685C19.8037 12.4007 19.8797 12.0907 19.8797 11.7727H17.8797C17.8797 11.7728 17.8797 11.7723 17.8797 11.7713C17.8798 11.7703 17.8799 11.7689 17.8801 11.7671C17.8806 11.7634 17.8814 11.7586 17.8828 11.753C17.8858 11.7411 17.8901 11.7307 17.8942 11.7234L19.6478 12.685ZM19.8797 11.7727V11.4276H17.8797V11.7727H19.8797ZM19.8797 11.4276C19.8797 11.12 19.8108 10.8193 19.669 10.54L17.8858 11.4458C17.8852 11.4445 17.8842 11.4424 17.8832 11.4396C17.8822 11.4368 17.8813 11.434 17.8807 11.4313C17.8793 11.4254 17.8797 11.4234 17.8797 11.4276H19.8797ZM19.669 10.54C19.3732 9.95781 18.8063 9.79155 18.3747 9.79155V11.7915C18.3692 11.7915 18.2886 11.7914 18.1784 11.7363C18.0532 11.6737 17.9484 11.569 17.8858 11.4458L19.669 10.54ZM18.3747 9.79155C17.9258 9.79155 17.3981 9.97256 17.101 10.5073L18.8493 11.4785C18.7924 11.5811 18.699 11.6754 18.5811 11.7349C18.4739 11.7889 18.3918 11.7915 18.3747 11.7915V9.79155ZM17.101 10.5073C16.9428 10.792 16.8633 11.1044 16.8633 11.4276H18.8633C18.8633 11.4305 18.8629 11.4393 18.8597 11.4515C18.8566 11.4637 18.8523 11.4732 18.8493 11.4785L17.101 10.5073ZM14.5743 8.02699V7.68182H12.5743V8.02699H14.5743ZM14.5743 7.68182C14.5743 7.56527 14.5978 7.48192 14.6328 7.41386L12.8545 6.49878C12.6636 6.86965 12.5743 7.26996 12.5743 7.68182H14.5743ZM14.6346 7.41037C14.6639 7.35287 14.7004 7.31237 14.7596 7.27568L13.7057 5.57588C13.3387 5.8034 13.0492 6.11659 12.8527 6.50227L14.6346 7.41037ZM14.7558 7.27802C14.7838 7.2608 14.8541 7.22763 15.0125 7.22763V5.22763C14.5614 5.22763 14.1118 5.32656 13.7095 5.57354L14.7558 7.27802ZM15.0125 7.22763C15.1893 7.22763 15.2594 7.26409 15.2781 7.27568L16.332 5.57588C15.9246 5.32327 15.4664 5.22763 15.0125 5.22763V7.22763ZM15.2781 7.27568C15.3358 7.31141 15.3695 7.34969 15.3965 7.40353L17.1853 6.50911C16.9906 6.11977 16.7005 5.80436 16.332 5.57588L15.2781 7.27568ZM15.3982 7.407C15.4332 7.4764 15.4571 7.56221 15.4571 7.68182H17.4571C17.4571 7.27302 17.3701 6.87516 17.1836 6.50564L15.3982 7.407ZM15.4571 7.68182V8.02699H17.4571V7.68182H15.4571ZM15.4571 8.02699C15.4571 8.14354 15.4335 8.22689 15.3985 8.29494L17.1769 9.21003C17.3677 8.83916 17.4571 8.43885 17.4571 8.02699H15.4571ZM15.395 8.30181C15.3701 8.35108 15.3372 8.38972 15.2755 8.42759L16.3218 10.1321C16.6906 9.90573 16.9837 9.59281 17.1804 9.20316L15.395 8.30181ZM15.2779 8.42613C15.2561 8.43942 15.1848 8.47479 15.0125 8.47479V10.4748C15.4623 10.4748 15.9151 10.3802 16.3195 10.1335L15.2779 8.42613ZM15.0125 8.47479C14.8433 8.47479 14.7712 8.43972 14.7462 8.4244L13.6999 10.1289C14.1053 10.3778 14.5595 10.4748 15.0125 10.4748V8.47479ZM14.7561 8.43054C14.6903 8.38908 14.6544 8.3466 14.6282 8.2951L12.8464 9.20348C13.0417 9.58664 13.3297 9.89573 13.69 10.1227L14.7561 8.43054ZM14.6334 8.30556C14.5978 8.23361 14.5743 8.14618 14.5743 8.02699H12.5743C12.5743 8.43195 12.6594 8.82604 12.8411 9.19302L14.6334 8.30556ZM13.5107 7.68182V8.02699H15.5107V7.68182H13.5107ZM13.5107 8.02699C13.5107 8.34495 13.5866 8.65492 13.7425 8.93928L15.4962 7.97762C15.5002 7.98497 15.5046 7.99539 15.5076 8.00728C15.509 8.01284 15.5098 8.01763 15.5102 8.02133C15.5105 8.02313 15.5106 8.02455 15.5106 8.02553C15.5107 8.02652 15.5107 8.02702 15.5107 8.02699H13.5107ZM13.7485 8.95005C14.0447 9.47461 14.5642 9.65661 15.0125 9.65661V7.65661C15.0329 7.65661 15.1163 7.65996 15.2237 7.7141C15.3413 7.77338 15.4336 7.86657 15.4902 7.96686L13.7485 8.95005ZM15.0125 9.65661C15.4448 9.65661 15.996 9.48955 16.2947 8.9283L14.5292 7.9886C14.5914 7.87171 14.6932 7.77162 14.815 7.71121C14.9233 7.65749 15.0034 7.65661 15.0125 7.65661V9.65661ZM16.2888 8.93928C16.4447 8.65492 16.5206 8.34495 16.5206 8.02699H14.5206C14.5206 8.02702 14.5206 8.02652 14.5207 8.02553C14.5208 8.02455 14.5209 8.02313 14.5211 8.02133C14.5215 8.01763 14.5224 8.01284 14.5238 8.00728C14.5268 7.99539 14.5311 7.98497 14.5352 7.97762L16.2888 8.93928ZM16.5206 8.02699V7.68182H14.5206V8.02699H16.5206ZM16.5206 7.68182C16.5206 7.37428 16.4518 7.07357 16.3099 6.79429L14.5268 7.70002C14.5261 7.69873 14.5252 7.69664 14.5242 7.69387C14.5231 7.6911 14.5223 7.68825 14.5217 7.68554C14.5203 7.67962 14.5206 7.6777 14.5206 7.68182H16.5206ZM16.3099 6.79429C16.0123 6.20833 15.4406 6.04581 15.0125 6.04581V8.04581C15.0095 8.04581 14.9306 8.04616 14.8214 7.99198C14.6968 7.93019 14.5905 7.8255 14.5268 7.70002L16.3099 6.79429ZM15.0125 6.04581C14.5534 6.04581 14.0248 6.23811 13.7362 6.7812L15.5025 7.71951C15.4483 7.82151 15.356 7.92031 15.2336 7.98404C15.1218 8.04218 15.0341 8.04581 15.0125 8.04581V6.04581ZM13.7362 6.7812C13.5887 7.05892 13.5107 7.36346 13.5107 7.68182H15.5107C15.5107 7.68687 15.51 7.69519 15.5076 7.70472C15.5065 7.70914 15.5052 7.71283 15.5042 7.71562C15.5031 7.71839 15.5024 7.71971 15.5025 7.71951L13.7362 6.7812ZM14.8202 13.5665L19.3202 7.02107L17.6721 5.88802L13.1721 12.4335L14.8202 13.5665ZM18.4961 7.45455H19.3335V5.45455H18.4961V7.45455ZM18.5095 5.88802L14.0095 12.4335L15.6575 13.5665L20.1575 7.02107L18.5095 5.88802ZM14.8335 12H13.9961V14H14.8335V12Z" fill="#AF3D3D" mask="url(#path-2-outside-1_2035_357)"/>
</svg>
