<svg width="26" height="23" viewBox="0 0 26 23" fill="none" xmlns="http://www.w3.org/2000/svg">
<path d="M13.7091 0H11.8182L12.7636 23H13.2364L13.7091 0Z" fill="#AF3D3D"/>
<path d="M12.7636 23V0H6.61818V14.7547H0L12.7636 23Z" fill="#AF3D3D"/>
<path d="M12.7636 23V0H6.61818V14.7547H0L12.7636 23Z" fill="#AF3D3D"/>
<path d="M13.2364 23V0H19.3818V14.7547H26L13.2364 23Z" fill="#AF3D3D"/>
<path d="M13.2364 23V0H19.3818V14.7547H26L13.2364 23Z" fill="#AF3D3D"/>
<mask id="path-2-outside-1_2039_10" maskUnits="userSpaceOnUse" x="4" y="3" width="17" height="12" fill="black">
<rect fill="white" x="4" y="3" width="17" height="12"/>
<path d="M9.29097 13.1193C8.65461 13.1193 8.08785 13.0099 7.59069 12.7912C7.09637 12.5696 6.70575 12.2656 6.41881 11.8793C6.13472 11.4901 5.98842 11.0412 5.97989 10.5327H7.83785C7.84921 10.7457 7.91881 10.9332 8.04665 11.0952C8.17734 11.2543 8.35063 11.3778 8.56654 11.4659C8.78245 11.554 9.02535 11.598 9.29523 11.598C9.57648 11.598 9.82506 11.5483 10.041 11.4489C10.2569 11.3494 10.4259 11.2116 10.5481 11.0355C10.6702 10.8594 10.7313 10.6562 10.7313 10.4261C10.7313 10.1932 10.666 9.98722 10.5353 9.80824C10.4075 9.62642 10.2228 9.48437 9.98131 9.3821C9.74268 9.27983 9.45859 9.22869 9.12904 9.22869H8.31512V7.87358H9.12904C9.40745 7.87358 9.65319 7.82528 9.86626 7.72869C10.0822 7.6321 10.2498 7.49858 10.3691 7.32812C10.4884 7.15483 10.5481 6.95312 10.5481 6.72301C10.5481 6.50426 10.4955 6.3125 10.3904 6.14773C10.2881 5.98011 10.1432 5.84943 9.95575 5.75568C9.77109 5.66193 9.55518 5.61506 9.30802 5.61506C9.05802 5.61506 8.82933 5.66051 8.62194 5.75142C8.41455 5.83949 8.24836 5.96591 8.12336 6.13068C7.99836 6.29545 7.9316 6.48864 7.92308 6.71023H6.15461C6.16313 6.20739 6.3066 5.7642 6.58501 5.38068C6.86342 4.99716 7.23842 4.69744 7.71001 4.48153C8.18444 4.26278 8.71995 4.15341 9.31654 4.15341C9.91881 4.15341 10.4458 4.26278 10.8975 4.48153C11.3492 4.70028 11.7001 4.99574 11.9501 5.3679C12.2029 5.73722 12.3279 6.15199 12.3251 6.61222C12.3279 7.10085 12.1759 7.50852 11.8691 7.83523C11.5651 8.16193 11.1688 8.36932 10.6802 8.45739V8.52557C11.3222 8.60795 11.8109 8.83097 12.1461 9.1946C12.4842 9.5554 12.6518 10.0071 12.6489 10.5497C12.6518 11.0469 12.5083 11.4886 12.2185 11.875C11.9316 12.2614 11.5353 12.5653 11.0296 12.7869C10.5239 13.0085 9.94438 13.1193 9.29097 13.1193ZM17.0212 11.7727V11.4276C17.0212 11.1655 17.0766 10.9247 17.1874 10.7053C17.3003 10.4837 17.4633 10.3068 17.6764 10.1747C17.8916 10.0405 18.1536 9.97337 18.4626 9.97337C18.7758 9.97337 19.0389 10.0394 19.252 10.1715C19.4672 10.3036 19.6291 10.4805 19.7378 10.7021C19.8486 10.9215 19.904 11.1634 19.904 11.4276V11.7727C19.904 12.0348 19.8486 12.2766 19.7378 12.4982C19.627 12.7177 19.464 12.8935 19.2488 13.0256C19.0336 13.1598 18.7715 13.2269 18.4626 13.2269C18.1494 13.2269 17.8862 13.1598 17.6732 13.0256C17.4601 12.8935 17.2982 12.7177 17.1874 12.4982C17.0766 12.2766 17.0212 12.0348 17.0212 11.7727ZM17.9512 11.4276V11.7727C17.9512 11.924 17.9874 12.0668 18.0599 12.201C18.1345 12.3352 18.2687 12.4023 18.4626 12.4023C18.6565 12.4023 18.7886 12.3363 18.8589 12.2042C18.9313 12.0721 18.9675 11.9283 18.9675 11.7727V11.4276C18.9675 11.272 18.9335 11.1271 18.8653 10.9929C18.7971 10.8587 18.6629 10.7915 18.4626 10.7915C18.2708 10.7915 18.1376 10.8587 18.0631 10.9929C17.9885 11.1271 17.9512 11.272 17.9512 11.4276ZM13.6622 8.02699V7.68182C13.6622 7.41761 13.7186 7.17578 13.8315 6.95632C13.9445 6.73473 14.1075 6.55788 14.3205 6.42578C14.5357 6.29368 14.7957 6.22763 15.1004 6.22763C15.4157 6.22763 15.6799 6.29368 15.893 6.42578C16.106 6.55788 16.268 6.73473 16.3788 6.95632C16.4896 7.17578 16.545 7.41761 16.545 7.68182V8.02699C16.545 8.29119 16.4885 8.53303 16.3756 8.75249C16.2648 8.97195 16.1018 9.14773 15.8866 9.27983C15.6735 9.4098 15.4114 9.47479 15.1004 9.47479C14.7893 9.47479 14.5261 9.40874 14.3109 9.27663C14.0979 9.1424 13.9359 8.96662 13.8251 8.74929C13.7165 8.52983 13.6622 8.28906 13.6622 8.02699ZM14.5986 7.68182V8.02699C14.5986 8.18253 14.6348 8.32635 14.7073 8.45845C14.7818 8.59055 14.9129 8.65661 15.1004 8.65661C15.2964 8.65661 15.4296 8.59055 15.4999 8.45845C15.5723 8.32635 15.6085 8.18253 15.6085 8.02699V7.68182C15.6085 7.52628 15.5744 7.38139 15.5063 7.24716C15.4381 7.11293 15.3028 7.04581 15.1004 7.04581C14.9107 7.04581 14.7797 7.11399 14.7073 7.25036C14.6348 7.38672 14.5986 7.53054 14.5986 7.68182ZM14.084 13L18.584 6.45455H19.4214L14.9214 13H14.084Z"/>
</mask>
<path d="M9.29097 13.1193C8.65461 13.1193 8.08785 13.0099 7.59069 12.7912C7.09637 12.5696 6.70575 12.2656 6.41881 11.8793C6.13472 11.4901 5.98842 11.0412 5.97989 10.5327H7.83785C7.84921 10.7457 7.91881 10.9332 8.04665 11.0952C8.17734 11.2543 8.35063 11.3778 8.56654 11.4659C8.78245 11.554 9.02535 11.598 9.29523 11.598C9.57648 11.598 9.82506 11.5483 10.041 11.4489C10.2569 11.3494 10.4259 11.2116 10.5481 11.0355C10.6702 10.8594 10.7313 10.6562 10.7313 10.4261C10.7313 10.1932 10.666 9.98722 10.5353 9.80824C10.4075 9.62642 10.2228 9.48437 9.98131 9.3821C9.74268 9.27983 9.45859 9.22869 9.12904 9.22869H8.31512V7.87358H9.12904C9.40745 7.87358 9.65319 7.82528 9.86626 7.72869C10.0822 7.6321 10.2498 7.49858 10.3691 7.32812C10.4884 7.15483 10.5481 6.95312 10.5481 6.72301C10.5481 6.50426 10.4955 6.3125 10.3904 6.14773C10.2881 5.98011 10.1432 5.84943 9.95575 5.75568C9.77109 5.66193 9.55518 5.61506 9.30802 5.61506C9.05802 5.61506 8.82933 5.66051 8.62194 5.75142C8.41455 5.83949 8.24836 5.96591 8.12336 6.13068C7.99836 6.29545 7.9316 6.48864 7.92308 6.71023H6.15461C6.16313 6.20739 6.3066 5.7642 6.58501 5.38068C6.86342 4.99716 7.23842 4.69744 7.71001 4.48153C8.18444 4.26278 8.71995 4.15341 9.31654 4.15341C9.91881 4.15341 10.4458 4.26278 10.8975 4.48153C11.3492 4.70028 11.7001 4.99574 11.9501 5.3679C12.2029 5.73722 12.3279 6.15199 12.3251 6.61222C12.3279 7.10085 12.1759 7.50852 11.8691 7.83523C11.5651 8.16193 11.1688 8.36932 10.6802 8.45739V8.52557C11.3222 8.60795 11.8109 8.83097 12.1461 9.1946C12.4842 9.5554 12.6518 10.0071 12.6489 10.5497C12.6518 11.0469 12.5083 11.4886 12.2185 11.875C11.9316 12.2614 11.5353 12.5653 11.0296 12.7869C10.5239 13.0085 9.94438 13.1193 9.29097 13.1193ZM17.0212 11.7727V11.4276C17.0212 11.1655 17.0766 10.9247 17.1874 10.7053C17.3003 10.4837 17.4633 10.3068 17.6764 10.1747C17.8916 10.0405 18.1536 9.97337 18.4626 9.97337C18.7758 9.97337 19.0389 10.0394 19.252 10.1715C19.4672 10.3036 19.6291 10.4805 19.7378 10.7021C19.8486 10.9215 19.904 11.1634 19.904 11.4276V11.7727C19.904 12.0348 19.8486 12.2766 19.7378 12.4982C19.627 12.7177 19.464 12.8935 19.2488 13.0256C19.0336 13.1598 18.7715 13.2269 18.4626 13.2269C18.1494 13.2269 17.8862 13.1598 17.6732 13.0256C17.4601 12.8935 17.2982 12.7177 17.1874 12.4982C17.0766 12.2766 17.0212 12.0348 17.0212 11.7727ZM17.9512 11.4276V11.7727C17.9512 11.924 17.9874 12.0668 18.0599 12.201C18.1345 12.3352 18.2687 12.4023 18.4626 12.4023C18.6565 12.4023 18.7886 12.3363 18.8589 12.2042C18.9313 12.0721 18.9675 11.9283 18.9675 11.7727V11.4276C18.9675 11.272 18.9335 11.1271 18.8653 10.9929C18.7971 10.8587 18.6629 10.7915 18.4626 10.7915C18.2708 10.7915 18.1376 10.8587 18.0631 10.9929C17.9885 11.1271 17.9512 11.272 17.9512 11.4276ZM13.6622 8.02699V7.68182C13.6622 7.41761 13.7186 7.17578 13.8315 6.95632C13.9445 6.73473 14.1075 6.55788 14.3205 6.42578C14.5357 6.29368 14.7957 6.22763 15.1004 6.22763C15.4157 6.22763 15.6799 6.29368 15.893 6.42578C16.106 6.55788 16.268 6.73473 16.3788 6.95632C16.4896 7.17578 16.545 7.41761 16.545 7.68182V8.02699C16.545 8.29119 16.4885 8.53303 16.3756 8.75249C16.2648 8.97195 16.1018 9.14773 15.8866 9.27983C15.6735 9.4098 15.4114 9.47479 15.1004 9.47479C14.7893 9.47479 14.5261 9.40874 14.3109 9.27663C14.0979 9.1424 13.9359 8.96662 13.8251 8.74929C13.7165 8.52983 13.6622 8.28906 13.6622 8.02699ZM14.5986 7.68182V8.02699C14.5986 8.18253 14.6348 8.32635 14.7073 8.45845C14.7818 8.59055 14.9129 8.65661 15.1004 8.65661C15.2964 8.65661 15.4296 8.59055 15.4999 8.45845C15.5723 8.32635 15.6085 8.18253 15.6085 8.02699V7.68182C15.6085 7.52628 15.5744 7.38139 15.5063 7.24716C15.4381 7.11293 15.3028 7.04581 15.1004 7.04581C14.9107 7.04581 14.7797 7.11399 14.7073 7.25036C14.6348 7.38672 14.5986 7.53054 14.5986 7.68182ZM14.084 13L18.584 6.45455H19.4214L14.9214 13H14.084Z" fill="white"/>
<path d="M7.59069 12.7912L7.18162 13.7037L7.18795 13.7065L7.59069 12.7912ZM6.41881 11.8793L5.61107 12.4689L5.61599 12.4755L6.41881 11.8793ZM5.97989 10.5327V9.53267C5.71177 9.53267 5.45488 9.64034 5.26689 9.83151C5.07889 10.0227 4.97554 10.2813 4.98003 10.5494L5.97989 10.5327ZM7.83785 10.5327L8.83643 10.4794C8.80812 9.94858 8.36944 9.53267 7.83785 9.53267V10.5327ZM8.04665 11.0952L7.26177 11.7148C7.26578 11.7199 7.26983 11.7249 7.27393 11.7299L8.04665 11.0952ZM8.56654 11.4659L8.18886 12.3918L8.18886 12.3918L8.56654 11.4659ZM10.041 11.4489L9.62267 10.5406L9.62267 10.5406L10.041 11.4489ZM10.5481 11.0355L11.3698 11.6054L11.3698 11.6054L10.5481 11.0355ZM10.5353 9.80824L9.71726 10.3834C9.72069 10.3883 9.72415 10.3931 9.72767 10.3979L10.5353 9.80824ZM9.98131 9.3821L9.58739 10.3013L9.59132 10.3029L9.98131 9.3821ZM8.31512 9.22869H7.31512C7.31512 9.78098 7.76284 10.2287 8.31512 10.2287V9.22869ZM8.31512 7.87358V6.87358C7.76284 6.87358 7.31512 7.32129 7.31512 7.87358H8.31512ZM9.86626 7.72869L9.45789 6.81586L9.45337 6.81791L9.86626 7.72869ZM10.3691 7.32812L11.1884 7.9016L11.1927 7.89523L10.3691 7.32812ZM10.3904 6.14773L9.53677 6.66859C9.54023 6.67428 9.54376 6.67993 9.54734 6.68554L10.3904 6.14773ZM9.95575 5.75568L9.50304 6.64737L9.50853 6.65011L9.95575 5.75568ZM8.62194 5.75142L9.01284 6.67193L9.02342 6.66729L8.62194 5.75142ZM8.12336 6.13068L8.92005 6.73507L8.92005 6.73507L8.12336 6.13068ZM7.92308 6.71023V7.71023C8.46041 7.71023 8.90169 7.28559 8.92234 6.74866L7.92308 6.71023ZM6.15461 6.71023L5.15475 6.69328C5.15021 6.9614 5.25354 7.2201 5.44154 7.41132C5.62954 7.60253 5.88646 7.71023 6.15461 7.71023V6.71023ZM6.58501 5.38068L7.39426 5.96814L7.39426 5.96814L6.58501 5.38068ZM7.71001 4.48153L8.12629 5.39077L8.12872 5.38965L7.71001 4.48153ZM10.8975 4.48153L11.3334 3.58152L11.3334 3.58152L10.8975 4.48153ZM11.9501 5.3679L11.1199 5.92554L11.1249 5.93281L11.9501 5.3679ZM12.3251 6.61222L11.325 6.60604L11.3251 6.61803L12.3251 6.61222ZM11.8691 7.83523L11.1401 7.15065L11.137 7.15404L11.8691 7.83523ZM10.6802 8.45739L10.5028 7.47324C10.0266 7.55907 9.68018 7.97352 9.68018 8.45739H10.6802ZM10.6802 8.52557H9.68018C9.68018 9.02865 10.0539 9.45341 10.5529 9.51744L10.6802 8.52557ZM12.1461 9.1946L11.4108 9.87243L11.4164 9.87835L12.1461 9.1946ZM12.6489 10.5497L11.6489 10.5445L11.6489 10.5554L12.6489 10.5497ZM12.2185 11.875L11.4185 11.275L11.4157 11.2788L12.2185 11.875ZM11.0296 12.7869L10.6283 11.871L10.6283 11.871L11.0296 12.7869ZM9.29097 12.1193C8.76974 12.1193 8.34376 12.03 7.99343 11.8759L7.18795 13.7065C7.83193 13.9899 8.53947 14.1193 9.29097 14.1193V12.1193ZM7.99974 11.8787C7.64162 11.7181 7.39424 11.5155 7.22164 11.283L5.61599 12.4755C6.01725 13.0158 6.55112 13.4211 7.18163 13.7037L7.99974 11.8787ZM7.22653 11.2897C7.07097 11.0766 6.98502 10.8304 6.97975 10.5159L4.98003 10.5494C4.99181 11.252 5.19847 11.9035 5.6111 12.4688L7.22653 11.2897ZM5.97989 11.5327H7.83785V9.53267H5.97989V11.5327ZM6.83927 10.5859C6.86123 10.9978 7.0013 11.3849 7.26177 11.7148L8.83154 10.4755C8.8305 10.4742 8.83104 10.4747 8.83232 10.477C8.83362 10.4793 8.83496 10.4821 8.83606 10.4851C8.83716 10.488 8.8375 10.4897 8.83747 10.4896C8.83742 10.4893 8.83679 10.4861 8.83643 10.4794L6.83927 10.5859ZM7.27393 11.7299C7.52337 12.0336 7.83978 12.2495 8.18886 12.3918L8.94423 10.54C8.86148 10.5062 8.8313 10.4749 8.81938 10.4604L7.27393 11.7299ZM8.18886 12.3918C8.54202 12.5359 8.91599 12.598 9.29523 12.598V10.598C9.1347 10.598 9.02288 10.5721 8.94422 10.54L8.18886 12.3918ZM9.29523 12.598C9.69475 12.598 10.0903 12.5271 10.4593 12.3572L9.62267 10.5406C9.55978 10.5695 9.45822 10.598 9.29523 10.598V12.598ZM10.4593 12.3572C10.8193 12.1914 11.135 11.944 11.3698 11.6054L9.72636 10.4656C9.71684 10.4793 9.69445 10.5075 9.62267 10.5406L10.4593 12.3572ZM11.3698 11.6054C11.6167 11.2494 11.7313 10.8442 11.7313 10.4261H9.73131C9.73131 10.4519 9.72804 10.4625 9.72786 10.4631C9.72766 10.4638 9.72765 10.4637 9.72783 10.4633C9.728 10.463 9.72772 10.4637 9.72636 10.4656L11.3698 11.6054ZM11.7313 10.4261C11.7313 9.99276 11.6053 9.57783 11.3429 9.21854L9.72767 10.3979C9.72975 10.4008 9.73022 10.4019 9.72994 10.4013C9.72964 10.4007 9.7293 10.3999 9.72912 10.3993C9.72896 10.3988 9.72941 10.4 9.72996 10.4037C9.73052 10.4075 9.73131 10.4147 9.73131 10.4261H11.7313ZM11.3533 9.23306C11.0999 8.8726 10.7536 8.62319 10.3713 8.46128L9.59132 10.3029C9.69199 10.3456 9.71503 10.3802 9.71726 10.3834L11.3533 9.23306ZM10.3752 8.46296C9.98346 8.29506 9.5589 8.22869 9.12904 8.22869V10.2287C9.35827 10.2287 9.50189 10.2646 9.5874 10.3012L10.3752 8.46296ZM9.12904 8.22869H8.31512V10.2287H9.12904V8.22869ZM9.31512 9.22869V7.87358H7.31512V9.22869H9.31512ZM8.31512 8.87358H9.12904V6.87358H8.31512V8.87358ZM9.12904 8.87358C9.52317 8.87358 9.91408 8.80497 10.2791 8.63947L9.45337 6.81791C9.39229 6.8456 9.29173 6.87358 9.12904 6.87358V8.87358ZM10.2746 8.64151C10.6326 8.48136 10.9517 8.23965 11.1883 7.90159L9.54987 6.75466C9.54788 6.75751 9.53173 6.78284 9.45789 6.81587L10.2746 8.64151ZM11.1927 7.89523C11.4377 7.53947 11.5481 7.13579 11.5481 6.72301H9.54808C9.54808 6.751 9.54456 6.76268 9.5444 6.76325C9.54422 6.76386 9.54435 6.76328 9.54492 6.7621C9.54549 6.76091 9.54584 6.76046 9.54545 6.76102L11.1927 7.89523ZM11.5481 6.72301C11.5481 6.33714 11.453 5.95402 11.2335 5.60991L9.54734 6.68554C9.54653 6.68426 9.5456 6.68257 9.54482 6.68081C9.54406 6.67908 9.54394 6.67843 9.54422 6.67945C9.54467 6.68108 9.54808 6.6941 9.54808 6.72301H11.5481ZM11.244 5.62686C11.0374 5.28812 10.7465 5.033 10.403 4.86125L9.50853 6.65011C9.52756 6.65962 9.5346 6.66598 9.53527 6.66658C9.53585 6.6671 9.53587 6.66717 9.53569 6.66696C9.53552 6.66675 9.53588 6.66713 9.53677 6.66859L11.244 5.62686ZM10.4084 4.86402C10.0588 4.68653 9.68229 4.61506 9.30802 4.61506V6.61506C9.42807 6.61506 9.48333 6.63733 9.50305 6.64735L10.4084 4.86402ZM9.30802 4.61506C8.93428 4.61506 8.56703 4.68363 8.22046 4.83555L9.02342 6.66729C9.09162 6.63739 9.18175 6.61506 9.30802 6.61506V4.61506ZM8.23107 4.83098C7.87793 4.98094 7.56636 5.21034 7.32667 5.5263L8.92005 6.73507C8.93036 6.72148 8.95117 6.69804 9.01281 6.67186L8.23107 4.83098ZM7.32667 5.52629C7.06858 5.8665 6.93962 6.26085 6.92381 6.67179L8.92234 6.74866C8.92275 6.73786 8.92373 6.73117 8.92431 6.72795C8.92488 6.7248 8.9252 6.72431 8.92469 6.72578C8.92417 6.72729 8.92326 6.72948 8.92201 6.73181C8.92077 6.73413 8.91989 6.73527 8.92005 6.73507L7.32667 5.52629ZM7.92308 5.71023H6.15461V7.71023H7.92308V5.71023ZM7.15447 6.72717C7.15973 6.41628 7.244 6.17513 7.39426 5.96814L5.77575 4.79322C5.36919 5.35328 5.16653 5.99849 5.15475 6.69328L7.15447 6.72717ZM7.39426 5.96814C7.56219 5.73682 7.79603 5.54197 8.12628 5.39077L7.29373 3.5723C6.68081 3.85291 6.16465 4.2575 5.77575 4.79322L7.39426 5.96814ZM8.12872 5.38965C8.45444 5.23947 8.84402 5.15341 9.31654 5.15341V3.15341C8.59588 3.15341 7.91444 3.2861 7.29129 3.57342L8.12872 5.38965ZM9.31654 5.15341C9.79766 5.15341 10.1703 5.24047 10.4617 5.38155L11.3334 3.58152C10.7213 3.2851 10.04 3.15341 9.31654 3.15341V5.15341ZM10.4617 5.38155C10.7734 5.53253 10.9801 5.71737 11.12 5.92552L12.7802 4.81028C12.42 4.2741 11.925 3.86804 11.3334 3.58152L10.4617 5.38155ZM11.1249 5.93281C11.2592 6.12902 11.3267 6.3434 11.3251 6.60604L13.325 6.61839C13.3291 5.96057 13.1466 5.34541 12.7752 4.80299L11.1249 5.93281ZM11.3251 6.61803C11.3266 6.87559 11.2549 7.02848 11.1402 7.15065L12.598 8.5198C13.0969 7.98856 13.3292 7.32611 13.325 6.6064L11.3251 6.61803ZM11.137 7.15404C10.9968 7.30466 10.8038 7.41898 10.5028 7.47324L10.8576 9.44153C11.5338 9.31965 12.1334 9.0192 12.6012 8.51641L11.137 7.15404ZM9.68018 8.45739V8.52557H11.6802V8.45739H9.68018ZM10.5529 9.51744C11.0347 9.57926 11.2787 9.72905 11.4108 9.87241L12.8813 8.5168C12.343 7.93288 11.6097 7.63665 10.8075 7.5337L10.5529 9.51744ZM11.4164 9.87835C11.5618 10.0336 11.6506 10.2305 11.6489 10.5445L13.6489 10.555C13.653 9.78374 13.4065 9.07722 12.8758 8.51085L11.4164 9.87835ZM11.6489 10.5554C11.6506 10.8412 11.5732 11.0687 11.4185 11.275L13.0185 12.475C13.4434 11.9085 13.653 11.2526 13.6489 10.544L11.6489 10.5554ZM11.4157 11.2788C11.247 11.506 10.9984 11.7088 10.6283 11.871L11.431 13.7029C12.0722 13.4219 12.6162 13.0167 13.0214 12.4712L11.4157 11.2788ZM10.6283 11.871C10.2702 12.0279 9.83121 12.1193 9.29097 12.1193V14.1193C10.0576 14.1193 10.7777 13.9891 11.431 13.7029L10.6283 11.871ZM17.1874 10.7053L16.2964 10.2512L16.2947 10.2546L17.1874 10.7053ZM17.6764 10.1747L18.2033 11.0246L18.2056 11.0232L17.6764 10.1747ZM19.252 10.1715L18.725 11.0214L18.7288 11.0238L19.252 10.1715ZM19.7378 10.7021L18.8399 11.1424L18.8451 11.1527L19.7378 10.7021ZM19.7378 12.4982L20.6305 12.9489L20.6322 12.9454L19.7378 12.4982ZM19.2488 13.0256L18.7256 12.1733L18.7196 12.1771L19.2488 13.0256ZM17.6732 13.0256L18.2062 12.1795L18.2001 12.1757L17.6732 13.0256ZM17.1874 12.4982L16.2929 12.9454L16.2947 12.9489L17.1874 12.4982ZM18.0599 12.201L17.1798 12.676L17.1857 12.6866L18.0599 12.201ZM18.8589 12.2042L17.982 11.7233L17.9761 11.7343L18.8589 12.2042ZM18.8653 10.9929L17.9737 11.4458L17.9737 11.4458L18.8653 10.9929ZM18.0631 10.9929L17.1889 10.5073L17.1889 10.5073L18.0631 10.9929ZM13.8315 6.95632L14.7207 7.41387L14.7225 7.41037L13.8315 6.95632ZM14.3205 6.42578L13.7974 5.57354L13.7936 5.57588L14.3205 6.42578ZM15.893 6.42578L15.366 7.27568L15.366 7.27568L15.893 6.42578ZM16.3788 6.95632L15.4843 7.40354L15.4861 7.407L16.3788 6.95632ZM16.3756 8.75249L15.4864 8.29493L15.4829 8.30181L16.3756 8.75249ZM15.8866 9.27983L16.4073 10.1335L16.4097 10.1321L15.8866 9.27983ZM14.3109 9.27663L13.7779 10.1228L13.7878 10.1289L14.3109 9.27663ZM13.8251 8.74929L12.9289 9.19305L12.9342 9.20348L13.8251 8.74929ZM14.7073 8.45845L13.8304 8.93932L13.8364 8.95005L14.7073 8.45845ZM15.4999 8.45845L14.623 7.97758L14.6171 7.9886L15.4999 8.45845ZM15.5063 7.24716L16.3978 6.79429L16.3978 6.79429L15.5063 7.24716ZM14.7073 7.25036L15.5904 7.71951L15.5904 7.71951L14.7073 7.25036ZM14.084 13L13.26 12.4335C13.0496 12.7395 13.0261 13.1369 13.199 13.4655C13.3719 13.7942 13.7127 14 14.084 14V13ZM18.584 6.45455V5.45455C18.2547 5.45455 17.9465 5.61666 17.76 5.88802L18.584 6.45455ZM19.4214 6.45455L20.2454 7.02107C20.4558 6.71506 20.4793 6.31766 20.3064 5.989C20.1335 5.66034 19.7927 5.45455 19.4214 5.45455V6.45455ZM14.9214 13V14C15.2507 14 15.5589 13.8379 15.7454 13.5665L14.9214 13ZM18.0212 11.7727V11.4276H16.0212V11.7727H18.0212ZM18.0212 11.4276C18.0212 11.3114 18.0444 11.2265 18.0801 11.1559L16.2947 10.2546C16.1087 10.623 16.0212 11.0195 16.0212 11.4276H18.0212ZM18.0783 11.1593C18.1076 11.1018 18.1441 11.0613 18.2033 11.0246L17.1494 9.32481C16.7824 9.55234 16.4929 9.86553 16.2964 10.2512L18.0783 11.1593ZM18.2056 11.0232C18.2305 11.0076 18.2998 10.9734 18.4626 10.9734V8.97337C18.0075 8.97337 17.5526 9.07334 17.1471 9.32625L18.2056 11.0232ZM18.4626 10.9734C18.6358 10.9734 18.7054 11.0092 18.7251 11.0214L19.7789 9.32162C19.3725 9.06962 18.9158 8.97337 18.4626 8.97337V10.9734ZM18.7288 11.0238C18.7866 11.0592 18.8167 11.0949 18.8399 11.1424L20.6356 10.2618C20.4416 9.86604 20.1478 9.54803 19.7752 9.31928L18.7288 11.0238ZM18.8451 11.1527C18.8801 11.2221 18.904 11.3079 18.904 11.4276H20.904C20.904 11.0188 20.817 10.6209 20.6305 10.2514L18.8451 11.1527ZM18.904 11.4276V11.7727H20.904V11.4276H18.904ZM18.904 11.7727C18.904 11.8888 18.8807 11.9763 18.8434 12.051L20.6322 12.9454C20.8164 12.577 20.904 12.1808 20.904 11.7727H18.904ZM18.8451 12.0475C18.8202 12.0968 18.7873 12.1355 18.7256 12.1733L19.772 13.8778C20.1407 13.6515 20.4338 13.3385 20.6305 12.9489L18.8451 12.0475ZM18.7196 12.1771C18.6946 12.1927 18.6254 12.2269 18.4626 12.2269V14.2269C18.9177 14.2269 19.3726 14.1269 19.778 13.874L18.7196 12.1771ZM18.4626 12.2269C18.2921 12.2269 18.2248 12.1912 18.2062 12.1795L17.1401 13.8717C17.5476 14.1284 18.0066 14.2269 18.4626 14.2269V12.2269ZM18.2001 12.1757C18.1401 12.1385 18.1063 12.0994 18.0801 12.0475L16.2947 12.9489C16.4901 13.3359 16.7801 13.6485 17.1462 13.8755L18.2001 12.1757ZM18.0818 12.051C18.0444 11.9763 18.0212 11.8888 18.0212 11.7727H16.0212C16.0212 12.1808 16.1087 12.577 16.2929 12.9454L18.0818 12.051ZM16.9512 11.4276V11.7727H18.9512V11.4276H16.9512ZM16.9512 11.7727C16.9512 12.0912 17.0293 12.397 17.1799 12.6759L18.9399 11.7261C18.9413 11.7287 18.9448 11.7362 18.9477 11.7473C18.9505 11.7585 18.9512 11.7677 18.9512 11.7727H16.9512ZM17.1857 12.6866C17.4849 13.2252 18.0171 13.4023 18.4626 13.4023V11.4023C18.4771 11.4023 18.5575 11.4045 18.6637 11.4576C18.7812 11.5163 18.8759 11.6106 18.934 11.7154L17.1857 12.6866ZM18.4626 13.4023C18.8984 13.4023 19.4449 13.2315 19.7416 12.674L17.9761 11.7343C18.0372 11.6197 18.1376 11.5195 18.2599 11.4584C18.3691 11.4037 18.451 11.4023 18.4626 11.4023V13.4023ZM19.7357 12.685C19.8916 12.4007 19.9675 12.0907 19.9675 11.7727H17.9675C17.9675 11.7728 17.9675 11.7723 17.9676 11.7713C17.9677 11.7703 17.9678 11.7689 17.968 11.7671C17.9684 11.7634 17.9693 11.7586 17.9707 11.753C17.9737 11.7411 17.978 11.7307 17.9821 11.7234L19.7357 12.685ZM19.9675 11.7727V11.4276H17.9675V11.7727H19.9675ZM19.9675 11.4276C19.9675 11.12 19.8987 10.8193 19.7569 10.54L17.9737 11.4458C17.973 11.4445 17.9721 11.4424 17.9711 11.4396C17.9701 11.4368 17.9692 11.434 17.9686 11.4313C17.9672 11.4254 17.9675 11.4234 17.9675 11.4276H19.9675ZM19.7569 10.54C19.4611 9.95781 18.8942 9.79155 18.4626 9.79155V11.7915C18.4571 11.7915 18.3765 11.7914 18.2663 11.7363C18.1411 11.6737 18.0363 11.569 17.9737 11.4458L19.7569 10.54ZM18.4626 9.79155C18.0137 9.79155 17.486 9.97256 17.1889 10.5073L18.9372 11.4785C18.8802 11.5811 18.7869 11.6754 18.669 11.7349C18.5618 11.7889 18.4797 11.7915 18.4626 11.7915V9.79155ZM17.1889 10.5073C17.0307 10.792 16.9512 11.1044 16.9512 11.4276H18.9512C18.9512 11.4305 18.9507 11.4393 18.9476 11.4515C18.9445 11.4637 18.9402 11.4732 18.9372 11.4785L17.1889 10.5073ZM14.6622 8.02699V7.68182H12.6622V8.02699H14.6622ZM14.6622 7.68182C14.6622 7.56527 14.6857 7.48192 14.7207 7.41386L12.9424 6.49878C12.7515 6.86965 12.6622 7.26996 12.6622 7.68182H14.6622ZM14.7225 7.41037C14.7518 7.35287 14.7883 7.31237 14.8475 7.27568L13.7936 5.57588C13.4266 5.8034 13.1371 6.11659 12.9406 6.50227L14.7225 7.41037ZM14.8437 7.27802C14.8717 7.2608 14.942 7.22763 15.1004 7.22763V5.22763C14.6493 5.22763 14.1997 5.32656 13.7974 5.57354L14.8437 7.27802ZM15.1004 7.22763C15.2772 7.22763 15.3473 7.26409 15.366 7.27568L16.4199 5.57588C16.0125 5.32327 15.5542 5.22763 15.1004 5.22763V7.22763ZM15.366 7.27568C15.4237 7.31141 15.4574 7.34969 15.4843 7.40353L17.2732 6.50911C17.0785 6.11977 16.7884 5.80436 16.4199 5.57588L15.366 7.27568ZM15.4861 7.407C15.5211 7.4764 15.545 7.56221 15.545 7.68182H17.545C17.545 7.27302 17.458 6.87516 17.2715 6.50564L15.4861 7.407ZM15.545 7.68182V8.02699H17.545V7.68182H15.545ZM15.545 8.02699C15.545 8.14354 15.5214 8.22689 15.4864 8.29494L17.2648 9.21003C17.4556 8.83916 17.545 8.43885 17.545 8.02699H15.545ZM15.4829 8.30181C15.458 8.35108 15.4251 8.38972 15.3634 8.42759L16.4097 10.1321C16.7784 9.90573 17.0715 9.59281 17.2683 9.20316L15.4829 8.30181ZM15.3658 8.42613C15.344 8.43942 15.2727 8.47479 15.1004 8.47479V10.4748C15.5502 10.4748 16.003 10.3802 16.4073 10.1335L15.3658 8.42613ZM15.1004 8.47479C14.9312 8.47479 14.8591 8.43972 14.8341 8.4244L13.7878 10.1289C14.1932 10.3778 14.6474 10.4748 15.1004 10.4748V8.47479ZM14.844 8.43054C14.7782 8.38908 14.7423 8.3466 14.7161 8.2951L12.9342 9.20348C13.1296 9.58664 13.4176 9.89573 13.7779 10.1227L14.844 8.43054ZM14.7213 8.30556C14.6857 8.23361 14.6622 8.14618 14.6622 8.02699H12.6622C12.6622 8.43195 12.7473 8.82604 12.929 9.19302L14.7213 8.30556ZM13.5986 7.68182V8.02699H15.5986V7.68182H13.5986ZM13.5986 8.02699C13.5986 8.34495 13.6745 8.65492 13.8304 8.93928L15.5841 7.97762C15.5881 7.98497 15.5925 7.99539 15.5955 8.00728C15.5969 8.01284 15.5977 8.01763 15.5981 8.02133C15.5984 8.02313 15.5985 8.02455 15.5985 8.02553C15.5986 8.02652 15.5986 8.02702 15.5986 8.02699H13.5986ZM13.8364 8.95005C14.1326 9.47461 14.6521 9.65661 15.1004 9.65661V7.65661C15.1208 7.65661 15.2042 7.65996 15.3116 7.7141C15.4292 7.77338 15.5215 7.86657 15.5781 7.96686L13.8364 8.95005ZM15.1004 9.65661C15.5327 9.65661 16.0839 9.48955 16.3826 8.9283L14.6171 7.9886C14.6793 7.87171 14.7811 7.77162 14.9029 7.71121C15.0112 7.65749 15.0913 7.65661 15.1004 7.65661V9.65661ZM16.3767 8.93928C16.5326 8.65492 16.6085 8.34495 16.6085 8.02699H14.6085C14.6085 8.02702 14.6085 8.02652 14.6086 8.02553C14.6086 8.02455 14.6088 8.02313 14.609 8.02133C14.6094 8.01763 14.6102 8.01284 14.6116 8.00728C14.6146 7.99539 14.619 7.98497 14.6231 7.97762L16.3767 8.93928ZM16.6085 8.02699V7.68182H14.6085V8.02699H16.6085ZM16.6085 7.68182C16.6085 7.37428 16.5397 7.07357 16.3978 6.79429L14.6147 7.70002C14.614 7.69873 14.6131 7.69664 14.612 7.69387C14.611 7.6911 14.6102 7.68825 14.6095 7.68554C14.6082 7.67962 14.6085 7.6777 14.6085 7.68182H16.6085ZM16.3978 6.79429C16.1002 6.20833 15.5285 6.04581 15.1004 6.04581V8.04581C15.0974 8.04581 15.0185 8.04616 14.9093 7.99198C14.7847 7.93019 14.6784 7.8255 14.6147 7.70002L16.3978 6.79429ZM15.1004 6.04581C14.6413 6.04581 14.1126 6.23811 13.8241 6.7812L15.5904 7.71951C15.5362 7.82151 15.4439 7.92031 15.3214 7.98404C15.2097 8.04218 15.122 8.04581 15.1004 8.04581V6.04581ZM13.8241 6.7812C13.6766 7.05892 13.5986 7.36346 13.5986 7.68182H15.5986C15.5986 7.68687 15.5979 7.69519 15.5955 7.70472C15.5944 7.70914 15.5931 7.71283 15.592 7.71562C15.591 7.71839 15.5903 7.71971 15.5904 7.71951L13.8241 6.7812ZM14.9081 13.5665L19.4081 7.02107L17.76 5.88802L13.26 12.4335L14.9081 13.5665ZM18.584 7.45455H19.4214V5.45455H18.584V7.45455ZM18.5973 5.88802L14.0973 12.4335L15.7454 13.5665L20.2454 7.02107L18.5973 5.88802ZM14.9214 12H14.084V14H14.9214V12Z" fill="#AF3D3D" mask="url(#path-2-outside-1_2039_10)"/>
</svg>
