<svg width="49" height="49" viewBox="0 0 49 49" fill="none" xmlns="http://www.w3.org/2000/svg">
<path d="M48.0424 31.0391H0.673975C0.495485 31.0391 0.324308 31.11 0.198097 31.2362C0.0718851 31.3624 0.000976562 31.5336 0.000976562 31.7121C0.00594965 36.2213 1.79954 40.5445 4.98818 43.7329C8.17682 46.9214 12.5001 48.7147 17.0094 48.7193H31.707C36.2162 48.7147 40.5393 46.9213 43.7278 43.7329C46.9163 40.5444 48.7096 36.2212 48.7143 31.7121C48.7144 31.6236 48.6971 31.5359 48.6632 31.4541C48.6294 31.3723 48.5797 31.298 48.5171 31.2355C48.4545 31.1729 48.3801 31.1234 48.2982 31.0897C48.2164 31.056 48.1287 31.0388 48.0402 31.0391H48.0424ZM31.7081 47.3733H17.0105C12.9981 47.3762 9.13785 45.8383 6.22672 43.0771C3.3156 40.3159 1.57591 36.5423 1.36686 32.5354C1.36612 32.5159 1.36928 32.4965 1.37615 32.4783C1.38301 32.4602 1.39343 32.4435 1.40682 32.4294C1.4202 32.4153 1.43627 32.404 1.45408 32.3962C1.47189 32.3884 1.49109 32.3842 1.51053 32.384H47.2036C47.2421 32.3851 47.2786 32.4014 47.3053 32.4293C47.3194 32.4438 47.3302 32.4612 47.3371 32.4802C47.3439 32.4993 47.3467 32.5196 47.3451 32.5398C47.1364 36.5456 45.3977 40.3185 42.4879 43.0795C39.5781 45.8406 35.7194 47.3792 31.7081 47.3778" fill="#202020"/>
<path d="M13.5017 28.8129L18.0591 24.2544C18.0864 24.2279 18.1228 24.2129 18.1608 24.2124H31.708C32.256 24.2125 32.7943 24.0683 33.2689 23.7943C33.7435 23.5204 34.1376 23.1264 34.4117 22.6519C34.6857 22.1774 34.83 21.6391 34.8301 21.0911C34.8302 20.5431 34.6861 20.0048 34.4122 19.5302C34.3996 19.5083 34.3929 19.4835 34.3929 19.4582C34.393 19.433 34.3996 19.4082 34.4123 19.3863C34.425 19.3645 34.4432 19.3463 34.4651 19.3338C34.487 19.3212 34.5118 19.3146 34.5371 19.3147H35.7306C36.5329 19.3013 37.3019 18.9919 37.8898 18.4458C38.4777 17.8997 38.843 17.1555 38.9154 16.3564C38.9485 15.7447 38.8001 15.1368 38.4888 14.6092C38.4771 14.5883 38.471 14.5647 38.471 14.5407C38.471 14.5167 38.4771 14.4931 38.4888 14.4722C38.4991 14.4508 38.5146 14.4324 38.5339 14.4186C38.5533 14.4049 38.5758 14.3963 38.5994 14.3937C39.3618 14.3082 40.0661 13.9449 40.5777 13.3731C41.0893 12.8014 41.3725 12.0612 41.3731 11.294C41.3731 11.2365 41.3731 11.1835 41.3665 11.0984C41.3074 10.4758 41.0694 9.88364 40.6811 9.39339C40.2928 8.90314 39.7709 8.53578 39.1784 8.33566C39.1555 8.32791 39.1349 8.31455 39.1185 8.29679C39.1021 8.27903 39.0904 8.25744 39.0845 8.234C39.079 8.21026 39.0796 8.18551 39.0864 8.1621C39.0932 8.13869 39.1058 8.11741 39.1232 8.10028L40.0481 7.17422C40.7968 6.441 41.247 5.45623 41.3117 4.41033C41.3764 3.36443 41.051 2.33168 40.3984 1.51176C39.6987 0.664738 38.6918 0.129662 37.5983 0.0238095C36.5047 -0.0820426 35.4138 0.249963 34.5647 0.947061C34.4641 1.02994 34.368 1.11724 34.2707 1.21449L33.2662 2.23338C33.2531 2.24707 33.2373 2.25795 33.2198 2.26535C33.2023 2.27276 33.1835 2.27655 33.1645 2.27648H33.1325C33.1087 2.2708 33.0867 2.25921 33.0685 2.24279C33.0504 2.22638 33.0367 2.20566 33.0286 2.18254C32.8228 1.59101 32.4511 1.07121 31.9579 0.685182C31.4647 0.299155 30.8708 0.0632179 30.2471 0.00553083C30.1885 0.00553083 30.1311 0 30.0736 0C29.2751 0.00113488 28.5074 0.308206 27.9284 0.858054C27.3493 1.4079 27.003 2.15873 26.9606 2.95611C26.9606 3.01357 26.9606 3.06662 26.9606 3.1274V4.37283C26.9603 4.39806 26.9536 4.4228 26.941 4.44467C26.9284 4.46654 26.9104 4.4848 26.8888 4.4977C26.8664 4.50996 26.8413 4.51643 26.8158 4.51649C26.7905 4.5164 26.7657 4.50953 26.744 4.49659C26.2709 4.22237 25.7338 4.0779 25.1869 4.07777C25.1295 4.07777 25.0764 4.07777 24.9891 4.08329C24.1813 4.16029 23.4318 4.53805 22.8894 5.14168C22.347 5.7453 22.0512 6.53072 22.0606 7.3422V8.44728C22.0607 8.47271 22.054 8.4977 22.0412 8.51966C22.0284 8.54161 22.0099 8.55974 21.9877 8.57216C21.9657 8.58438 21.9411 8.59119 21.9159 8.59204C21.8906 8.5916 21.8659 8.58476 21.844 8.57216C21.3701 8.29919 20.8328 8.15553 20.2859 8.15554C20.2295 8.15554 20.1754 8.15554 20.0903 8.16106C19.2818 8.23723 18.5315 8.61442 17.988 9.21784C17.4446 9.82125 17.1477 10.6068 17.1563 11.4189V23.1991C17.1561 23.218 17.1523 23.2368 17.1449 23.2542C17.1375 23.2717 17.1267 23.2875 17.1132 23.3007L12.5547 27.8592L13.5017 28.8129ZM18.4967 11.4166C18.4875 10.946 18.6554 10.489 18.9671 10.1362C19.2788 9.78334 19.7116 9.5604 20.1798 9.51148H20.2726C20.7442 9.51294 21.196 9.70123 21.5291 10.0351C21.8621 10.369 22.0493 10.8213 22.0496 11.2929C22.0566 11.4665 22.1306 11.6307 22.2559 11.751C22.3812 11.8714 22.5483 11.9386 22.722 11.9386C22.8958 11.9386 23.0628 11.8714 23.1882 11.751C23.3135 11.6307 23.3874 11.4665 23.3945 11.2929V7.33667C23.3851 6.86528 23.5533 6.40759 23.8657 6.05445C24.1781 5.70131 24.6118 5.47856 25.0808 5.43039H25.1737C25.6453 5.43186 26.0971 5.62015 26.4301 5.95404C26.7632 6.28792 26.9504 6.74019 26.9506 7.21179C26.9506 7.39028 27.0216 7.56146 27.1478 7.68767C27.274 7.81388 27.4452 7.88479 27.6236 7.88479C27.8021 7.88479 27.9733 7.81388 28.0995 7.68767C28.2257 7.56146 28.2966 7.39028 28.2966 7.21179V3.02462C28.3178 2.57361 28.5107 2.14778 28.8357 1.83443C29.1608 1.52108 29.5934 1.34395 30.0449 1.33937H30.1399C30.6137 1.38646 31.0524 1.61002 31.3689 1.96564C31.6854 2.32125 31.8565 2.78291 31.8484 3.2589V3.93743C31.8487 4.11563 31.9195 4.28648 32.0454 4.4126C32.1713 4.53871 32.3421 4.60984 32.5203 4.61042C32.6097 4.6098 32.6981 4.59151 32.7804 4.55662C32.8627 4.52172 32.9373 4.4709 32.9999 4.40708L35.2167 2.15713C35.2797 2.09414 35.346 2.03557 35.4134 1.98031C35.9152 1.56818 36.5443 1.34249 37.1937 1.34158C37.6044 1.3404 38.0103 1.43027 38.3822 1.60472C38.754 1.77918 39.0826 2.03389 39.3442 2.35052C39.7865 2.91108 40.0057 3.61557 39.9594 4.32814C39.913 5.04071 39.6045 5.71091 39.0933 6.20948L36.9462 8.36108C36.8518 8.45499 36.7874 8.57482 36.7613 8.70537C36.7351 8.83591 36.7483 8.97129 36.7992 9.09431C36.8501 9.21734 36.9365 9.32245 37.0472 9.39633C37.158 9.47021 37.2882 9.50952 37.4213 9.50927H38.1419C38.6085 9.50682 39.0594 9.67814 39.4066 9.98987C39.7539 10.3016 39.9727 10.7314 40.0205 11.1956V11.2907C40.0204 11.5241 39.9742 11.7552 39.8846 11.9708C39.795 12.1863 39.6637 12.3821 39.4983 12.5469C39.333 12.7116 39.1367 12.8421 38.9208 12.9309C38.7049 13.0197 38.4736 13.0651 38.2402 13.0643H35.7902C35.6117 13.0643 35.4406 13.1352 35.3144 13.2614C35.1881 13.3877 35.1172 13.5588 35.1172 13.7373C35.1172 13.9158 35.1881 14.087 35.3144 14.2132C35.4406 14.3394 35.6117 14.4103 35.7902 14.4103H35.8842C36.3515 14.4324 36.791 14.6388 37.1065 14.9843C37.4219 15.3298 37.5876 15.7862 37.5672 16.2536C37.5229 16.7281 37.3008 17.1684 36.9453 17.4859C36.5899 17.8034 36.1275 17.9747 35.651 17.9654H31.7058C31.5273 17.9654 31.3562 18.0363 31.23 18.1625C31.1037 18.2887 31.0328 18.4599 31.0328 18.6384C31.0328 18.8169 31.1037 18.9881 31.23 19.1143C31.3562 19.2405 31.5273 19.3114 31.7058 19.3114C32.1771 19.3114 32.6291 19.4986 32.9623 19.8318C33.2956 20.1651 33.4828 20.6171 33.4828 21.0884C33.4828 21.5596 33.2956 22.0116 32.9623 22.3449C32.6291 22.6781 32.1771 22.8653 31.7058 22.8653H19.7941C19.7656 22.8653 19.7377 22.8568 19.714 22.841C19.6903 22.8251 19.6718 22.8026 19.6608 22.7763C19.6498 22.75 19.6468 22.721 19.6523 22.693C19.6577 22.665 19.6713 22.6392 19.6913 22.6189L21.3302 20.9823C21.3432 20.9687 21.3588 20.9578 21.3761 20.9504C21.3933 20.943 21.4119 20.9392 21.4307 20.9392H26.6611V19.5965H23.063C23.0344 19.5965 23.0065 19.588 22.9829 19.5721C22.9593 19.5561 22.941 19.5335 22.9303 19.507C22.9197 19.4806 22.9169 19.4518 22.9224 19.4239C22.9279 19.396 22.9414 19.3704 22.9613 19.3501L26.229 16.0834C26.2557 16.0568 26.2919 16.0417 26.3296 16.0414H30.7499V14.6954H27.9695C27.9411 14.6956 27.9133 14.6872 27.8897 14.6715C27.8661 14.6557 27.8477 14.6333 27.8369 14.607C27.8261 14.5807 27.8233 14.5518 27.8288 14.5239C27.8343 14.496 27.8479 14.4703 27.8679 14.4501L31.1201 11.1912C31.1335 11.1779 31.1494 11.1673 31.1668 11.1601C31.1842 11.1529 31.2029 11.1492 31.2218 11.1492H34.8266V9.80322H32.8551C32.8267 9.80352 32.7988 9.79524 32.7752 9.77947C32.7515 9.7637 32.7332 9.74117 32.7225 9.71481C32.7117 9.68851 32.7088 9.6596 32.7143 9.63169C32.7199 9.60378 32.7334 9.57811 32.7535 9.55789L36.1649 6.14649L35.2134 5.19501L31.8064 8.60199C31.7932 8.61558 31.7774 8.62639 31.7599 8.63379C31.7424 8.64119 31.7237 8.64503 31.7047 8.64509C31.6858 8.64473 31.6671 8.64098 31.6495 8.63404C31.6232 8.62287 31.6007 8.60427 31.5848 8.58052C31.5689 8.55677 31.5603 8.5289 31.56 8.50032V6.53658H30.2151V10.1336C30.2151 10.1525 30.2114 10.1712 30.2042 10.1886C30.197 10.2061 30.1864 10.222 30.1731 10.2353L26.9087 13.5019C26.8814 13.5285 26.845 13.5435 26.807 13.5439C26.7881 13.5436 26.7693 13.5398 26.7517 13.5329C26.7253 13.5221 26.7027 13.5038 26.6868 13.4802C26.6709 13.4566 26.6623 13.4288 26.6622 13.4003V10.6199H25.3173V15.0325C25.3174 15.0514 25.3137 15.0701 25.3064 15.0875C25.2992 15.1049 25.2887 15.1208 25.2753 15.1342L22.0087 18.4019C21.9815 18.4284 21.9451 18.4435 21.907 18.4439C21.8881 18.4435 21.8694 18.4398 21.8518 18.4328C21.8253 18.4219 21.8027 18.4034 21.7867 18.3796C21.7708 18.3558 21.7623 18.3278 21.7623 18.2991V14.6954H20.4174V19.9335C20.4174 19.9524 20.4137 19.9711 20.4065 19.9886C20.3993 20.006 20.3887 20.0219 20.3754 20.0352L18.7432 21.6674C18.7298 21.6808 18.714 21.6913 18.6965 21.6985C18.6791 21.7057 18.6604 21.7094 18.6415 21.7094C18.6225 21.7096 18.6037 21.7058 18.5862 21.6984C18.5602 21.6873 18.5379 21.6689 18.5222 21.6453C18.5064 21.6218 18.498 21.5941 18.4978 21.5658L18.4967 11.4166Z" fill="#202020"/>
<path d="M4.7446 8.5852L5.43196 9.12338C5.44913 9.13631 5.46313 9.15298 5.4729 9.17213C5.48266 9.19128 5.48794 9.21239 5.48832 9.23389V9.65271C5.48832 10.6974 5.90333 11.6993 6.64205 12.4381C7.38077 13.1768 8.38269 13.5918 9.4274 13.5918C10.4721 13.5918 11.474 13.1768 12.2127 12.4381C12.9515 11.6993 13.3665 10.6974 13.3665 9.65271V9.23278C13.3667 9.21138 13.3718 9.19032 13.3814 9.17118C13.391 9.15203 13.4048 9.13531 13.4217 9.12227L14.1467 8.55647C14.9093 7.99523 15.4202 7.15622 15.5689 6.22106C15.7175 5.2859 15.4918 4.32983 14.9408 3.55981C14.3897 2.78979 13.5575 2.26778 12.6244 2.10677C11.6913 1.94576 10.7323 2.1587 9.95508 2.69951C9.90424 2.73266 9.85341 2.76803 9.79705 2.81003L9.502 3.03104C9.47721 3.04983 9.44691 3.05993 9.4158 3.05977C9.38541 3.0609 9.35549 3.05196 9.3307 3.03435L9.03454 2.81997C8.33948 2.16052 7.41093 1.80419 6.45315 1.82937C5.49538 1.85455 4.58683 2.25918 3.92739 2.95423C3.26794 3.64929 2.91162 4.57784 2.9368 5.53562C2.96198 6.4934 3.3666 7.40195 4.06165 8.06139C4.26852 8.25963 4.49771 8.43318 4.7446 8.57857V8.5852ZM4.93799 3.88527C5.35565 3.45335 5.92752 3.20463 6.52826 3.19365C7.12899 3.18267 7.70957 3.41032 8.14274 3.8267C8.16594 3.8488 8.19136 3.8698 8.21678 3.88969L9.03344 4.47759C9.15022 4.56211 9.29116 4.60669 9.43531 4.6047C9.57945 4.60271 9.71911 4.55425 9.83352 4.46654L10.6999 3.81454C11.0722 3.56483 11.5103 3.43136 11.9586 3.43108C12.1096 3.43139 12.2602 3.44619 12.4084 3.47528C12.8362 3.5577 13.2308 3.76278 13.5441 4.06553C13.8573 4.36829 14.0758 4.75564 14.1728 5.18037C14.2698 5.60511 14.2411 6.04889 14.0903 6.45762C13.9395 6.86635 13.673 7.22239 13.3234 7.48233L12.278 8.29898C12.1976 8.36217 12.1327 8.4427 12.0879 8.53457C12.0431 8.62643 12.0197 8.72723 12.0194 8.82943V9.64719C12.0194 10.3352 11.7461 10.9951 11.2596 11.4816C10.7731 11.9681 10.1132 12.2414 9.42519 12.2414C8.73717 12.2414 8.07732 11.9681 7.59082 11.4816C7.10431 10.9951 6.831 10.3352 6.831 9.64719V8.82943C6.83191 8.72714 6.80913 8.62603 6.76446 8.53401C6.7198 8.44199 6.65444 8.36155 6.57352 8.29898L5.52811 7.48233C5.5018 7.46288 5.4745 7.4448 5.44632 7.42817C5.28183 7.33524 5.12994 7.22159 4.99435 7.09002C4.56162 6.6728 4.31234 6.10078 4.30136 5.49978C4.29037 4.89877 4.51858 4.31802 4.93578 3.88527" fill="#202020"/>
<path d="M19.3107 0.8125H17.9658V2.15739H19.3107V0.8125Z" fill="#202020"/>
<path d="M24.2111 26.9453H22.8662V28.2902H24.2111V26.9453Z" fill="#202020"/>
<path d="M44.1045 4.90735V6.25446C44.5501 6.28968 44.9662 6.49159 45.2696 6.81992C45.573 7.14824 45.7414 7.57886 45.7414 8.02591C45.7414 8.47295 45.573 8.90357 45.2696 9.2319C44.9662 9.56022 44.5501 9.76213 44.1045 9.79736V11.1456C44.907 11.1086 45.6644 10.7637 46.2192 10.1827C46.774 9.60172 47.0836 8.82926 47.0836 8.02591C47.0836 7.22255 46.774 6.45009 46.2192 5.86909C45.6644 5.2881 44.907 4.94326 44.1045 4.90625" fill="#202020"/>
<path d="M2.9777 12.2578H1.63281V13.6027H2.9777V12.2578Z" fill="#202020"/>
<path d="M1.34489 8.98438H0V10.3293H1.34489V8.98438Z" fill="#202020"/>
<path d="M31.7075 26.1328C30.9047 26.1339 30.1329 26.4437 29.5522 26.9981C28.9715 27.5525 28.6262 28.309 28.5879 29.111H29.9361C29.9713 28.6654 30.1732 28.2494 30.5016 27.946C30.8299 27.6426 31.2605 27.4741 31.7075 27.4741C32.1546 27.4741 32.5852 27.6426 32.9135 27.946C33.2419 28.2494 33.4438 28.6654 33.479 29.111H34.8272C34.7889 28.309 34.4436 27.5525 33.8629 26.9981C33.2822 26.4437 32.5104 26.1339 31.7075 26.1328" fill="#202020"/>
<path d="M4.08192 25.1725V27.6225C4.08192 27.801 4.15283 27.9722 4.27904 28.0984C4.40526 28.2246 4.57643 28.2955 4.75492 28.2955H8.02266C8.20115 28.2955 8.37233 28.2246 8.49854 28.0984C8.62475 27.9722 8.69566 27.801 8.69566 27.6225V25.1725C8.69566 25.1536 8.69942 25.1348 8.70671 25.1173C8.71399 25.0998 8.72467 25.0839 8.73813 25.0705C8.75159 25.0572 8.76756 25.0466 8.78512 25.0395C8.80267 25.0323 8.82146 25.0287 8.84042 25.0289H9.65598C10.4845 25.0289 11.2792 24.6997 11.865 24.1138C12.4509 23.528 12.7801 22.7333 12.7801 21.9048C12.7801 21.0762 12.4509 20.2816 11.865 19.6957C11.2792 19.1098 10.4845 18.7807 9.65598 18.7807H9.55431C9.52212 18.7804 9.49095 18.7694 9.46574 18.7493C9.44052 18.7293 9.42269 18.7015 9.41507 18.6702C9.24175 17.9998 8.85062 17.406 8.30315 16.9821C7.75567 16.5582 7.08287 16.3281 6.39045 16.3281C5.69803 16.3281 5.02523 16.5582 4.47776 16.9821C3.93028 17.406 3.53916 17.9998 3.36583 18.6702C3.35839 18.7016 3.34061 18.7295 3.31536 18.7496C3.2901 18.7696 3.25884 18.7806 3.22659 18.7807H3.12492C2.29666 18.7807 1.50232 19.1097 0.916647 19.6954C0.330976 20.2811 0.00195313 21.0754 0.00195312 21.9037C0.00195313 22.7319 0.330976 23.5263 0.916647 24.112C1.50232 24.6976 2.29666 25.0266 3.12492 25.0266H3.94158C3.96045 25.0269 3.97907 25.0309 3.99639 25.0384C4.01371 25.0459 4.02939 25.0567 4.04252 25.0703C4.05566 25.0838 4.06599 25.0998 4.07294 25.1174C4.0799 25.1349 4.08333 25.1536 4.08304 25.1725H4.08192ZM7.35077 26.8058C7.35077 26.8442 7.33552 26.881 7.30837 26.9082C7.28122 26.9353 7.2444 26.9506 7.20601 26.9506H5.5738C5.55474 26.9507 5.53585 26.9471 5.51822 26.9399C5.50059 26.9327 5.48457 26.922 5.4711 26.9085C5.45762 26.8951 5.44697 26.879 5.43975 26.8614C5.43253 26.8438 5.42888 26.8249 5.42903 26.8058V25.1725C5.42902 25.1536 5.43278 25.1348 5.44007 25.1173C5.44736 25.0998 5.45804 25.0839 5.47149 25.0705C5.48495 25.0572 5.50092 25.0466 5.51848 25.0395C5.53604 25.0323 5.55484 25.0287 5.5738 25.0289H7.20711C7.24521 25.0289 7.28176 25.044 7.3087 25.0709C7.33564 25.0979 7.35077 25.1344 7.35077 25.1725V26.8058ZM3.12271 23.684C2.65143 23.684 2.19944 23.4967 1.8662 23.1635C1.53295 22.8303 1.34573 22.3783 1.34573 21.907C1.34573 21.4357 1.53295 20.9837 1.8662 20.6505C2.19944 20.3172 2.65143 20.13 3.12271 20.13H3.93385C4.11225 20.1297 4.28326 20.0587 4.40941 19.9326C4.53555 19.8064 4.60655 19.6354 4.60685 19.457C4.60685 18.9857 4.79406 18.5338 5.12731 18.2005C5.46056 17.8673 5.91253 17.68 6.38382 17.68C6.8551 17.68 7.30709 17.8673 7.64034 18.2005C7.97358 18.5338 8.1608 18.9857 8.1608 19.457C8.1608 19.6355 8.23171 19.8067 8.35792 19.9329C8.48413 20.0591 8.65531 20.13 8.8338 20.13H9.64935C10.1206 20.13 10.5726 20.3172 10.9059 20.6505C11.2391 20.9837 11.4263 21.4357 11.4263 21.907C11.4263 22.3783 11.2391 22.8303 10.9059 23.1635C10.5726 23.4967 10.1206 23.684 9.64935 23.684H3.12161H3.12271Z" fill="#202020"/>
<path d="M43.1422 25.8448C43.5981 25.8446 44.0437 25.7092 44.4226 25.4558C44.8016 25.2023 45.0969 24.8422 45.2712 24.421C45.4455 23.9997 45.491 23.5363 45.4019 23.0892C45.3128 22.6421 45.0932 22.2314 44.7708 21.9092C44.4483 21.5869 44.0376 21.3674 43.5905 21.2786C43.1433 21.1897 42.6799 21.2354 42.2587 21.41C41.8376 21.5845 41.4776 21.8799 41.2243 22.259C40.9711 22.6381 40.8359 23.0837 40.8359 23.5396C40.8365 24.151 41.0797 24.7371 41.5121 25.1694C41.9446 25.6016 42.5308 25.8445 43.1422 25.8448ZM43.1422 22.5793C43.3324 22.579 43.5184 22.6352 43.6767 22.7408C43.8349 22.8463 43.9583 22.9963 44.0313 23.172C44.1042 23.3477 44.1234 23.541 44.0864 23.7276C44.0495 23.9141 43.958 24.0856 43.8236 24.2201C43.6891 24.3547 43.5178 24.4464 43.3313 24.4836C43.1448 24.5207 42.9514 24.5018 42.7757 24.429C42.5999 24.3563 42.4497 24.2331 42.344 24.0749C42.2383 23.9168 42.1819 23.7309 42.1819 23.5407C42.1828 23.2862 42.2842 23.0423 42.4641 22.8622C42.644 22.6821 42.8877 22.5804 43.1422 22.5793Z" fill="#202020"/>
<path d="M43.1433 29.1146C44.2455 29.1146 45.323 28.7878 46.2394 28.1754C47.1559 27.5631 47.8702 26.6927 48.292 25.6744C48.7138 24.6561 48.8242 23.5355 48.6091 22.4545C48.3941 21.3734 47.8633 20.3804 47.0839 19.601C46.3045 18.8216 45.3115 18.2909 44.2305 18.0758C43.1494 17.8608 42.0289 17.9712 41.0106 18.393C39.9923 18.8148 39.1219 19.5291 38.5095 20.4455C37.8972 21.362 37.5703 22.4395 37.5703 23.5417C37.5718 25.0193 38.1594 26.4359 39.2042 27.4808C40.249 28.5256 41.6657 29.1132 43.1433 29.1146V29.1146ZM43.1433 19.3159C43.9795 19.3159 44.7969 19.5638 45.4922 20.0284C46.1875 20.493 46.7295 21.1533 47.0495 21.9259C47.3695 22.6985 47.4532 23.5486 47.2901 24.3688C47.1269 25.1889 46.7243 25.9423 46.133 26.5336C45.5417 27.1249 44.7883 27.5276 43.9681 27.6907C43.1479 27.8539 42.2978 27.7701 41.5253 27.4501C40.7527 27.1301 40.0923 26.5882 39.6278 25.8929C39.1632 25.1976 38.9152 24.3801 38.9152 23.5439C38.9167 22.423 39.3626 21.3484 40.1552 20.5558C40.9478 19.7632 42.0224 19.3173 43.1433 19.3159V19.3159Z" fill="#202020"/>
</svg>
