<svg width="38" height="49" viewBox="0 0 38 49" fill="none" xmlns="http://www.w3.org/2000/svg">
<path d="M15.4388 10.4732H21.9696C22.167 10.4732 22.3563 10.3948 22.4959 10.2552C22.6356 10.1156 22.714 9.92623 22.714 9.7288C22.714 9.53136 22.6356 9.34202 22.4959 9.20241C22.3563 9.06281 22.167 8.98437 21.9696 8.98438H15.4388C15.2413 8.98438 15.052 9.06281 14.9124 9.20241C14.7728 9.34202 14.6943 9.53136 14.6943 9.7288C14.6943 9.92623 14.7728 10.1156 14.9124 10.2552C15.052 10.3948 15.2413 10.4732 15.4388 10.4732Z" fill="#202020"/>
<path d="M36.2237 31.2634C35.8285 31.0282 35.4198 30.8162 35 30.6284C34.9876 30.6225 34.977 30.6133 34.9696 30.6018C34.9622 30.5903 34.9582 30.5769 34.958 30.5632V12.178C34.9557 11.3308 34.6178 10.5191 34.0183 9.92041C33.4188 9.32177 32.6066 8.98501 31.7594 8.98385H27.6541C27.6361 8.98392 27.6188 8.97728 27.6055 8.96521C27.5922 8.95315 27.5839 8.93655 27.5823 8.91868C27.5284 8.25661 27.2684 7.62805 26.839 7.12131C26.4095 6.61457 25.832 6.25511 25.1878 6.09342L24.0932 5.81841C23.692 5.71894 23.3364 5.48626 23.0846 5.15842C22.8328 4.83058 22.6997 4.42699 22.7071 4.01368C22.7053 3.00086 22.3214 2.026 21.6323 1.2838C20.9431 0.541597 19.9993 0.0866932 18.9894 0.00994033C18.8922 0.00331345 18.795 0 18.6989 0C17.7353 0.00441719 16.8051 0.354381 16.0775 0.986308C15.3499 1.61824 14.8732 2.4902 14.7339 3.44377C14.7004 3.67709 14.6867 3.91281 14.693 4.14843C14.7035 4.52162 14.5861 4.8872 14.3603 5.18451C14.1345 5.48183 13.8139 5.69302 13.4515 5.78306L12.2112 6.09342C11.5669 6.25521 10.9894 6.61467 10.5597 7.12137C10.1301 7.62807 9.86987 8.25657 9.8156 8.91868C9.81394 8.93655 9.80563 8.95315 9.79234 8.96521C9.77905 8.97728 9.76175 8.98392 9.7438 8.98385H5.64177C4.79554 8.98647 3.98471 9.32387 3.38643 9.92236C2.78815 10.5208 2.45103 11.3318 2.4487 12.178V33.6469C2.4487 33.6594 2.44546 33.6717 2.43926 33.6825C2.43306 33.6934 2.42414 33.7024 2.41337 33.7088C2.40237 33.7154 2.38974 33.7188 2.3769 33.7187C2.36502 33.719 2.35324 33.7164 2.34266 33.711L2.18693 33.6292C2.10299 33.5873 2.02018 33.5442 1.93293 33.4934C1.73306 33.3568 1.50036 33.2759 1.25884 33.2592C1.01731 33.2425 0.775692 33.2906 0.55893 33.3984C0.380927 33.5053 0.235113 33.6583 0.13693 33.8413C0.0387471 34.0242 -0.00816086 34.2303 0.00116214 34.4377V40.9641C0.0255063 41.3646 0.145781 41.7533 0.35184 42.0976C0.5579 42.4419 0.843728 42.7315 1.18519 42.9422C1.58003 43.1765 1.98828 43.3875 2.40784 43.574C2.42034 43.5797 2.43094 43.5889 2.43838 43.6004C2.44582 43.612 2.44978 43.6254 2.44981 43.6391V45.6449C2.45069 46.4915 2.78737 47.3031 3.38599 47.9017C3.98462 48.5004 4.79627 48.8371 5.64285 48.8379H31.766C32.6126 48.8371 33.4243 48.5004 34.0229 47.9017C34.6215 47.3031 34.9582 46.4915 34.9591 45.6449V40.5643C34.9591 40.5519 34.9622 40.5397 34.9682 40.5289C34.9742 40.5181 34.9829 40.509 34.9933 40.5024C35.0048 40.4959 35.0177 40.4925 35.0309 40.4925C35.0428 40.4927 35.0546 40.4957 35.0651 40.5013L35.2242 40.583C35.3059 40.625 35.3876 40.667 35.4738 40.7178C35.7015 40.8735 35.9711 40.9563 36.2469 40.9553C36.4572 40.9544 36.6646 40.9057 36.8533 40.8128C37.0305 40.7052 37.1754 40.5517 37.2726 40.3686C37.3698 40.1854 37.4157 39.9794 37.4055 39.7724V33.246C37.3829 32.844 37.2637 32.4534 37.0579 32.1073C36.8522 31.7612 36.5661 31.4699 36.2237 31.2579V31.2634ZM11.2845 9.19038C11.2836 8.80966 11.4103 8.43959 11.6443 8.13929C11.8784 7.83898 12.2063 7.62576 12.5757 7.53366L13.8149 7.22441C14.5079 7.05283 15.1211 6.64906 15.5526 6.08034C15.984 5.51162 16.2077 4.81227 16.1863 4.09873C16.1811 3.94773 16.1892 3.79657 16.2105 3.647C16.2935 3.10417 16.5502 2.60285 16.942 2.21815C17.3339 1.83346 17.8399 1.5861 18.3842 1.51314C18.4911 1.49988 18.5988 1.49324 18.7067 1.49326H18.7144C19.3253 1.49441 19.9146 1.71914 20.3711 2.12502C20.6404 2.36433 20.8556 2.65816 21.0026 2.98702C21.1496 3.31588 21.225 3.67224 21.2238 4.03246C21.2178 4.77519 21.4626 5.4982 21.9186 6.08449C22.3746 6.67078 23.0151 7.08604 23.7365 7.26307L24.8299 7.53698C25.1993 7.62907 25.5272 7.8423 25.7613 8.1426C25.9953 8.44291 26.122 8.81297 26.1211 9.1937V11.364C26.1208 11.5988 26.0277 11.8239 25.8623 11.9904C25.6968 12.157 25.4722 12.2514 25.2374 12.2531H12.1726C11.9378 12.2514 11.7132 12.157 11.5478 11.9904C11.3823 11.8239 11.2892 11.5988 11.289 11.364L11.2845 9.19038ZM5.64177 10.4727H9.72833C9.74747 10.473 9.76573 10.4808 9.77916 10.4944C9.79259 10.5081 9.80013 10.5264 9.80013 10.5456V11.3607C9.80042 11.9911 10.0509 12.5956 10.4965 13.0414C10.9422 13.4873 11.5466 13.7381 12.177 13.7386H25.2386C25.8689 13.7381 26.4733 13.4873 26.919 13.0414C27.3646 12.5956 27.6151 11.9911 27.6154 11.3607V10.5456C27.6154 10.5264 27.6229 10.5081 27.6364 10.4944C27.6498 10.4808 27.6681 10.473 27.6872 10.4727H31.7738C32.2254 10.4739 32.6581 10.654 32.9772 10.9737C33.2962 11.2933 33.4755 11.7264 33.4758 12.178V29.9513C33.4757 29.9626 33.4731 29.9737 33.4681 29.9839C33.4631 29.994 33.4559 30.0029 33.4471 30.0098C33.4344 30.0186 33.4194 30.0233 33.404 30.0231C33.397 30.0242 33.3899 30.0242 33.383 30.0231C32.1367 29.6433 30.8401 29.4541 29.5372 29.462C27.4171 29.5051 25.3163 29.875 23.309 30.5588C21.6346 31.0834 19.9669 31.735 18.3554 32.3657C14.7405 33.7772 11.3265 35.1126 7.89048 35.1126C6.56495 35.1211 5.24802 34.8995 3.9983 34.4576C3.98389 34.4527 3.97131 34.4435 3.96223 34.4313C3.95316 34.419 3.948 34.4043 3.94747 34.3891V12.1791C3.94835 11.727 4.12849 11.2937 4.44838 10.9742C4.76827 10.6548 5.20181 10.4752 5.65391 10.4749L5.64177 10.4727ZM33.4791 45.6493C33.4785 46.1011 33.2988 46.5342 32.9793 46.8537C32.6598 47.1732 32.2267 47.3529 31.7749 47.3535H5.65391C5.2021 47.3529 4.76896 47.1732 4.44949 46.8537C4.13001 46.5342 3.95028 46.1011 3.9497 45.6493V44.2654C3.94965 44.254 3.95233 44.2427 3.95751 44.2325C3.9627 44.2223 3.97025 44.2135 3.97952 44.2068C3.99175 44.1981 4.00644 44.1934 4.02149 44.1936H4.04245C5.28197 44.5726 6.57114 44.7643 7.86729 44.7624C11.6225 44.7624 15.3689 43.2979 18.9861 41.8808C22.6397 40.4527 26.0901 39.103 29.5383 39.103C30.865 39.0934 32.1832 39.315 33.4338 39.758C33.4479 39.7631 33.46 39.7724 33.4685 39.7846C33.477 39.7969 33.4815 39.8115 33.4813 39.8265L33.4791 45.6493ZM35.9299 39.1329C35.9299 39.1454 35.9267 39.1576 35.9205 39.1685C35.9143 39.1793 35.9054 39.1884 35.8946 39.1947C35.8836 39.2013 35.871 39.2048 35.8581 39.2047C35.8461 39.205 35.8343 39.2019 35.8239 39.1958C33.9176 38.1452 31.7735 37.6014 29.5969 37.6164C26.0758 37.6164 22.6099 38.8623 18.4416 40.4881C14.788 41.9173 11.3354 43.268 7.88387 43.268C5.79191 43.2834 3.73581 42.7245 1.93953 41.6522C1.71013 41.4883 1.55208 41.2429 1.49775 40.9663V35.0783C1.49763 35.0659 1.50071 35.0537 1.50671 35.0429C1.51271 35.032 1.52143 35.0229 1.53199 35.0165C1.54335 35.0096 1.55628 35.0058 1.56954 35.0054C1.58141 35.0061 1.59304 35.0091 1.60379 35.0143C2.12622 35.2986 2.66888 35.5441 3.22737 35.7487C3.24134 35.7539 3.25336 35.7633 3.26185 35.7755C3.27035 35.7878 3.2749 35.8023 3.27487 35.8172V39.335C3.27487 39.5324 3.35327 39.7218 3.49288 39.8614C3.63248 40.001 3.82183 40.0794 4.01926 40.0794C4.2167 40.0794 4.40605 40.001 4.54565 39.8614C4.68526 39.7218 4.7637 39.5324 4.7637 39.335V36.3286C4.76326 36.3178 4.76545 36.307 4.77007 36.2972C4.77468 36.2874 4.78157 36.2788 4.79019 36.2723C4.8032 36.2623 4.81911 36.2569 4.83549 36.2568H4.85096C5.38591 36.3789 5.92826 36.466 6.47455 36.5175C6.49252 36.5189 6.50926 36.5271 6.52137 36.5404C6.53348 36.5538 6.54004 36.5712 6.5397 36.5892V38.2868C6.5397 38.4843 6.61814 38.6736 6.75775 38.8132C6.89736 38.9528 7.0867 39.0312 7.28414 39.0312C7.48157 39.0312 7.67089 38.9528 7.81049 38.8132C7.9501 38.6736 8.02854 38.4843 8.02854 38.2868V36.6677C8.02839 36.6583 8.03011 36.649 8.03359 36.6403C8.03708 36.6316 8.04228 36.6236 8.04886 36.617C8.05544 36.6103 8.06327 36.605 8.07192 36.6014C8.08056 36.5977 8.08984 36.5959 8.09922 36.5959C8.64152 36.5837 9.18713 36.5451 9.72281 36.4854H9.73164C9.74928 36.4854 9.76625 36.4921 9.77913 36.5042C9.78672 36.5108 9.79284 36.5189 9.79703 36.5281C9.80122 36.5372 9.80338 36.5472 9.80343 36.5572V38.0703C9.80343 38.2678 9.88187 38.4571 10.0215 38.5967C10.1611 38.7363 10.3504 38.8148 10.5479 38.8148C10.7453 38.8148 10.9346 38.7363 11.0743 38.5967C11.2139 38.4571 11.2923 38.2678 11.2923 38.0703V36.2888C11.2923 36.2724 11.298 36.2564 11.3084 36.2437C11.3189 36.231 11.3335 36.2223 11.3497 36.2192C11.8699 36.1088 12.4034 35.984 12.9777 35.8249H12.9965C13.0124 35.8248 13.0279 35.8298 13.0407 35.8393C13.0494 35.846 13.0565 35.8548 13.0613 35.8647C13.0661 35.8747 13.0685 35.8857 13.0683 35.8967V37.2663C13.0683 37.4637 13.1467 37.6531 13.2863 37.7927C13.4259 37.9323 13.6153 38.0107 13.8127 38.0107C14.0101 38.0107 14.1995 37.9323 14.3391 37.7927C14.4787 37.6531 14.5571 37.4637 14.5571 37.2663V35.4108C14.5574 35.3956 14.5625 35.3809 14.5716 35.3688C14.5807 35.3567 14.5934 35.3478 14.6079 35.3434C15.1535 35.1645 15.6959 34.9723 16.2382 34.7724C16.2466 34.7708 16.2551 34.7708 16.2635 34.7724C16.2825 34.7727 16.3006 34.7803 16.314 34.7937C16.3274 34.8071 16.335 34.8252 16.3353 34.8442V37.7501C16.3353 37.9475 16.4138 38.1368 16.5534 38.2764C16.693 38.416 16.8823 38.4945 17.0798 38.4945C17.2772 38.4945 17.4665 38.416 17.6062 38.2764C17.7458 38.1368 17.8242 37.9475 17.8242 37.7501V34.2201C17.8241 34.2058 17.8284 34.1918 17.8365 34.1799C17.8446 34.1681 17.8561 34.159 17.8695 34.1539C18.2417 34.0103 19.5019 33.5166 19.5019 33.5166C19.5106 33.5145 19.5197 33.5145 19.5284 33.5166C19.5429 33.5167 19.5571 33.5209 19.5693 33.5287C19.5788 33.5355 19.5866 33.5444 19.592 33.5548C19.5974 33.5652 19.6002 33.5767 19.6002 33.5884V34.8364C19.6002 35.0339 19.6786 35.2232 19.8182 35.3628C19.9578 35.5024 20.1472 35.5809 20.3446 35.5809C20.542 35.5809 20.7314 35.5024 20.871 35.3628C21.0106 35.2232 21.089 35.0339 21.089 34.8364V32.9588C21.0891 32.9441 21.0937 32.9297 21.1021 32.9176C21.1106 32.9056 21.1227 32.8964 21.1365 32.8914C21.6829 32.6845 22.2277 32.4887 22.7711 32.3039C22.7788 32.3022 22.7867 32.3022 22.7944 32.3039C22.8092 32.3042 22.8234 32.3093 22.8352 32.3182C22.8446 32.3245 22.8522 32.3331 22.8575 32.3431C22.8627 32.3532 22.8653 32.3643 22.865 32.3756V33.6955C22.865 33.8931 22.9435 34.0826 23.0832 34.2223C23.2229 34.362 23.4124 34.4405 23.61 34.4405C23.8076 34.4405 23.9971 34.362 24.1368 34.2223C24.2765 34.0826 24.355 33.8931 24.355 33.6955V31.8433C24.3548 31.8279 24.3597 31.8129 24.3689 31.8005C24.3781 31.7882 24.391 31.7791 24.4058 31.7748C24.9459 31.6158 25.497 31.4733 26.0426 31.3529H26.0592C26.0756 31.3541 26.0912 31.3598 26.1045 31.3695C26.1126 31.3764 26.1192 31.385 26.1235 31.3948C26.1279 31.4045 26.1301 31.4151 26.1299 31.4258V32.8848C26.1299 33.0824 26.2084 33.2719 26.3481 33.4116C26.4878 33.5513 26.6773 33.6298 26.8749 33.6298C27.0724 33.6298 27.2619 33.5513 27.4016 33.4116C27.5413 33.2719 27.6198 33.0824 27.6198 32.8848V31.1397C27.6199 31.1224 27.6262 31.1056 27.6375 31.0924C27.6488 31.0793 27.6645 31.0706 27.6817 31.0679C28.2261 30.9958 28.7739 30.9534 29.3229 30.9409C29.3419 30.9412 29.3601 30.9487 29.3738 30.9619C29.3805 30.9685 29.3858 30.9765 29.3894 30.9852C29.393 30.9939 29.3948 31.0033 29.3947 31.0127V34.2908C29.3947 34.4882 29.4732 34.6776 29.6128 34.8172C29.7524 34.9568 29.9417 35.0352 30.1392 35.0352C30.3366 35.0352 30.5259 34.9568 30.6655 34.8172C30.8051 34.6776 30.8836 34.4882 30.8836 34.2908V31.1011C30.8834 31.0908 30.8856 31.0807 30.8898 31.0713C30.894 31.062 30.9001 31.0537 30.9079 31.047C30.922 31.0349 30.9401 31.0282 30.9587 31.0282H30.9664C32.5673 31.2089 34.1111 31.7293 35.4948 32.5546C35.7256 32.7171 35.8841 32.9631 35.9366 33.2405L35.9299 39.1329Z" fill="#202020"/>
<path d="M33.3977 34.2891C33.2505 34.2891 33.1066 34.3327 32.9842 34.4145C32.8617 34.4963 32.7663 34.6126 32.71 34.7486C32.6536 34.8846 32.6389 35.0343 32.6676 35.1787C32.6963 35.3231 32.7672 35.4558 32.8713 35.5599C32.9755 35.664 33.1081 35.7349 33.2525 35.7636C33.3969 35.7923 33.5466 35.7776 33.6826 35.7212C33.8186 35.6649 33.9349 35.5695 34.0167 35.4471C34.0985 35.3246 34.1422 35.1807 34.1422 35.0335C34.1422 34.836 34.0637 34.6467 33.9241 34.5071C33.7845 34.3675 33.5952 34.2891 33.3977 34.2891Z" fill="#202020"/>
<path d="M7.27565 17.8248H20.3373C20.5347 17.8248 20.724 17.7463 20.8637 17.6067C21.0033 17.4671 21.0817 17.2778 21.0817 17.0804C21.0817 16.8829 21.0033 16.6936 20.8637 16.554C20.724 16.4144 20.5347 16.3359 20.3373 16.3359H7.27565C7.07822 16.3359 6.88887 16.4144 6.74926 16.554C6.60966 16.6936 6.53125 16.8829 6.53125 17.0804C6.53125 17.2778 6.60966 17.4671 6.74926 17.6067C6.88887 17.7463 7.07822 17.8248 7.27565 17.8248Z" fill="#202020"/>
<path d="M25.2344 22.7228H28.4992C29.1293 22.7213 29.7332 22.4703 30.1787 22.0246C30.6241 21.5789 30.8749 20.9749 30.8761 20.3448V17.08C30.8752 16.4497 30.6243 15.8455 30.1786 15.3999C29.7328 14.9543 29.1284 14.7037 28.4981 14.7031H25.2333C24.6031 14.7037 23.9989 14.9543 23.5533 15.3999C23.1076 15.8455 22.857 16.4498 22.8564 17.08V20.3448C22.857 20.9751 23.1076 21.5794 23.5532 22.0252C23.9988 22.471 24.603 22.7219 25.2333 22.7228H25.2344ZM24.3497 17.08C24.3497 16.8456 24.4428 16.6209 24.6085 16.4552C24.7742 16.2895 24.9989 16.1964 25.2333 16.1964H28.4981C28.7324 16.1964 28.9572 16.2895 29.1229 16.4552C29.2886 16.6209 29.3817 16.8456 29.3817 17.08V20.3448C29.3817 20.5792 29.2886 20.8039 29.1229 20.9696C28.9572 21.1353 28.7324 21.2284 28.4981 21.2284H25.2333C24.9989 21.2284 24.7742 21.1353 24.6085 20.9696C24.4428 20.8039 24.3497 20.5792 24.3497 20.3448V17.08Z" fill="#202020"/>
<path d="M7.27504 27.6133H20.3366C20.4367 27.6171 20.5366 27.6008 20.6302 27.5651C20.7238 27.5295 20.8093 27.4753 20.8815 27.4058C20.9537 27.3364 21.011 27.2531 21.0503 27.1609C21.0895 27.0687 21.1097 26.9696 21.1097 26.8694C21.1097 26.7692 21.0895 26.6701 21.0503 26.5779C21.011 26.4858 20.9537 26.4025 20.8815 26.333C20.8093 26.2635 20.7238 26.2094 20.6302 26.1737C20.5366 26.1381 20.4367 26.1217 20.3366 26.1256H7.27504C7.17494 26.1217 7.07511 26.1381 6.98149 26.1737C6.88787 26.2094 6.80243 26.2635 6.73024 26.333C6.65806 26.4025 6.60063 26.4858 6.56141 26.5779C6.52219 26.6701 6.50195 26.7692 6.50195 26.8694C6.50195 26.9696 6.52219 27.0687 6.56141 27.1609C6.60063 27.2531 6.65806 27.3364 6.73024 27.4058C6.80243 27.4753 6.88787 27.5295 6.98149 27.5651C7.07511 27.6008 7.17494 27.6171 7.27504 27.6133Z" fill="#202020"/>
<path d="M7.27565 21.0826H13.8065C14.0039 21.0826 14.1932 21.0042 14.3328 20.8646C14.4724 20.7249 14.5509 20.5356 14.5509 20.3382C14.5509 20.1407 14.4724 19.9514 14.3328 19.8118C14.1932 19.6722 14.0039 19.5938 13.8065 19.5938H7.27565C7.07822 19.5938 6.88887 19.6722 6.74926 19.8118C6.60966 19.9514 6.53125 20.1407 6.53125 20.3382C6.53125 20.5356 6.60966 20.7249 6.74926 20.8646C6.88887 21.0042 7.07822 21.0826 7.27565 21.0826Z" fill="#202020"/>
<path d="M7.27565 30.8795H13.8065C14.0039 30.8795 14.1932 30.801 14.3328 30.6614C14.4724 30.5218 14.5509 30.3325 14.5509 30.135C14.5509 29.9376 14.4724 29.7483 14.3328 29.6087C14.1932 29.4691 14.0039 29.3906 13.8065 29.3906H7.27565C7.07822 29.3906 6.88887 29.4691 6.74926 29.6087C6.60966 29.7483 6.53125 29.9376 6.53125 30.135C6.53125 30.3325 6.60966 30.5218 6.74926 30.6614C6.88887 30.801 7.07822 30.8795 7.27565 30.8795Z" fill="#202020"/>
<path d="M23.6019 27.6135C23.7991 27.6135 23.9883 27.5352 24.1279 27.3958C24.2675 27.2564 24.346 27.0674 24.3463 26.8701C24.3456 26.7536 24.3679 26.6381 24.412 26.5303C24.4561 26.4225 24.521 26.3244 24.6031 26.2418C24.6853 26.1591 24.7829 26.0936 24.8905 26.0488C24.998 26.0041 25.1134 25.981 25.2299 25.981H28.4947C28.6112 25.981 28.7266 26.0041 28.8342 26.0488C28.9417 26.0936 29.0394 26.1591 29.1215 26.2418C29.2036 26.3244 29.2686 26.4225 29.3127 26.5303C29.3567 26.6381 29.3791 26.7536 29.3783 26.8701C29.3858 27.0628 29.4675 27.245 29.6064 27.3787C29.7453 27.5123 29.9306 27.587 30.1233 27.587C30.3161 27.587 30.5013 27.5123 30.6402 27.3787C30.7791 27.245 30.8609 27.0628 30.8683 26.8701C30.8674 26.2397 30.6166 25.6354 30.1708 25.1896C29.725 24.7439 29.1207 24.4931 28.4903 24.4922H25.2255C24.5952 24.4931 23.991 24.7439 23.5454 25.1897C23.0998 25.6355 22.8492 26.2398 22.8486 26.8701C22.8486 26.9678 22.8679 27.0646 22.9053 27.1548C22.9428 27.2451 22.9976 27.3271 23.0667 27.3961C23.1359 27.4652 23.2179 27.5199 23.3082 27.5572C23.3986 27.5945 23.4954 27.6136 23.5931 27.6135" fill="#202020"/>
</svg>
