<?xml version="1.0" encoding="utf-8"?>
<!-- Generator: Adobe Illustrator 26.5.0, SVG Export Plug-In . SVG Version: 6.00 Build 0)  -->
<svg version="1.1" id="레이어_1" xmlns="http://www.w3.org/2000/svg" xmlns:xlink="http://www.w3.org/1999/xlink" x="0px"
	 y="0px" viewBox="0 0 150 150" style="enable-background:new 0 0 150 150;" xml:space="preserve">
<g>
	<path d="M59.4,60.1h-9v-9h9V60.1z M52.6,57.9h4.6v-4.6h-4.6V57.9z"/>
</g>
<g>
	<path d="M59.4,74.7h-9v-9h9V74.7z M52.6,72.5h4.6v-4.6h-4.6V72.5z"/>
</g>
<g>
	<path d="M59.4,89.3h-9v-9h9V89.3z M52.6,87.1h4.6v-4.6h-4.6V87.1z"/>
</g>
<g>
	<path d="M59.4,103.9h-9v-9h9V103.9z M52.6,101.7h4.6v-4.6h-4.6V101.7z"/>
</g>
<rect x="62.5" y="55" width="30" height="2"/>
<rect x="62.5" y="69.6" width="30" height="2"/>
<rect x="62.5" y="84.2" width="30" height="2"/>
<rect x="62.5" y="98.8" width="30" height="2"/>
<g>
	<path d="M94.2,99.9l0.1-12.1l0.1-0.3L117.3,48l10.6,6.1l-23,39.8L94.2,99.9z M96.4,88.4l0,7.7l6.8-3.8l21.6-37.4l-6.8-3.9
		L96.4,88.4z"/>
</g>
<path d="M103,68.3v-25c0-3.3-2.7-6-6-6h-7.4c-0.9-2.2-3-3.8-5.6-3.8h-5.4c-0.3-3.1-2.9-5.5-6.1-5.5s-5.8,2.4-6.1,5.5H61
	c-2.5,0-4.7,1.6-5.6,3.8H48c-3.3,0-6,2.7-6,6v64.5c0,3.3,2.7,6,6,6h49c3.3,0,6-2.7,6-6V97.5l-2.2,1.2v9.1c0,2.1-1.7,3.8-3.8,3.8H48
	c-2.1,0-3.8-1.7-3.8-3.8V43.3c0-2.1,1.7-3.8,3.8-3.8h7c0,0,0,0,0,0V43c0,0.6,0.4,1,1,1h33c0.6,0,1-0.4,1-1v-3.5c0,0,0,0,0,0h7
	c2.1,0,3.8,1.7,3.8,3.8v28.8L103,68.3z M87.8,41.8H57.2v-2.3c0,0,0,0,0,0c0-0.8,0.3-1.6,0.7-2.2c0.7-1,1.8-1.6,3.1-1.6h7.6v-1.6
	c0-0.2,0-0.4,0.1-0.6c0.3-1.9,1.9-3.3,3.8-3.3c1.9,0,3.5,1.4,3.8,3.3c0,0.2,0.1,0.4,0.1,0.6v1.6H84c1.3,0,2.4,0.6,3.1,1.6
	c0.4,0.6,0.7,1.4,0.7,2.2c0,0,0,0,0,0V41.8z"/>
</svg>
