<svg width="28" height="28" viewBox="0 0 28 28" fill="none" xmlns="http://www.w3.org/2000/svg">
<path d="M13.9997 3.9375C14.9434 3.93746 15.8504 4.30338 16.5299 4.95829C17.2094 5.6132 17.6084 6.50608 17.6432 7.44917L17.6455 7.58392L21.583 7.58333C21.8464 7.58345 22.0995 7.68537 22.2895 7.86778C22.4795 8.05018 22.5917 8.29897 22.6025 8.56213C22.6134 8.82529 22.5221 9.08246 22.3477 9.27988C22.1734 9.47731 21.9295 9.59971 21.667 9.6215L21.583 9.625H20.9023L19.9532 22.2075C19.9061 22.8309 19.6252 23.4136 19.1668 23.8387C18.7083 24.2638 18.1062 24.5 17.481 24.5H10.5183C9.89313 24.5 9.291 24.2638 8.83257 23.8387C8.37414 23.4136 8.09325 22.8309 8.04617 22.2075L7.09651 9.625H6.41634C6.16005 9.62498 5.91315 9.52856 5.72468 9.35489C5.5362 9.18122 5.41995 8.94301 5.39901 8.68758L5.39551 8.60417C5.39553 8.34788 5.49195 8.10098 5.66562 7.9125C5.83929 7.72403 6.07749 7.60778 6.33292 7.58683L6.41634 7.58333H10.3538C10.3538 5.6595 11.8443 4.08333 13.7337 3.94683L13.8661 3.93983L13.9997 3.9375ZM16.1872 11.5208C16.0067 11.5208 15.8325 11.5876 15.6985 11.7085C15.5644 11.8294 15.48 11.9958 15.4615 12.1753L15.458 12.25V19.25L15.4615 19.3247C15.4792 19.5048 15.5633 19.672 15.6975 19.7935C15.8316 19.9151 16.0061 19.9825 16.1872 19.9825C16.3682 19.9825 16.5428 19.9151 16.6769 19.7935C16.811 19.672 16.8951 19.5048 16.9128 19.3247L16.9163 19.25V12.25L16.9128 12.1753C16.8944 11.9958 16.8099 11.8294 16.6759 11.7085C16.5418 11.5876 16.3677 11.5208 16.1872 11.5208V11.5208ZM11.8122 11.5208C11.6317 11.5208 11.4575 11.5876 11.3235 11.7085C11.1894 11.8294 11.105 11.9958 11.0865 12.1753L11.083 12.25V19.25L11.0865 19.3247C11.1042 19.5048 11.1883 19.672 11.3225 19.7935C11.4566 19.9151 11.6311 19.9825 11.8122 19.9825C11.9932 19.9825 12.1678 19.9151 12.3019 19.7935C12.436 19.672 12.5201 19.5048 12.5378 19.3247L12.5413 19.25V12.25L12.5378 12.1753C12.5194 11.9958 12.4349 11.8294 12.3009 11.7085C12.1668 11.5876 11.9927 11.5208 11.8122 11.5208V11.5208ZM14.0977 5.98208L13.9997 5.97917C13.5912 5.97915 13.1981 6.13497 12.9005 6.41485C12.6029 6.69474 12.4234 7.0776 12.3984 7.48533L12.3955 7.58392L15.6038 7.58333C15.6039 7.17483 15.448 6.78171 15.1682 6.48416C14.8883 6.18661 14.5054 6.00704 14.0977 5.98208V5.98208Z" fill="#ABABAB"/>
</svg>
