<svg width="24" height="24" viewBox="0 0 24 24" fill="none" xmlns="http://www.w3.org/2000/svg">
<path d="M15 15H16.5V22.5H15V15ZM3 17.25H4.5V22.5H3V17.25Z" fill="#202020"/>
<path d="M12 22.5H10.5V19.5C10.4998 19.3011 10.4207 19.1105 10.2801 18.9699C10.1395 18.8293 9.94885 18.7502 9.75 18.75H8.25V22.5H6.75V17.25H9.75C10.3466 17.2506 10.9185 17.4878 11.3403 17.9097C11.7622 18.3315 11.9994 18.9034 12 19.5V22.5ZM5.625 16.5C4.92905 16.4992 4.26183 16.2224 3.76972 15.7303C3.27761 15.2382 3.00079 14.571 3 13.875V12.75H1.5V11.25H4.5V13.875C4.5 14.1734 4.61853 14.4595 4.8295 14.6705C5.04048 14.8815 5.32663 15 5.625 15C5.92337 15 6.20952 14.8815 6.4205 14.6705C6.63147 14.4595 6.75 14.1734 6.75 13.875V11.25H9.75V12.75H8.25V13.875C8.24921 14.571 7.97239 15.2382 7.48028 15.7303C6.98817 16.2224 6.32095 16.4992 5.625 16.5ZM20.25 7.5H16.0155C15.5654 7.4985 15.1253 7.63265 14.7526 7.88497C14.3799 8.13728 14.0918 8.49606 13.926 8.9145L12.8445 11.6183L10.1392 15.0008L11.3108 15.9383L14.0858 12.4688L15.3195 9.47175C15.3747 9.33228 15.4706 9.21267 15.5947 9.12852C15.7189 9.04437 15.8655 8.99959 16.0155 9H20.25C20.4489 9 20.6397 9.07902 20.7803 9.21967C20.921 9.36032 21 9.55109 21 9.75V15H18.75V22.5H20.25V16.5H21C21.3977 16.4996 21.779 16.3414 22.0602 16.0602C22.3414 15.779 22.4996 15.3977 22.5 15V9.75C22.4994 9.15345 22.2622 8.5815 21.8403 8.15967C21.4185 7.73784 20.8466 7.5006 20.25 7.5ZM18 6.75C17.4067 6.75 16.8266 6.57405 16.3333 6.24441C15.8399 5.91477 15.4554 5.44623 15.2284 4.89805C15.0013 4.34987 14.9419 3.74667 15.0576 3.16473C15.1734 2.58279 15.4591 2.04824 15.8787 1.62868C16.2982 1.20912 16.8328 0.923401 17.4147 0.807646C17.9967 0.69189 18.5999 0.7513 19.1481 0.978363C19.6962 1.20543 20.1648 1.58994 20.4944 2.08329C20.8241 2.57664 21 3.15666 21 3.75C20.999 4.54535 20.6826 5.30783 20.1202 5.87023C19.5578 6.43262 18.7953 6.74901 18 6.75ZM18 2.25C17.7033 2.25 17.4133 2.33797 17.1666 2.5028C16.92 2.66762 16.7277 2.90189 16.6142 3.17598C16.5006 3.45007 16.4709 3.75167 16.5288 4.04264C16.5867 4.33361 16.7296 4.60088 16.9393 4.81066C17.1491 5.02044 17.4164 5.1633 17.7074 5.22118C17.9983 5.27906 18.2999 5.24935 18.574 5.13582C18.8481 5.02229 19.0824 4.83003 19.2472 4.58336C19.412 4.33668 19.5 4.04667 19.5 3.75C19.4996 3.3523 19.3414 2.971 19.0602 2.68978C18.779 2.40856 18.3977 2.2504 18 2.25Z" fill="#202020"/>
</svg>
