<svg width="375" height="375" viewBox="0 0 375 375" fill="none" xmlns="http://www.w3.org/2000/svg">
<path d="M187.1 374.2C290.432 374.2 374.2 290.432 374.2 187.1C374.2 83.7675 290.432 0 187.1 0C83.7675 0 0 83.7675 0 187.1C0 290.432 83.7675 374.2 187.1 374.2Z" fill="white"/>
<path d="M255.6 101.3L245 96.2C244 95.7 243 95.5 242 95.5C239.4 95.5 236.8 97 235.6 99.5L209.5 154.2C208.4 156.4 208.6 159 209.9 161L200.3 181.2L197.5 187L197.2 187.7C191.4 188.5 186.3 192.2 183.7 197.8C183 199.3 183.6 201.1 185.1 201.8C186.6 202.5 188.4 201.9 189.1 200.4C190.1 198.2 191.7 196.5 193.6 195.3C195.4 194.2 197.4 193.6 199.6 193.6C200.1 193.6 200.6 193.6 201 193.7C203.7 194 206 195.3 207.8 197.2C209.6 199 210.7 201.4 211.1 204.1V204.2C211.2 204.7 211.2 205.2 211.2 205.7C211.2 207.2 210.9 208.7 210.4 210.1C210.3 210.4 210.2 210.6 210.1 210.9C209.4 212.4 210.1 214.2 211.6 214.9C212 215.1 212.4 215.2 212.8 215.2C213.9 215.2 215 214.5 215.5 213.4C216 212.3 216.3 211.2 216.6 210.1C217 208.7 217.2 207.2 217.2 205.7C217.2 205.2 217.2 204.6 217.1 204.1C216.9 201.4 216 198.8 214.7 196.6L217.9 189.8C222.5 190.7 226.7 191.9 230.6 193.2C241.5 197 246.5 201.5 246.5 204.1C246.5 204.3 246.5 204.5 246.4 204.7C246.4 204.8 246.4 204.8 246.3 204.9C246.3 205 246.2 205.2 246.1 205.4C246.1 205.5 246 205.5 246 205.6C245.9 205.8 245.8 205.9 245.7 206.1C245.7 206.2 245.6 206.2 245.6 206.3C245.5 206.5 245.3 206.7 245.2 206.9L245.1 207C244.2 208 242.9 209.1 241.2 210.2C238.6 211.8 235.1 213.6 230.6 215.1C218.4 219.3 202 221.6 184.5 221.6C167 221.6 150.6 219.3 138.4 215.1C133.8 213.5 130.3 211.8 127.8 210.2C126 209.1 124.7 208 123.9 207L123.8 206.9C123.6 206.7 123.5 206.5 123.4 206.3C123.4 206.2 123.3 206.2 123.3 206.1C123.2 205.9 123.1 205.8 123 205.6C123 205.5 122.9 205.5 122.9 205.4C122.8 205.2 122.8 205.1 122.7 204.9C122.7 204.8 122.7 204.8 122.6 204.7C122.6 204.5 122.5 204.3 122.5 204.1C122.5 202.1 125.5 198.9 132 195.8C136.5 198.5 140.3 201.7 142.9 204.1C145.2 206.3 146.6 207.9 146.6 208C147.2 208.7 148.1 209.1 148.9 209.1C149.6 209.1 150.2 208.9 150.8 208.4C152.1 207.4 152.3 205.5 151.2 204.2C151.2 204.2 151.2 204.1 151.1 204.1C150.4 203.2 145.8 197.9 138.8 193C145 190.9 152.1 189.3 160 188.2C160.6 190.3 160.9 192.4 160.7 194.6C160.6 196.3 161.8 197.7 163.5 197.8C163.6 197.8 163.7 197.8 163.7 197.8C165.3 197.8 166.6 196.6 166.7 195C166.9 192.4 166.6 189.9 166 187.5C169.5 187.1 173.2 186.9 176.9 186.7C178.6 186.6 182.9 186.6 183.3 186.6C184 186.6 184.6 186.5 185.2 186.1C186.1 185.4 186.6 184.3 186.4 183.1C186.2 181.6 184.7 180.6 183.2 180.6L176.7 180.7C175 180.8 173.4 180.9 171.7 181C169 181.2 166.4 181.4 163.8 181.7C158.5 170.6 147.6 162.6 146.9 162.2C145.6 161.2 143.7 161.5 142.7 162.9C141.7 164.2 142 166.1 143.4 167.1C143.5 167.2 152.5 173.8 157.5 182.6C147.6 184.1 139 186.3 132.2 189.1C127.9 186.9 123 185.3 117.8 184.9C116.1 184.8 114.7 186 114.6 187.7C114.5 189.4 115.7 190.8 117.4 190.9C120.1 191.1 122.7 191.7 125.2 192.6C119.7 196 116.5 199.9 116.5 204.1V234.3V255.2C116.5 255.8 116.6 256.4 116.7 257.1C119.4 269.2 148.7 278.7 184.5 278.7C220.2 278.7 249.5 269.2 252.3 257.1C252.4 256.5 252.5 255.9 252.5 255.2V236.4V204C252.5 195.6 239.7 188.3 220.6 184.1L227.6 169.3C229.8 168.9 231.8 167.5 232.9 165.4L233.3 164.5L240.9 168.1C241.3 168.3 241.7 168.4 242.1 168.4C243.2 168.4 244.2 167.8 244.7 166.8L251.3 153.1C251.6 152.6 251.6 151.9 251.5 151.3L248.4 133L259 110.7C260.7 107.2 259.2 103 255.6 101.3ZM246.5 245.4V246V250.9V255C246.5 255.5 246.3 256.2 245.8 256.9C244.1 259.5 239.2 263 230.6 266C218.4 270.2 202 272.5 184.5 272.5C167 272.5 150.6 270.2 138.4 266C129.7 263 124.8 259.5 123.2 256.9C122.8 256.2 122.5 255.6 122.5 255V250.9V245.4V243.8V213.6C133.2 221.8 156.9 227.4 184.5 227.4C212.1 227.4 235.8 221.7 246.5 213.6V245.4ZM214.5 182.9L211.8 188.5L210.4 191.4C208.4 189.8 206.1 188.6 203.5 188L203.8 187.5L206.5 181.8L214.7 164.6L221.6 167.9L214.5 182.9ZM245.4 151.4L240.6 161.4L235.9 159.1L243.9 142.4L245.4 151.4ZM253.6 108.1L246 124L242.2 132.1L235.5 146.2L230.6 156.5L228 161.9L227.6 162.8C227.4 163.3 226.9 163.4 226.6 163.4C226.4 163.4 226.3 163.4 226.1 163.3L224.3 162.4L217.4 159.1L215.5 158.2C215 157.9 214.7 157.3 215 156.8L222.8 140.3L241 102.1C241.2 101.6 241.7 101.5 242 101.5C242.2 101.5 242.3 101.5 242.5 101.6L253.1 106.7C253.6 106.9 253.8 107.6 253.6 108.1Z" fill="#CA1010"/>
<path d="M133.9 231.5C132.2 231.5 130.9 232.8 130.9 234.5V240.6V247.2V248.4C130.9 249.4 131.4 250.3 132.2 250.9C132.7 251.2 133.3 251.4 133.9 251.4C134.5 251.4 135.1 251.2 135.6 250.9C136.4 250.4 136.9 249.5 136.9 248.4V244.6V238.2V234.4C136.9 232.9 135.5 231.5 133.9 231.5Z" fill="#CA1010"/>
</svg>
