<svg width="280" height="280" viewBox="0 0 280 280" fill="none" xmlns="http://www.w3.org/2000/svg">
<path d="M140 280C217.32 280 280 217.32 280 140C280 62.6801 217.32 0 140 0C62.6801 0 0 62.6801 0 140C0 217.32 62.6801 280 140 280Z" fill="white"/>
<path d="M191.256 75.7989L183.324 71.9828C182.576 71.6086 181.828 71.459 181.08 71.459C179.134 71.459 177.189 72.5814 176.291 74.452L156.761 115.382C155.938 117.028 156.088 118.974 157.06 120.47L149.877 135.585L147.782 139.925L147.557 140.449C143.218 141.047 139.401 143.816 137.456 148.006C136.932 149.129 137.381 150.476 138.503 150.999C139.626 151.523 140.973 151.074 141.497 149.952C142.245 148.306 143.442 147.034 144.864 146.136C146.211 145.313 147.707 144.864 149.353 144.864C149.727 144.864 150.102 144.864 150.401 144.938C152.421 145.163 154.142 146.136 155.489 147.557C156.836 148.904 157.659 150.7 157.958 152.72V152.795C158.033 153.169 158.033 153.543 158.033 153.918C158.033 155.04 157.809 156.162 157.435 157.21C157.36 157.434 157.285 157.584 157.21 157.809C156.686 158.931 157.21 160.278 158.332 160.802C158.632 160.951 158.931 161.026 159.23 161.026C160.053 161.026 160.877 160.502 161.251 159.679C161.625 158.856 161.849 158.033 162.074 157.21C162.373 156.162 162.523 155.04 162.523 153.918C162.523 153.543 162.523 153.094 162.448 152.72C162.298 150.7 161.625 148.755 160.652 147.108L163.047 142.02C166.489 142.694 169.631 143.592 172.549 144.564C180.705 147.408 184.447 150.775 184.447 152.72C184.447 152.87 184.447 153.02 184.372 153.169C184.372 153.244 184.372 153.244 184.297 153.319C184.297 153.394 184.222 153.543 184.148 153.693C184.148 153.768 184.073 153.768 184.073 153.843C183.998 153.992 183.923 154.067 183.848 154.217C183.848 154.292 183.773 154.292 183.773 154.367C183.699 154.516 183.549 154.666 183.474 154.815L183.399 154.89C182.726 155.639 181.753 156.462 180.481 157.285C178.536 158.482 175.917 159.829 172.549 160.951C163.421 164.094 151.149 165.815 138.055 165.815C124.96 165.815 112.688 164.094 103.56 160.951C100.118 159.754 97.4987 158.482 95.628 157.285C94.2811 156.462 93.3084 155.639 92.7098 154.89L92.635 154.815C92.4853 154.666 92.4105 154.516 92.3357 154.367C92.3357 154.292 92.2608 154.292 92.2608 154.217C92.186 154.067 92.1112 153.992 92.0363 153.843C92.0363 153.768 91.9615 153.768 91.9615 153.693C91.8867 153.543 91.8867 153.469 91.8119 153.319C91.8119 153.244 91.8119 153.244 91.737 153.169C91.737 153.02 91.6622 152.87 91.6622 152.72C91.6622 151.224 93.907 148.829 98.7707 146.51C102.138 148.53 104.981 150.925 106.927 152.72C108.648 154.367 109.695 155.564 109.695 155.639C110.144 156.162 110.818 156.462 111.416 156.462C111.94 156.462 112.389 156.312 112.838 155.938C113.811 155.19 113.96 153.768 113.137 152.795C113.137 152.795 113.137 152.72 113.063 152.72C112.539 152.047 109.097 148.081 103.859 144.415C108.498 142.843 113.811 141.646 119.722 140.823C120.171 142.394 120.396 143.966 120.246 145.612C120.171 146.884 121.069 147.931 122.341 148.006C122.416 148.006 122.491 148.006 122.491 148.006C123.688 148.006 124.661 147.108 124.735 145.911C124.885 143.966 124.661 142.095 124.212 140.299C126.831 140 129.599 139.85 132.368 139.701C133.64 139.626 136.857 139.626 137.157 139.626C137.68 139.626 138.129 139.551 138.578 139.252C139.252 138.728 139.626 137.905 139.476 137.007C139.327 135.884 138.204 135.136 137.082 135.136L132.218 135.211C130.946 135.286 129.749 135.361 128.477 135.435C126.456 135.585 124.511 135.735 122.565 135.959C118.6 127.654 110.444 121.667 109.92 121.368C108.947 120.62 107.525 120.844 106.777 121.892C106.029 122.865 106.253 124.286 107.301 125.035C107.376 125.109 114.11 130.048 117.851 136.633C110.444 137.755 104.009 139.401 98.9204 141.496C95.7028 139.85 92.0364 138.653 88.1454 138.354C86.8733 138.279 85.8258 139.177 85.7509 140.449C85.6761 141.721 86.574 142.768 87.8461 142.843C89.8664 142.993 91.8119 143.442 93.6825 144.115C89.5671 146.659 87.1726 149.578 87.1726 152.72V175.318V190.957C87.1726 191.406 87.2475 191.854 87.3223 192.378C89.3426 201.432 111.267 208.541 138.055 208.541C164.767 208.541 186.692 201.432 188.787 192.378C188.862 191.929 188.936 191.48 188.936 190.957V176.889V152.646C188.936 146.36 179.359 140.898 165.067 137.755L170.305 126.681C171.951 126.381 173.447 125.334 174.27 123.763L174.57 123.089L180.257 125.783C180.556 125.933 180.855 126.007 181.154 126.007C181.978 126.007 182.726 125.558 183.1 124.81L188.038 114.559C188.263 114.185 188.263 113.661 188.188 113.212L185.869 99.5188L193.8 82.8326C195.072 80.2137 193.95 77.0709 191.256 75.7989ZM184.447 183.624V184.073V187.739V190.807C184.447 191.181 184.297 191.705 183.923 192.229C182.651 194.174 178.984 196.793 172.549 199.038C163.421 202.181 151.149 203.902 138.055 203.902C124.96 203.902 112.688 202.181 103.56 199.038C97.0497 196.793 93.3832 194.174 92.186 192.229C91.8867 191.705 91.6622 191.256 91.6622 190.807V187.739V183.624V182.426V159.829C99.6686 165.965 117.402 170.155 138.055 170.155C158.707 170.155 176.44 165.89 184.447 159.829V183.624ZM160.502 136.857L158.482 141.047L157.435 143.217C155.938 142.02 154.217 141.122 152.272 140.673L152.496 140.299L154.516 136.034L160.652 123.164L165.815 125.633L160.502 136.857ZM183.624 113.287L180.032 120.77L176.515 119.049L182.501 106.553L183.624 113.287ZM189.759 80.8871L184.073 92.7845L181.229 98.8454L176.216 109.396L172.549 117.103L170.604 121.144L170.305 121.817C170.155 122.191 169.781 122.266 169.556 122.266C169.407 122.266 169.332 122.266 169.182 122.191L167.835 121.518L162.672 119.049L161.251 118.375C160.877 118.151 160.652 117.702 160.877 117.327L166.713 104.981L180.331 76.3975C180.481 76.0234 180.855 75.9486 181.08 75.9486C181.229 75.9486 181.304 75.9486 181.454 76.0234L189.385 79.8395C189.759 79.9892 189.909 80.513 189.759 80.8871Z" fill="#CA1010"/>
<path d="M100.193 173.223C98.9205 173.223 97.9478 174.195 97.9478 175.467V180.032V184.97V185.868C97.9478 186.617 98.3219 187.29 98.9205 187.739C99.2946 187.963 99.7436 188.113 100.193 188.113C100.642 188.113 101.09 187.963 101.465 187.739C102.063 187.365 102.437 186.691 102.437 185.868V183.025V178.236V175.393C102.437 174.27 101.39 173.223 100.193 173.223Z" fill="#CA1010"/>
</svg>
