<svg width="375" height="375" viewBox="0 0 375 375" fill="none" xmlns="http://www.w3.org/2000/svg">
<path d="M187.1 374.2C290.432 374.2 374.2 290.432 374.2 187.1C374.2 83.7675 290.432 0 187.1 0C83.7675 0 0 83.7675 0 187.1C0 290.432 83.7675 374.2 187.1 374.2Z" fill="white"/>
<path d="M165.3 134.699C165.3 133.899 164.7 133.299 164 133.299C163.4 133.299 162.7 133.199 162 133.199C161.1 133.199 160.2 133.199 159.3 133.299C143.2 134.699 130.8 148.899 132.3 165.699C133.5 179.999 145.1 191.499 159.4 192.799C176.1 194.299 190.3 181.899 191.8 165.799C191.9 164.899 191.9 163.999 191.9 163.099C191.9 162.499 191.9 161.799 191.8 161.199C191.8 160.399 191.1 159.899 190.4 159.899H185.7H165.4V139.499V134.699H165.3ZM185.7 165.799C184.3 178.399 172.9 187.999 159.7 186.799C148.4 185.699 139.3 176.599 138.3 165.299C137.1 152.099 146.7 140.699 159.3 139.299V164.299C159.3 165.099 159.9 165.699 160.7 165.699H185.7V165.799Z" fill="#CA1010"/>
<path d="M223.4 131.9H207.7C206 131.9 204.7 133.2 204.7 134.9C204.7 136.6 206 137.9 207.7 137.9H223.4C225.1 137.9 226.4 136.6 226.4 134.9C226.4 133.2 225 131.9 223.4 131.9Z" fill="#CA1010"/>
<path d="M223.4 145.4H207.7C206 145.4 204.7 146.7 204.7 148.4C204.7 150.1 206 151.4 207.7 151.4H223.4C225.1 151.4 226.4 150.1 226.4 148.4C226.4 146.7 225 145.4 223.4 145.4Z" fill="#CA1010"/>
<path d="M223.4 163H203.8C202.1 163 200.8 164.3 200.8 166C200.8 167.7 202.1 169 203.8 169H223.4C225.1 169 226.4 167.7 226.4 166C226.4 164.3 225 163 223.4 163Z" fill="#CA1010"/>
<path d="M226.4 179.801C226.4 178.101 225.1 176.801 223.4 176.801H203.8C202.1 176.801 200.8 178.101 200.8 179.801C200.8 181.501 202.1 182.801 203.8 182.801H223.4C225 182.801 226.4 181.401 226.4 179.801Z" fill="#CA1010"/>
<path d="M155.6 202.9C153.9 202.9 152.6 204.2 152.6 205.9C152.6 207.6 153.9 208.9 155.6 208.9H177.8C179.5 208.9 180.8 207.6 180.8 205.9C180.8 204.2 179.5 202.9 177.8 202.9H155.6Z" fill="#CA1010"/>
<path d="M216.8 203.1C218.5 203.1 219.8 201.8 219.8 200.1C219.8 198.4 218.5 197.1 216.8 197.1H201.1C199.7 197.1 198.4 197.8 197.5 198.9L179.2 223.9L167.9 216.4C166.3 215.3 164.1 215.4 162.6 216.7L146.6 230.1C145.3 231.2 145.2 233.1 146.2 234.3C146.8 235 147.6 235.4 148.5 235.4C149.2 235.4 149.9 235.2 150.4 234.7L165.5 222L177.1 229.7C179.1 231 181.7 230.5 183.1 228.6L201.8 203H216.8V203.1Z" fill="#CA1010"/>
<path d="M181.9 151C180.3 151 178.8 152.2 178.7 153.8C178.6 155.5 180 157 181.7 157H194.2H194.6H199.3C200.1 157 200.7 156.4 200.7 155.6V154.3C200.7 153.2 200.6 152.1 200.5 151C199 137 187.8 125.9 173.7 124.6C172.7 124.5 171.8 124.5 170.8 124.5C170.2 124.5 169.6 124.5 169.1 124.6C168.3 124.6 167.8 125.3 167.8 126V129.7V130.7V141.9C167.8 143.5 169 145 170.6 145.1C172.3 145.2 173.8 143.8 173.8 142.1V130.7C184.5 132 193.1 140.4 194.5 151.1H194.2H181.9V151Z" fill="#CA1010"/>
<path d="M227.3 272.5C228 272.5 228.6 272.4 229.2 272.3C230.4 272.1 231.5 271.6 232.5 271C233.3 270.5 234 269.8 234.7 269.1C235.3 269.9 236.1 270.5 236.9 271C237.9 271.6 239 272.1 240.2 272.3C242 272.6 243.9 272.5 245.9 271.6C249.2 270 251.5 266.9 251.6 263.3C251.6 262.8 251.6 262.4 251.6 261.9C251.2 257.9 248.3 254.6 244.4 253.6C244.4 253.3 244.4 253 244.4 252.7C244.3 251.4 243.9 250.2 243.3 249.1C243.2 248.9 243.1 248.7 243 248.5C241.3 245.8 238.3 244 234.9 244C231.4 244 228.3 245.9 226.6 248.7C226.5 248.8 226.5 248.9 226.4 249.1C225.8 250.2 225.4 251.4 225.3 252.7C225.3 253 225.3 253.3 225.3 253.6C221.3 254.5 218.3 257.9 217.9 262C217.9 262.3 217.9 262.6 217.9 262.9C217.7 268.1 222.1 272.5 227.3 272.5ZM225.8 256.9C226.3 256.8 226.8 256.7 227.3 256.7C227.4 256.7 227.4 256.7 227.5 256.7C228.5 256.8 229.3 255.9 229 254.9C228.8 254.3 228.7 253.8 228.7 253.4C228.7 253.3 228.7 253.3 228.7 253.2C228.7 253 228.7 252.7 228.8 252.5C229 251.2 229.5 250.1 230.4 249.2C231.5 248 233.1 247.2 234.9 247.2C236.7 247.2 238.2 248 239.4 249.1C240.2 250 240.8 251.1 241 252.4C241 252.6 241.1 252.9 241.1 253.1C241.1 253.2 241.1 253.2 241.1 253.3C241.1 253.7 240.9 254.3 240.7 254.9C240.4 255.8 241.1 256.6 242 256.6C242.1 256.6 242.1 256.6 242.2 256.6C242.8 256.6 243.4 256.7 243.9 256.8C246.4 257.5 248.3 259.9 248.3 262.7C248.3 266.1 245.6 268.8 242.2 268.8C242.1 268.8 242 268.8 241.9 268.8C240.7 268.7 239.5 268.3 238.6 267.6C237.8 267 237.2 266.3 236.8 265.4C236.4 264.6 233.4 264.6 233.1 265.4C232.7 266.2 232.1 267 231.4 267.5C230.5 268.2 229.3 268.7 228.1 268.8C228 268.8 227.8 268.8 227.7 268.8C224.3 268.8 221.6 266.1 221.6 262.7C221.2 260 223.2 257.6 225.8 256.9Z" fill="#CA1010"/>
<path d="M206.1 242.899C203.4 245.599 204.2 250.499 207.8 254.199C209.4 255.799 211.3 256.899 213.2 257.299C213.8 257.399 214.4 257.499 215 257.499C215.9 257.499 216.8 257.299 217.6 256.899C218.1 256.599 218.7 256.299 219.1 255.899C219.5 255.499 219.8 255.099 220 254.699C220.7 253.499 220.8 251.899 220.5 250.399C220.2 248.799 219.4 247.099 218.1 245.599C217.8 245.299 217.6 244.999 217.3 244.699C215.8 243.199 214 242.199 212.3 241.699C210 240.999 207.6 241.399 206.1 242.899ZM217.1 250.999C217.2 251.399 217.2 251.899 217.1 252.499C217 252.899 216.9 253.199 216.6 253.499C216.3 253.799 215.9 253.899 215.5 253.999C215 254.099 214.4 253.999 214.1 253.999C212.8 253.699 211.4 252.899 210.2 251.799C209.1 250.699 208.3 249.299 208 247.899C207.9 247.299 207.8 246.099 208.5 245.399C208.9 244.999 209.6 244.799 210.1 244.799C210.4 244.799 210.7 244.799 211 244.899C212.3 245.199 213.7 245.999 214.9 247.099C216.1 248.199 216.8 249.699 217.1 250.999Z" fill="#CA1010"/>
<path d="M267.9 256.2C267.2 255.8 266.4 255.9 265.8 256.5C263.7 258.5 260.9 259.8 257.8 259.8C257.6 259.8 257.5 259.8 257.3 259.8H256.7C255.3 259.7 254.1 261 254.3 262.4L254.4 262.9C254.5 263.4 254.5 264 254.5 264.5C254.5 271.1 249.1 276.5 242.5 276.5C240.8 276.5 239.2 276.1 237.7 275.5C237.1 275.2 236.5 274.9 236 274.5C235.2 274 234.2 274 233.4 274.5C232.8 274.9 232.3 275.2 231.7 275.5C230.2 276.1 228.6 276.5 226.9 276.5C220.3 276.5 214.9 271.1 214.9 264.5C214.9 264 214.9 263.4 215 262.9L215.1 262.4C215.3 261 214.1 259.7 212.7 259.8H212.1C211.9 259.8 211.8 259.8 211.6 259.8C205.3 259.8 200.2 254.7 200.2 248.4C200.2 242.8 204.2 238.2 209.5 237.2C209.6 237.2 209.9 237.2 210.2 237.1C211.6 237 212.6 235.7 212.3 234.3C212.2 234 212.2 233.8 212.2 233.5C212.1 233 212.1 232.5 212.1 232C212.1 230.5 212.4 229.1 212.9 227.9C214.5 223.9 218.4 221.1 223 221.1C225.9 221.1 228.5 222.2 230.5 224.1L234.2 227.8C234.5 228.1 235.1 228.1 235.4 227.8L238.7 224.5L239.1 224.1C241.1 222.2 243.7 221.1 246.6 221.1C251.1 221.1 255 223.9 256.7 227.9C257.2 229.2 257.5 230.6 257.5 232C257.5 232.5 257.5 233 257.4 233.5C257.4 233.8 257.3 234 257.3 234.3C257 235.7 258 237 259.4 237.1C260.7 237.2 262.4 236.7 263.1 235.5C263.4 235 263.2 234.4 262.6 234.2C262.4 234.1 262.2 234.1 262 234C261.4 233.8 261 233.3 261 232.6C261 232.4 261 232.1 261 231.9C261 230.5 260.8 229.1 260.4 227.8C258.6 221.9 253.1 217.5 246.6 217.5C246.2 217.5 245.9 217.5 245.6 217.6C241.8 217.9 238.3 219.6 235.9 222.3C235.8 222.4 235.8 222.4 235.7 222.5C235.2 222.9 234.5 222.9 234 222.5C233.9 222.4 233.9 222.4 233.8 222.3C231.4 219.6 228 217.8 224.1 217.6C223.8 217.6 223.4 217.5 223.1 217.5C216.6 217.5 211.1 221.8 209.3 227.8C208.9 229.1 208.7 230.5 208.7 231.9C208.7 232.1 208.7 232.3 208.7 232.5C208.7 233.1 208.3 233.7 207.7 233.9C201.4 235.7 196.8 241.4 196.8 248.2C196.8 256.3 203.4 263 211.5 263.1C211.5 263.5 211.4 263.9 211.4 264.3C211.4 272.8 218.3 279.8 226.9 279.8C229.5 279.8 231.9 279.1 234.1 278C234.5 277.8 235 277.8 235.5 278C237.6 279.1 240.1 279.8 242.7 279.8C251.2 279.8 258.2 272.9 258.2 264.3C258.2 263.9 258.2 263.5 258.1 263.1C262.1 263 265.7 261.4 268.4 258.8C269.1 258.1 268.9 256.7 267.9 256.2Z" fill="#CA1010"/>
<path d="M265.1 239.699C266.1 240.599 267 241.599 267.7 242.799C268.1 243.499 268.9 243.899 269.7 243.699C270.8 243.399 271.3 242.099 270.8 241.099C269.9 239.499 268.8 238.199 267.4 236.999C266.6 236.299 265.3 236.499 264.7 237.399C264.2 238.199 264.4 239.099 265.1 239.699Z" fill="#CA1010"/>
<path d="M272.6 247.3C272.5 246.2 271.5 245.5 270.4 245.8H270.3C269.5 246 269 246.8 269 247.6C269 247.8 269 248.1 269 248.3C269 249.6 268.8 250.9 268.4 252C268.1 252.8 268.4 253.7 269.1 254.1C270 254.6 271.2 254.2 271.6 253.2C272.2 251.6 272.5 250 272.5 248.2C272.7 248 272.7 247.7 272.6 247.3Z" fill="#CA1010"/>
<path d="M216.8 238.3C217.3 239.8 218.1 241.1 218.9 242.2C219.9 243.5 221.1 244.4 222.4 245C223.3 245.4 224.2 245.6 225.1 245.6C225.5 245.6 225.8 245.6 226.2 245.5C226.4 245.5 226.5 245.4 226.7 245.4C228.8 244.8 230.5 243.1 231.3 240.7C231.5 240 231.7 239.2 231.8 238.4C232 236.7 231.9 234.9 231.4 233.2C230.8 231.1 229.9 229.4 228.7 228C226.6 225.6 223.8 224.4 221.1 225.1C219.5 225.5 218.2 226.6 217.3 228C216.3 229.7 215.7 231.8 215.8 234.2C215.8 235.2 216 236.2 216.3 237.2C216.6 237.6 216.7 237.9 216.8 238.3ZM222.2 228.4C222.4 228.3 222.6 228.3 222.9 228.3C225 228.3 227.3 230.7 228.2 234C228.7 235.9 228.7 237.9 228.2 239.4C227.9 240.2 227.3 241.5 226 241.9C225.8 242 225.5 242 225.2 242C223.1 241.9 220.9 239.5 220 236.3C220 236.2 219.9 236.1 219.9 236C219 232.4 220 229 222.2 228.4Z" fill="#CA1010"/>
<path d="M242.8 245.3C242.9 245.3 243.1 245.4 243.2 245.4C243.6 245.5 244 245.5 244.4 245.5C245.3 245.5 246.1 245.3 246.9 245C248.2 244.5 249.5 243.5 250.6 242.2C251.5 241.1 252.2 239.7 252.8 238.2C252.9 237.9 253 237.5 253.1 237.2C253.4 236.2 253.5 235.1 253.6 234.1C253.7 232.5 253.5 231 253 229.7C252.8 229 252.5 228.5 252.1 227.9C251.2 226.4 249.9 225.4 248.3 225C246.2 224.4 243.9 225.1 241.9 226.7C241.5 227.1 241.1 227.5 240.7 227.9C239.5 229.3 238.5 231.1 238 233.1C237.5 234.9 237.4 236.6 237.6 238.3C237.7 239.1 237.9 239.9 238.1 240.6C239.1 243 240.8 244.7 242.8 245.3ZM241.5 234.1C242 232.2 243 230.5 244.3 229.5C244.8 229.1 245.8 228.4 246.8 228.4C247 228.4 247.2 228.4 247.5 228.5C248.8 228.9 249.5 230.2 249.7 231C250.2 232.4 250.2 234.2 249.8 236C249.8 236.1 249.8 236.3 249.7 236.4C248.8 239.7 246.5 242.2 244.4 242.1C244.2 242.1 244 242.1 243.8 242C242.5 241.6 241.8 240.3 241.6 239.5C241 237.9 241 235.9 241.5 234.1Z" fill="#CA1010"/>
<path d="M259.7 241.4C258.9 241.4 258.1 241.5 257.3 241.7C255.6 242.2 253.8 243.2 252.3 244.7C252 245 251.7 245.3 251.5 245.6C250.2 247.1 249.4 248.8 249.1 250.4C248.8 252 249 253.6 249.7 254.8C249.9 255.2 250.2 255.6 250.5 255.9C250.9 256.3 251.3 256.6 251.8 256.8C252.6 257.2 253.6 257.5 254.6 257.5C255.1 257.5 255.7 257.4 256.3 257.3C258.2 256.9 260.1 255.8 261.8 254.2C262.1 253.9 262.4 253.5 262.7 253.2C263.2 252.6 263.6 251.9 264 251.3C264.7 250 265.1 248.6 265.1 247.3C265.1 246.5 265 245.7 264.7 245C264.4 244.3 264 243.6 263.5 243C263.1 242.6 262.6 242.2 262 242C261.3 241.6 260.5 241.4 259.7 241.4ZM261.5 247.9C261.2 249.2 260.4 250.6 259.3 251.8C257.4 253.7 255.2 254.3 253.8 254C253.5 253.9 253.2 253.8 252.9 253.6C252.7 253.4 252.5 253.1 252.4 252.8C252.2 252.2 252.3 251.6 252.4 251.2C252.7 249.9 253.5 248.5 254.6 247.3C255.7 246.1 257.1 245.4 258.5 245.1C258.7 245.1 259 245 259.4 245C260 245 260.6 245.1 261 245.6C261.7 246.1 261.6 247.3 261.5 247.9Z" fill="#CA1010"/>
<path d="M205.7 218.801H207.5H211.7C214.8 216.201 218.7 214.601 222.9 214.601C223.3 214.601 223.6 214.601 224 214.701C223.2 213.601 221.9 212.801 220.4 212.801H216.2H205.6C203.9 212.801 202.6 214.101 202.6 215.801C202.6 217.501 204.1 218.801 205.7 218.801Z" fill="#CA1010"/>
<path d="M138.7 247.999H190.8H193.8C193.8 245.899 194.3 243.899 195 241.999H191.8H140.3V203.199C140.3 201.499 139 200.199 137.3 200.199C135.6 200.199 134.3 201.499 134.3 203.199V243.599C134.3 246.099 136.3 247.999 138.7 247.999Z" fill="#CA1010"/>
<path d="M195.7 256.4H192.4H128.3C126.9 256.4 125.8 255.3 125.8 253.9V120C125.8 118.6 126.9 117.5 128.3 117.5H232C233.4 117.5 234.5 118.6 234.5 120V215.2V219C234.6 219.1 234.7 219.2 234.8 219.3C236.5 217.8 238.4 216.6 240.5 215.8V212.6V120C240.5 115.3 236.7 111.5 232 111.5H128.3C123.6 111.5 119.8 115.3 119.8 120V253.9C119.8 258.6 123.6 262.4 128.3 262.4H196.2H200.6C198.5 260.7 196.9 258.7 195.7 256.4Z" fill="#CA1010"/>
</svg>
