<svg width="14" height="13" viewBox="0 0 14 13" fill="none" xmlns="http://www.w3.org/2000/svg">
<path d="M14 9.99216C14 8.10588 12.6846 7.08628 11.2752 7.08628C10.4295 7.08628 10.3356 6.47451 10.5235 5.50588C10.8523 3.82353 12.2617 1.88627 13.7181 0.866665L12.8725 0C10.1007 1.58039 7.98658 5.04706 7.98658 8.87059C7.98658 11.2157 9.34899 13 11.2282 13C12.6846 13 14 11.8784 14 9.99216ZM6.01342 9.99216C6.01342 8.10588 4.69799 7.08628 3.28859 7.08628C2.44295 7.08628 2.34899 6.47451 2.53691 5.50588C2.86577 3.82353 4.27517 1.88627 5.73154 0.866665L4.88591 0C2.11409 1.58039 0 5.04706 0 8.87059C0 11.2157 1.36242 13 3.24161 13C4.69799 13 6.01342 11.8784 6.01342 9.99216Z" fill="#DA1212"/>
</svg>
