<svg width="375" height="375" viewBox="0 0 375 375" fill="none" xmlns="http://www.w3.org/2000/svg">
<path d="M187.1 374.2C290.432 374.2 374.2 290.432 374.2 187.1C374.2 83.7675 290.432 0 187.1 0C83.7675 0 0 83.7675 0 187.1C0 290.432 83.7675 374.2 187.1 374.2Z" fill="white"/>
<path d="M279.8 207.4L276.3 196.8L274.3 190.8L271.6 182.6L269.6 176.6L267.2 169.4C267.2 167.8 265.9 166.6 264.4 166.6H225.9V146.4C225.9 144.8 224.6 143.6 223.1 143.6H164.7C160.2 128.9 146.5 118.1 130.3 118.1C110.5 118.1 94.4004 134.2 94.4004 154C94.4004 169.7 104.5 183.1 118.5 187.9V209.9V237.7C118.5 239.3 119.8 240.5 121.3 240.5H141.2C142.8 249.3 150.5 256.1 159.8 256.1C169.1 256.1 176.8 249.4 178.4 240.5H220.5C222.1 249.3 229.8 256.1 239.1 256.1C248.4 256.1 256.1 249.4 257.7 240.5H277.1C278.7 240.5 279.9 239.2 279.9 237.7V208.3C279.9 208 279.9 207.7 279.8 207.4ZM268 190.8H246.8V182.6H265.3L268 190.8ZM163.9 166.5C165.4 162.6 166.2 158.3 166.2 153.9C166.2 152.4 166.1 150.9 165.9 149.5H219.9V166.5V172.5V206.6H124.5V189.4C126.4 189.7 128.3 189.9 130.3 189.9C143.3 189.9 154.7 183 161 172.6C162.2 170.7 163.2 168.6 163.9 166.5ZM118.5 181.5C107.8 176.9 100.4 166.3 100.4 154C100.4 137.5 113.8 124.1 130.3 124.1C143.1 124.1 154.1 132.2 158.3 143.6C159 145.5 159.5 147.5 159.9 149.6C160.1 151.1 160.2 152.5 160.2 154C160.2 158.5 159.2 162.8 157.4 166.6C156.4 168.8 155.1 170.8 153.7 172.6C148.2 179.5 139.8 183.9 130.3 183.9C128.3 183.9 126.4 183.7 124.5 183.3C122.4 182.9 120.4 182.3 118.5 181.5ZM172.2 240.5C170.7 246 165.7 250.1 159.7 250.1C153.7 250.1 148.7 246 147.2 240.5C146.9 239.4 146.7 238.3 146.7 237.2C146.7 236.3 146.8 235.4 147 234.5C148.2 228.7 153.4 224.3 159.6 224.3C165.8 224.3 171 228.7 172.2 234.5C172.4 235.4 172.5 236.3 172.5 237.2C172.7 238.3 172.5 239.4 172.2 240.5ZM251.6 240.5C250.1 246 245.1 250.1 239.1 250.1C233.1 250.1 228.1 246 226.6 240.5C226.3 239.4 226.1 238.3 226.1 237.2C226.1 236.3 226.2 235.4 226.4 234.5C227.6 228.7 232.8 224.3 239 224.3C245.2 224.3 250.4 228.7 251.6 234.5C251.8 235.4 251.9 236.3 251.9 237.2C252 238.3 251.9 239.4 251.6 240.5ZM273.9 234.5H257.8C256.5 225.3 248.6 218.3 239.1 218.3C229.6 218.3 221.7 225.4 220.4 234.5H178.5C177.2 225.3 169.3 218.3 159.8 218.3C150.3 218.3 142.4 225.4 141.1 234.5H124.5V212.7H223.1C224.7 212.7 225.9 211.4 225.9 209.9V172.6H262L263.3 176.6H243.6C242 176.6 240.8 177.9 240.8 179.4V194C240.8 195.6 242.1 196.8 243.6 196.8H269.9L273.9 208.8V234.5V234.5Z" fill="#CA1010"/>
<path d="M130.3 173.8C132 173.8 133.3 172.5 133.3 170.8V153L147.3 143.2C148.7 142.3 149 140.4 148 139C147.1 137.6 145.2 137.3 143.8 138.3L128.5 149C128.4 149 128.4 149.1 128.3 149.1C128.2 149.2 128.1 149.3 128 149.3C127.9 149.4 127.9 149.4 127.8 149.5C127.7 149.6 127.7 149.7 127.6 149.7C127.5 149.8 127.5 149.9 127.5 150C127.5 150.1 127.4 150.2 127.4 150.3C127.4 150.4 127.3 150.5 127.3 150.6C127.3 150.7 127.2 150.8 127.2 150.9C127.2 151 127.2 151.1 127.2 151.3C127.2 151.4 127.2 151.4 127.2 151.5V170.8C127.3 172.4 128.6 173.8 130.3 173.8Z" fill="#CA1010"/>
</svg>
