<svg width="280" height="280" viewBox="0 0 280 280" fill="none" xmlns="http://www.w3.org/2000/svg">
<path d="M140 280C217.32 280 280 217.32 280 140C280 62.6801 217.32 0 140 0C62.6801 0 0 62.6801 0 140C0 217.32 62.6801 280 140 280Z" fill="white"/>
<path d="M209.364 155.189L206.745 147.257L205.249 142.768L203.229 136.632L201.732 132.143L199.936 126.755C199.936 125.558 198.964 124.66 197.841 124.66H169.033V109.545C169.033 108.348 168.06 107.45 166.938 107.45H123.239C119.872 96.4504 109.621 88.3691 97.4991 88.3691C82.6835 88.3691 70.6365 100.416 70.6365 115.232C70.6365 126.98 78.1939 137.006 88.6696 140.598V157.06V177.861C88.6696 179.059 89.6423 179.957 90.7647 179.957H105.655C106.852 186.541 112.614 191.629 119.573 191.629C126.532 191.629 132.293 186.616 133.491 179.957H164.992C166.19 186.541 171.951 191.629 178.91 191.629C185.869 191.629 191.631 186.616 192.828 179.957H207.344C208.541 179.957 209.439 178.984 209.439 177.861V155.862C209.439 155.638 209.439 155.414 209.364 155.189ZM200.535 142.768H184.672V136.632H198.515L200.535 142.768ZM122.641 124.585C123.763 121.667 124.362 118.449 124.362 115.157C124.362 114.035 124.287 112.912 124.137 111.865H164.543V124.585V129.075V154.59H93.1592V141.72C94.5809 141.945 96.0026 142.094 97.4991 142.094C107.227 142.094 115.757 136.931 120.471 129.149C121.369 127.728 122.117 126.156 122.641 124.585ZM88.6696 135.809C80.6632 132.367 75.1261 124.435 75.1261 115.232C75.1261 102.885 85.1528 92.8587 97.4991 92.8587C107.077 92.8587 115.308 98.9196 118.45 107.45C118.974 108.872 119.348 110.368 119.648 111.939C119.797 113.062 119.872 114.109 119.872 115.232C119.872 118.599 119.124 121.817 117.777 124.66C117.029 126.306 116.056 127.803 115.008 129.149C110.893 134.312 104.608 137.605 97.4991 137.605C96.0026 137.605 94.5809 137.455 93.1592 137.156C91.5878 136.857 90.0913 136.408 88.6696 135.809ZM128.851 179.957C127.729 184.072 123.988 187.14 119.498 187.14C115.008 187.14 111.267 184.072 110.145 179.957C109.92 179.133 109.771 178.31 109.771 177.487C109.771 176.814 109.845 176.14 109.995 175.467C110.893 171.127 114.784 167.835 119.423 167.835C124.062 167.835 127.953 171.127 128.851 175.467C129.001 176.14 129.076 176.814 129.076 177.487C129.225 178.31 129.076 179.133 128.851 179.957ZM188.263 179.957C187.141 184.072 183.4 187.14 178.91 187.14C174.421 187.14 170.679 184.072 169.557 179.957C169.332 179.133 169.183 178.31 169.183 177.487C169.183 176.814 169.258 176.14 169.407 175.467C170.305 171.127 174.196 167.835 178.835 167.835C183.475 167.835 187.365 171.127 188.263 175.467C188.413 176.14 188.488 176.814 188.488 177.487C188.563 178.31 188.488 179.133 188.263 179.957ZM204.95 175.467H192.903C191.93 168.583 186.019 163.345 178.91 163.345C171.802 163.345 165.89 168.658 164.918 175.467H133.565C132.593 168.583 126.681 163.345 119.573 163.345C112.464 163.345 106.553 168.658 105.58 175.467H93.1592V159.155H166.938C168.135 159.155 169.033 158.182 169.033 157.06V129.149H196.045L197.018 132.143H182.277C181.08 132.143 180.182 133.115 180.182 134.238V145.162C180.182 146.36 181.155 147.257 182.277 147.257H201.957L204.95 156.237V175.467V175.467Z" fill="#CA1010"/>
<path d="M97.4988 130.047C98.7709 130.047 99.7436 129.074 99.7436 127.802V114.483L110.219 107.15C111.267 106.477 111.491 105.055 110.743 104.007C110.07 102.96 108.648 102.735 107.6 103.484L96.1519 111.49C96.0771 111.49 96.0771 111.565 96.0023 111.565C95.9275 111.64 95.8526 111.714 95.7778 111.714C95.703 111.789 95.703 111.789 95.6282 111.864C95.5533 111.939 95.5533 112.014 95.4785 112.014C95.4037 112.089 95.4037 112.163 95.4037 112.238C95.4037 112.313 95.3289 112.388 95.3289 112.463C95.3289 112.538 95.254 112.612 95.254 112.687C95.254 112.762 95.1792 112.837 95.1792 112.912C95.1792 112.987 95.1792 113.061 95.1792 113.211C95.1792 113.286 95.1792 113.286 95.1792 113.361V127.802C95.254 128.999 96.2268 130.047 97.4988 130.047Z" fill="#CA1010"/>
</svg>
