<svg width="280" height="280" viewBox="0 0 280 280" fill="none" xmlns="http://www.w3.org/2000/svg">
<path d="M140 280C217.32 280 280 217.32 280 140C280 62.6801 217.32 0 140 0C62.6801 0 0 62.6801 0 140C0 217.32 62.6801 280 140 280Z" fill="white"/>
<path d="M123.688 100.79C123.688 100.192 123.239 99.7428 122.715 99.7428C122.266 99.7428 121.743 99.668 121.219 99.668C120.545 99.668 119.872 99.668 119.198 99.7428C107.151 100.79 97.873 111.416 98.9954 123.987C99.8933 134.687 108.573 143.292 119.273 144.264C131.769 145.387 142.395 136.108 143.517 124.061C143.592 123.388 143.592 122.714 143.592 122.041C143.592 121.592 143.592 121.068 143.517 120.619C143.517 120.021 142.993 119.647 142.469 119.647H138.953H123.763V104.382V100.79H123.688ZM138.953 124.061C137.905 133.489 129.375 140.673 119.498 139.775C111.042 138.952 104.233 132.143 103.485 123.687C102.587 113.81 109.77 105.28 119.198 104.232V122.939C119.198 123.538 119.647 123.987 120.246 123.987H138.953V124.061Z" fill="#CA1010"/>
<path d="M167.162 98.6973H155.414C154.142 98.6973 153.169 99.67 153.169 100.942C153.169 102.214 154.142 103.187 155.414 103.187H167.162C168.434 103.187 169.407 102.214 169.407 100.942C169.407 99.67 168.359 98.6973 167.162 98.6973Z" fill="#CA1010"/>
<path d="M167.162 108.799H155.414C154.142 108.799 153.169 109.772 153.169 111.044C153.169 112.316 154.142 113.288 155.414 113.288H167.162C168.434 113.288 169.407 112.316 169.407 111.044C169.407 109.772 168.359 108.799 167.162 108.799Z" fill="#CA1010"/>
<path d="M167.162 121.967H152.496C151.224 121.967 150.251 122.94 150.251 124.212C150.251 125.484 151.224 126.456 152.496 126.456H167.162C168.434 126.456 169.407 125.484 169.407 124.212C169.407 122.94 168.359 121.967 167.162 121.967Z" fill="#CA1010"/>
<path d="M169.407 134.538C169.407 133.266 168.434 132.293 167.162 132.293H152.496C151.224 132.293 150.251 133.266 150.251 134.538C150.251 135.81 151.224 136.783 152.496 136.783H167.162C168.359 136.783 169.407 135.735 169.407 134.538Z" fill="#CA1010"/>
<path d="M116.43 151.822C115.158 151.822 114.185 152.795 114.185 154.067C114.185 155.339 115.158 156.312 116.43 156.312H133.041C134.313 156.312 135.286 155.339 135.286 154.067C135.286 152.795 134.313 151.822 133.041 151.822H116.43Z" fill="#CA1010"/>
<path d="M162.224 151.972C163.496 151.972 164.468 150.999 164.468 149.727C164.468 148.455 163.496 147.482 162.224 147.482H150.476C149.428 147.482 148.456 148.006 147.782 148.829L134.089 167.536L125.634 161.924C124.436 161.101 122.79 161.176 121.668 162.148L109.695 172.175C108.723 172.998 108.648 174.42 109.396 175.318C109.845 175.842 110.444 176.141 111.117 176.141C111.641 176.141 112.165 175.991 112.539 175.617L123.838 166.114L132.518 171.876C134.014 172.849 135.96 172.474 137.007 171.053L151 151.897H162.224V151.972Z" fill="#CA1010"/>
<path d="M136.109 112.987C134.912 112.987 133.789 113.885 133.715 115.082C133.64 116.354 134.687 117.477 135.959 117.477H145.313H145.612H149.129C149.727 117.477 150.176 117.028 150.176 116.429V115.456C150.176 114.633 150.102 113.81 150.027 112.987C148.904 102.511 140.524 94.2058 129.973 93.233C129.225 93.1582 128.552 93.1582 127.803 93.1582C127.354 93.1582 126.905 93.1582 126.531 93.233C125.933 93.233 125.559 93.7568 125.559 94.2806V97.0492V97.7974V106.178C125.559 107.375 126.457 108.498 127.654 108.572C128.926 108.647 130.048 107.6 130.048 106.328V97.7974C138.055 98.7702 144.49 105.056 145.537 113.062H145.313H136.109V112.987Z" fill="#CA1010"/>
<path d="M170.08 203.902C170.604 203.902 171.053 203.827 171.502 203.752C172.4 203.602 173.223 203.228 173.971 202.779C174.57 202.405 175.094 201.881 175.617 201.358C176.066 201.956 176.665 202.405 177.264 202.779C178.012 203.228 178.835 203.602 179.733 203.752C181.08 203.976 182.501 203.902 183.998 203.228C186.467 202.031 188.188 199.711 188.263 197.018C188.263 196.644 188.263 196.344 188.263 195.97C187.964 192.977 185.794 190.508 182.876 189.76C182.876 189.535 182.876 189.311 182.876 189.086C182.801 188.113 182.501 187.215 182.053 186.392C181.978 186.243 181.903 186.093 181.828 185.943C180.556 183.923 178.311 182.576 175.767 182.576C173.148 182.576 170.829 183.998 169.557 186.093C169.482 186.168 169.482 186.243 169.407 186.392C168.958 187.215 168.659 188.113 168.584 189.086C168.584 189.311 168.584 189.535 168.584 189.76C165.591 190.433 163.346 192.977 163.047 196.045C163.047 196.269 163.047 196.494 163.047 196.718C162.897 200.609 166.189 203.902 170.08 203.902ZM168.958 192.229C169.332 192.154 169.706 192.079 170.08 192.079C170.155 192.079 170.155 192.079 170.23 192.079C170.978 192.154 171.577 191.48 171.352 190.732C171.203 190.283 171.128 189.909 171.128 189.61C171.128 189.535 171.128 189.535 171.128 189.46C171.128 189.311 171.128 189.086 171.203 188.936C171.352 187.964 171.727 187.141 172.4 186.467C173.223 185.569 174.42 184.971 175.767 184.971C177.114 184.971 178.236 185.569 179.134 186.392C179.733 187.066 180.182 187.889 180.332 188.862C180.332 189.011 180.406 189.236 180.406 189.385C180.406 189.46 180.406 189.46 180.406 189.535C180.406 189.834 180.257 190.283 180.107 190.732C179.883 191.406 180.406 192.004 181.08 192.004C181.155 192.004 181.155 192.004 181.229 192.004C181.678 192.004 182.127 192.079 182.501 192.154C184.372 192.678 185.794 194.474 185.794 196.569C185.794 199.113 183.774 201.133 181.229 201.133C181.155 201.133 181.08 201.133 181.005 201.133C180.107 201.058 179.209 200.759 178.536 200.235C177.937 199.786 177.488 199.262 177.189 198.589C176.89 197.99 174.645 197.99 174.42 198.589C174.121 199.188 173.672 199.786 173.148 200.16C172.475 200.684 171.577 201.058 170.679 201.133C170.604 201.133 170.454 201.133 170.38 201.133C167.836 201.133 165.815 199.113 165.815 196.569C165.516 194.548 167.012 192.753 168.958 192.229Z" fill="#CA1010"/>
<path d="M154.217 181.753C152.197 183.774 152.796 187.44 155.489 190.209C156.686 191.406 158.108 192.229 159.53 192.528C159.979 192.603 160.428 192.678 160.877 192.678C161.55 192.678 162.224 192.528 162.822 192.229C163.196 192.005 163.645 191.78 163.945 191.481C164.244 191.181 164.468 190.882 164.618 190.583C165.142 189.685 165.217 188.488 164.992 187.365C164.768 186.168 164.169 184.896 163.196 183.774C162.972 183.549 162.822 183.325 162.598 183.1C161.475 181.978 160.128 181.23 158.856 180.855C157.135 180.332 155.34 180.631 154.217 181.753ZM162.448 187.814C162.523 188.114 162.523 188.488 162.448 188.937C162.373 189.236 162.298 189.46 162.074 189.685C161.849 189.909 161.55 189.984 161.251 190.059C160.877 190.134 160.428 190.059 160.203 190.059C159.231 189.835 158.183 189.236 157.285 188.413C156.462 187.59 155.863 186.542 155.639 185.495C155.564 185.046 155.489 184.148 156.013 183.624C156.312 183.325 156.836 183.175 157.21 183.175C157.435 183.175 157.659 183.175 157.884 183.25C158.856 183.474 159.904 184.073 160.802 184.896C161.7 185.719 162.224 186.842 162.448 187.814Z" fill="#CA1010"/>
<path d="M200.46 191.706C199.936 191.407 199.337 191.481 198.888 191.93C197.317 193.427 195.222 194.4 192.902 194.4C192.753 194.4 192.678 194.4 192.528 194.4H192.079C191.032 194.325 190.134 195.297 190.283 196.345L190.358 196.719C190.433 197.093 190.433 197.542 190.433 197.916C190.433 202.855 186.392 206.896 181.454 206.896C180.182 206.896 178.985 206.596 177.862 206.147C177.413 205.923 176.964 205.698 176.59 205.399C175.992 205.025 175.243 205.025 174.645 205.399C174.196 205.698 173.822 205.923 173.373 206.147C172.25 206.596 171.053 206.896 169.781 206.896C164.842 206.896 160.802 202.855 160.802 197.916C160.802 197.542 160.802 197.093 160.877 196.719L160.952 196.345C161.101 195.297 160.203 194.325 159.156 194.4H158.707C158.557 194.4 158.482 194.4 158.333 194.4C153.619 194.4 149.802 190.583 149.802 185.869C149.802 181.679 152.795 178.237 156.761 177.489C156.836 177.489 157.061 177.489 157.285 177.414C158.333 177.339 159.081 176.366 158.856 175.319C158.782 175.094 158.782 174.945 158.782 174.72C158.707 174.346 158.707 173.972 158.707 173.598C158.707 172.475 158.931 171.428 159.305 170.53C160.503 167.537 163.421 165.442 166.863 165.442C169.033 165.442 170.978 166.265 172.475 167.687L175.243 170.455C175.468 170.68 175.917 170.68 176.141 170.455L178.611 167.986L178.91 167.687C180.406 166.265 182.352 165.442 184.522 165.442C187.889 165.442 190.807 167.537 192.079 170.53C192.453 171.503 192.678 172.55 192.678 173.598C192.678 173.972 192.678 174.346 192.603 174.72C192.603 174.945 192.528 175.094 192.528 175.319C192.304 176.366 193.052 177.339 194.1 177.414C195.072 177.489 196.344 177.115 196.868 176.217C197.093 175.843 196.943 175.394 196.494 175.244C196.344 175.169 196.195 175.169 196.045 175.094C195.596 174.945 195.297 174.571 195.297 174.047C195.297 173.897 195.297 173.673 195.297 173.523C195.297 172.475 195.147 171.428 194.848 170.455C193.501 166.04 189.385 162.748 184.522 162.748C184.222 162.748 183.998 162.748 183.774 162.823C180.93 163.047 178.311 164.319 176.515 166.34C176.441 166.415 176.441 166.415 176.366 166.489C175.992 166.789 175.468 166.789 175.094 166.489C175.019 166.415 175.019 166.415 174.944 166.34C173.148 164.319 170.604 162.973 167.686 162.823C167.461 162.823 167.162 162.748 166.938 162.748C162.074 162.748 157.958 165.966 156.612 170.455C156.312 171.428 156.163 172.475 156.163 173.523C156.163 173.673 156.163 173.822 156.163 173.972C156.163 174.421 155.863 174.87 155.414 175.02C150.7 176.366 147.258 180.632 147.258 185.72C147.258 191.781 152.197 196.794 158.258 196.869C158.258 197.168 158.183 197.467 158.183 197.767C158.183 204.127 163.346 209.365 169.781 209.365C171.727 209.365 173.522 208.841 175.168 208.018C175.468 207.868 175.842 207.868 176.216 208.018C177.787 208.841 179.658 209.365 181.604 209.365C187.964 209.365 193.202 204.202 193.202 197.767C193.202 197.467 193.202 197.168 193.127 196.869C196.12 196.794 198.814 195.597 200.834 193.651C201.358 193.128 201.208 192.08 200.46 191.706Z" fill="#CA1010"/>
<path d="M198.365 179.359C199.113 180.032 199.786 180.78 200.31 181.678C200.61 182.202 201.208 182.501 201.807 182.352C202.63 182.127 203.004 181.155 202.63 180.406C201.956 179.209 201.133 178.236 200.086 177.338C199.487 176.815 198.514 176.964 198.065 177.638C197.691 178.236 197.841 178.91 198.365 179.359Z" fill="#CA1010"/>
<path d="M203.977 185.046C203.902 184.223 203.154 183.699 202.331 183.923H202.256C201.657 184.073 201.283 184.672 201.283 185.27C201.283 185.42 201.283 185.644 201.283 185.794C201.283 186.767 201.133 187.739 200.834 188.562C200.61 189.161 200.834 189.835 201.358 190.134C202.031 190.508 202.929 190.209 203.228 189.46C203.677 188.263 203.902 187.066 203.902 185.719C204.052 185.569 204.052 185.345 203.977 185.046Z" fill="#CA1010"/>
<path d="M162.224 178.312C162.598 179.435 163.196 180.407 163.795 181.231C164.543 182.203 165.441 182.877 166.414 183.326C167.087 183.625 167.761 183.775 168.434 183.775C168.734 183.775 168.958 183.775 169.257 183.7C169.407 183.7 169.482 183.625 169.631 183.625C171.203 183.176 172.475 181.904 173.073 180.108C173.223 179.584 173.373 178.986 173.448 178.387C173.597 177.115 173.522 175.768 173.148 174.496C172.699 172.925 172.026 171.653 171.128 170.605C169.557 168.809 167.461 167.912 165.441 168.435C164.244 168.735 163.271 169.558 162.598 170.605C161.85 171.877 161.401 173.449 161.475 175.244C161.475 175.993 161.625 176.741 161.85 177.489C162.074 177.789 162.149 178.013 162.224 178.312ZM166.264 170.905C166.414 170.83 166.564 170.83 166.788 170.83C168.359 170.83 170.08 172.626 170.754 175.095C171.128 176.517 171.128 178.013 170.754 179.135C170.529 179.734 170.08 180.707 169.108 181.006C168.958 181.081 168.734 181.081 168.509 181.081C166.938 181.006 165.292 179.21 164.618 176.816C164.618 176.741 164.543 176.666 164.543 176.591C163.87 173.898 164.618 171.354 166.264 170.905Z" fill="#CA1010"/>
<path d="M181.678 183.548C181.753 183.548 181.903 183.623 181.978 183.623C182.277 183.698 182.576 183.698 182.876 183.698C183.549 183.698 184.148 183.548 184.746 183.324C185.719 182.95 186.692 182.201 187.515 181.229C188.188 180.406 188.712 179.358 189.161 178.236C189.236 178.011 189.311 177.712 189.385 177.487C189.61 176.739 189.685 175.916 189.76 175.168C189.834 173.97 189.685 172.848 189.311 171.875C189.161 171.352 188.936 170.977 188.637 170.528C187.964 169.406 186.991 168.658 185.794 168.359C184.222 167.91 182.501 168.433 181.005 169.631C180.706 169.93 180.406 170.229 180.107 170.528C179.209 171.576 178.461 172.923 178.087 174.419C177.713 175.766 177.638 177.038 177.787 178.31C177.862 178.909 178.012 179.508 178.161 180.031C178.91 181.827 180.182 183.099 181.678 183.548ZM180.706 175.168C181.08 173.746 181.828 172.474 182.801 171.726C183.175 171.426 183.923 170.903 184.671 170.903C184.821 170.903 184.971 170.903 185.195 170.977C186.168 171.277 186.692 172.249 186.841 172.848C187.215 173.896 187.215 175.243 186.916 176.589C186.916 176.664 186.916 176.814 186.841 176.889C186.168 179.358 184.447 181.229 182.876 181.154C182.726 181.154 182.576 181.154 182.427 181.079C181.454 180.78 180.93 179.807 180.78 179.208C180.331 178.011 180.331 176.515 180.706 175.168Z" fill="#CA1010"/>
<path d="M194.324 180.631C193.725 180.631 193.127 180.706 192.528 180.855C191.256 181.229 189.909 181.978 188.787 183.1C188.562 183.325 188.338 183.549 188.188 183.774C187.216 184.896 186.617 186.168 186.393 187.365C186.168 188.562 186.318 189.76 186.841 190.658C186.991 190.957 187.216 191.256 187.44 191.481C187.739 191.78 188.039 192.004 188.413 192.154C189.011 192.453 189.76 192.678 190.508 192.678C190.882 192.678 191.331 192.603 191.78 192.528C193.202 192.229 194.623 191.406 195.895 190.209C196.12 189.984 196.344 189.685 196.569 189.46C196.943 189.011 197.242 188.488 197.542 188.039C198.065 187.066 198.365 186.018 198.365 185.046C198.365 184.447 198.29 183.848 198.065 183.325C197.841 182.801 197.542 182.277 197.167 181.828C196.868 181.529 196.494 181.229 196.045 181.08C195.521 180.781 194.923 180.631 194.324 180.631ZM195.671 185.495C195.446 186.467 194.848 187.515 194.025 188.413C192.603 189.834 190.957 190.283 189.909 190.059C189.685 189.984 189.46 189.909 189.236 189.76C189.086 189.61 188.937 189.386 188.862 189.161C188.712 188.712 188.787 188.263 188.862 187.964C189.086 186.991 189.685 185.944 190.508 185.046C191.331 184.148 192.379 183.624 193.426 183.399C193.576 183.399 193.8 183.325 194.1 183.325C194.549 183.325 194.998 183.399 195.297 183.774C195.821 184.148 195.746 185.046 195.671 185.495Z" fill="#CA1010"/>
<path d="M153.918 163.72H155.265H158.408C160.727 161.775 163.645 160.577 166.788 160.577C167.087 160.577 167.312 160.577 167.611 160.652C167.013 159.829 166.04 159.23 164.917 159.23H161.775H153.843C152.571 159.23 151.598 160.203 151.598 161.475C151.598 162.747 152.721 163.72 153.918 163.72Z" fill="#CA1010"/>
<path d="M103.784 185.57H142.769H145.014C145.014 183.998 145.388 182.502 145.911 181.08H143.517H104.982V152.048C104.982 150.775 104.009 149.803 102.737 149.803C101.465 149.803 100.492 150.775 100.492 152.048V182.277C100.492 184.148 101.988 185.57 103.784 185.57Z" fill="#CA1010"/>
<path d="M146.435 191.855H143.966H96.0023C94.9548 191.855 94.1317 191.032 94.1317 189.984V89.7919C94.1317 88.7443 94.9548 87.9212 96.0023 87.9212H173.597C174.645 87.9212 175.468 88.7443 175.468 89.7919V161.026V163.87C175.543 163.945 175.618 164.02 175.692 164.094C176.964 162.972 178.386 162.074 179.957 161.475V159.081V89.7919C179.957 86.275 177.114 83.4316 173.597 83.4316H96.0023C92.4855 83.4316 89.6421 86.275 89.6421 89.7919V189.984C89.6421 193.501 92.4855 196.345 96.0023 196.345H146.809H150.102C148.53 195.072 147.333 193.576 146.435 191.855Z" fill="#CA1010"/>
</svg>
